<svg id="Capa_1" enable-background="new 0 0 510 510" height="512" viewBox="0 0 510 510" width="512" xmlns="http://www.w3.org/2000/svg" xmlns:xlink="http://www.w3.org/1999/xlink"><linearGradient id="lg1"><stop offset="0" stop-color="#edf5ff"/><stop offset="1" stop-color="#d5e8fe"/></linearGradient><linearGradient id="SVGID_1_" gradientUnits="userSpaceOnUse" x1="198.825" x2="346.288" xlink:href="#lg1" y1="86.084" y2="438.299"/><linearGradient id="lg2"><stop offset="0" stop-color="#07485e" stop-opacity="0"/><stop offset=".2708" stop-color="#074459" stop-opacity=".271"/><stop offset=".597" stop-color="#05394a" stop-opacity=".597"/><stop offset=".9505" stop-color="#032632" stop-opacity=".951"/><stop offset="1" stop-color="#03232e"/></linearGradient><linearGradient id="SVGID_2_" gradientUnits="userSpaceOnUse" x1="487.542" x2="309.805" xlink:href="#lg2" y1="372.695" y2="200.247"/><linearGradient id="SVGID_3_" gradientUnits="userSpaceOnUse" x1="479.179" x2="322.839" xlink:href="#lg1" y1="220.258" y2="220.258"/><linearGradient id="SVGID_4_" gradientUnits="userSpaceOnUse" x1="368.843" x2="459.373" xlink:href="#lg1" y1="192.839" y2="244.469"/><linearGradient id="SVGID_5_" gradientUnits="userSpaceOnUse" x1="489.959" x2="397.714" xlink:href="#lg2" y1="281.577" y2="169.263"/><linearGradient id="lg3"><stop offset="0" stop-color="#9ae1d3"/><stop offset="1" stop-color="#80d1c1"/></linearGradient><linearGradient id="SVGID_6_" gradientUnits="userSpaceOnUse" x1="421.717" x2="459.978" xlink:href="#lg3" y1="185.446" y2="276.831"/><linearGradient id="SVGID_7_" gradientUnits="userSpaceOnUse" x1="476.893" x2="428.476" xlink:href="#lg3" y1="220.258" y2="220.258"/><linearGradient id="SVGID_8_" gradientUnits="userSpaceOnUse" x1="80.932" x2="228.395" xlink:href="#lg1" y1="135.443" y2="487.658"/><linearGradient id="SVGID_9_" gradientUnits="userSpaceOnUse" x1="161.921" x2="161.921" xlink:href="#lg2" y1="402.696" y2="518.454"/><g><path d="m416.92 52.287h-323.841c-51.406 0-93.079 75.203-93.079 167.971s41.673 167.971 93.079 167.971h323.841c51.406 0 93.079-75.203 93.079-167.971.001-92.768-41.672-167.971-93.079-167.971z" fill="url(#SVGID_1_)"/><path d="m323.841 388.229h93.079c51.406 0 89.897-75.203 89.897-167.971 0-.046 3.182-.092 3.182-.139l-186.158-.427z" fill="url(#SVGID_2_)"/><ellipse cx="416.921" cy="220.258" fill="url(#SVGID_3_)" rx="93.079" ry="167.971"/><ellipse cx="416.921" cy="220.258" fill="url(#SVGID_4_)" rx="48.086" ry="86.775"/><path d="m457.612 169.3h-42.639c-15.92 0-27.765 22.229-27.765 50.958 0 20.755 5.677 38.665 15.418 47.012l77.044 77.044c18.637-30.715 30.33-74.92 30.33-124.056 0-2.366-.034-4.716-.088-7.058l-36.866-36.866c-4.463-5.118-9.754-7.034-15.434-7.034z" fill="url(#SVGID_5_)"/><g><path d="m457.612 168.239h-42.639c-15.92 0-28.826 23.29-28.826 52.019s12.906 52.019 28.826 52.019h42.639c15.92 0 28.826-23.29 28.826-52.019s-12.906-52.019-28.826-52.019z" fill="url(#SVGID_6_)"/><ellipse cx="457.612" cy="220.258" fill="url(#SVGID_7_)" rx="28.826" ry="52.019"/></g><path d="m0 219.692v215.245c0 12.242 13.685 19.505 23.824 12.645 5.168-3.497 11.943-3.497 17.111-.001l7.644 5.171c9.778 6.615 22.597 6.615 32.375 0l.01-.007c9.779-6.616 22.6-6.615 32.378.002 9.779 6.617 22.602 6.617 32.381 0 9.779-6.616 22.599-6.617 32.378-.002l.008.005c9.779 6.616 22.6 6.615 32.378-.002l.002-.002c9.778-6.616 22.599-6.617 32.378-.002l.01.007c9.778 6.615 22.597 6.615 32.375 0l7.645-5.172c5.167-3.496 11.942-3.496 17.109 0l.011.007c10.139 6.859 23.822-.405 23.822-12.646v-215.248z" fill="url(#SVGID_8_)"/><path d="m0 388.229v46.708c0 12.242 13.685 19.505 23.824 12.645 5.168-3.497 11.943-3.497 17.111-.001l7.644 5.171c9.778 6.615 22.597 6.615 32.375 0l.01-.007c9.779-6.616 22.6-6.615 32.378.002 9.779 6.617 22.602 6.617 32.381 0 9.779-6.616 22.599-6.617 32.378-.002l.008.005c9.779 6.616 22.6 6.615 32.378-.002l.002-.002c9.778-6.616 22.599-6.617 32.378-.002l.01.007c9.778 6.615 22.597 6.615 32.375 0l7.645-5.172c5.167-3.496 11.942-3.496 17.109 0l.011.007c10.139 6.859 23.822-.405 23.822-12.646v-46.712h-323.839z" fill="url(#SVGID_9_)"/></g></svg>