<svg id="Capa_1" enable-background="new 0 0 510 510" height="512" viewBox="0 0 510 510" width="512" xmlns="http://www.w3.org/2000/svg" xmlns:xlink="http://www.w3.org/1999/xlink"><linearGradient id="lg1"><stop offset="0" stop-color="#fce9cb"/><stop offset="1" stop-color="#ffbd95"/></linearGradient><linearGradient id="SVGID_1_" gradientTransform="matrix(.707 .707 -.707 .707 760.482 -311.297)" gradientUnits="userSpaceOnUse" x1="-94.018" x2="94.645" xlink:href="#lg1" y1="661.035" y2="881.312"/><linearGradient id="lg2"><stop offset="0" stop-color="#faa68e" stop-opacity="0"/><stop offset="1" stop-color="#c9766e"/></linearGradient><linearGradient id="SVGID_2_" gradientTransform="matrix(.707 .707 -.707 .707 760.482 -311.297)" gradientUnits="userSpaceOnUse" x1="19.356" x2="19.356" xlink:href="#lg2" y1="785.054" y2="541.309"/><linearGradient id="SVGID_3_" gradientTransform="matrix(.707 .707 -.707 .707 760.482 -311.297)" gradientUnits="userSpaceOnUse" x1="46.819" x2="105.967" xlink:href="#lg2" y1="820.513" y2="688.959"/><linearGradient id="SVGID_4_" gradientTransform="matrix(.707 .707 -.707 .707 135.759 -1857.968)" gradientUnits="userSpaceOnUse" x1="1537.229" x2="1630.314" xlink:href="#lg2" y1="1355.574" y2="1314.801"/><linearGradient id="SVGID_5_" gradientTransform="matrix(.707 .707 -.707 .707 135.759 -1857.968)" gradientUnits="userSpaceOnUse" x1="1474.94" x2="1555.682" xlink:href="#lg2" y1="1370.716" y2="1339.383"/><linearGradient id="SVGID_6_" gradientTransform="matrix(.707 .707 -.707 .707 135.759 -1857.968)" gradientUnits="userSpaceOnUse" x1="1607.366" x2="1702.484" xlink:href="#lg2" y1="1368.878" y2="1331.706"/><linearGradient id="SVGID_7_" gradientTransform="matrix(.707 .707 -.707 .707 135.759 -1857.968)" gradientUnits="userSpaceOnUse" x1="1665.621" x2="1750.721" xlink:href="#lg2" y1="1391.518" y2="1368.309"/><linearGradient id="SVGID_8_" gradientTransform="matrix(.707 .707 -.707 .707 760.482 -311.297)" gradientUnits="userSpaceOnUse" x1="-108.651" x2="7.736" xlink:href="#lg1" y1="798.43" y2="914.817"/><linearGradient id="SVGID_9_" gradientUnits="userSpaceOnUse" x1="90.645" x2="240.895" xlink:href="#lg2" y1="293.244" y2="235.455"/><linearGradient id="lg3"><stop offset="0" stop-color="#ff637b"/><stop offset="1" stop-color="#e63950"/></linearGradient><linearGradient id="SVGID_10_" gradientTransform="matrix(0 1 -1 0 -22 -1596)" gradientUnits="userSpaceOnUse" x1="1858.196" x2="1869.285" xlink:href="#lg3" y1="-377.622" y2="-377.622"/><linearGradient id="lg4"><stop offset="0" stop-color="#ff9690"/><stop offset="1" stop-color="#f9545b"/></linearGradient><linearGradient id="SVGID_11_" gradientTransform="matrix(0 1 -1 0 -22 -1596)" gradientUnits="userSpaceOnUse" x1="1859.613" x2="1867.247" xlink:href="#lg4" y1="-397.605" y2="-389.971"/><linearGradient id="SVGID_12_" gradientTransform="matrix(.707 .707 -.707 .707 -341.542 -793.444)" gradientUnits="userSpaceOnUse" x1="1197.376" x2="1208.465" xlink:href="#lg3" y1="239.503" y2="239.503"/><linearGradient id="SVGID_13_" gradientTransform="matrix(.707 .707 -.707 .707 -341.542 -793.444)" gradientUnits="userSpaceOnUse" x1="1198.793" x2="1206.427" xlink:href="#lg4" y1="219.52" y2="227.154"/><linearGradient id="SVGID_14_" gradientTransform="matrix(-.707 .707 -.707 -.707 771.444 -1937.543)" gradientUnits="userSpaceOnUse" x1="1889.094" x2="1900.182" xlink:href="#lg3" y1="-1281.266" y2="-1281.266"/><linearGradient id="SVGID_15_" gradientTransform="matrix(-.707 .707 -.707 -.707 771.444 -1937.543)" gradientUnits="userSpaceOnUse" x1="1890.51" x2="1898.145" xlink:href="#lg4" y1="-1301.25" y2="-1293.616"/><linearGradient id="SVGID_16_" gradientUnits="userSpaceOnUse" x1="293.731" x2="304.82" xlink:href="#lg3" y1="208.606" y2="208.606"/><linearGradient id="SVGID_17_" gradientUnits="userSpaceOnUse" x1="295.148" x2="302.782" xlink:href="#lg4" y1="188.623" y2="196.257"/><linearGradient id="SVGID_18_" gradientTransform="matrix(-1 0 0 -1 1574 -1414.034)" gradientUnits="userSpaceOnUse" x1="1271.968" x2="1283.057" xlink:href="#lg3" y1="-1738.121" y2="-1738.121"/><linearGradient id="SVGID_19_" gradientTransform="matrix(-1 0 0 -1 1574 -1414.034)" gradientUnits="userSpaceOnUse" x1="1273.385" x2="1281.019" xlink:href="#lg4" y1="-1758.104" y2="-1750.47"/><linearGradient id="SVGID_20_" gradientTransform="matrix(0 -1 1 0 1392.034 -22)" gradientUnits="userSpaceOnUse" x1="-292.497" x2="-281.408" xlink:href="#lg3" y1="-1151.893" y2="-1151.893"/><linearGradient id="SVGID_21_" gradientTransform="matrix(0 -1 1 0 1392.034 -22)" gradientUnits="userSpaceOnUse" x1="-291.08" x2="-283.446" xlink:href="#lg4" y1="-1171.876" y2="-1164.242"/><linearGradient id="SVGID_22_" gradientTransform="matrix(-.707 -.707 .707 -.707 1771.317 -680.331)" gradientUnits="userSpaceOnUse" x1="368.324" x2="379.413" xlink:href="#lg3" y1="-1769.018" y2="-1769.018"/><linearGradient id="SVGID_23_" gradientTransform="matrix(-.707 -.707 .707 -.707 1771.317 -680.331)" gradientUnits="userSpaceOnUse" x1="369.741" x2="377.375" xlink:href="#lg4" y1="-1789.002" y2="-1781.367"/><linearGradient id="SVGID_24_" gradientTransform="matrix(.707 -.707 .707 .707 658.331 175.317)" gradientUnits="userSpaceOnUse" x1="-323.394" x2="-312.305" xlink:href="#lg3" y1="-248.248" y2="-248.248"/><linearGradient id="SVGID_25_" gradientTransform="matrix(.707 -.707 .707 .707 658.331 175.317)" gradientUnits="userSpaceOnUse" x1="-321.977" x2="-314.343" xlink:href="#lg4" y1="-268.232" y2="-260.598"/><linearGradient id="SVGID_26_" gradientUnits="userSpaceOnUse" x1="257.763" x2="341.891" xlink:href="#lg4" y1="226.228" y2="310.356"/><linearGradient id="lg5"><stop offset="0" stop-color="#e63950" stop-opacity="0"/><stop offset=".0467" stop-color="#e4354b" stop-opacity=".047"/><stop offset=".4669" stop-color="#d31822" stop-opacity=".467"/><stop offset=".7991" stop-color="#c90709" stop-opacity=".799"/><stop offset="1" stop-color="#c50000"/></linearGradient><linearGradient id="SVGID_27_" gradientUnits="userSpaceOnUse" x1="334.953" x2="303.971" xlink:href="#lg5" y1="237.691" y2="206.709"/><linearGradient id="SVGID_28_" gradientUnits="userSpaceOnUse" x1="305.698" x2="291.172" xlink:href="#lg5" y1="282.08" y2="253.374"/><linearGradient id="SVGID_29_" gradientTransform="matrix(.927 .375 -.375 .927 -245.894 -354.048)" gradientUnits="userSpaceOnUse" x1="733.372" x2="742.265" xlink:href="#lg3" y1="324.975" y2="324.975"/><linearGradient id="SVGID_30_" gradientTransform="matrix(.927 .375 -.375 .927 -245.894 -354.048)" gradientUnits="userSpaceOnUse" x1="734.508" x2="740.631" xlink:href="#lg4" y1="308.947" y2="315.071"/><linearGradient id="SVGID_31_" gradientTransform="matrix(-.375 .927 -.927 -.375 332.048 -1841.894)" gradientUnits="userSpaceOnUse" x1="1963.958" x2="1972.852" xlink:href="#lg3" y1="-805.012" y2="-805.012"/><linearGradient id="SVGID_32_" gradientTransform="matrix(-.375 .927 -.927 -.375 332.048 -1841.894)" gradientUnits="userSpaceOnUse" x1="1965.095" x2="1971.218" xlink:href="#lg4" y1="-821.04" y2="-814.917"/><linearGradient id="SVGID_33_" gradientTransform="matrix(.39 .921 -.921 .39 -265.065 -1217.667)" gradientUnits="userSpaceOnUse" x1="1582.693" x2="1591.587" xlink:href="#lg3" y1="14.845" y2="14.845"/><linearGradient id="SVGID_34_" gradientTransform="matrix(.39 .921 -.921 .39 -265.065 -1217.667)" gradientUnits="userSpaceOnUse" x1="1583.829" x2="1589.952" xlink:href="#lg4" y1="-1.183" y2="4.94"/><linearGradient id="SVGID_35_" gradientTransform="matrix(-.921 .39 -.39 -.921 1195.667 -1861.065)" gradientUnits="userSpaceOnUse" x1="1653.827" x2="1662.721" xlink:href="#lg3" y1="-1654.333" y2="-1654.333"/><linearGradient id="SVGID_36_" gradientTransform="matrix(-.921 .39 -.39 -.921 1195.667 -1861.065)" gradientUnits="userSpaceOnUse" x1="1654.964" x2="1661.087" xlink:href="#lg4" y1="-1670.361" y2="-1664.238"/><linearGradient id="SVGID_37_" gradientTransform="matrix(-.927 -.375 .375 -.927 1743.427 -1074.862)" gradientUnits="userSpaceOnUse" x1="833.971" x2="842.865" xlink:href="#lg3" y1="-1831.632" y2="-1831.632"/><linearGradient id="SVGID_38_" gradientTransform="matrix(-.927 -.375 .375 -.927 1743.427 -1074.862)" gradientUnits="userSpaceOnUse" x1="835.107" x2="841.23" xlink:href="#lg4" y1="-1847.66" y2="-1841.537"/><linearGradient id="SVGID_39_" gradientUnits="userSpaceOnUse" x1="254.168" x2="249.326" xlink:href="#lg5" y1="261.893" y2="227.827"/><linearGradient id="SVGID_40_" gradientTransform="matrix(.375 -.927 .927 .375 1052.862 147.427)" gradientUnits="userSpaceOnUse" x1="-396.616" x2="-387.722" xlink:href="#lg3" y1="-701.645" y2="-701.645"/><linearGradient id="SVGID_41_" gradientTransform="matrix(.375 -.927 .927 .375 1052.862 147.427)" gradientUnits="userSpaceOnUse" x1="-395.479" x2="-389.356" xlink:href="#lg4" y1="-717.673" y2="-711.55"/><linearGradient id="SVGID_42_" gradientTransform="matrix(-.39 -.921 .921 -.39 1651.289 -320.697)" gradientUnits="userSpaceOnUse" x1="-15.35" x2="-6.456" xlink:href="#lg3" y1="-1521.502" y2="-1521.502"/><linearGradient id="SVGID_43_" gradientTransform="matrix(-.39 -.921 .921 -.39 1651.289 -320.697)" gradientUnits="userSpaceOnUse" x1="-14.214" x2="-8.091" xlink:href="#lg4" y1="-1537.529" y2="-1531.406"/><linearGradient id="SVGID_44_" gradientUnits="userSpaceOnUse" x1="293.834" x2="259.94" xlink:href="#lg5" y1="229.35" y2="202.893"/><linearGradient id="SVGID_45_" gradientTransform="matrix(.921 -.39 .39 .921 298.697 55.289)" gradientUnits="userSpaceOnUse" x1="-86.485" x2="-77.591" xlink:href="#lg3" y1="147.676" y2="147.676"/><linearGradient id="SVGID_46_" gradientTransform="matrix(.921 -.39 .39 .921 298.697 55.289)" gradientUnits="userSpaceOnUse" x1="-85.349" x2="-79.226" xlink:href="#lg4" y1="131.648" y2="137.771"/><linearGradient id="SVGID_47_" gradientUnits="userSpaceOnUse" x1="287.16" x2="317.104" xlink:href="#lg3" y1="255.625" y2="285.569"/><linearGradient id="lg6"><stop offset="0" stop-color="#9ae1d3"/><stop offset="1" stop-color="#80d1c1"/></linearGradient><linearGradient id="SVGID_48_" gradientTransform="matrix(-1 0 0 1 1814.364 -534.97)" gradientUnits="userSpaceOnUse" x1="1359.523" x2="1384.13" xlink:href="#lg6" y1="925.721" y2="950.329"/><linearGradient id="SVGID_49_" gradientTransform="matrix(-.707 .707 .707 .707 1151.675 -471.725)" gradientUnits="userSpaceOnUse" x1="1125.618" x2="1125.618" xlink:href="#lg6" y1="197.669" y2="187.191"/><linearGradient id="SVGID_50_" gradientTransform="matrix(-1 0 0 1 1814.364 -534.97)" gradientUnits="userSpaceOnUse" x1="1394.135" x2="1412.491" y1="976.775" y2="894.511"><stop offset="0" stop-color="#0b799d" stop-opacity="0"/><stop offset=".1739" stop-color="#117d9e" stop-opacity=".174"/><stop offset=".414" stop-color="#2389a0" stop-opacity=".414"/><stop offset=".6928" stop-color="#409ca3" stop-opacity=".693"/><stop offset=".9986" stop-color="#69b7a8" stop-opacity=".999"/><stop offset="1" stop-color="#69b7a8"/></linearGradient><linearGradient id="lg7"><stop offset="0" stop-color="#edf5ff"/><stop offset="1" stop-color="#d5e8fe"/></linearGradient><linearGradient id="SVGID_51_" gradientTransform="matrix(-.707 .707 .707 .707 1151.675 -471.725)" gradientUnits="userSpaceOnUse" x1="1102.457" x2="1153.043" xlink:href="#lg7" y1="36.965" y2="87.552"/><linearGradient id="SVGID_52_" gradientTransform="matrix(-.707 .707 .707 .707 1151.675 -471.725)" gradientUnits="userSpaceOnUse" x1="1125.618" x2="1125.618" y1="71.786" y2="32.638"><stop offset="0" stop-color="#07485e" stop-opacity="0"/><stop offset=".2708" stop-color="#074459" stop-opacity=".271"/><stop offset=".597" stop-color="#05394a" stop-opacity=".597"/><stop offset=".9505" stop-color="#032632" stop-opacity=".951"/><stop offset="1" stop-color="#03232e"/></linearGradient><linearGradient id="SVGID_53_" gradientTransform="matrix(-1 0 0 1 1814.364 -534.97)" gradientUnits="userSpaceOnUse" x1="1516.482" x2="1516.482" y1="890.282" y2="673.865"><stop offset="0" stop-color="#fff" stop-opacity="0"/><stop offset="1" stop-color="#fff"/></linearGradient><linearGradient id="SVGID_54_" gradientTransform="matrix(-1 0 0 1 1814.364 -534.97)" gradientUnits="userSpaceOnUse" x1="1433.996" x2="1614.15" xlink:href="#lg7" y1="718.83" y2="898.984"/><linearGradient id="SVGID_55_" gradientTransform="matrix(1 0 0 -1 -809.687 4333.22)" gradientUnits="userSpaceOnUse" x1="1038.132" x2="1189.783" xlink:href="#lg7" y1="3997.437" y2="4149.088"/><linearGradient id="SVGID_56_" gradientTransform="matrix(-.707 .707 .707 .707 1151.675 -471.725)" gradientUnits="userSpaceOnUse" x1="1125.618" x2="1125.618" xlink:href="#lg7" y1="166.256" y2="189.865"/><linearGradient id="SVGID_57_" gradientUnits="userSpaceOnUse" x1="117.046" x2="134.043" xlink:href="#lg1" y1="188.061" y2="262.846"/><g><g><g><path d="m411.887 207.867c-13.181-13.181-34.551-13.181-47.732 0l27.233-27.233c13.181-13.181 13.181-34.551 0-47.732-13.181-13.181-34.551-13.181-47.732 0l19.882-19.882c13.181-13.181 13.181-34.551 0-47.732s-34.552-13.181-47.732 0l-23.866 23.866c13.181-13.181 13.181-34.551 0-47.732s-34.551-13.181-47.732 0l-188.706 188.703c-11.669 11.669-18.225 27.496-18.225 43.999s-6.556 32.33-18.225 43.999l-7.321 7.321c-15.642 15.642-15.642 41.002 0 56.643l84.646 84.646c15.642 15.642 41.002 15.642 56.643 0 14.721-14.721 33.281-25.011 53.565-29.699 20.284-4.687 38.844-14.978 53.565-29.699l151.737-151.735c13.181-13.181 13.181-34.552 0-47.733z" fill="url(#SVGID_1_)"/><g><path d="m305.807 298.471c13.633 23.615 9.777 53.431-9.505 72.712l-36.152 36.152c-7.362 7.362-15.677 13.615-24.698 18.612-.418.231-.837.462-1.262.685-8.653 4.658-17.927 8.163-27.604 10.398-10.139 2.351-19.852 6.093-28.873 11.091-9.009 4.987-17.327 11.243-24.687 18.6-15.647 15.643-41.002 15.656-56.647.011l-84.649-84.65c-15.64-15.64-15.64-40.996 0-56.636l7.319-7.319c5.834-5.834 10.391-12.713 13.499-20.191 3.094-7.478 4.73-15.561 4.73-23.811 0-12.821 3.952-25.224 11.192-35.594 2.077-2.985 4.428-5.798 7.031-8.401l46.377-46.377c18.137-18.137 45.813-22.846 68.847-11.561 30.543 14.963 59.172 35.142 84.565 60.535 20.113 20.111 36.95 42.244 50.517 65.744z" fill="url(#SVGID_2_)"/></g><path d="m272.468 331.81c-13.567-23.5-30.405-45.633-50.516-65.745-25.393-25.393-54.022-45.572-84.565-60.535-23.034-11.284-50.71-6.576-68.847 11.561l-13.039 13.039c-2.603 2.603-4.954 5.416-7.031 8.401-7.24 10.37-11.192 22.773-11.192 35.594 0 8.249-1.637 16.333-4.73 23.811-3.108 7.478-7.665 14.357-13.499 20.191l-7.319 7.319c-15.64 15.64-15.64 40.996 0 56.636l84.651 84.651c15.645 15.645 41 15.631 56.647-.011 7.36-7.358 15.677-13.613 24.687-18.6 9.021-4.997 18.734-8.74 28.873-11.091 9.677-2.235 18.951-5.74 27.604-10.398.425-.224.844-.454 1.262-.685 9.021-4.997 17.335-11.249 24.698-18.612l2.812-2.812c19.281-19.283 23.138-49.098 9.504-72.714z" fill="url(#SVGID_3_)"/><path d="m164.02 312.537-47.732-47.732 199.517-199.518c13.181-13.181 34.551-13.181 47.732 0 13.181 13.181 13.181 34.551 0 47.732z" fill="url(#SVGID_4_)"/><path d="m116.288 264.805-47.732-47.732 175.651-175.652c13.181-13.181 34.551-13.181 47.732 0 13.181 13.181 13.181 34.551 0 47.732z" fill="url(#SVGID_5_)"/><path d="m211.753 360.27-47.732-47.732 179.635-179.635c13.181-13.181 34.551-13.181 47.732 0 13.181 13.181 13.181 34.551 0 47.732z" fill="url(#SVGID_6_)"/><path d="m259.485 408.002-47.732-47.732 152.402-152.402c13.181-13.181 34.551-13.181 47.732 0 13.181 13.181 13.181 34.551 0 47.732z" fill="url(#SVGID_7_)"/></g><path d="m164.393 256.21-11.084-23.8.946-.217c24.633-5.642 44.118-24.456 50.619-48.876l3.15-11.833c2.137-8.028-3.913-15.902-12.221-15.904l-110.809-.028c-25.991-.013-47.071 21.047-47.084 47.038l-.03 61.225c-.001 3.141.524 6.259 1.554 9.226 3.531 10.166.941 21.457-6.67 29.067-4.09 4.09-4.09 10.722 0 14.813l18.476 18.476c27.384 27.384 71.783 27.384 99.167 0 20.838-20.837 26.425-52.476 13.986-79.187z" fill="url(#SVGID_8_)"/><path d="m164.393 256.21-11.084-23.801.946-.217h-85.333c-17.136 0-31.031 13.887-31.039 31.024-.002 3.323.447 6.65 1.541 9.787 3.548 10.17.966 21.472-6.644 29.091-4.079 4.084-4.245 10.593-.163 14.675l18.626 18.626c27.384 27.384 71.783 27.384 99.167 0 20.835-20.835 26.422-52.474 13.983-79.185z" fill="url(#SVGID_9_)"/></g><g><g><path d="m341.485 266.347c0-1.719 1.394-3.113 3.113-3.113h22.049c1.719 0 3.113 1.394 3.113 3.113 0 1.719-1.394 3.113-3.113 3.113h-22.049c-1.72-.001-3.113-1.394-3.113-3.113z" fill="url(#SVGID_10_)"/><circle cx="372.872" cy="266.347" fill="url(#SVGID_11_)" r="9.684"/></g><g><path d="m328.714 235.515c-1.216-1.216-1.216-3.186 0-4.402l15.591-15.591c1.216-1.216 3.186-1.216 4.402 0 1.216 1.216 1.216 3.186 0 4.402l-15.591 15.591c-1.216 1.215-3.187 1.215-4.402 0z" fill="url(#SVGID_12_)"/><circle cx="350.908" cy="213.32" fill="url(#SVGID_13_)" r="9.684"/></g><g><path d="m328.714 297.179c1.216-1.216 3.186-1.216 4.402 0l15.591 15.591c1.216 1.216 1.216 3.186 0 4.402-1.216 1.216-3.186 1.216-4.402 0l-15.591-15.591c-1.216-1.216-1.216-3.187 0-4.402z" fill="url(#SVGID_14_)"/><circle cx="350.908" cy="319.373" fill="url(#SVGID_15_)" r="9.684"/></g><g><path d="m297.882 222.743c-1.719 0-3.113-1.394-3.113-3.113v-22.049c0-1.719 1.394-3.113 3.113-3.113 1.719 0 3.113 1.394 3.113 3.113v22.049c-.001 1.72-1.394 3.113-3.113 3.113z" fill="url(#SVGID_16_)"/><circle cx="297.882" cy="191.356" fill="url(#SVGID_17_)" r="9.684"/></g><g><path d="m297.882 309.95c1.719 0 3.113 1.394 3.113 3.113v22.049c0 1.719-1.394 3.113-3.113 3.113-1.719 0-3.113-1.394-3.113-3.113v-22.049c0-1.72 1.394-3.113 3.113-3.113z" fill="url(#SVGID_18_)"/><circle cx="297.882" cy="341.337" fill="url(#SVGID_19_)" r="9.684"/></g><g><path d="m254.278 266.347c0 1.719-1.394 3.113-3.113 3.113h-22.049c-1.719 0-3.113-1.394-3.113-3.113 0-1.719 1.394-3.113 3.113-3.113h22.049c1.72 0 3.113 1.394 3.113 3.113z" fill="url(#SVGID_20_)"/><circle cx="222.891" cy="266.347" fill="url(#SVGID_21_)" r="9.684"/></g><g><path d="m267.049 297.179c1.216 1.216 1.216 3.186 0 4.402l-15.591 15.591c-1.216 1.216-3.186 1.216-4.402 0-1.216-1.216-1.216-3.186 0-4.402l15.591-15.591c1.216-1.216 3.187-1.216 4.402 0z" fill="url(#SVGID_22_)"/><circle cx="244.855" cy="319.373" fill="url(#SVGID_23_)" r="9.684"/></g><g><path d="m267.05 235.515c-1.216 1.216-3.186 1.216-4.402 0l-15.591-15.591c-1.216-1.216-1.216-3.186 0-4.402 1.216-1.216 3.186-1.216 4.402 0l15.591 15.591c1.215 1.215 1.215 3.186 0 4.402z" fill="url(#SVGID_24_)"/><circle cx="244.855" cy="213.32" fill="url(#SVGID_25_)" r="9.684"/></g><circle cx="297.882" cy="266.347" fill="url(#SVGID_26_)" r="59.629"/><path d="m321.669 211.656-9.007 22.34s9.545 2.445 18.537 17.57l21.545-8.615c-5.973-13.987-17.139-25.225-31.075-31.295z" fill="url(#SVGID_27_)"/><path d="m297.882 325.975c32.932 0 59.629-26.697 59.629-59.629 0-7.701-1.461-15.061-4.119-21.819l-109.83 46.446c9.374 20.645 30.169 35.002 54.32 35.002z" fill="url(#SVGID_28_)"/><g><path d="m310.993 233.925c-1.278-.517-1.895-1.972-1.379-3.25l6.63-16.395c.517-1.278 1.972-1.895 3.25-1.379 1.278.517 1.895 1.972 1.379 3.25l-6.63 16.395c-.517 1.278-1.972 1.896-3.25 1.379z" fill="url(#SVGID_29_)"/><circle cx="320.431" cy="210.586" fill="url(#SVGID_30_)" r="7.767"/></g><g><path d="m330.303 279.458c.517-1.278 1.972-1.895 3.25-1.379l16.395 6.63c1.278.517 1.895 1.972 1.378 3.25-.517 1.278-1.972 1.895-3.25 1.379l-16.395-6.63c-1.277-.517-1.894-1.972-1.378-3.25z" fill="url(#SVGID_31_)"/><circle cx="353.642" cy="288.896" fill="url(#SVGID_32_)" r="7.767"/></g><g><path d="m330.078 252.692c-.538-1.269.054-2.735 1.324-3.273l16.281-6.905c1.269-.538 2.735.054 3.273 1.324.538 1.269-.054 2.735-1.324 3.273l-16.281 6.905c-1.269.538-2.734-.055-3.273-1.324z" fill="url(#SVGID_33_)"/><circle cx="353.255" cy="242.863" fill="url(#SVGID_34_)" r="7.767"/></g><g><path d="m311.536 298.543c1.269-.538 2.735.054 3.273 1.324l6.905 16.281c.538 1.269-.054 2.735-1.324 3.273-1.269.538-2.735-.054-3.273-1.324l-6.905-16.281c-.538-1.269.055-2.734 1.324-3.273z" fill="url(#SVGID_35_)"/><circle cx="321.366" cy="321.72" fill="url(#SVGID_36_)" r="7.767"/></g><g><path d="m284.77 298.768c1.278.517 1.895 1.972 1.379 3.25l-6.63 16.395c-.517 1.278-1.972 1.895-3.25 1.379-1.278-.517-1.895-1.972-1.379-3.25l6.63-16.395c.517-1.278 1.972-1.895 3.25-1.379z" fill="url(#SVGID_37_)"/><circle cx="275.333" cy="322.107" fill="url(#SVGID_38_)" r="7.767"/></g><path d="m240.141 251.306 21.951 21.951s-2.078-14.803 3.367-20.022l-22.793-9.438z" fill="url(#SVGID_39_)"/><g><path d="m265.46 253.235c-.517 1.278-1.972 1.895-3.25 1.379l-16.395-6.63c-1.278-.517-1.895-1.972-1.379-3.25.517-1.278 1.972-1.895 3.25-1.379l16.395 6.63c1.278.517 1.896 1.972 1.379 3.25z" fill="url(#SVGID_40_)"/><circle cx="242.121" cy="243.798" fill="url(#SVGID_41_)" r="7.767"/></g><g><path d="m265.685 280.001c.538 1.269-.054 2.735-1.324 3.273l-16.281 6.905c-1.269.538-2.735-.054-3.273-1.324-.538-1.269.054-2.735 1.324-3.273l16.281-6.905c1.269-.538 2.735.055 3.273 1.324z" fill="url(#SVGID_42_)"/><circle cx="242.509" cy="289.831" fill="url(#SVGID_43_)" r="7.767"/></g><path d="m274.72 211.384 9.5 21.588c7.955-3.977 18.605-3.133 18.605-3.133l-20.946-20.946c-2.453.682-4.844 1.514-7.159 2.491z" fill="url(#SVGID_44_)"/><g><path d="m284.227 234.15c-1.269.538-2.735-.054-3.273-1.324l-6.905-16.281c-.538-1.269.054-2.735 1.324-3.273 1.269-.538 2.735.054 3.273 1.324l6.905 16.281c.538 1.269-.055 2.735-1.324 3.273z" fill="url(#SVGID_45_)"/><circle cx="274.398" cy="210.974" fill="url(#SVGID_46_)" r="7.767"/></g><circle cx="297.882" cy="266.347" fill="url(#SVGID_47_)" r="37.983"/></g><g><path d="m457.268 470.157 44.424-44.424-81.833-81.833-44.424 44.424z" fill="url(#SVGID_48_)"/><path d="m457.268 470.157 44.424-44.424c9.513 9.513 9.513 24.936 0 34.449l-9.975 9.975c-9.513 9.512-24.937 9.512-34.449 0z" fill="url(#SVGID_49_)"/><path d="m433.52 359.545v86.864l-58.085-58.085 44.424-44.424 14.653 14.653z" fill="url(#SVGID_50_)"/><path d="m391.08 401.985 42.44-42.44c5.748-5.748 5.748-15.066 0-20.814l-11.578-11.578-63.254 63.254 11.578 11.578c5.747 5.747 15.066 5.747 20.814 0z" fill="url(#SVGID_51_)"/><path d="m421.942 327.153 2.092 2.092v39.786l-32.954 32.954c-5.748 5.748-15.066 5.748-20.814 0l-11.578-11.578z" fill="url(#SVGID_52_)"/><circle cx="297.882" cy="266.347" fill="url(#SVGID_53_)" r="109.72"/><g><path d="m198.231 365.996c55.038 55.039 144.261 55.039 199.299 0s55.038-144.261 0-199.299c-55.039-55.039-144.261-55.039-199.299 0-55.038 55.038-55.038 144.261 0 199.299zm27.851-27.84c-39.66-39.66-39.66-103.958 0-143.618 39.65-39.65 103.948-39.65 143.608 0 39.65 39.66 39.65 103.958 0 143.618-39.66 39.65-103.958 39.65-143.608 0z" fill="url(#SVGID_54_)"/><path d="m381.765 182.463c-46.329-46.329-121.438-46.329-167.767 0s-46.329 121.438 0 167.767 121.438 46.329 167.767 0 46.329-121.437 0-167.767zm-12.085 155.693c-39.65 39.65-103.948 39.65-143.608 0-39.65-39.66-39.65-103.958 0-143.618 39.66-39.65 103.958-39.65 143.608 0 39.66 39.659 39.66 103.958 0 143.618z" fill="url(#SVGID_55_)"/></g><path d="m466.037 475.909 41.408-41.408c3.408-3.408 3.408-8.932 0-12.34-3.408-3.408-8.932-3.408-12.34 0l-41.408 41.408c-3.408 3.408-3.408 8.932 0 12.34 3.407 3.408 8.932 3.408 12.34 0z" fill="url(#SVGID_56_)"/></g><path d="m208.023 171.487-3.151 11.83c-6.496 24.424-25.984 43.239-50.613 48.879h-85.337c-17.122 0-31.022 13.869-31.043 31.002l.031-60.607c.02-25.995 21.1-47.054 47.084-47.043l110.811.031c8.312-.001 14.359 7.872 12.218 15.908z" fill="url(#SVGID_57_)"/></g></svg>