<svg id="Capa_1" enable-background="new 0 0 510 510" height="512" viewBox="0 0 510 510" width="512" xmlns="http://www.w3.org/2000/svg" xmlns:xlink="http://www.w3.org/1999/xlink"><linearGradient id="lg1"><stop offset="0" stop-color="#edf5ff"/><stop offset="1" stop-color="#d5e8fe"/></linearGradient><linearGradient id="SVGID_1_" gradientUnits="userSpaceOnUse" x1="275.071" x2="307.149" xlink:href="#lg1" y1="62.237" y2="62.237"/><linearGradient id="lg2"><stop offset="0" stop-color="#07485e" stop-opacity="0"/><stop offset=".2708" stop-color="#074459" stop-opacity=".271"/><stop offset=".597" stop-color="#05394a" stop-opacity=".597"/><stop offset=".9505" stop-color="#032632" stop-opacity=".951"/><stop offset="1" stop-color="#03232e"/></linearGradient><linearGradient id="SVGID_2_" gradientUnits="userSpaceOnUse" x1="299.664" x2="299.664" xlink:href="#lg2" y1="68.79" y2="-21.753"/><linearGradient id="SVGID_3_" gradientUnits="userSpaceOnUse" x1="299.664" x2="299.664" xlink:href="#lg1" y1="84.199" y2="121.874"/><linearGradient id="SVGID_4_" gradientUnits="userSpaceOnUse" x1="165.58" x2="433.747" xlink:href="#lg1" y1="316.187" y2="316.187"/><linearGradient id="lg3"><stop offset="0" stop-color="#9ae1d3"/><stop offset="1" stop-color="#80d1c1"/></linearGradient><linearGradient id="SVGID_5_" gradientUnits="userSpaceOnUse" x1="232.218" x2="328.151" xlink:href="#lg3" y1="296.005" y2="351.708"/><linearGradient id="SVGID_6_" gradientUnits="userSpaceOnUse" x1="299.664" x2="299.664" xlink:href="#lg2" y1="461.201" y2="530.454"/><linearGradient id="SVGID_7_" gradientUnits="userSpaceOnUse" x1="289.64" x2="367.073" xlink:href="#lg2" y1="166.416" y2="143.219"/><linearGradient id="SVGID_8_" gradientUnits="userSpaceOnUse" x1="253.688" x2="253.688" xlink:href="#lg1" y1="-8.105" y2="38.142"/><linearGradient id="SVGID_9_" gradientUnits="userSpaceOnUse" x1="101.88" x2="118.364" xlink:href="#lg3" y1="153.2" y2="169.684"/><linearGradient id="SVGID_10_" gradientUnits="userSpaceOnUse" x1="403.894" x2="125.545" xlink:href="#lg2" y1="420.842" y2="142.493"/><linearGradient id="SVGID_11_" gradientUnits="userSpaceOnUse" x1="244.314" x2="372.222" y1="262.071" y2="389.979"><stop offset="0" stop-color="#ff637b"/><stop offset="1" stop-color="#e63950"/></linearGradient><linearGradient id="lg4"><stop offset="0" stop-color="#e63950" stop-opacity="0"/><stop offset=".0467" stop-color="#e4354b" stop-opacity=".047"/><stop offset=".4669" stop-color="#d31822" stop-opacity=".467"/><stop offset=".7991" stop-color="#c90709" stop-opacity=".799"/><stop offset="1" stop-color="#c50000"/></linearGradient><linearGradient id="SVGID_12_" gradientUnits="userSpaceOnUse" x1="312.944" x2="204.547" xlink:href="#lg4" y1="317.393" y2="360.08"/><linearGradient id="SVGID_13_" gradientUnits="userSpaceOnUse" x1="299.413" x2="304.209" xlink:href="#lg4" y1="302.37" y2="356.089"/><linearGradient id="SVGID_14_" gradientUnits="userSpaceOnUse" x1="274.808" x2="125.627" y1="294.731" y2="195.518"><stop offset="0" stop-color="#fff" stop-opacity="0"/><stop offset="1" stop-color="#fff"/></linearGradient><g><g><path d="m268.48 27.519h62.367v69.436h-62.367z" fill="url(#SVGID_1_)"/><path d="m268.48 31.694 62.367 62.366v-66.541h-62.367z" fill="url(#SVGID_2_)"/></g><path d="m244.429 76.544h110.47c15.573 0 28.197 12.624 28.197 28.197v36.695h-166.864v-36.695c0-15.573 12.624-28.197 28.197-28.197z" fill="url(#SVGID_3_)"/><g><g><path d="m406.43 510h-213.533c-15.087 0-27.317-12.23-27.317-27.317v-332.991c0-15.087 12.23-27.317 27.317-27.317h213.533c15.087 0 27.317 12.23 27.317 27.317v332.991c0 15.087-12.23 27.317-27.317 27.317z" fill="url(#SVGID_4_)"/><path d="m393.217 482.447h-187.107c-9.934 0-17.987-8.053-17.987-17.987v-258.586c0-9.934 8.053-17.987 17.987-17.987h187.107c9.934 0 17.987 8.053 17.987 17.987v258.586c0 9.934-8.053 17.987-17.987 17.987z" fill="url(#SVGID_5_)"/><path d="m165.58 431.988v50.695c0 15.087 12.23 27.317 27.317 27.317h213.533c15.087 0 27.317-12.23 27.317-27.317v-50.695z" fill="url(#SVGID_6_)"/></g></g><path d="m282.791 138.938h33.746v48.949h-33.746z" fill="url(#SVGID_7_)"/><path d="m124.068 78.977c-4.17 0-8.34-1.591-11.521-4.773-6.363-6.363-6.363-16.68 0-23.043l29.166-29.166c14.184-14.183 33.042-21.995 53.102-21.995h188.491c8.999 0 16.294 7.295 16.294 16.294s-7.295 16.294-16.294 16.294h-188.491c-11.355 0-22.03 4.422-30.06 12.451l-29.165 29.166c-3.182 3.182-7.352 4.772-11.522 4.772z" fill="url(#SVGID_8_)"/><path d="m132.27 123.784-8.23-12.875c-2.531-3.959-8.314-3.959-10.845 0l-7.994 12.504c-5 7.822-10.564 15.304-17.022 21.973-7.477 7.722-12.044 18.278-11.924 29.904.239 23.251 19.699 42.23 42.949 41.915 23.127-.314 41.778-19.159 41.778-42.361 0-11.48-4.569-21.891-11.986-29.519-6.351-6.531-11.819-13.866-16.726-21.541z" fill="url(#SVGID_9_)"/><path d="m335.219 224.13c-2.261-4.124-6.641-5.834-11.676-5.834h-47.757c-7.351 0-12.223 4.872-12.223 12.222v50.801h-50.802c-7.351 0-12.223 4.872-12.223 12.223v47.758c0 5.035 1.71 9.415 5.834 11.676l160.124 157.024h39.935c15.087 0 27.317-12.23 27.317-27.317v-162.237z" fill="url(#SVGID_10_)"/><g><path d="m386.566 354.609h-49.715v49.715c0 7.351-5.959 13.309-13.309 13.309h-47.757c-7.351 0-13.309-5.959-13.309-13.309v-49.715h-49.715c-7.351 0-13.309-5.959-13.309-13.309v-47.757c0-7.351 5.959-13.309 13.309-13.309h49.715v-49.715c0-7.351 5.959-13.309 13.309-13.309h47.757c7.351 0 13.309 5.959 13.309 13.309v49.715h49.715c7.351 0 13.309 5.959 13.309 13.309v47.757c.001 7.351-5.958 13.309-13.309 13.309z" fill="url(#SVGID_11_)"/><path d="m323.542 417.633h-23.879v-200.424h23.879c7.351 0 13.309 5.959 13.309 13.309v173.805c.001 7.352-5.958 13.31-13.309 13.31z" fill="url(#SVGID_12_)"/><path d="m399.876 293.543v23.879h-200.424v-23.879c0-7.351 5.959-13.309 13.309-13.309h173.805c7.351-.001 13.31 5.958 13.31 13.309z" fill="url(#SVGID_13_)"/></g><path d="m406.43 122.375h-152.138c-30.287 0-54.84 24.553-54.84 54.84v332.785h206.978c15.087 0 27.317-12.23 27.317-27.317v-332.991c0-15.087-12.23-27.317-27.317-27.317z" fill="url(#SVGID_14_)"/></g></svg>