<svg id="Capa_1" enable-background="new 0 0 510 510" height="512" viewBox="0 0 510 510" width="512" xmlns="http://www.w3.org/2000/svg" xmlns:xlink="http://www.w3.org/1999/xlink"><linearGradient id="lg1"><stop offset="0" stop-color="#f8f6fb"/><stop offset="1" stop-color="#ffdecf"/></linearGradient><linearGradient id="SVGID_1_" gradientUnits="userSpaceOnUse" x1="394.078" x2="441.421" xlink:href="#lg1" y1="244.474" y2="291.817"/><linearGradient id="lg2"><stop offset="0" stop-color="#faa68e" stop-opacity="0"/><stop offset="1" stop-color="#faa68e"/></linearGradient><linearGradient id="SVGID_2_" gradientUnits="userSpaceOnUse" x1="431.896" x2="462.701" xlink:href="#lg2" y1="243.229" y2="202.664"/><linearGradient id="SVGID_3_" gradientUnits="userSpaceOnUse" x1="213.263" x2="275.396" xlink:href="#lg1" y1="200.473" y2="262.606"/><linearGradient id="SVGID_4_" gradientUnits="userSpaceOnUse" x1="254.852" x2="334.827" xlink:href="#lg2" y1="217.234" y2="172.523"/><linearGradient id="lg3"><stop offset="0" stop-color="#fce9cb"/><stop offset="1" stop-color="#ffbd95"/></linearGradient><linearGradient id="SVGID_5_" gradientTransform="matrix(-.253 -.967 -.967 .253 1713.417 -1848.932)" gradientUnits="userSpaceOnUse" x1="-1708.603" x2="-1715.896" xlink:href="#lg3" y1="2002.018" y2="2039.342"/><linearGradient id="SVGID_6_" gradientTransform="matrix(-.034 -.999 -.999 .034 2169.91 -1734.141)" gradientUnits="userSpaceOnUse" x1="-1955.273" x2="-1983.813" xlink:href="#lg3" y1="2055.923" y2="2084.462"/><linearGradient id="SVGID_7_" gradientTransform="matrix(-.253 -.967 -.967 .253 1713.417 -1848.932)" gradientUnits="userSpaceOnUse" x1="-1665.792" x2="-1702.345" xlink:href="#lg3" y1="2047.283" y2="2083.835"/><linearGradient id="SVGID_8_" gradientUnits="userSpaceOnUse" x1="235.564" x2="268.564" y1="237.314" y2="345.314"><stop offset="0" stop-color="#ff9690"/><stop offset="1" stop-color="#f9545b"/></linearGradient><linearGradient id="SVGID_9_" gradientUnits="userSpaceOnUse" x1="342.648" x2="311.315" y1="301.718" y2="210.384"><stop offset="0" stop-color="#e63950" stop-opacity="0"/><stop offset=".0467" stop-color="#e4354b" stop-opacity=".047"/><stop offset=".4669" stop-color="#d31822" stop-opacity=".467"/><stop offset=".7991" stop-color="#c90709" stop-opacity=".799"/><stop offset="1" stop-color="#c50000"/></linearGradient><linearGradient id="SVGID_10_" gradientTransform="matrix(1 .017 .017 -1 3186.228 1710.328)" gradientUnits="userSpaceOnUse" x1="-2957.752" x2="-2935.456" xlink:href="#lg3" y1="1273.181" y2="1461.352"/><linearGradient id="SVGID_11_" gradientTransform="matrix(-1 0 0 1 511.928 0)" gradientUnits="userSpaceOnUse" x1="210.477" x2="241.449" y1="334.671" y2="416.063"><stop offset="0" stop-color="#ffdecf" stop-opacity="0"/><stop offset="1" stop-color="#fff"/></linearGradient><linearGradient id="SVGID_12_" gradientUnits="userSpaceOnUse" x1="108.829" x2="156.172" xlink:href="#lg1" y1="167.697" y2="215.041"/><linearGradient id="SVGID_13_" gradientUnits="userSpaceOnUse" x1="146.647" x2="177.452" xlink:href="#lg2" y1="166.453" y2="125.888"/><linearGradient id="SVGID_14_" gradientUnits="userSpaceOnUse" x1="210.947" x2="258.29" xlink:href="#lg1" y1="79.945" y2="127.288"/><linearGradient id="SVGID_15_" gradientUnits="userSpaceOnUse" x1="248.765" x2="279.57" xlink:href="#lg2" y1="78.7" y2="38.135"/><linearGradient id="SVGID_16_" gradientUnits="userSpaceOnUse" x1="300.631" x2="354.234" xlink:href="#lg1" y1="170.081" y2="223.683"/><linearGradient id="SVGID_17_" gradientUnits="userSpaceOnUse" x1="343.25" x2="420.34" xlink:href="#lg2" y1="181.045" y2="140.564"/><linearGradient id="SVGID_18_" gradientUnits="userSpaceOnUse" x1="338.066" x2="397.794" xlink:href="#lg1" y1="201.168" y2="260.896"/><linearGradient id="SVGID_19_" gradientUnits="userSpaceOnUse" x1="381.079" x2="449.48" xlink:href="#lg2" y1="215.311" y2="171.958"/><linearGradient id="SVGID_20_" gradientTransform="matrix(.707 -.707 .707 .707 -542.775 -936.72)" gradientUnits="userSpaceOnUse" x1="-238.004" x2="-209.945" xlink:href="#lg1" y1="1401.542" y2="1468.542"/><g><g><circle cx="407.754" cy="258.15" fill="url(#SVGID_1_)" r="36.554"/><path d="m424.106 225.451c2.465 4.92 3.855 10.473 3.855 16.352 0 20.188-16.366 36.554-36.554 36.554-5.878 0-11.431-1.39-16.352-3.855 6.002 11.978 18.389 20.202 32.699 20.202 20.188 0 36.554-16.366 36.554-36.554 0-14.31-8.224-26.697-20.202-32.699z" fill="url(#SVGID_2_)"/></g><g><circle cx="231.213" cy="218.422" fill="url(#SVGID_3_)" r="47.973"/><path d="m252.672 175.509c3.236 6.457 5.059 13.745 5.059 21.46 0 26.495-21.478 47.973-47.973 47.973-7.714 0-15.002-1.824-21.46-5.059 7.877 15.72 24.133 26.513 42.914 26.513 26.495 0 47.973-21.478 47.973-47.973.001-18.781-10.792-35.038-26.513-42.914z" fill="url(#SVGID_4_)"/></g><g><path d="m178.569 280.371c4.367 1.786 7.763 5.066 9.14 9.386l11.192 35.092c4.118 12.899 12.143 24.277 23.118 33.162-21.209 6.46-43.33-1.31-51.063-18.04-1.967-4.255-3.69-8.625-5.158-13.098l-9.856-30.06c-1.785-5.444.072-11.254 4.314-15.576 1.105-.539 2.262-.999 3.484-1.364 5.213-1.58 10.503-1.272 14.829.498z" fill="url(#SVGID_5_)"/><path d="m111.79 280.528 25.624 41.939c3.814 6.24 7.911 12.265 12.271 18.06 17.14 22.784 48.826 28.762 73.191 13.956-17.898-10.393-33.096-25.201-43.949-43.226l-29.511-49.038c-3.631-6.038-9.399-10.037-15.764-11.59-6.306-1.539-13.213-.679-19.203 2.948-1.408.843-2.69 1.81-3.872 2.88-3.563 7.436-3.427 16.476 1.213 24.071z" fill="url(#SVGID_6_)"/><path d="m64.986 289.192 43.841 45.167c6.525 6.719 13.342 13.091 20.423 19.101 27.839 23.629 69.111 22.162 95.374-3.208-25.292-7.936-48.454-22.149-67.097-41.607l-50.7-52.94c-6.24-6.519-14.573-9.888-22.963-10.033-8.312-.144-16.698 2.878-23.158 9.099-1.521 1.45-2.85 3.02-4.025 4.69-2.354 10.295.365 21.551 8.305 29.731z" fill="url(#SVGID_7_)"/><path d="m398.807 249.626c-4.325-7.699-15.59-13.569-29.692-15.379-75.786-9.725-152.446-9.725-228.231 0-14.102 1.81-25.367 7.68-29.692 15.379-19.146 34.081-19.143 68.518 0 102.596 4.325 7.699 15.59 13.569 29.692 15.379 75.785 9.725 152.444 9.726 228.23 0 14.102-1.81 25.367-7.68 29.692-15.379 19.144-34.078 19.146-68.515.001-102.596z" fill="url(#SVGID_8_)"/><path d="m398.807 249.626c-4.325-7.699-15.59-13.569-29.692-15.379-41.918-5.379-84.104-7.777-126.261-7.206.385 10.745 4.67 21.375 12.872 29.578l111.248 111.247c.714-.09 1.428-.175 2.141-.266 14.102-1.81 25.367-7.68 29.692-15.379 19.143-34.077 19.145-68.514 0-102.595z" fill="url(#SVGID_9_)"/><path d="m9.411 258.445c12.304-11.833 31.933-11.431 43.741.896l48.069 50.181c18.707 19.529 42.186 33.462 67.807 40.72.553-15.542 13.496-27.843 29.179-27.572l18.972.33c37.594.65 74.524-9.894 106.054-30.281 36.243-23.434 82.024-26.733 121.285-8.74l42.879 27.896c14.098 9.172 22.603 24.851 22.603 41.671v81.85c0 11.143-10.26 19.459-21.162 17.151-65.475-15.517-100.522-21.892-167.813-23.056l-77.986-1.35c-72.839-1.26-142.197-31.277-192.815-83.446l-41.564-42.838c-11.834-12.196-11.498-31.632.751-43.412z" fill="url(#SVGID_10_)"/><path d="m169.028 350.243c.553-15.542 13.496-27.843 29.179-27.572l18.972.329c37.594.65 74.524-9.894 106.054-30.281 36.243-23.434 82.024-26.733 121.285-8.74l3.705 1.698-76.044 73.457-38.301 9.029c-37.9 8.935-76.766 13.114-115.699 12.44l-20.48-.354c-15.839-.274-28.96-13.345-28.686-29.185.004-.177.015-.821.015-.821z" fill="url(#SVGID_11_)"/></g><g><circle cx="122.506" cy="181.374" fill="url(#SVGID_12_)" r="36.554"/><path d="m138.858 148.675c2.465 4.92 3.855 10.473 3.855 16.352 0 20.188-16.366 36.554-36.554 36.554-5.878 0-11.431-1.39-16.352-3.855 6.002 11.978 18.389 20.202 32.699 20.202 20.188 0 36.554-16.366 36.554-36.554 0-14.31-8.224-26.698-20.202-32.699z" fill="url(#SVGID_13_)"/></g><g><circle cx="224.624" cy="93.621" fill="url(#SVGID_14_)" r="36.554"/><path d="m240.975 60.922c2.465 4.92 3.855 10.473 3.855 16.352 0 20.188-16.366 36.554-36.554 36.554-5.878 0-11.431-1.39-16.352-3.855 6.002 11.978 18.389 20.202 32.699 20.202 20.188 0 36.554-16.366 36.554-36.554.001-14.31-8.223-26.698-20.202-32.699z" fill="url(#SVGID_15_)"/></g><g><circle cx="316.116" cy="185.566" fill="url(#SVGID_16_)" r="41.387"/><path d="m334.629 148.544c2.791 5.571 4.365 11.858 4.365 18.513 0 22.857-18.529 41.387-41.387 41.387-6.655 0-12.943-1.573-18.513-4.365 6.795 13.562 20.82 22.873 37.022 22.873 22.857 0 41.387-18.529 41.387-41.387 0-16.201-9.312-30.226-22.874-37.021z" fill="url(#SVGID_17_)"/></g><g><circle cx="355.32" cy="218.422" fill="url(#SVGID_18_)" r="46.117"/><path d="m375.95 177.169c3.11 6.208 4.864 13.213 4.864 20.629 0 25.47-20.647 46.117-46.117 46.117-7.416 0-14.422-1.753-20.629-4.864 7.572 15.112 23.2 25.487 41.253 25.487 25.47 0 46.117-20.647 46.117-46.117-.001-18.052-10.376-33.68-25.488-41.252z" fill="url(#SVGID_19_)"/></g><g><circle cx="286.894" cy="225.451" fill="url(#SVGID_20_)" r="44.078"/></g></g></svg>