<svg id="Capa_1" enable-background="new 0 0 510 510" height="512" viewBox="0 0 510 510" width="512" xmlns="http://www.w3.org/2000/svg" xmlns:xlink="http://www.w3.org/1999/xlink"><linearGradient id="lg1"><stop offset="0" stop-color="#edf5ff"/><stop offset="1" stop-color="#d5e8fe"/></linearGradient><linearGradient id="SVGID_1_" gradientUnits="userSpaceOnUse" x1="215.994" x2="424.122" xlink:href="#lg1" y1="156.318" y2="682.865"/><linearGradient id="SVGID_2_" gradientUnits="userSpaceOnUse" x1="140.679" x2="74.273" xlink:href="#lg1" y1="238.722" y2="172.315"/><linearGradient id="SVGID_3_" gradientUnits="userSpaceOnUse" x1="440.827" x2="374.421" xlink:href="#lg1" y1="238.722" y2="172.315"/><linearGradient id="lg2"><stop offset="0" stop-color="#07485e" stop-opacity="0"/><stop offset=".2708" stop-color="#074459" stop-opacity=".271"/><stop offset=".597" stop-color="#05394a" stop-opacity=".597"/><stop offset=".9505" stop-color="#032632" stop-opacity=".951"/><stop offset="1" stop-color="#03232e"/></linearGradient><linearGradient id="SVGID_4_" gradientUnits="userSpaceOnUse" x1="255" x2="255" xlink:href="#lg2" y1="202" y2="105.813"/><linearGradient id="SVGID_5_" gradientUnits="userSpaceOnUse" x1="143.003" x2="80.336" xlink:href="#lg2" y1="201.268" y2="137.268"/><linearGradient id="SVGID_6_" gradientUnits="userSpaceOnUse" x1="451.195" x2="383.862" xlink:href="#lg2" y1="208.412" y2="143.745"/><linearGradient id="lg3"><stop offset="0" stop-color="#ff9690"/><stop offset="1" stop-color="#f9545b"/></linearGradient><linearGradient id="SVGID_7_" gradientUnits="userSpaceOnUse" x1="231.795" x2="283.128" xlink:href="#lg3" y1="20.169" y2="176.836"/><linearGradient id="SVGID_8_" gradientUnits="userSpaceOnUse" x1="140.679" x2="74.273" xlink:href="#lg3" y1="159.321" y2="92.915"/><linearGradient id="SVGID_9_" gradientUnits="userSpaceOnUse" x1="440.827" x2="374.421" xlink:href="#lg3" y1="159.321" y2="92.915"/><linearGradient id="lg4"><stop offset="0" stop-color="#ffda2d"/><stop offset="1" stop-color="#fdbf00"/></linearGradient><linearGradient id="SVGID_10_" gradientUnits="userSpaceOnUse" x1="88.667" x2="121.037" xlink:href="#lg4" y1="160.788" y2="160.788"/><linearGradient id="SVGID_11_" gradientUnits="userSpaceOnUse" x1="388.963" x2="421.333" xlink:href="#lg4" y1="160.788" y2="160.788"/><linearGradient id="lg5"><stop offset="0" stop-color="#e63950" stop-opacity="0"/><stop offset=".0467" stop-color="#e4354b" stop-opacity=".047"/><stop offset=".4669" stop-color="#d31822" stop-opacity=".467"/><stop offset=".7991" stop-color="#c90709" stop-opacity=".799"/><stop offset="1" stop-color="#c50000"/></linearGradient><linearGradient id="SVGID_12_" gradientUnits="userSpaceOnUse" x1="130.195" x2="130.195" xlink:href="#lg5" y1="190.993" y2="134.314"/><linearGradient id="SVGID_13_" gradientUnits="userSpaceOnUse" x1="430.485" x2="430.485" xlink:href="#lg5" y1="190.993" y2="134.314"/><linearGradient id="SVGID_14_" gradientUnits="userSpaceOnUse" x1="255" x2="255" xlink:href="#lg2" y1="456.674" y2="537.683"/><linearGradient id="lg6"><stop offset="0" stop-color="#9ae1d3"/><stop offset="1" stop-color="#80d1c1"/></linearGradient><linearGradient id="SVGID_15_" gradientUnits="userSpaceOnUse" x1="70.656" x2="114.481" xlink:href="#lg6" y1="256.547" y2="300.372"/><linearGradient id="SVGID_16_" gradientUnits="userSpaceOnUse" x1="179.382" x2="223.207" xlink:href="#lg6" y1="256.547" y2="300.372"/><linearGradient id="SVGID_17_" gradientUnits="userSpaceOnUse" x1="288.108" x2="331.933" xlink:href="#lg6" y1="256.547" y2="300.372"/><linearGradient id="SVGID_18_" gradientUnits="userSpaceOnUse" x1="396.834" x2="440.659" xlink:href="#lg6" y1="256.547" y2="300.372"/><linearGradient id="SVGID_19_" gradientUnits="userSpaceOnUse" x1="70.656" x2="114.481" xlink:href="#lg3" y1="341.348" y2="385.174"/><linearGradient id="SVGID_20_" gradientUnits="userSpaceOnUse" x1="179.382" x2="223.207" xlink:href="#lg3" y1="341.348" y2="385.174"/><linearGradient id="SVGID_21_" gradientUnits="userSpaceOnUse" x1="288.108" x2="331.933" xlink:href="#lg3" y1="341.348" y2="385.174"/><linearGradient id="SVGID_22_" gradientUnits="userSpaceOnUse" x1="396.834" x2="440.659" xlink:href="#lg3" y1="341.348" y2="385.174"/><linearGradient id="SVGID_23_" gradientUnits="userSpaceOnUse" x1="70.656" x2="114.481" xlink:href="#lg3" y1="426.15" y2="469.976"/><linearGradient id="SVGID_24_" gradientUnits="userSpaceOnUse" x1="179.382" x2="223.207" xlink:href="#lg3" y1="426.15" y2="469.976"/><linearGradient id="SVGID_25_" gradientUnits="userSpaceOnUse" x1="288.108" x2="331.933" xlink:href="#lg3" y1="426.15" y2="469.976"/><linearGradient id="SVGID_26_" gradientUnits="userSpaceOnUse" x1="396.834" x2="440.659" xlink:href="#lg3" y1="426.15" y2="469.976"/><linearGradient id="SVGID_27_" gradientUnits="userSpaceOnUse" x1="222.273" x2="242.503" xlink:href="#lg1" y1="48.626" y2="48.626"/><linearGradient id="SVGID_28_" gradientUnits="userSpaceOnUse" x1="246.096" x2="287.727" xlink:href="#lg1" y1="48.704" y2="48.704"/><linearGradient id="SVGID_29_" gradientUnits="userSpaceOnUse" x1="170.995" x2="209.345" xlink:href="#lg1" y1="118.377" y2="118.377"/><linearGradient id="SVGID_30_" gradientUnits="userSpaceOnUse" x1="213.173" x2="258.553" xlink:href="#lg1" y1="118.143" y2="118.143"/><linearGradient id="SVGID_31_" gradientUnits="userSpaceOnUse" x1="254.102" x2="299.482" xlink:href="#lg1" y1="118.377" y2="118.377"/><linearGradient id="SVGID_32_" gradientUnits="userSpaceOnUse" x1="300.655" x2="339.006" xlink:href="#lg1" y1="118.533" y2="118.533"/><g><g><g><g><g><g><path d="m492.49 6.487h-474.98c-9.67 0-17.51 7.84-17.51 17.51v462.005c0 9.67 7.84 17.51 17.51 17.51h474.98c9.67 0 17.51-7.84 17.51-17.51v-462.005c0-9.67-7.84-17.51-17.51-17.51zm-69.34 213.376c-4.52 4.88-10.98 7.93-18.15 7.93s-13.63-3.05-18.15-7.93c-4.1-4.41-6.6-10.33-6.6-16.82 0-13.67 11.08-24.75 24.75-24.75s24.75 11.08 24.75 24.75c0 6.49-2.5 12.41-6.6 16.82zm-342.9-16.82c0-13.67 11.08-24.75 24.75-24.75s24.75 11.08 24.75 24.75c0 6.49-2.5 12.41-6.6 16.82-4.52 4.88-10.98 7.93-18.15 7.93s-13.63-3.05-18.15-7.93c-4.1-4.41-6.6-10.33-6.6-16.82zm349.5-79.4c0 13.67-11.08 24.75-24.75 24.75s-24.75-11.08-24.75-24.75 11.08-24.75 24.75-24.75 24.75 11.08 24.75 24.75zm-324.75-24.75c13.67 0 24.75 11.08 24.75 24.75s-11.08 24.75-24.75 24.75-24.75-11.08-24.75-24.75 11.08-24.75 24.75-24.75z" fill="url(#SVGID_1_)"/></g></g><path d="m105 166.067c-20.423 0-36.976 16.553-36.976 36.976s16.553 36.976 36.976 36.976c20.422 0 36.976-16.553 36.976-36.976s-16.554-36.976-36.976-36.976zm0 61.726c-13.67 0-24.75-11.08-24.75-24.75s11.08-24.75 24.75-24.75 24.75 11.08 24.75 24.75-11.08 24.75-24.75 24.75z" fill="url(#SVGID_2_)"/><path d="m405.148 166.067c-20.423 0-36.976 16.553-36.976 36.976s16.553 36.976 36.976 36.976c20.422 0 36.976-16.553 36.976-36.976s-16.553-36.976-36.976-36.976zm0 61.726c-13.67 0-24.75-11.08-24.75-24.75s11.08-24.75 24.75-24.75 24.75 11.08 24.75 24.75-11.08 24.75-24.75 24.75z" fill="url(#SVGID_3_)"/><path d="m510 160.793v59.07h-86.85c4.1-4.41 6.6-10.33 6.6-16.82 0-13.67-11.08-24.75-24.75-24.75s-24.75 11.08-24.75 24.75c0 6.49 2.5 12.41 6.6 16.82h-263.7c4.1-4.41 6.6-10.33 6.6-16.82 0-13.67-11.08-24.75-24.75-24.75s-24.75 11.08-24.75 24.75c0 6.49 2.5 12.41 6.6 16.82h-86.85v-59.07z" fill="url(#SVGID_4_)"/><path d="m123.56 219.403c3.86-4.36 6.19-10.09 6.19-16.36 0-7.55-3.38-14.31-8.71-18.84v-41.72l18.31 18.31 58.61 58.61z" fill="url(#SVGID_5_)"/><path d="m423.853 219.403c3.86-4.36 6.19-10.09 6.19-16.36 0-7.55-3.38-14.31-8.71-18.84v-41.72l18.31 18.31 58.61 58.61z" fill="url(#SVGID_6_)"/><path d="m492.49 6.487h-474.98c-9.67 0-17.51 7.84-17.51 17.51v136.795h510v-136.795c0-9.67-7.84-17.51-17.51-17.51zm-387.49 141.906c-13.67 0-24.75-11.08-24.75-24.75s11.08-24.75 24.75-24.75 24.75 11.08 24.75 24.75-11.08 24.75-24.75 24.75zm300 0c-13.67 0-24.75-11.08-24.75-24.75s11.08-24.75 24.75-24.75 24.75 11.08 24.75 24.75-11.08 24.75-24.75 24.75z" fill="url(#SVGID_7_)"/><path d="m105 86.667c-20.423 0-36.976 16.553-36.976 36.976s16.553 36.976 36.976 36.976c20.422 0 36.976-16.553 36.976-36.976s-16.554-36.976-36.976-36.976zm0 61.726c-13.67 0-24.75-11.08-24.75-24.75s11.08-24.75 24.75-24.75 24.75 11.08 24.75 24.75-11.08 24.75-24.75 24.75z" fill="url(#SVGID_8_)"/><path d="m405.148 86.667c-20.423 0-36.976 16.553-36.976 36.976s16.553 36.976 36.976 36.976c20.422 0 36.976-16.553 36.976-36.976s-16.553-36.976-36.976-36.976zm0 61.726c-13.67 0-24.75-11.08-24.75-24.75s11.08-24.75 24.75-24.75 24.75 11.08 24.75 24.75-11.08 24.75-24.75 24.75z" fill="url(#SVGID_9_)"/><path d="m104.852 203.043c-8.939 0-16.185-7.246-16.185-16.185v-52.139c0-8.939 7.246-16.185 16.185-16.185 8.939 0 16.185 7.246 16.185 16.185v52.139c0 8.938-7.246 16.185-16.185 16.185z" fill="url(#SVGID_10_)"/><path d="m405.148 203.043c-8.939 0-16.185-7.246-16.185-16.185v-52.139c0-8.939 7.246-16.185 16.185-16.185 8.939 0 16.185 7.246 16.185 16.185v52.139c0 8.938-7.246 16.185-16.185 16.185z" fill="url(#SVGID_11_)"/><path d="m139.35 160.793h-18.31v-18.31z" fill="url(#SVGID_12_)"/><path d="m439.64 160.793h-18.31v-18.31z" fill="url(#SVGID_13_)"/></g></g><path d="m0 416.243v69.76c0 9.67 7.84 17.51 17.51 17.51h474.98c9.67 0 17.51-7.84 17.51-17.51v-69.76z" fill="url(#SVGID_14_)"/></g><g><g><path d="m130.023 253.417c-1.146-3.66-4.132-6.45-7.869-7.31-20.085-4.623-40.402-4.623-60.486 0-3.737.86-6.723 3.651-7.869 7.31-5.074 16.201-5.073 32.571 0 48.77 1.146 3.66 4.132 6.45 7.869 7.31 20.085 4.623 40.401 4.623 60.486 0 3.737-.86 6.723-3.651 7.869-7.31 5.073-16.199 5.074-32.569 0-48.77z" fill="url(#SVGID_15_)"/><path d="m238.749 253.417c-1.146-3.66-4.132-6.45-7.869-7.31-20.085-4.623-40.402-4.623-60.486 0-3.737.86-6.723 3.651-7.869 7.31-5.074 16.201-5.073 32.571 0 48.77 1.146 3.66 4.132 6.45 7.869 7.31 20.085 4.623 40.401 4.623 60.486 0 3.737-.86 6.723-3.651 7.869-7.31 5.073-16.199 5.074-32.569 0-48.77z" fill="url(#SVGID_16_)"/><path d="m347.475 253.417c-1.146-3.66-4.132-6.45-7.869-7.31-20.085-4.623-40.402-4.623-60.486 0-3.737.86-6.723 3.651-7.869 7.31-5.074 16.201-5.073 32.571 0 48.77 1.146 3.66 4.132 6.45 7.869 7.31 20.085 4.623 40.401 4.623 60.486 0 3.737-.86 6.723-3.651 7.869-7.31 5.073-16.199 5.074-32.569 0-48.77z" fill="url(#SVGID_17_)"/><path d="m456.201 253.417c-1.146-3.66-4.132-6.45-7.869-7.31-20.085-4.623-40.402-4.623-60.486 0-3.737.86-6.723 3.651-7.869 7.31-5.074 16.201-5.073 32.571 0 48.77 1.146 3.66 4.132 6.45 7.869 7.31 20.085 4.623 40.401 4.623 60.486 0 3.737-.86 6.723-3.651 7.869-7.31 5.074-16.199 5.074-32.569 0-48.77z" fill="url(#SVGID_18_)"/></g><g><path d="m130.023 338.219c-1.146-3.66-4.132-6.45-7.869-7.31-20.085-4.623-40.402-4.623-60.486 0-3.737.86-6.723 3.651-7.869 7.31-5.074 16.201-5.073 32.571 0 48.77 1.146 3.66 4.132 6.45 7.869 7.31 20.085 4.623 40.401 4.623 60.486 0 3.737-.86 6.723-3.651 7.869-7.31 5.073-16.199 5.074-32.569 0-48.77z" fill="url(#SVGID_19_)"/><path d="m238.749 338.219c-1.146-3.66-4.132-6.45-7.869-7.31-20.085-4.623-40.402-4.623-60.486 0-3.737.86-6.723 3.651-7.869 7.31-5.074 16.201-5.073 32.571 0 48.77 1.146 3.66 4.132 6.45 7.869 7.31 20.085 4.623 40.401 4.623 60.486 0 3.737-.86 6.723-3.651 7.869-7.31 5.073-16.199 5.074-32.569 0-48.77z" fill="url(#SVGID_20_)"/><path d="m347.475 338.219c-1.146-3.66-4.132-6.45-7.869-7.31-20.085-4.623-40.402-4.623-60.486 0-3.737.86-6.723 3.651-7.869 7.31-5.074 16.201-5.073 32.571 0 48.77 1.146 3.66 4.132 6.45 7.869 7.31 20.085 4.623 40.401 4.623 60.486 0 3.737-.86 6.723-3.651 7.869-7.31 5.073-16.199 5.074-32.569 0-48.77z" fill="url(#SVGID_21_)"/><path d="m456.201 338.219c-1.146-3.66-4.132-6.45-7.869-7.31-20.085-4.623-40.402-4.623-60.486 0-3.737.86-6.723 3.651-7.869 7.31-5.074 16.201-5.073 32.571 0 48.77 1.146 3.66 4.132 6.45 7.869 7.31 20.085 4.623 40.401 4.623 60.486 0 3.737-.86 6.723-3.651 7.869-7.31 5.074-16.199 5.074-32.569 0-48.77z" fill="url(#SVGID_22_)"/></g><g><path d="m130.023 423.021c-1.146-3.66-4.132-6.45-7.869-7.31-20.085-4.623-40.402-4.623-60.486 0-3.737.86-6.723 3.651-7.869 7.31-5.074 16.201-5.073 32.571 0 48.77 1.146 3.66 4.132 6.45 7.869 7.31 20.085 4.623 40.401 4.623 60.486 0 3.737-.86 6.723-3.651 7.869-7.31 5.073-16.2 5.074-32.569 0-48.77z" fill="url(#SVGID_23_)"/><path d="m238.749 423.021c-1.146-3.66-4.132-6.45-7.869-7.31-20.085-4.623-40.402-4.623-60.486 0-3.737.86-6.723 3.651-7.869 7.31-5.074 16.201-5.073 32.571 0 48.77 1.146 3.66 4.132 6.45 7.869 7.31 20.085 4.623 40.401 4.623 60.486 0 3.737-.86 6.723-3.651 7.869-7.31 5.073-16.2 5.074-32.569 0-48.77z" fill="url(#SVGID_24_)"/><path d="m347.475 423.021c-1.146-3.66-4.132-6.45-7.869-7.31-20.085-4.623-40.402-4.623-60.486 0-3.737.86-6.723 3.651-7.869 7.31-5.074 16.201-5.073 32.571 0 48.77 1.146 3.66 4.132 6.45 7.869 7.31 20.085 4.623 40.401 4.623 60.486 0 3.737-.86 6.723-3.651 7.869-7.31 5.073-16.2 5.074-32.569 0-48.77z" fill="url(#SVGID_25_)"/><path d="m456.201 423.021c-1.146-3.66-4.132-6.45-7.869-7.31-20.085-4.623-40.402-4.623-60.486 0-3.737.86-6.723 3.651-7.869 7.31-5.074 16.201-5.073 32.571 0 48.77 1.146 3.66 4.132 6.45 7.869 7.31 20.085 4.623 40.401 4.623 60.486 0 3.737-.86 6.723-3.651 7.869-7.31 5.074-16.2 5.074-32.569 0-48.77z" fill="url(#SVGID_26_)"/></g></g><g><g><path d="m230.318 33.747-2.265 1.406c-.703.469-1.406.625-1.953.625-2.265 0-3.827-2.421-3.827-4.843 0-1.64.703-3.202 2.265-4.14l10.31-6.248c.625-.391 1.406-.547 2.265-.547 2.499 0 5.389 1.484 5.389 3.827v49.675c0 2.499-3.046 3.749-6.092 3.749s-6.092-1.25-6.092-3.749z" fill="url(#SVGID_27_)"/><path d="m268.435 65.223h-18.277c-2.265 0-4.062-1.484-4.062-4.218 0-.625.156-1.484.625-2.343l18.043-35.382c1.171-2.265 3.124-3.124 5.077-3.124 2.109 0 6.092 1.796 6.092 4.608 0 .469-.156.937-.39 1.484l-13.825 27.728h6.717v-5.467c0-2.577 3.046-3.671 6.092-3.671s6.092 1.094 6.092 3.671v5.467h3.359c2.499 0 3.749 2.812 3.749 5.624s-1.875 5.624-3.749 5.624h-3.359v8.279c0 2.499-3.046 3.749-6.092 3.749s-6.092-1.25-6.092-3.749z" fill="url(#SVGID_28_)"/></g><g><path d="m190.131 89.829c10.779 0 19.214 4.999 19.214 18.433v20.23c0 13.434-8.435 18.433-19.214 18.433h-13.824c-3.203 0-5.312-1.718-5.312-3.671v-49.754c0-1.953 2.109-3.671 5.312-3.671zm-6.952 10.622v35.851h6.951c4.374 0 7.03-2.499 7.03-7.811v-20.23c0-5.311-2.655-7.811-7.03-7.811h-6.951z" fill="url(#SVGID_29_)"/><path d="m213.173 141.926c0-.234.078-.547.156-.859l14.528-47.645c.859-2.734 4.374-4.061 7.967-4.061s7.108 1.328 7.967 4.061l14.606 47.645c.078.312.156.625.156.859 0 2.89-4.452 4.999-7.811 4.999-1.953 0-3.514-.625-3.983-2.265l-2.656-9.763h-16.48l-2.655 9.763c-.469 1.64-2.031 2.265-3.984 2.265-3.359-.001-7.811-2.109-7.811-4.999zm28.353-16.403-5.702-20.932-5.702 20.932z" fill="url(#SVGID_30_)"/><path d="m270.738 123.571c0-.469-.156-.859-.312-1.093l-16.168-26.79c-.156-.313-.156-.625-.156-.859 0-2.89 4.921-4.999 8.279-4.999 1.953 0 2.655.781 3.515 2.265l10.935 20.073 10.857-20.073c.781-1.484 1.562-2.265 3.515-2.265 3.358 0 8.279 2.109 8.279 4.999 0 .234 0 .547-.156.859l-16.09 26.79c-.156.234-.312.625-.312 1.093v19.605c0 2.499-3.046 3.749-6.092 3.749s-6.092-1.25-6.092-3.749v-19.605z" fill="url(#SVGID_31_)"/><path d="m326.821 131.616c0-9.451-24.76-7.811-24.76-26.087 0-11.716 10.232-16.168 19.995-16.168 4.14 0 15.543.781 15.543 6.873 0 2.109-1.406 6.405-4.843 6.405-2.812 0-4.296-2.968-10.7-2.968-5.546 0-7.811 2.265-7.811 4.686 0 7.81 24.76 6.327 24.76 26.009 0 11.247-8.201 17.34-19.527 17.34-10.232 0-18.824-4.999-18.824-10.154 0-2.656 2.343-6.561 5.312-6.561 3.671 0 6.014 5.78 13.278 5.78 3.594 0 7.577-1.406 7.577-5.155z" fill="url(#SVGID_32_)"/></g></g></g></svg>