<svg id="Capa_1" enable-background="new 0 0 510 510" height="512" viewBox="0 0 510 510" width="512" xmlns="http://www.w3.org/2000/svg" xmlns:xlink="http://www.w3.org/1999/xlink"><linearGradient id="lg1"><stop offset="0" stop-color="#d5e8fe"/><stop offset="1" stop-color="#b5dbff"/></linearGradient><linearGradient id="SVGID_1_" gradientUnits="userSpaceOnUse" x1="113.02" x2="308.92" xlink:href="#lg1" y1="197.35" y2="393.249"/><linearGradient id="SVGID_2_" gradientUnits="userSpaceOnUse" x1="159.142" x2="355.041" xlink:href="#lg1" y1="151.228" y2="347.127"/><linearGradient id="SVGID_3_" gradientUnits="userSpaceOnUse" x1="262.342" x2="458.242" xlink:href="#lg1" y1="48.027" y2="243.927"/><linearGradient id="SVGID_4_" gradientUnits="userSpaceOnUse" x1="214.346" x2="410.246" xlink:href="#lg1" y1="96.024" y2="291.923"/><linearGradient id="SVGID_5_" gradientUnits="userSpaceOnUse" x1="229.636" x2="425.536" xlink:href="#lg1" y1="80.733" y2="276.633"/><linearGradient id="SVGID_6_" gradientUnits="userSpaceOnUse" x1="176.472" x2="372.372" xlink:href="#lg1" y1="133.897" y2="329.797"/><linearGradient id="SVGID_7_" gradientUnits="userSpaceOnUse" x1="96.073" x2="291.973" xlink:href="#lg1" y1="214.296" y2="410.196"/><linearGradient id="SVGID_8_" gradientUnits="userSpaceOnUse" x1="197.358" x2="393.258" xlink:href="#lg1" y1="112.929" y2="308.829"/><linearGradient id="SVGID_9_" gradientUnits="userSpaceOnUse" x1="80.783" x2="276.683" xlink:href="#lg1" y1="229.587" y2="425.486"/><linearGradient id="SVGID_10_" gradientUnits="userSpaceOnUse" x1="133.947" x2="329.847" xlink:href="#lg1" y1="176.423" y2="372.322"/><linearGradient id="SVGID_11_" gradientUnits="userSpaceOnUse" x1="48.077" x2="243.977" xlink:href="#lg1" y1="262.293" y2="458.192"/><linearGradient id="SVGID_12_" gradientUnits="userSpaceOnUse" x1="151.278" x2="347.177" xlink:href="#lg1" y1="159.092" y2="354.992"/><linearGradient id="SVGID_13_" gradientUnits="userSpaceOnUse" x1="164.424" x2="319.126" y1="92.504" y2="369.959"><stop offset="0" stop-color="#edf5ff"/><stop offset="1" stop-color="#d5e8fe"/></linearGradient><linearGradient id="lg2"><stop offset="0" stop-color="#07485e" stop-opacity="0"/><stop offset=".2708" stop-color="#074459" stop-opacity=".271"/><stop offset=".597" stop-color="#05394a" stop-opacity=".597"/><stop offset=".9505" stop-color="#032632" stop-opacity=".951"/><stop offset="1" stop-color="#03232e"/></linearGradient><linearGradient id="SVGID_14_" gradientUnits="userSpaceOnUse" x1="302.474" x2="17.452" xlink:href="#lg2" y1="266.012" y2="157.553"/><linearGradient id="lg3"><stop offset="0" stop-color="#ff637b"/><stop offset="1" stop-color="#e63950"/></linearGradient><linearGradient id="SVGID_15_" gradientUnits="userSpaceOnUse" x1="301.778" x2="323.014" xlink:href="#lg3" y1="280.053" y2="301.29"/><linearGradient id="SVGID_16_" gradientTransform="matrix(0 1 -1 0 -1086 -1596)" gradientUnits="userSpaceOnUse" x1="1696.562" x2="1705.062" xlink:href="#lg3" y1="-1549.325" y2="-1549.325"/><linearGradient id="lg4"><stop offset="0" stop-color="#ff9690"/><stop offset="1" stop-color="#f9545b"/></linearGradient><linearGradient id="SVGID_17_" gradientTransform="matrix(0 1 -1 0 -1086 -1596)" gradientUnits="userSpaceOnUse" x1="1697.648" x2="1703.5" xlink:href="#lg4" y1="-1564.643" y2="-1558.792"/><linearGradient id="SVGID_18_" gradientTransform="matrix(.707 .707 -.707 .707 -873.542 -573.082)" gradientUnits="userSpaceOnUse" x1="1389.418" x2="1397.918" xlink:href="#lg3" y1="-479.684" y2="-479.684"/><linearGradient id="SVGID_19_" gradientTransform="matrix(.707 .707 -.707 .707 -873.542 -573.082)" gradientUnits="userSpaceOnUse" x1="1390.504" x2="1396.356" xlink:href="#lg4" y1="-495.002" y2="-489.15"/><linearGradient id="SVGID_20_" gradientTransform="matrix(-.707 .707 -.707 -.707 -512.918 -2469.543)" gradientUnits="userSpaceOnUse" x1="1157.395" x2="1165.895" xlink:href="#lg3" y1="-2522.859" y2="-2522.859"/><linearGradient id="SVGID_21_" gradientTransform="matrix(-.707 .707 -.707 -.707 -512.918 -2469.543)" gradientUnits="userSpaceOnUse" x1="1158.481" x2="1164.333" xlink:href="#lg4" y1="-2538.178" y2="-2532.326"/><linearGradient id="SVGID_22_" gradientUnits="userSpaceOnUse" x1="415.884" x2="424.384" xlink:href="#lg3" y1="59.483" y2="59.483"/><linearGradient id="SVGID_23_" gradientUnits="userSpaceOnUse" x1="416.97" x2="422.822" xlink:href="#lg4" y1="44.165" y2="50.017"/><linearGradient id="SVGID_24_" gradientTransform="matrix(-1 0 0 -1 510 -2478.034)" gradientUnits="userSpaceOnUse" x1="87.753" x2="96.253" xlink:href="#lg3" y1="-2626.037" y2="-2626.037"/><linearGradient id="SVGID_25_" gradientTransform="matrix(-1 0 0 -1 510 -2478.034)" gradientUnits="userSpaceOnUse" x1="88.839" x2="94.691" xlink:href="#lg4" y1="-2641.355" y2="-2635.503"/><linearGradient id="SVGID_26_" gradientTransform="matrix(0 -1 1 0 1392.034 -1086)" gradientUnits="userSpaceOnUse" x1="-1192.924" x2="-1184.424" xlink:href="#lg3" y1="-1017.229" y2="-1017.229"/><linearGradient id="SVGID_27_" gradientTransform="matrix(0 -1 1 0 1392.034 -1086)" gradientUnits="userSpaceOnUse" x1="-1191.838" x2="-1185.987" xlink:href="#lg4" y1="-1032.547" y2="-1026.695"/><linearGradient id="SVGID_28_" gradientTransform="matrix(-.707 -.707 .707 -.707 1239.317 -1964.692)" gradientUnits="userSpaceOnUse" x1="-885.781" x2="-877.281" xlink:href="#lg3" y1="-2086.87" y2="-2086.87"/><linearGradient id="SVGID_29_" gradientTransform="matrix(-.707 -.707 .707 -.707 1239.317 -1964.692)" gradientUnits="userSpaceOnUse" x1="-884.695" x2="-878.843" xlink:href="#lg4" y1="-2102.188" y2="-2096.336"/><linearGradient id="SVGID_30_" gradientTransform="matrix(.707 -.707 .707 .707 878.692 -356.683)" gradientUnits="userSpaceOnUse" x1="-653.757" x2="-645.257" xlink:href="#lg3" y1="-43.695" y2="-43.695"/><linearGradient id="SVGID_31_" gradientTransform="matrix(.707 -.707 .707 .707 878.692 -356.683)" gradientUnits="userSpaceOnUse" x1="-652.671" x2="-646.819" xlink:href="#lg4" y1="-59.013" y2="-53.161"/><linearGradient id="SVGID_32_" gradientUnits="userSpaceOnUse" x1="388.313" x2="452.8" xlink:href="#lg4" y1="72.991" y2="137.478"/><linearGradient id="lg5"><stop offset="0" stop-color="#e63950" stop-opacity="0"/><stop offset=".0467" stop-color="#e4354b" stop-opacity=".047"/><stop offset=".4669" stop-color="#d31822" stop-opacity=".467"/><stop offset=".7991" stop-color="#c90709" stop-opacity=".799"/><stop offset="1" stop-color="#c50000"/></linearGradient><linearGradient id="SVGID_33_" gradientUnits="userSpaceOnUse" x1="447.482" x2="423.733" xlink:href="#lg5" y1="81.778" y2="58.029"/><linearGradient id="SVGID_34_" gradientUnits="userSpaceOnUse" x1="425.057" x2="413.922" xlink:href="#lg5" y1="115.803" y2="93.8"/><linearGradient id="SVGID_35_" gradientTransform="matrix(.927 .375 -.375 .927 -484.14 -193.403)" gradientUnits="userSpaceOnUse" x1="946.179" x2="952.997" xlink:href="#lg3" y1="-98.635" y2="-98.635"/><linearGradient id="SVGID_36_" gradientTransform="matrix(.927 .375 -.375 .927 -484.14 -193.403)" gradientUnits="userSpaceOnUse" x1="947.05" x2="951.744" xlink:href="#lg4" y1="-110.921" y2="-106.227"/><linearGradient id="SVGID_37_" gradientTransform="matrix(-.375 .927 -.927 -.375 -892.597 -2080.14)" gradientUnits="userSpaceOnUse" x1="1530.313" x2="1537.131" xlink:href="#lg3" y1="-2070.23" y2="-2070.23"/><linearGradient id="SVGID_38_" gradientTransform="matrix(-.375 .927 -.927 -.375 -892.597 -2080.14)" gradientUnits="userSpaceOnUse" x1="1531.184" x2="1535.878" xlink:href="#lg4" y1="-2082.516" y2="-2077.823"/><linearGradient id="SVGID_39_" gradientTransform="matrix(.39 .921 -.921 .39 -1079.124 -1052.178)" gradientUnits="userSpaceOnUse" x1="1646.577" x2="1653.394" xlink:href="#lg3" y1="-963.455" y2="-963.455"/><linearGradient id="SVGID_40_" gradientTransform="matrix(.39 .921 -.921 .39 -1079.124 -1052.178)" gradientUnits="userSpaceOnUse" x1="1647.448" x2="1652.141" xlink:href="#lg4" y1="-975.741" y2="-971.047"/><linearGradient id="SVGID_41_" gradientTransform="matrix(-.921 .39 -.39 -.921 -33.822 -2675.124)" gradientUnits="userSpaceOnUse" x1="665.493" x2="672.311" xlink:href="#lg3" y1="-2770.628" y2="-2770.628"/><linearGradient id="SVGID_42_" gradientTransform="matrix(-.921 .39 -.39 -.921 -33.822 -2675.124)" gradientUnits="userSpaceOnUse" x1="666.364" x2="671.058" xlink:href="#lg4" y1="-2782.914" y2="-2778.22"/><linearGradient id="SVGID_43_" gradientTransform="matrix(-.927 -.375 .375 -.927 917.674 -2299.507)" gradientUnits="userSpaceOnUse" x1="-441.282" x2="-434.465" xlink:href="#lg3" y1="-2450.398" y2="-2450.398"/><linearGradient id="SVGID_44_" gradientTransform="matrix(-.927 -.375 .375 -.927 917.674 -2299.507)" gradientUnits="userSpaceOnUse" x1="-440.411" x2="-435.718" xlink:href="#lg4" y1="-2462.684" y2="-2457.99"/><linearGradient id="SVGID_45_" gradientUnits="userSpaceOnUse" x1="385.557" x2="381.846" xlink:href="#lg5" y1="100.329" y2="74.216"/><linearGradient id="SVGID_46_" gradientTransform="matrix(.375 -.927 .927 .375 1213.507 -678.326)" gradientUnits="userSpaceOnUse" x1="-1025.416" x2="-1018.599" xlink:href="#lg3" y1="-478.803" y2="-478.803"/><linearGradient id="SVGID_47_" gradientTransform="matrix(.375 -.927 .927 .375 1213.507 -678.326)" gradientUnits="userSpaceOnUse" x1="-1024.545" x2="-1019.852" xlink:href="#lg4" y1="-491.089" y2="-486.395"/><linearGradient id="SVGID_48_" gradientTransform="matrix(-.39 -.921 .921 -.39 1401.347 -1550.185)" gradientUnits="userSpaceOnUse" x1="-1141.68" x2="-1134.863" xlink:href="#lg3" y1="-1585.578" y2="-1585.578"/><linearGradient id="SVGID_49_" gradientTransform="matrix(-.39 -.921 .921 -.39 1401.347 -1550.185)" gradientUnits="userSpaceOnUse" x1="-1140.809" x2="-1136.115" xlink:href="#lg4" y1="-1597.864" y2="-1593.171"/><linearGradient id="SVGID_50_" gradientUnits="userSpaceOnUse" x1="415.962" x2="389.982" xlink:href="#lg5" y1="75.384" y2="55.103"/><linearGradient id="SVGID_51_" gradientTransform="matrix(.921 -.39 .39 .921 464.185 -194.653)" gradientUnits="userSpaceOnUse" x1="-160.597" x2="-153.779" xlink:href="#lg3" y1="221.595" y2="221.595"/><linearGradient id="SVGID_52_" gradientTransform="matrix(.921 -.39 .39 .921 464.185 -194.653)" gradientUnits="userSpaceOnUse" x1="-159.726" x2="-155.032" xlink:href="#lg4" y1="209.309" y2="214.003"/><linearGradient id="SVGID_53_" gradientUnits="userSpaceOnUse" x1="410.847" x2="433.8" xlink:href="#lg3" y1="95.525" y2="118.478"/><linearGradient id="lg6"><stop offset="0" stop-color="#fff" stop-opacity="0"/><stop offset="1" stop-color="#fff"/></linearGradient><linearGradient id="SVGID_54_" gradientUnits="userSpaceOnUse" x1="449.976" x2="368.297" xlink:href="#lg6" y1="134.654" y2="52.975"/><linearGradient id="SVGID_55_" gradientTransform="matrix(0 1 -1 0 -1086 -1596)" gradientUnits="userSpaceOnUse" x1="1761.358" x2="1769.858" xlink:href="#lg3" y1="-1221.195" y2="-1221.195"/><linearGradient id="SVGID_56_" gradientTransform="matrix(0 1 -1 0 -1086 -1596)" gradientUnits="userSpaceOnUse" x1="1762.444" x2="1768.296" xlink:href="#lg4" y1="-1236.513" y2="-1230.661"/><linearGradient id="SVGID_57_" gradientTransform="matrix(.707 .707 -.707 .707 -873.542 -573.082)" gradientUnits="userSpaceOnUse" x1="1203.213" x2="1211.712" xlink:href="#lg3" y1="-201.843" y2="-201.843"/><linearGradient id="SVGID_58_" gradientTransform="matrix(.707 .707 -.707 .707 -873.542 -573.082)" gradientUnits="userSpaceOnUse" x1="1204.299" x2="1210.15" xlink:href="#lg4" y1="-217.161" y2="-211.309"/><linearGradient id="SVGID_59_" gradientTransform="matrix(-.707 .707 -.707 -.707 -512.918 -2469.543)" gradientUnits="userSpaceOnUse" x1="1435.236" x2="1443.736" xlink:href="#lg3" y1="-2336.654" y2="-2336.654"/><linearGradient id="SVGID_60_" gradientTransform="matrix(-.707 .707 -.707 -.707 -512.918 -2469.543)" gradientUnits="userSpaceOnUse" x1="1436.322" x2="1442.174" xlink:href="#lg4" y1="-2351.972" y2="-2346.12"/><linearGradient id="SVGID_61_" gradientUnits="userSpaceOnUse" x1="87.753" x2="96.253" xlink:href="#lg3" y1="124.279" y2="124.279"/><linearGradient id="SVGID_62_" gradientUnits="userSpaceOnUse" x1="88.839" x2="94.691" xlink:href="#lg4" y1="108.961" y2="114.813"/><linearGradient id="SVGID_63_" gradientTransform="matrix(-1 0 0 -1 510 -2478.034)" gradientUnits="userSpaceOnUse" x1="415.884" x2="424.384" xlink:href="#lg3" y1="-2690.833" y2="-2690.833"/><linearGradient id="SVGID_64_" gradientTransform="matrix(-1 0 0 -1 510 -2478.034)" gradientUnits="userSpaceOnUse" x1="416.97" x2="422.822" xlink:href="#lg4" y1="-2706.151" y2="-2700.299"/><linearGradient id="SVGID_65_" gradientTransform="matrix(0 -1 1 0 1392.034 -1086)" gradientUnits="userSpaceOnUse" x1="-1257.721" x2="-1249.221" xlink:href="#lg3" y1="-1345.359" y2="-1345.359"/><linearGradient id="SVGID_66_" gradientTransform="matrix(0 -1 1 0 1392.034 -1086)" gradientUnits="userSpaceOnUse" x1="-1256.635" x2="-1250.783" xlink:href="#lg4" y1="-1360.677" y2="-1354.825"/><linearGradient id="SVGID_67_" gradientTransform="matrix(-.707 -.707 .707 -.707 1239.317 -1964.692)" gradientUnits="userSpaceOnUse" x1="-699.575" x2="-691.075" xlink:href="#lg3" y1="-2364.711" y2="-2364.711"/><linearGradient id="SVGID_68_" gradientTransform="matrix(-.707 -.707 .707 -.707 1239.317 -1964.692)" gradientUnits="userSpaceOnUse" x1="-698.489" x2="-692.637" xlink:href="#lg4" y1="-2380.029" y2="-2374.177"/><linearGradient id="SVGID_69_" gradientTransform="matrix(.707 -.707 .707 .707 878.692 -356.683)" gradientUnits="userSpaceOnUse" x1="-931.599" x2="-923.099" xlink:href="#lg3" y1="-229.9" y2="-229.9"/><linearGradient id="SVGID_70_" gradientTransform="matrix(.707 -.707 .707 .707 878.692 -356.683)" gradientUnits="userSpaceOnUse" x1="-930.513" x2="-924.661" xlink:href="#lg4" y1="-245.218" y2="-239.366"/><linearGradient id="SVGID_71_" gradientUnits="userSpaceOnUse" x1="60.182" x2="124.669" xlink:href="#lg4" y1="137.787" y2="202.274"/><linearGradient id="SVGID_72_" gradientUnits="userSpaceOnUse" x1="119.351" x2="95.602" xlink:href="#lg5" y1="146.574" y2="122.825"/><linearGradient id="SVGID_73_" gradientUnits="userSpaceOnUse" x1="96.926" x2="85.792" xlink:href="#lg5" y1="180.599" y2="158.596"/><linearGradient id="SVGID_74_" gradientTransform="matrix(.927 .375 -.375 .927 -484.14 -193.403)" gradientUnits="userSpaceOnUse" x1="666.272" x2="673.09" xlink:href="#lg3" y1="84.451" y2="84.451"/><linearGradient id="SVGID_75_" gradientTransform="matrix(.927 .375 -.375 .927 -484.14 -193.403)" gradientUnits="userSpaceOnUse" x1="667.143" x2="671.837" xlink:href="#lg4" y1="72.165" y2="76.859"/><linearGradient id="SVGID_76_" gradientTransform="matrix(-.375 .927 -.927 -.375 -892.597 -2080.14)" gradientUnits="userSpaceOnUse" x1="1713.399" x2="1720.216" xlink:href="#lg3" y1="-1790.323" y2="-1790.323"/><linearGradient id="SVGID_77_" gradientTransform="matrix(-.375 .927 -.927 -.375 -892.597 -2080.14)" gradientUnits="userSpaceOnUse" x1="1714.27" x2="1718.963" xlink:href="#lg4" y1="-1802.609" y2="-1797.916"/><linearGradient id="SVGID_78_" gradientTransform="matrix(.39 .921 -.921 .39 -1079.124 -1052.178)" gradientUnits="userSpaceOnUse" x1="1578.114" x2="1584.932" xlink:href="#lg3" y1="-636.069" y2="-636.069"/><linearGradient id="SVGID_79_" gradientTransform="matrix(.39 .921 -.921 .39 -1079.124 -1052.178)" gradientUnits="userSpaceOnUse" x1="1578.985" x2="1583.679" xlink:href="#lg4" y1="-648.355" y2="-643.662"/><linearGradient id="SVGID_80_" gradientTransform="matrix(-.921 .39 -.39 -.921 -33.822 -2675.124)" gradientUnits="userSpaceOnUse" x1="992.879" x2="999.696" xlink:href="#lg3" y1="-2702.165" y2="-2702.165"/><linearGradient id="SVGID_81_" gradientTransform="matrix(-.921 .39 -.39 -.921 -33.822 -2675.124)" gradientUnits="userSpaceOnUse" x1="993.75" x2="998.443" xlink:href="#lg4" y1="-2714.451" y2="-2709.758"/><linearGradient id="SVGID_82_" gradientTransform="matrix(-.927 -.375 .375 -.927 917.674 -2299.507)" gradientUnits="userSpaceOnUse" x1="-161.376" x2="-154.558" xlink:href="#lg3" y1="-2633.484" y2="-2633.484"/><linearGradient id="SVGID_83_" gradientTransform="matrix(-.927 -.375 .375 -.927 917.674 -2299.507)" gradientUnits="userSpaceOnUse" x1="-160.504" x2="-155.811" xlink:href="#lg4" y1="-2645.77" y2="-2641.076"/><linearGradient id="SVGID_84_" gradientUnits="userSpaceOnUse" x1="57.427" x2="53.715" xlink:href="#lg5" y1="165.125" y2="139.012"/><linearGradient id="SVGID_85_" gradientTransform="matrix(.375 -.927 .927 .375 1213.507 -678.326)" gradientUnits="userSpaceOnUse" x1="-1208.502" x2="-1201.685" xlink:href="#lg3" y1="-758.709" y2="-758.709"/><linearGradient id="SVGID_86_" gradientTransform="matrix(.375 -.927 .927 .375 1213.507 -678.326)" gradientUnits="userSpaceOnUse" x1="-1207.631" x2="-1202.937" xlink:href="#lg4" y1="-770.995" y2="-766.302"/><linearGradient id="SVGID_87_" gradientTransform="matrix(-.39 -.921 .921 -.39 1401.347 -1550.185)" gradientUnits="userSpaceOnUse" x1="-1073.217" x2="-1066.4" xlink:href="#lg3" y1="-1912.964" y2="-1912.964"/><linearGradient id="SVGID_88_" gradientTransform="matrix(-.39 -.921 .921 -.39 1401.347 -1550.185)" gradientUnits="userSpaceOnUse" x1="-1072.346" x2="-1067.653" xlink:href="#lg4" y1="-1925.25" y2="-1920.556"/><linearGradient id="SVGID_89_" gradientUnits="userSpaceOnUse" x1="87.832" x2="61.851" xlink:href="#lg5" y1="140.18" y2="119.9"/><linearGradient id="SVGID_90_" gradientTransform="matrix(.921 -.39 .39 .921 464.185 -194.653)" gradientUnits="userSpaceOnUse" x1="-487.982" x2="-481.164" xlink:href="#lg3" y1="153.132" y2="153.132"/><linearGradient id="SVGID_91_" gradientTransform="matrix(.921 -.39 .39 .921 464.185 -194.653)" gradientUnits="userSpaceOnUse" x1="-487.111" x2="-482.417" xlink:href="#lg4" y1="140.846" y2="145.54"/><linearGradient id="SVGID_92_" gradientUnits="userSpaceOnUse" x1="82.716" x2="105.669" xlink:href="#lg3" y1="160.321" y2="183.274"/><linearGradient id="SVGID_93_" gradientUnits="userSpaceOnUse" x1="121.846" x2="40.166" xlink:href="#lg6" y1="199.45" y2="117.771"/><linearGradient id="SVGID_94_" gradientUnits="userSpaceOnUse" x1="180.037" x2="201.273" xlink:href="#lg3" y1="228.783" y2="250.02"/><linearGradient id="SVGID_95_" gradientUnits="userSpaceOnUse" x1="329.824" x2="351.061" xlink:href="#lg3" y1="183" y2="204.237"/><linearGradient id="SVGID_96_" gradientUnits="userSpaceOnUse" x1="396.601" x2="389.174" xlink:href="#lg2" y1="242.473" y2="144.571"/><linearGradient id="lg7"><stop offset="0" stop-color="#9ae1d3"/><stop offset="1" stop-color="#80d1c1"/></linearGradient><linearGradient id="SVGID_97_" gradientUnits="userSpaceOnUse" x1="378.175" x2="442.734" xlink:href="#lg7" y1="75.446" y2="140.006"/><linearGradient id="SVGID_98_" gradientUnits="userSpaceOnUse" x1="220.852" x2="48.057" xlink:href="#lg2" y1="291.712" y2="138.492"/><linearGradient id="SVGID_99_" gradientUnits="userSpaceOnUse" x1="71.615" x2="132.76" xlink:href="#lg7" y1="149.22" y2="210.365"/><linearGradient id="SVGID_100_" gradientUnits="userSpaceOnUse" x1="336.986" x2="306.554" xlink:href="#lg2" y1="402.504" y2="343.671"/><linearGradient id="SVGID_101_" gradientTransform="matrix(0 1 -1 0 -1086 -1596)" gradientUnits="userSpaceOnUse" x1="1998.976" x2="2007.476" xlink:href="#lg3" y1="-1465.844" y2="-1465.844"/><linearGradient id="SVGID_102_" gradientTransform="matrix(0 1 -1 0 -1086 -1596)" gradientUnits="userSpaceOnUse" x1="2000.062" x2="2005.914" xlink:href="#lg4" y1="-1481.162" y2="-1475.31"/><linearGradient id="SVGID_103_" gradientTransform="matrix(.707 .707 -.707 .707 -873.542 -573.082)" gradientUnits="userSpaceOnUse" x1="1544.227" x2="1552.727" xlink:href="#lg3" y1="-206.815" y2="-206.815"/><linearGradient id="SVGID_104_" gradientTransform="matrix(.707 .707 -.707 .707 -873.542 -573.082)" gradientUnits="userSpaceOnUse" x1="1545.313" x2="1551.165" xlink:href="#lg4" y1="-222.133" y2="-216.281"/><linearGradient id="SVGID_105_" gradientTransform="matrix(-.707 .707 -.707 -.707 -512.918 -2469.543)" gradientUnits="userSpaceOnUse" x1="1430.264" x2="1438.764" xlink:href="#lg3" y1="-2677.668" y2="-2677.668"/><linearGradient id="SVGID_106_" gradientTransform="matrix(-.707 .707 -.707 -.707 -512.918 -2469.543)" gradientUnits="userSpaceOnUse" x1="1431.35" x2="1437.202" xlink:href="#lg4" y1="-2692.986" y2="-2687.135"/><linearGradient id="SVGID_107_" gradientUnits="userSpaceOnUse" x1="332.403" x2="340.903" xlink:href="#lg3" y1="361.897" y2="361.897"/><linearGradient id="SVGID_108_" gradientUnits="userSpaceOnUse" x1="333.489" x2="339.34" xlink:href="#lg4" y1="346.579" y2="352.431"/><linearGradient id="SVGID_109_" gradientTransform="matrix(-1 0 0 -1 510 -2478.034)" gradientUnits="userSpaceOnUse" x1="171.235" x2="179.735" xlink:href="#lg3" y1="-2928.451" y2="-2928.451"/><linearGradient id="SVGID_110_" gradientTransform="matrix(-1 0 0 -1 510 -2478.034)" gradientUnits="userSpaceOnUse" x1="172.321" x2="178.173" xlink:href="#lg4" y1="-2943.769" y2="-2937.918"/><linearGradient id="SVGID_111_" gradientTransform="matrix(0 -1 1 0 1392.034 -1086)" gradientUnits="userSpaceOnUse" x1="-1495.339" x2="-1486.839" xlink:href="#lg3" y1="-1100.71" y2="-1100.71"/><linearGradient id="SVGID_112_" gradientTransform="matrix(0 -1 1 0 1392.034 -1086)" gradientUnits="userSpaceOnUse" x1="-1494.253" x2="-1488.401" xlink:href="#lg4" y1="-1116.028" y2="-1110.176"/><linearGradient id="SVGID_113_" gradientTransform="matrix(-.707 -.707 .707 -.707 1239.317 -1964.692)" gradientUnits="userSpaceOnUse" x1="-1040.59" x2="-1032.09" xlink:href="#lg3" y1="-2359.74" y2="-2359.74"/><linearGradient id="SVGID_114_" gradientTransform="matrix(-.707 -.707 .707 -.707 1239.317 -1964.692)" gradientUnits="userSpaceOnUse" x1="-1039.503" x2="-1033.652" xlink:href="#lg4" y1="-2375.057" y2="-2369.206"/><linearGradient id="SVGID_115_" gradientTransform="matrix(.707 -.707 .707 .707 878.692 -356.683)" gradientUnits="userSpaceOnUse" x1="-926.627" x2="-918.127" xlink:href="#lg3" y1="111.114" y2="111.114"/><linearGradient id="SVGID_116_" gradientTransform="matrix(.707 -.707 .707 .707 878.692 -356.683)" gradientUnits="userSpaceOnUse" x1="-925.541" x2="-919.689" xlink:href="#lg4" y1="95.796" y2="101.648"/><linearGradient id="SVGID_117_" gradientUnits="userSpaceOnUse" x1="304.832" x2="369.318" xlink:href="#lg4" y1="375.405" y2="439.892"/><linearGradient id="SVGID_118_" gradientUnits="userSpaceOnUse" x1="364" x2="340.252" xlink:href="#lg5" y1="384.192" y2="360.443"/><linearGradient id="SVGID_119_" gradientUnits="userSpaceOnUse" x1="341.575" x2="330.441" xlink:href="#lg5" y1="418.218" y2="396.214"/><linearGradient id="SVGID_120_" gradientTransform="matrix(.927 .375 -.375 .927 -484.14 -193.403)" gradientUnits="userSpaceOnUse" x1="982.161" x2="988.978" xlink:href="#lg3" y1="213.02" y2="213.02"/><linearGradient id="SVGID_121_" gradientTransform="matrix(.927 .375 -.375 .927 -484.14 -193.403)" gradientUnits="userSpaceOnUse" x1="983.032" x2="987.725" xlink:href="#lg4" y1="200.734" y2="205.428"/><linearGradient id="SVGID_122_" gradientTransform="matrix(-.375 .927 -.927 -.375 -892.597 -2080.14)" gradientUnits="userSpaceOnUse" x1="1841.968" x2="1848.786" xlink:href="#lg3" y1="-2106.212" y2="-2106.212"/><linearGradient id="SVGID_123_" gradientTransform="matrix(-.375 .927 -.927 -.375 -892.597 -2080.14)" gradientUnits="userSpaceOnUse" x1="1842.839" x2="1847.533" xlink:href="#lg4" y1="-2118.498" y2="-2113.804"/><linearGradient id="SVGID_124_" gradientTransform="matrix(.39 .921 -.921 .39 -1079.124 -1052.178)" gradientUnits="userSpaceOnUse" x1="1892.393" x2="1899.211" xlink:href="#lg3" y1="-768.524" y2="-768.524"/><linearGradient id="SVGID_125_" gradientTransform="matrix(.39 .921 -.921 .39 -1079.124 -1052.178)" gradientUnits="userSpaceOnUse" x1="1893.264" x2="1897.958" xlink:href="#lg4" y1="-780.81" y2="-776.117"/><linearGradient id="SVGID_126_" gradientTransform="matrix(-.921 .39 -.39 -.921 -33.822 -2675.124)" gradientUnits="userSpaceOnUse" x1="860.424" x2="867.241" xlink:href="#lg3" y1="-3016.444" y2="-3016.444"/><linearGradient id="SVGID_127_" gradientTransform="matrix(-.921 .39 -.39 -.921 -33.822 -2675.124)" gradientUnits="userSpaceOnUse" x1="861.295" x2="865.989" xlink:href="#lg4" y1="-3028.73" y2="-3024.037"/><linearGradient id="SVGID_128_" gradientTransform="matrix(-.927 -.375 .375 -.927 917.674 -2299.507)" gradientUnits="userSpaceOnUse" x1="-477.264" x2="-470.447" xlink:href="#lg3" y1="-2762.053" y2="-2762.053"/><linearGradient id="SVGID_129_" gradientTransform="matrix(-.927 -.375 .375 -.927 917.674 -2299.507)" gradientUnits="userSpaceOnUse" x1="-476.393" x2="-471.699" xlink:href="#lg4" y1="-2774.339" y2="-2769.645"/><linearGradient id="SVGID_130_" gradientUnits="userSpaceOnUse" x1="302.076" x2="298.364" xlink:href="#lg5" y1="402.743" y2="376.631"/><linearGradient id="SVGID_131_" gradientTransform="matrix(.375 -.927 .927 .375 1213.507 -678.326)" gradientUnits="userSpaceOnUse" x1="-1337.071" x2="-1330.254" xlink:href="#lg3" y1="-442.821" y2="-442.821"/><linearGradient id="SVGID_132_" gradientTransform="matrix(.375 -.927 .927 .375 1213.507 -678.326)" gradientUnits="userSpaceOnUse" x1="-1336.2" x2="-1331.507" xlink:href="#lg4" y1="-455.107" y2="-450.413"/><linearGradient id="SVGID_133_" gradientTransform="matrix(-.39 -.921 .921 -.39 1401.347 -1550.185)" gradientUnits="userSpaceOnUse" x1="-1387.496" x2="-1380.679" xlink:href="#lg3" y1="-1780.509" y2="-1780.509"/><linearGradient id="SVGID_134_" gradientTransform="matrix(-.39 -.921 .921 -.39 1401.347 -1550.185)" gradientUnits="userSpaceOnUse" x1="-1386.625" x2="-1381.932" xlink:href="#lg4" y1="-1792.795" y2="-1788.101"/><linearGradient id="SVGID_135_" gradientUnits="userSpaceOnUse" x1="332.481" x2="306.501" xlink:href="#lg5" y1="377.798" y2="357.518"/><linearGradient id="SVGID_136_" gradientTransform="matrix(.921 -.39 .39 .921 464.185 -194.653)" gradientUnits="userSpaceOnUse" x1="-355.527" x2="-348.71" xlink:href="#lg3" y1="467.411" y2="467.411"/><linearGradient id="SVGID_137_" gradientTransform="matrix(.921 -.39 .39 .921 464.185 -194.653)" gradientUnits="userSpaceOnUse" x1="-354.656" x2="-349.963" xlink:href="#lg4" y1="455.125" y2="459.819"/><linearGradient id="SVGID_138_" gradientUnits="userSpaceOnUse" x1="327.366" x2="350.318" xlink:href="#lg3" y1="397.939" y2="420.892"/><linearGradient id="SVGID_139_" gradientUnits="userSpaceOnUse" x1="366.495" x2="284.816" xlink:href="#lg6" y1="437.068" y2="355.389"/><linearGradient id="SVGID_140_" gradientUnits="userSpaceOnUse" x1="290.61" x2="354.582" xlink:href="#lg7" y1="361.183" y2="425.156"/><g><g><g><g><path d="m336.69 336.675-6.807 1.278c-19.784 3.711-40.776 5.904-62.39 6.518l-4.085.116v87.496l5.401-1.604c13.75-4.084 27.105-14.484 38.625-30.075 11.024-14.92 20.446-34.665 27.248-57.099z" fill="url(#SVGID_1_)"/><path d="m389.877 320.138c-9.825 4.294-20.688 8.124-32.288 11.382l-2.354.661-.59 2.372c-5.154 20.741-12.254 39.551-21.102 55.907-4.185 7.735-8.773 14.904-13.637 21.307l-9.654 12.708 14.662-6.303c47.119-20.258 83.212-59.804 99.022-108.499l3.87-11.919-10.275 7.174c-7.932 5.539-17.236 10.656-27.654 15.21z" fill="url(#SVGID_2_)"/><path d="m333.543 119.44c8.849 16.356 15.948 35.165 21.102 55.907l.59 2.372 2.354.661c11.6 3.258 22.463 7.088 32.288 11.382 10.418 4.554 19.723 9.671 27.654 15.209l10.275 7.174-3.87-11.919c-15.811-48.695-51.903-88.241-99.022-108.499l-14.662-6.303 9.654 12.708c4.864 6.404 9.452 13.573 13.637 21.308z" fill="url(#SVGID_3_)"/><path d="m359.132 313.638 6.541-2.212c41.892-14.166 66.902-35.279 66.902-56.476s-25.01-42.31-66.902-56.476l-6.541-2.212 1.039 6.826c2.558 16.81 3.856 34.258 3.856 51.862s-1.297 35.052-3.856 51.862z" fill="url(#SVGID_4_)"/><path d="m329.883 171.948 6.807 1.278-2.009-6.629c-6.802-22.434-16.224-42.179-27.248-57.099-11.52-15.591-24.875-25.991-38.625-30.075l-5.401-1.604v87.496l4.085.116c21.615.613 42.606 2.806 62.391 6.517z" fill="url(#SVGID_5_)"/><path d="m338.272 319.071 2.677-.605.523-2.694c3.808-19.619 5.739-40.082 5.739-60.822s-1.931-41.204-5.739-60.822l-.523-2.694-2.677-.605c-21.89-4.949-45.621-7.834-70.535-8.573l-4.329-.128v145.644l4.329-.128c24.914-.739 48.645-3.623 70.535-8.573z" fill="url(#SVGID_6_)"/><path d="m144.327 311.426 6.541 2.212-1.039-6.826c-2.558-16.81-3.856-34.259-3.856-51.862s1.297-35.052 3.856-51.862l1.039-6.826-6.541 2.212c-41.892 14.166-66.902 35.279-66.902 56.476 0 21.198 25.009 42.311 66.902 56.476z" fill="url(#SVGID_7_)"/><path d="m202.567 109.498c-11.024 14.92-20.446 34.665-27.248 57.099l-2.009 6.629 6.807-1.278c19.784-3.711 40.776-5.904 62.39-6.518l4.085-.116v-87.496l-5.401 1.604c-13.749 4.085-27.105 14.484-38.624 30.076z" fill="url(#SVGID_8_)"/><path d="m180.117 337.953-6.807-1.278 2.009 6.629c6.802 22.434 16.224 42.179 27.248 57.099 11.52 15.591 24.875 25.991 38.625 30.075l5.401 1.604v-87.496l-4.085-.116c-21.615-.613-42.607-2.806-62.391-6.517z" fill="url(#SVGID_9_)"/><path d="m171.728 190.829-2.677.605-.523 2.694c-3.808 19.619-5.739 40.082-5.739 60.822s1.931 41.204 5.739 60.822l.523 2.694 2.677.605c21.89 4.949 45.621 7.834 70.535 8.573l4.329.128v-145.644l-4.329.128c-24.914.739-48.645 3.624-70.535 8.573z" fill="url(#SVGID_10_)"/><path d="m176.457 390.461c-8.849-16.356-15.948-35.166-21.102-55.907l-.59-2.372-2.354-.661c-11.6-3.258-22.463-7.088-32.288-11.382-10.419-4.554-19.722-9.671-27.654-15.209l-10.275-7.174 3.87 11.919c15.81 48.695 51.903 88.241 99.022 108.499l14.662 6.303-9.654-12.708c-4.863-6.404-9.451-13.573-13.637-21.308z" fill="url(#SVGID_11_)"/><path d="m120.123 189.762c9.825-4.294 20.688-8.124 32.288-11.382l2.354-.661.59-2.372c5.154-20.742 12.254-39.551 21.102-55.907 4.186-7.735 8.774-14.904 13.637-21.307l9.654-12.708-14.662 6.303c-47.119 20.258-83.212 59.804-99.022 108.499l-3.87 11.919 10.275-7.174c7.931-5.538 17.236-10.656 27.654-15.21z" fill="url(#SVGID_12_)"/></g><path d="m395.428 114.522c-37.51-37.509-87.381-58.166-140.428-58.166s-102.918 20.657-140.428 58.167-58.167 87.381-58.167 140.427 20.657 102.918 58.167 140.428 87.381 58.167 140.428 58.167 102.918-20.657 140.428-58.167 58.167-87.381 58.167-140.428-20.658-102.918-58.167-140.428zm-228.435 140.428c0-20.975 2.012-41.219 5.662-60.02 20.618-4.662 44.093-7.711 69.733-8.471v136.983c-25.641-.76-49.115-3.809-69.733-8.471-3.649-18.802-5.662-39.046-5.662-60.021zm-21.32 52.495c-40.075-13.552-64.045-33.647-64.045-52.494s23.97-38.942 64.045-52.494c-2.572 16.897-3.903 34.52-3.903 52.494s1.332 35.597 3.903 52.494zm184.985-139.629c-19.866-3.727-41.119-5.966-63.046-6.588v-77.775c26.529 7.88 49.63 40.112 63.046 84.363zm-88.27-84.363v77.776c-21.927.622-43.18 2.861-63.046 6.588 13.416-44.252 36.517-76.484 63.046-84.364zm0 265.219v77.776c-26.529-7.881-49.63-40.112-63.046-84.364 19.867 3.727 41.119 5.966 63.046 6.588zm25.224 77.776v-77.776c21.927-.622 43.18-2.861 63.046-6.588-13.416 44.252-36.517 76.483-63.046 84.364zm0-103.006v-136.983c25.641.76 49.115 3.809 69.733 8.471 3.65 18.801 5.662 39.046 5.662 60.02s-2.012 41.219-5.662 60.02c-20.618 4.663-44.093 7.712-69.733 8.472zm96.715-120.986c40.075 13.552 64.045 33.647 64.045 52.494s-23.97 38.942-64.045 52.494c2.572-16.897 3.903-34.52 3.903-52.494s-1.332-35.597-3.903-52.494zm55.61-.93c-8.1-5.657-17.577-10.894-28.377-15.615-10.109-4.419-21.119-8.287-32.835-11.578-5.183-20.857-12.403-40.107-21.485-56.893-4.347-8.035-9.028-15.321-13.987-21.85 45.635 19.62 81.213 58.286 96.684 105.936zm-233.191-105.936c-4.959 6.529-9.64 13.814-13.987 21.85-9.082 16.787-16.302 36.037-21.485 56.893-11.716 3.291-22.726 7.159-32.835 11.578-10.8 4.721-20.277 9.958-28.377 15.615 15.472-47.65 51.05-86.316 96.684-105.936zm-96.683 212.785c8.1 5.657 17.577 10.894 28.377 15.615 10.109 4.419 21.119 8.287 32.835 11.578 5.183 20.857 12.403 40.107 21.485 56.893 4.347 8.035 9.028 15.321 13.987 21.85-45.635-19.62-81.213-58.286-96.684-105.936zm233.191 105.935c4.959-6.529 9.64-13.814 13.987-21.85 9.082-16.787 16.302-36.037 21.485-56.893 11.716-3.291 22.726-7.159 32.835-11.578 10.8-4.721 20.277-9.958 28.377-15.615-15.472 47.651-51.05 86.317-96.684 105.936z" fill="url(#SVGID_13_)"/></g><path d="m395.428 395.378c37.51-37.51 58.167-87.381 58.167-140.428s-20.657-102.918-58.167-140.428-87.381-58.166-140.428-58.166v397.189c53.047 0 102.918-20.657 140.428-58.167z" fill="url(#SVGID_14_)"/></g><circle cx="310.252" cy="288.527" fill="url(#SVGID_15_)" r="25.111"/><g><g><g><g><path d="m452.489 103.743c0-1.318 1.068-2.386 2.386-2.386h16.902c1.318 0 2.386 1.068 2.386 2.386 0 1.318-1.068 2.386-2.386 2.386h-16.902c-1.318 0-2.386-1.068-2.386-2.386z" fill="url(#SVGID_16_)"/><circle cx="476.548" cy="103.743" fill="url(#SVGID_17_)" r="7.423"/></g><g><path d="m442.699 80.109c-.932-.932-.932-2.442 0-3.374l11.951-11.951c.932-.932 2.442-.932 3.374 0 .932.932.932 2.442 0 3.374l-11.951 11.951c-.931.932-2.442.932-3.374 0z" fill="url(#SVGID_18_)"/><circle cx="459.712" cy="63.097" fill="url(#SVGID_19_)" r="7.423"/></g><g><path d="m442.699 127.377c.932-.932 2.442-.932 3.374 0l11.951 11.951c.932.932.932 2.442 0 3.374-.932.932-2.442.932-3.374 0l-11.951-11.951c-.932-.931-.932-2.442 0-3.374z" fill="url(#SVGID_20_)"/><circle cx="459.712" cy="144.39" fill="url(#SVGID_21_)" r="7.423"/></g><g><path d="m419.065 70.32c-1.318 0-2.386-1.068-2.386-2.386v-16.902c0-1.318 1.068-2.386 2.386-2.386 1.318 0 2.386 1.068 2.386 2.386v16.902c0 1.318-1.068 2.386-2.386 2.386z" fill="url(#SVGID_22_)"/><circle cx="419.065" cy="46.26" fill="url(#SVGID_23_)" r="7.423"/></g><g><path d="m419.065 137.167c1.318 0 2.386 1.068 2.386 2.386v16.902c0 1.318-1.068 2.386-2.386 2.386-1.318 0-2.386-1.068-2.386-2.386v-16.902c0-1.318 1.069-2.386 2.386-2.386z" fill="url(#SVGID_24_)"/><circle cx="419.065" cy="161.226" fill="url(#SVGID_25_)" r="7.423"/></g><g><path d="m385.642 103.743c0 1.318-1.068 2.386-2.386 2.386h-16.902c-1.318 0-2.386-1.068-2.386-2.386 0-1.318 1.068-2.386 2.386-2.386h16.902c1.318 0 2.386 1.068 2.386 2.386z" fill="url(#SVGID_26_)"/><circle cx="361.583" cy="103.743" fill="url(#SVGID_27_)" r="7.423"/></g><g><path d="m395.431 127.377c.932.932.932 2.442 0 3.374l-11.951 11.951c-.932.932-2.442.932-3.374 0-.932-.932-.932-2.442 0-3.374l11.951-11.951c.932-.932 2.443-.932 3.374 0z" fill="url(#SVGID_28_)"/><circle cx="378.419" cy="144.39" fill="url(#SVGID_29_)" r="7.423"/></g><g><path d="m395.431 80.109c-.932.932-2.442.932-3.374 0l-11.951-11.951c-.932-.932-.932-2.442 0-3.374.932-.932 2.442-.932 3.374 0l11.951 11.951c.932.932.932 2.442 0 3.374z" fill="url(#SVGID_30_)"/><circle cx="378.419" cy="63.097" fill="url(#SVGID_31_)" r="7.423"/></g><circle cx="419.065" cy="103.743" fill="url(#SVGID_32_)" r="45.708"/><path d="m437.299 61.821-6.904 17.124s7.316 1.874 14.209 13.468l16.515-6.604c-4.578-10.721-13.138-19.335-23.82-23.988z" fill="url(#SVGID_33_)"/><path d="m419.065 149.451c25.244 0 45.708-20.464 45.708-45.708 0-5.903-1.12-11.545-3.157-16.725l-84.189 35.602c7.186 15.825 23.126 26.831 41.638 26.831z" fill="url(#SVGID_34_)"/><g><path d="m429.115 78.891c-.98-.396-1.453-1.512-1.057-2.492l5.082-12.567c.396-.98 1.512-1.453 2.492-1.057.98.396 1.453 1.512 1.057 2.492l-5.082 12.567c-.396.98-1.512 1.453-2.492 1.057z" fill="url(#SVGID_35_)"/><circle cx="436.35" cy="61.001" fill="url(#SVGID_36_)" r="5.954"/></g><g><path d="m443.918 113.793c.396-.98 1.512-1.453 2.492-1.057l12.567 5.082c.98.396 1.453 1.512 1.057 2.492-.396.98-1.512 1.453-2.492 1.057l-12.567-5.082c-.98-.396-1.453-1.512-1.057-2.492z" fill="url(#SVGID_37_)"/><circle cx="461.808" cy="121.028" fill="url(#SVGID_38_)" r="5.954"/></g><g><path d="m443.745 93.276c-.413-.973.042-2.096 1.015-2.509l12.48-5.293c.973-.413 2.096.042 2.509 1.015.413.973-.042 2.096-1.015 2.509l-12.48 5.293c-.973.413-2.096-.042-2.509-1.015z" fill="url(#SVGID_39_)"/><circle cx="461.511" cy="85.742" fill="url(#SVGID_40_)" r="5.954"/></g><g><path d="m429.532 128.423c.973-.413 2.096.042 2.509 1.015l5.293 12.48c.413.973-.042 2.096-1.015 2.509-.973.413-2.096-.042-2.509-1.015l-5.293-12.48c-.412-.973.042-2.096 1.015-2.509z" fill="url(#SVGID_41_)"/><circle cx="437.067" cy="146.189" fill="url(#SVGID_42_)" r="5.954"/></g><g><path d="m409.015 128.596c.98.396 1.453 1.512 1.057 2.492l-5.082 12.567c-.396.98-1.512 1.453-2.492 1.057-.98-.396-1.453-1.512-1.057-2.492l5.082-12.567c.397-.98 1.512-1.454 2.492-1.057z" fill="url(#SVGID_43_)"/><circle cx="401.781" cy="146.485" fill="url(#SVGID_44_)" r="5.954"/></g><path d="m374.805 92.214 16.826 16.826s-1.593-11.347 2.581-15.348l-17.471-7.234z" fill="url(#SVGID_45_)"/><g><path d="m394.213 93.693c-.396.98-1.512 1.453-2.492 1.057l-12.567-5.082c-.98-.396-1.453-1.512-1.057-2.492.396-.98 1.512-1.453 2.492-1.057l12.567 5.082c.98.397 1.453 1.512 1.057 2.492z" fill="url(#SVGID_46_)"/><circle cx="376.323" cy="86.459" fill="url(#SVGID_47_)" r="5.954"/></g><g><path d="m394.385 114.21c.413.973-.042 2.096-1.015 2.509l-12.48 5.293c-.973.413-2.096-.042-2.509-1.015-.413-.973.042-2.096 1.015-2.509l12.48-5.293c.973-.412 2.097.042 2.509 1.015z" fill="url(#SVGID_48_)"/><circle cx="376.62" cy="121.744" fill="url(#SVGID_49_)" r="5.954"/></g><path d="m401.311 61.612 7.282 16.548c6.097-3.049 14.261-2.402 14.261-2.402l-16.056-16.056c-1.879.523-3.712 1.161-5.487 1.91z" fill="url(#SVGID_50_)"/><g><path d="m408.598 79.063c-.973.413-2.096-.042-2.509-1.015l-5.293-12.48c-.413-.973.042-2.096 1.015-2.509.973-.413 2.096.042 2.509 1.015l5.293 12.48c.413.973-.042 2.097-1.015 2.509z" fill="url(#SVGID_51_)"/><circle cx="401.064" cy="61.298" fill="url(#SVGID_52_)" r="5.954"/></g><circle cx="419.065" cy="103.743" fill="url(#SVGID_53_)" r="29.115"/></g></g><circle cx="419.065" cy="103.743" fill="url(#SVGID_54_)" r="84.104"/></g><g><g><g><g><path d="m124.358 168.539c0-1.318 1.068-2.386 2.386-2.386h16.902c1.318 0 2.386 1.068 2.386 2.386 0 1.318-1.068 2.386-2.386 2.386h-16.902c-1.318 0-2.386-1.068-2.386-2.386z" fill="url(#SVGID_55_)"/><circle cx="148.417" cy="168.539" fill="url(#SVGID_56_)" r="7.423"/></g><g><path d="m114.569 144.905c-.932-.932-.932-2.442 0-3.374l11.951-11.951c.932-.932 2.442-.932 3.374 0 .932.932.932 2.442 0 3.374l-11.951 11.951c-.932.932-2.443.932-3.374 0z" fill="url(#SVGID_57_)"/><circle cx="131.581" cy="127.893" fill="url(#SVGID_58_)" r="7.423"/></g><g><path d="m114.569 192.173c.932-.932 2.442-.932 3.374 0l11.951 11.951c.932.932.932 2.442 0 3.374-.932.932-2.442.932-3.374 0l-11.951-11.951c-.932-.931-.932-2.442 0-3.374z" fill="url(#SVGID_59_)"/><circle cx="131.581" cy="209.186" fill="url(#SVGID_60_)" r="7.423"/></g><g><path d="m90.935 135.116c-1.318 0-2.386-1.068-2.386-2.386v-16.902c0-1.318 1.068-2.386 2.386-2.386 1.318 0 2.386 1.068 2.386 2.386v16.902c0 1.318-1.069 2.386-2.386 2.386z" fill="url(#SVGID_61_)"/><circle cx="90.935" cy="111.057" fill="url(#SVGID_62_)" r="7.423"/></g><g><path d="m90.935 201.963c1.318 0 2.386 1.068 2.386 2.386v16.902c0 1.318-1.068 2.386-2.386 2.386-1.318 0-2.386-1.068-2.386-2.386v-16.902c0-1.318 1.068-2.386 2.386-2.386z" fill="url(#SVGID_63_)"/><circle cx="90.935" cy="226.022" fill="url(#SVGID_64_)" r="7.423"/></g><g><path d="m57.511 168.539c0 1.318-1.068 2.386-2.386 2.386h-16.901c-1.318 0-2.386-1.068-2.386-2.386 0-1.318 1.068-2.386 2.386-2.386h16.902c1.317 0 2.385 1.069 2.385 2.386z" fill="url(#SVGID_65_)"/><circle cx="33.452" cy="168.539" fill="url(#SVGID_66_)" r="7.423"/></g><g><path d="m67.301 192.173c.932.932.932 2.442 0 3.374l-11.951 11.952c-.932.932-2.442.932-3.374 0-.932-.932-.932-2.442 0-3.374l11.951-11.951c.931-.933 2.442-.933 3.374-.001z" fill="url(#SVGID_67_)"/><circle cx="50.288" cy="209.186" fill="url(#SVGID_68_)" r="7.423"/></g><g><path d="m67.301 144.905c-.932.932-2.442.932-3.374 0l-11.951-11.951c-.932-.932-.932-2.442 0-3.374.932-.932 2.442-.932 3.374 0l11.951 11.951c.931.932.931 2.443 0 3.374z" fill="url(#SVGID_69_)"/><circle cx="50.288" cy="127.893" fill="url(#SVGID_70_)" r="7.423"/></g><circle cx="90.935" cy="168.539" fill="url(#SVGID_71_)" r="45.708"/><path d="m109.168 126.617-6.904 17.124s7.316 1.874 14.209 13.468l16.515-6.604c-4.578-10.721-13.137-19.335-23.82-23.988z" fill="url(#SVGID_72_)"/><path d="m90.935 214.247c25.244 0 45.708-20.464 45.708-45.708 0-5.903-1.12-11.545-3.157-16.725l-84.189 35.602c7.185 15.825 23.126 26.831 41.638 26.831z" fill="url(#SVGID_73_)"/><g><path d="m100.985 143.687c-.98-.396-1.453-1.512-1.057-2.492l5.082-12.567c.396-.98 1.512-1.453 2.492-1.057.98.396 1.453 1.512 1.057 2.492l-5.082 12.567c-.397.98-1.512 1.453-2.492 1.057z" fill="url(#SVGID_74_)"/><circle cx="108.219" cy="125.797" fill="url(#SVGID_75_)" r="5.954"/></g><g><path d="m115.787 178.589c.396-.98 1.512-1.453 2.492-1.057l12.567 5.082c.98.396 1.453 1.512 1.057 2.492-.396.98-1.512 1.453-2.492 1.057l-12.567-5.082c-.98-.396-1.453-1.512-1.057-2.492z" fill="url(#SVGID_76_)"/><circle cx="133.677" cy="185.824" fill="url(#SVGID_77_)" r="5.954"/></g><g><path d="m115.615 158.072c-.413-.973.042-2.096 1.015-2.509l12.48-5.293c.973-.413 2.096.042 2.509 1.015.413.973-.042 2.096-1.015 2.509l-12.48 5.293c-.973.413-2.097-.042-2.509-1.015z" fill="url(#SVGID_78_)"/><circle cx="133.38" cy="150.538" fill="url(#SVGID_79_)" r="5.954"/></g><g><path d="m101.401 193.219c.973-.413 2.096.042 2.509 1.015l5.293 12.48c.413.973-.042 2.096-1.015 2.509-.973.413-2.096-.042-2.509-1.015l-5.293-12.48c-.412-.973.042-2.096 1.015-2.509z" fill="url(#SVGID_80_)"/><circle cx="108.936" cy="210.985" fill="url(#SVGID_81_)" r="5.954"/></g><g><path d="m80.884 193.392c.98.396 1.453 1.512 1.057 2.492l-5.082 12.567c-.396.98-1.512 1.453-2.492 1.057-.98-.396-1.453-1.512-1.057-2.492l5.082-12.567c.397-.98 1.513-1.453 2.492-1.057z" fill="url(#SVGID_82_)"/><circle cx="73.65" cy="211.282" fill="url(#SVGID_83_)" r="5.954"/></g><path d="m46.675 157.01 16.826 16.826s-1.593-11.347 2.581-15.348l-17.471-7.234z" fill="url(#SVGID_84_)"/><g><path d="m66.082 158.489c-.396.98-1.512 1.453-2.492 1.057l-12.567-5.082c-.98-.396-1.453-1.512-1.057-2.492.396-.98 1.512-1.453 2.492-1.057l12.567 5.082c.98.397 1.453 1.512 1.057 2.492z" fill="url(#SVGID_85_)"/><circle cx="48.192" cy="151.255" fill="url(#SVGID_86_)" r="5.954"/></g><g><path d="m66.255 179.006c.413.973-.042 2.096-1.015 2.509l-12.48 5.293c-.973.413-2.096-.042-2.509-1.015-.413-.973.042-2.096 1.015-2.509l12.48-5.293c.973-.412 2.096.042 2.509 1.015z" fill="url(#SVGID_87_)"/><circle cx="48.489" cy="186.541" fill="url(#SVGID_88_)" r="5.954"/></g><path d="m73.181 126.408 7.282 16.548c6.097-3.049 14.261-2.402 14.261-2.402l-16.056-16.056c-1.88.524-3.713 1.162-5.487 1.91z" fill="url(#SVGID_89_)"/><g><path d="m80.468 143.859c-.973.413-2.096-.042-2.509-1.015l-5.293-12.48c-.413-.973.042-2.096 1.015-2.509.973-.413 2.096.042 2.509 1.015l5.293 12.48c.412.973-.042 2.097-1.015 2.509z" fill="url(#SVGID_90_)"/><circle cx="72.933" cy="126.094" fill="url(#SVGID_91_)" r="5.954"/></g><circle cx="90.935" cy="168.539" fill="url(#SVGID_92_)" r="29.115"/></g></g><circle cx="90.935" cy="168.539" fill="url(#SVGID_93_)" r="84.104"/></g><circle cx="188.511" cy="237.257" fill="url(#SVGID_94_)" r="25.111"/><circle cx="338.298" cy="191.474" fill="url(#SVGID_95_)" r="25.111"/><path d="m453.594 254.95c0 11.453-.967 22.753-2.85 33.808l-106.169-106.168c-2.341-1.262-1.93-3.726-1.93-6.576v-24.218c0-1.303-1.356-5.565-1.988-6.695-13-23.241-13.985-46.972-4.996-71.598 4.001 1.72 5.941 2.583 9.819 4.569-9.508 27.344-3.349 58.923 18.487 80.769 20.248 20.238 48.865 27.018 74.712 20.309 9.784 23.719 14.915 49.362 14.915 75.8z" fill="url(#SVGID_96_)"/><path d="m480.812 36.985c-35.768-33.15-91.954-31.903-126.303 2.716-29.21 29.44-34.158 73.875-14.848 108.399.633 1.131.985 2.397.985 3.693v24.224c0 4.123 3.342 7.466 7.466 7.466h25.388c1.221 0 2.417.313 3.5.878 34.282 17.901 77.57 12.477 106.366-16.318 36.344-36.345 35.493-95.795-2.554-131.058zm-10.509 118.004c-28.295 28.295-74.181 28.295-102.484 0-28.295-28.303-28.295-74.188 0-102.491 28.303-28.295 74.188-28.295 102.484 0 28.303 28.302 28.303 74.188 0 102.491z" fill="url(#SVGID_97_)"/><path d="m418.544 367.695c-6.79 9.803-14.507 19.067-23.119 27.68-36.964 36.974-85.951 57.558-138.144 58.139l-200.844-200.844c.061-5.65.366-11.269.886-16.828 28.168 14.069 63.31 9.366 86.796-14.12 29.37-29.37 29.37-76.992 0-106.372-5.08-5.08-10.71-9.284-16.695-12.613 4.306-3.624 8.735-7.045 13.295-10.262 5.253 3.431 10.221 7.432 14.792 12.043z" fill="url(#SVGID_98_)"/><path d="m181.759 230.228-4.748-30.96c-.095-.62-.036-1.252.163-1.847 10.536-31.54 3.32-67.707-21.662-92.902-34.346-34.638-90.547-35.896-126.324-2.737-38.047 35.263-38.898 94.713-2.553 131.058 32.898 32.898 84.721 35.309 120.407 7.256.536-.421 1.169-.703 1.843-.806l29.549-4.531c2.169-.334 3.658-2.362 3.325-4.531zm-142.07-10.443c-28.295-28.303-28.295-74.188 0-102.491 28.303-28.295 74.188-28.295 102.484 0 28.303 28.303 28.303 74.188 0 102.491-28.296 28.295-74.181 28.295-102.484 0z" fill="url(#SVGID_99_)"/><path d="m258.984 453.509c51.93-.76 99.639-21.326 136.444-58.131 9.85-9.85 18.525-20.559 25.981-31.946l-20.717-20.755c-16.332-16.742-35.494-23.816-57.066-25.243-1.448-.096-4.853-.53-6.076-1.311l-20.503-12.819c-3.934-2.513-5.159-2.361-7.672 1.573l-11.664 18.26c-.793 1.241-2.905 4.237-4.202 4.934-9.183 4.939-17.703 11.548-25.081 19.885-26.789 30.276-29.704 72.238-9.444 105.553z" fill="url(#SVGID_100_)"/><g><g><g><g><path d="m369.007 406.157c0-1.318 1.068-2.386 2.386-2.386h16.902c1.318 0 2.386 1.068 2.386 2.386 0 1.318-1.068 2.386-2.386 2.386h-16.902c-1.318 0-2.386-1.068-2.386-2.386z" fill="url(#SVGID_101_)"/><circle cx="393.067" cy="406.157" fill="url(#SVGID_102_)" r="7.423"/></g><g><path d="m359.218 382.523c-.932-.932-.932-2.442 0-3.374l11.951-11.951c.932-.932 2.442-.932 3.374 0 .932.932.932 2.442 0 3.374l-11.951 11.951c-.932.932-2.442.932-3.374 0z" fill="url(#SVGID_103_)"/><circle cx="376.23" cy="365.511" fill="url(#SVGID_104_)" r="7.423"/></g><g><path d="m359.218 429.791c.932-.932 2.442-.932 3.374 0l11.951 11.951c.932.932.932 2.442 0 3.374-.932.932-2.442.932-3.374 0l-11.951-11.951c-.932-.931-.932-2.442 0-3.374z" fill="url(#SVGID_105_)"/><circle cx="376.23" cy="446.804" fill="url(#SVGID_106_)" r="7.423"/></g><g><path d="m335.584 372.734c-1.318 0-2.386-1.068-2.386-2.386v-16.902c0-1.318 1.068-2.386 2.386-2.386 1.318 0 2.386 1.068 2.386 2.386v16.902c0 1.318-1.068 2.386-2.386 2.386z" fill="url(#SVGID_107_)"/><circle cx="335.584" cy="348.675" fill="url(#SVGID_108_)" r="7.423"/></g><g><path d="m335.584 439.581c1.318 0 2.386 1.068 2.386 2.386v16.902c0 1.318-1.068 2.386-2.386 2.386-1.318 0-2.386-1.068-2.386-2.386v-16.902c0-1.318 1.068-2.386 2.386-2.386z" fill="url(#SVGID_109_)"/><circle cx="335.584" cy="463.64" fill="url(#SVGID_110_)" r="7.423"/></g><g><path d="m302.16 406.157c0 1.318-1.068 2.386-2.386 2.386h-16.902c-1.318 0-2.386-1.068-2.386-2.386 0-1.318 1.068-2.386 2.386-2.386h16.902c1.318 0 2.386 1.069 2.386 2.386z" fill="url(#SVGID_111_)"/><circle cx="278.101" cy="406.157" fill="url(#SVGID_112_)" r="7.423"/></g><g><path d="m311.95 429.791c.932.932.932 2.442 0 3.374l-11.951 11.951c-.932.932-2.442.932-3.374 0-.932-.932-.932-2.442 0-3.374l11.951-11.951c.931-.931 2.442-.931 3.374 0z" fill="url(#SVGID_113_)"/><circle cx="294.937" cy="446.804" fill="url(#SVGID_114_)" r="7.423"/></g><g><path d="m311.95 382.523c-.932.932-2.442.932-3.374 0l-11.951-11.951c-.932-.932-.932-2.442 0-3.374.932-.932 2.442-.932 3.374 0l11.951 11.951c.932.932.932 2.443 0 3.374z" fill="url(#SVGID_115_)"/><circle cx="294.937" cy="365.511" fill="url(#SVGID_116_)" r="7.423"/></g><circle cx="335.584" cy="406.157" fill="url(#SVGID_117_)" r="45.708"/><path d="m353.817 364.235-6.904 17.124s7.316 1.874 14.209 13.468l16.515-6.604c-4.578-10.721-13.137-19.335-23.82-23.988z" fill="url(#SVGID_118_)"/><path d="m335.584 451.865c25.244 0 45.708-20.464 45.708-45.708 0-5.903-1.12-11.545-3.157-16.725l-84.189 35.602c7.185 15.825 23.126 26.831 41.638 26.831z" fill="url(#SVGID_119_)"/><g><path d="m345.634 381.305c-.98-.396-1.453-1.512-1.057-2.492l5.082-12.567c.396-.98 1.512-1.453 2.492-1.057.98.396 1.453 1.512 1.057 2.492l-5.082 12.567c-.397.98-1.512 1.453-2.492 1.057z" fill="url(#SVGID_120_)"/><circle cx="352.868" cy="363.415" fill="url(#SVGID_121_)" r="5.954"/></g><g><path d="m360.436 416.208c.396-.98 1.512-1.453 2.492-1.057l12.567 5.082c.98.396 1.453 1.512 1.057 2.492-.396.98-1.512 1.453-2.492 1.057l-12.567-5.082c-.98-.397-1.453-1.513-1.057-2.492z" fill="url(#SVGID_122_)"/><circle cx="378.326" cy="423.442" fill="url(#SVGID_123_)" r="5.954"/></g><g><path d="m360.264 395.691c-.413-.973.042-2.096 1.015-2.509l12.48-5.293c.973-.413 2.096.042 2.509 1.015.413.973-.042 2.096-1.015 2.509l-12.48 5.293c-.973.412-2.097-.042-2.509-1.015z" fill="url(#SVGID_124_)"/><circle cx="378.029" cy="388.156" fill="url(#SVGID_125_)" r="5.954"/></g><g><path d="m346.051 430.837c.973-.413 2.096.042 2.509 1.015l5.293 12.48c.413.973-.042 2.096-1.015 2.509-.973.413-2.096-.042-2.509-1.015l-5.293-12.48c-.413-.973.042-2.096 1.015-2.509z" fill="url(#SVGID_126_)"/><circle cx="353.585" cy="448.603" fill="url(#SVGID_127_)" r="5.954"/></g><g><path d="m325.534 431.01c.98.396 1.453 1.512 1.057 2.492l-5.082 12.567c-.396.98-1.512 1.453-2.492 1.057-.98-.396-1.453-1.512-1.057-2.492l5.082-12.567c.396-.98 1.512-1.453 2.492-1.057z" fill="url(#SVGID_128_)"/><circle cx="318.299" cy="448.9" fill="url(#SVGID_129_)" r="5.954"/></g><path d="m291.324 394.628 16.826 16.826s-1.593-11.347 2.581-15.348l-17.471-7.234z" fill="url(#SVGID_130_)"/><g><path d="m310.731 396.107c-.396.98-1.512 1.453-2.492 1.057l-12.567-5.082c-.98-.396-1.453-1.512-1.057-2.492.396-.98 1.512-1.453 2.492-1.057l12.567 5.082c.98.397 1.454 1.512 1.057 2.492z" fill="url(#SVGID_131_)"/><circle cx="292.842" cy="388.873" fill="url(#SVGID_132_)" r="5.954"/></g><g><path d="m310.904 416.624c.413.973-.042 2.096-1.015 2.509l-12.48 5.293c-.973.413-2.096-.042-2.509-1.015-.413-.973.042-2.096 1.015-2.509l12.48-5.293c.973-.412 2.096.042 2.509 1.015z" fill="url(#SVGID_133_)"/><circle cx="293.138" cy="424.159" fill="url(#SVGID_134_)" r="5.954"/></g><path d="m317.83 364.026 7.282 16.548c6.097-3.049 14.261-2.402 14.261-2.402l-16.056-16.056c-1.88.524-3.712 1.162-5.487 1.91z" fill="url(#SVGID_135_)"/><g><path d="m325.117 381.477c-.973.413-2.096-.042-2.509-1.015l-5.293-12.48c-.413-.973.042-2.096 1.015-2.509.973-.413 2.096.042 2.509 1.015l5.293 12.48c.412.973-.042 2.097-1.015 2.509z" fill="url(#SVGID_136_)"/><circle cx="317.583" cy="363.712" fill="url(#SVGID_137_)" r="5.954"/></g><circle cx="335.584" cy="406.157" fill="url(#SVGID_138_)" r="29.115"/></g></g><circle cx="335.584" cy="406.157" fill="url(#SVGID_139_)" r="84.104"/><path d="m400.692 342.677c-16.332-16.742-37.494-25.816-59.066-27.243-1.448-.096-2.853-.53-4.076-1.311l-18.503-11.819c-3.934-2.513-9.159-1.361-11.672 2.573l-11.664 18.26c-.793 1.241-1.905 2.237-3.202 2.935-9.183 4.939-17.703 11.548-25.081 19.885-31.43 35.519-30.024 89.889 3.149 123.786 35.908 36.692 95.057 36.464 130.676-.685 33.749-35.197 33.49-91.477-.561-126.381zm-13.87 114.726c-28.295 28.295-74.181 28.295-102.484 0-28.295-28.303-28.295-74.188 0-102.491 28.303-28.295 74.188-28.295 102.484 0 28.303 28.303 28.303 74.188 0 102.491z" fill="url(#SVGID_140_)"/></g></g></svg>