<svg id="Capa_1" enable-background="new 0 0 510 510" height="512" viewBox="0 0 510 510" width="512" xmlns="http://www.w3.org/2000/svg" xmlns:xlink="http://www.w3.org/1999/xlink"><linearGradient id="lg1"><stop offset="0" stop-color="#ffda2d"/><stop offset="1" stop-color="#fdbf00"/></linearGradient><linearGradient id="SVGID_1_" gradientUnits="userSpaceOnUse" x1="166.667" x2="382.034" xlink:href="#lg1" y1="166.667" y2="382.034"/><linearGradient id="SVGID_2_" gradientUnits="userSpaceOnUse" x1="436.657" x2="153.012" y1="426.366" y2="142.72"><stop offset="0" stop-color="#ff9100" stop-opacity="0"/><stop offset="1" stop-color="#ff9100"/></linearGradient><linearGradient id="lg2"><stop offset="0" stop-color="#8a7889"/><stop offset="1" stop-color="#6e566e"/></linearGradient><linearGradient id="SVGID_3_" gradientUnits="userSpaceOnUse" x1="180.626" x2="329.374" xlink:href="#lg2" y1="180.626" y2="329.374"/><linearGradient id="SVGID_4_" gradientTransform="matrix(-1 0 0 -1 510 510)" gradientUnits="userSpaceOnUse" x1="188.727" x2="321.273" xlink:href="#lg2" y1="188.727" y2="321.273"/><linearGradient id="SVGID_5_" gradientUnits="userSpaceOnUse" x1="167.767" x2="273.1" xlink:href="#lg2" y1="119.783" y2="279.117"/><linearGradient id="lg3"><stop offset="0" stop-color="#6e566e" stop-opacity="0"/><stop offset=".2944" stop-color="#674d66" stop-opacity=".294"/><stop offset="1" stop-color="#593b56"/></linearGradient><linearGradient id="SVGID_6_" gradientTransform="matrix(-.609 .793 -.793 -.609 1395.583 -298.269)" gradientUnits="userSpaceOnUse" x1="1116.706" x2="1116.706" xlink:href="#lg3" y1="453.99" y2="554.26"/><linearGradient id="SVGID_7_" gradientTransform="matrix(.609 .793 .793 -.609 355.234 -298.269)" gradientUnits="userSpaceOnUse" x1="360.846" x2="360.846" xlink:href="#lg3" y1="-530.035" y2="-429.765"/><linearGradient id="SVGID_8_" gradientUnits="userSpaceOnUse" x1="255" x2="255" xlink:href="#lg3" y1="139.683" y2="239.953"/><linearGradient id="SVGID_9_" gradientUnits="userSpaceOnUse" x1="280.667" x2="239.978" xlink:href="#lg1" y1="280.667" y2="239.978"/><linearGradient id="SVGID_10_" gradientUnits="userSpaceOnUse" x1="134.436" x2="399.984" xlink:href="#lg2" y1="134.436" y2="399.984"/><linearGradient id="SVGID_11_" gradientTransform="matrix(-1 0 0 -1 510 510)" gradientUnits="userSpaceOnUse" x1="142.261" x2="390.575" xlink:href="#lg2" y1="142.261" y2="390.575"/><g><g><path d="m255 0c-140.83 0-255 114.17-255 255s114.17 255 255 255 255-114.17 255-255-114.17-255-255-255z" fill="url(#SVGID_1_)"/></g><path d="m345.106 98.451c.002.528 0 1.057-.007 1.587-.351 26.727-12.618 52.687-31.687 68.818-16.521-10.798-37.245-18.086-58.412-18.086-10.661 0-19.954 1.598-29.657 4.56l-59.449-56.476c0-.004 0-.008 0-.012 0-.109 0-.217.001-.325.025-6.872-8.319-7.812-11.046-1.505-5.738 13.271-7.941 26.893-7.996 42.259-.082 22.823 7.701 45.995 19.413 63.576-26.275-2.044-56.382 5.335-78.983 22.826-12.151 9.404-19.797 18.851-26.826 31.486-2.645 4.755-.661 9.645 3.81 9.388l126.236 126.236c-.005.072-.005.142-.007.213-3.815 4.546-8.124 8.778-12.952 12.589-.416.328-.834.653-1.255.972-5.076 3.865-1.715 11.675 4.169 11.244l91.616 91.616c132.866-8.786 237.926-119.326 237.926-254.417 0-1.75-.031-3.493-.066-5.235l-153.805-153.805c-2.7-6.236-11.052-4.304-11.023 2.491z" fill="url(#SVGID_2_)"/><g><g><path d="m255 360.229c-58.023 0-105.229-47.206-105.229-105.229s47.205-105.229 105.229-105.229 105.23 47.206 105.23 105.229-47.206 105.229-105.23 105.229zm0-182.92c-42.839 0-77.691 34.852-77.691 77.691s34.852 77.691 77.691 77.691 77.692-34.852 77.692-77.691-34.853-77.691-77.692-77.691z" fill="url(#SVGID_3_)"/></g><path d="m255 348.768c51.704 0 93.768-42.064 93.768-93.768s-42.064-93.768-93.768-93.768-93.769 42.064-93.769 93.768 42.065 93.768 93.769 93.768zm0-171.459c42.839 0 77.691 34.852 77.691 77.691s-34.852 77.691-77.691 77.691-77.692-34.852-77.692-77.691 34.853-77.691 77.692-77.691z" fill="url(#SVGID_4_)"/><path d="m451.544 257.16c-7.029-12.635-16.675-24.082-28.826-33.486-22.639-17.52-49.799-24.896-76.114-22.817 11.711-17.5 18.545-38.541 18.545-61.179 0-15.534-3.217-30.316-9.02-43.717-2.7-6.236-12.053-4.304-12.023 2.491.002.528 0 1.057-.007 1.587-.634 48.316-40.199 87.601-88.518 87.909-49.479.315-89.688-39.699-89.688-89.105 0-.109 0-.217.001-.325.025-6.872-9.319-8.812-12.046-2.505-5.738 13.271-8.941 27.893-8.996 43.259-.082 22.823 6.701 43.995 18.413 61.576-26.275-2.044-53.382 5.335-75.983 22.826-12.151 9.404-21.797 20.851-28.826 33.486-3.341 6.005 3.89 12.233 9.324 8.027.086-.066.172-.133.258-.199 39.181-30.096 95.408-22.584 125.299 16.847 29.19 38.507 22.136 93.814-15.794 123.75-.416.328-.834.653-1.255.972-5.407 4.116-1.242 12.71 5.349 11.053 14.163-3.562 27.845-10.015 40.164-19.478 14.846-11.404 25.976-25.849 33.2-41.787 7.224 15.938 18.353 30.383 33.2 41.787 12.319 9.463 26.001 15.916 40.164 19.478 6.59 1.657 10.755-6.936 5.349-11.053-.42-.32-.838-.644-1.255-.972-37.93-29.935-44.984-85.243-15.794-123.75 29.891-39.431 86.118-46.943 125.299-16.847.086.066.172.132.258.199 5.433 4.205 12.663-2.023 9.322-8.027zm-187.753-7.684c-3.4 5.065-6.331 10.321-8.791 15.719-2.458-5.395-5.388-10.649-8.785-15.711 2.841.222 5.712.338 8.611.343 3.018.004 6.007-.118 8.965-.351z" fill="url(#SVGID_5_)"/><g><path d="m335.046 415.095c1.719-2.527 1.693-6.233-1.334-8.538-.42-.32-.838-.644-1.255-.973-37.93-29.935-44.984-85.243-15.794-123.75 29.891-39.431 86.118-46.943 125.299-16.847.086.066.172.132.258.199 3.041 2.353 6.644 1.438 8.642-.875-5.612-8.008-12.503-15.32-20.639-21.617-43.743-33.852-106.144-25.84-139.905 17.972-33.632 43.645-25.456 106.283 18.225 139.836 8.265 6.349 17.208 11.196 26.503 14.593z" fill="url(#SVGID_6_)"/><path d="m174.954 415.095c-1.719-2.527-1.693-6.233 1.334-8.538.42-.32.838-.644 1.255-.973 37.93-29.935 44.984-85.243 15.794-123.75-29.891-39.431-86.118-46.943-125.299-16.847-.086.066-.172.132-.258.199-3.041 2.353-6.644 1.438-8.642-.875 5.612-8.008 12.503-15.32 20.639-21.617 43.743-33.852 106.144-25.84 139.905 17.972 33.632 43.645 25.456 106.283-18.225 139.836-8.265 6.349-17.208 11.196-26.503 14.593z" fill="url(#SVGID_7_)"/><g><path d="m350.064 92.193c-3.051.176-5.975 2.454-5.958 6.259.002.528 0 1.057-.007 1.587-.634 48.316-40.199 87.601-88.518 87.909-49.479.316-89.688-39.699-89.688-89.105 0-.109 0-.217.001-.325.014-3.845-2.906-6.145-5.959-6.32-2.932 9.329-4.533 19.247-4.57 29.536-.2 55.311 44.166 99.918 99.478 100.003 55.1.085 99.794-44.556 99.794-99.636-.001-10.422-1.605-20.467-4.573-29.908z" fill="url(#SVGID_8_)"/></g></g><g><path d="m255 223.664c-17.306 0-31.336 14.03-31.336 31.336s14.03 31.336 31.336 31.336 31.336-14.03 31.336-31.336-14.03-31.336-31.336-31.336z" fill="url(#SVGID_9_)"/></g></g><g><path d="m255 17.333c-131.257 0-237.667 106.41-237.667 237.667s106.41 237.667 237.667 237.667 237.667-106.41 237.667-237.667-106.41-237.667-237.667-237.667zm0 440.019c-111.754 0-202.352-90.598-202.352-202.352s90.598-202.352 202.352-202.352 202.352 90.598 202.352 202.352-90.598 202.352-202.352 202.352z" fill="url(#SVGID_10_)"/><path d="m255 477.242c122.739 0 222.242-99.504 222.242-222.242s-99.503-222.242-222.242-222.242-222.242 99.503-222.242 222.242 99.503 222.242 222.242 222.242zm0-424.594c111.754 0 202.352 90.598 202.352 202.352s-90.598 202.352-202.352 202.352-202.352-90.598-202.352-202.352 90.598-202.352 202.352-202.352z" fill="url(#SVGID_11_)"/></g></g></svg>