<svg id="Capa_1" enable-background="new 0 0 510 510" height="512" viewBox="0 0 510 510" width="512" xmlns="http://www.w3.org/2000/svg" xmlns:xlink="http://www.w3.org/1999/xlink"><linearGradient id="lg1"><stop offset="0" stop-color="#edf5ff"/><stop offset="1" stop-color="#d5e8fe"/></linearGradient><linearGradient id="SVGID_1_" gradientUnits="userSpaceOnUse" x1="-.869" x2="63.139" xlink:href="#lg1" y1="209.303" y2="225.971"/><linearGradient id="lg2"><stop offset="0" stop-color="#b5dbff" stop-opacity="0"/><stop offset=".1734" stop-color="#8fc5e9" stop-opacity=".173"/><stop offset=".4541" stop-color="#56a4c8" stop-opacity=".454"/><stop offset=".6955" stop-color="#2d8db1" stop-opacity=".696"/><stop offset=".8853" stop-color="#147ea2" stop-opacity=".885"/><stop offset="1" stop-color="#0b799d"/></linearGradient><linearGradient id="SVGID_2_" gradientUnits="userSpaceOnUse" x1="38.125" x2="82.631" xlink:href="#lg2" y1="388.556" y2="396.057"/><linearGradient id="SVGID_3_" gradientUnits="userSpaceOnUse" x1="49.417" x2="93.922" xlink:href="#lg2" y1="147.57" y2="105.565"/><linearGradient id="SVGID_4_" gradientUnits="userSpaceOnUse" x1="110.932" x2="61.426" xlink:href="#lg2" y1="99.398" y2="105.898"/><linearGradient id="SVGID_5_" gradientUnits="userSpaceOnUse" x1="71.06" x2="83.061" xlink:href="#lg2" y1="137.224" y2="163.728"/><linearGradient id="SVGID_6_" gradientTransform="matrix(-1 0 0 1 136.062 0)" gradientUnits="userSpaceOnUse" x1="-374.808" x2="-310.8" xlink:href="#lg1" y1="209.303" y2="225.971"/><linearGradient id="SVGID_7_" gradientTransform="matrix(-1 0 0 1 136.062 0)" gradientUnits="userSpaceOnUse" x1="-335.813" x2="-291.308" xlink:href="#lg2" y1="388.556" y2="396.057"/><linearGradient id="SVGID_8_" gradientTransform="matrix(-1 0 0 1 136.062 0)" gradientUnits="userSpaceOnUse" x1="-324.522" x2="-280.016" xlink:href="#lg2" y1="147.57" y2="105.565"/><linearGradient id="SVGID_9_" gradientTransform="matrix(-1 0 0 1 136.062 0)" gradientUnits="userSpaceOnUse" x1="-263.006" x2="-312.512" xlink:href="#lg2" y1="99.398" y2="105.898"/><linearGradient id="SVGID_10_" gradientTransform="matrix(-1 0 0 1 136.062 0)" gradientUnits="userSpaceOnUse" x1="-302.879" x2="-290.878" xlink:href="#lg2" y1="137.224" y2="163.728"/><linearGradient id="SVGID_11_" gradientUnits="userSpaceOnUse" x1="214.163" x2="282.171" y1="219.226" y2="341.24"><stop offset="0" stop-color="#9ae1d3"/><stop offset="1" stop-color="#80d1c1"/></linearGradient><linearGradient id="lg3"><stop offset="0" stop-color="#0b799d" stop-opacity="0"/><stop offset=".1739" stop-color="#117d9e" stop-opacity=".174"/><stop offset=".414" stop-color="#2389a0" stop-opacity=".414"/><stop offset=".6928" stop-color="#409ca3" stop-opacity=".693"/><stop offset=".9986" stop-color="#69b7a8" stop-opacity=".999"/><stop offset="1" stop-color="#69b7a8"/></linearGradient><linearGradient id="SVGID_12_" gradientUnits="userSpaceOnUse" x1="255" x2="255" xlink:href="#lg3" y1="192.48" y2="142.474"/><linearGradient id="SVGID_13_" gradientUnits="userSpaceOnUse" x1="255" x2="255" xlink:href="#lg1" y1="129.472" y2="162.537"/><linearGradient id="SVGID_14_" gradientUnits="userSpaceOnUse" x1="255" x2="255" xlink:href="#lg3" y1="411.211" y2="470.194"/><linearGradient id="SVGID_15_" gradientUnits="userSpaceOnUse" x1="255" x2="255" xlink:href="#lg3" y1="268.701" y2="130.398"/><linearGradient id="SVGID_16_" gradientUnits="userSpaceOnUse" x1="255" x2="255" xlink:href="#lg3" y1="322.078" y2="222.874"/><linearGradient id="SVGID_17_" gradientUnits="userSpaceOnUse" x1="255" x2="255" xlink:href="#lg3" y1="379.678" y2="322.664"/><g><g><g><path d="m65.946 409.506c-27.669 0-51.263-18.847-57.378-45.832l-.562-2.478c-13.382-59.068-9.941-120.525 9.95-177.728l6.555-18.852c7.567-21.761 21.954-40.169 40.437-52.862v-21.635c0-20.75 16.881-37.631 37.631-37.631 17.3 0 31.375 14.074 31.375 31.375 0 14.975-10.668 27.926-25.366 30.794-8.342 1.628-16.291 4.466-23.637 8.335v43.485c0 5.524-4.478 10.001-10.001 10.001-5.524 0-10.001-4.478-10.001-10.001v-28.987c-9.572 9.269-17.043 20.753-21.544 33.696l-6.555 18.851c-18.661 53.667-21.889 111.324-9.335 166.739l.562 2.478c4.035 17.811 19.608 30.25 37.869 30.25 5.524 0 10.001 4.478 10.001 10.001.001 5.524-4.477 10.001-10.001 10.001zm36.634-337.016c-9.72 0-17.628 7.908-17.628 17.628v10.83c6.336-2.593 12.963-4.589 19.806-5.925 5.328-1.04 9.194-5.734 9.194-11.161 0-6.27-5.101-11.372-11.372-11.372z" fill="url(#SVGID_1_)"/><path d="m65.946 409.506c5.524 0 10.001-4.478 10.001-10.001 0-5.524-4.478-10.001-10.001-10.001-14.102 0-26.594-7.422-33.415-19.002h-21.977c8.262 23.281 30.124 39.004 55.392 39.004z" fill="url(#SVGID_2_)"/><path d="m24.513 164.616-4.862 13.98h21.178l2.577-7.41c4.501-12.943 11.972-24.427 21.544-33.696v-25.736c-18.483 12.692-32.87 31.1-40.437 52.862z" fill="url(#SVGID_3_)"/><path d="m133.955 83.863c0-1.666-.133-3.3-.385-4.897h-20.742c.713 1.486 1.124 3.142 1.124 4.897 0 5.428-3.867 10.122-9.194 11.161-6.843 1.335-13.47 3.332-19.806 5.925v22.043c7.346-3.869 15.294-6.707 23.637-8.335 14.697-2.868 25.366-15.819 25.366-30.794z" fill="url(#SVGID_4_)"/><path d="m64.949 137.49v28.987c0 5.524 4.478 10.001 10.001 10.001 5.524 0 10.001-4.478 10.001-10.001v-43.485h-20.002z" fill="url(#SVGID_5_)"/></g><g><path d="m434.052 399.505c0-5.524 4.478-10.001 10.001-10.001 18.261 0 33.834-12.439 37.869-30.25l.562-2.478c12.555-55.415 9.327-113.072-9.335-166.739l-6.555-18.851c-4.501-12.943-11.972-24.427-21.544-33.696v28.987c0 5.524-4.478 10.001-10.001 10.001-5.524 0-10.001-4.478-10.001-10.001v-43.485c-7.346-3.869-15.294-6.707-23.637-8.335-14.698-2.868-25.366-15.818-25.366-30.794 0-17.3 14.075-31.375 31.375-31.375 20.75 0 37.631 16.881 37.631 37.631v21.635c18.482 12.692 32.869 31.1 40.437 52.862l6.555 18.852c19.891 57.204 23.332 118.661 9.95 177.728l-.562 2.478c-6.115 26.985-29.709 45.832-57.378 45.832-5.523 0-10.001-4.477-10.001-10.001zm-38.004-315.642c0 5.428 3.867 10.122 9.194 11.161 6.843 1.335 13.47 3.332 19.806 5.925v-10.83c0-9.72-7.908-17.628-17.628-17.628-6.27-.001-11.372 5.101-11.372 11.372z" fill="url(#SVGID_6_)"/><path d="m444.054 409.506c-5.524 0-10.001-4.478-10.001-10.001 0-5.524 4.478-10.001 10.001-10.001 14.102 0 26.594-7.422 33.415-19.002h21.977c-8.262 23.281-30.124 39.004-55.392 39.004z" fill="url(#SVGID_7_)"/><path d="m485.487 164.616 4.862 13.98h-21.178l-2.577-7.41c-4.501-12.943-11.972-24.427-21.544-33.696v-25.736c18.483 12.692 32.87 31.1 40.437 52.862z" fill="url(#SVGID_8_)"/><path d="m376.045 83.863c0-1.666.133-3.3.385-4.897h20.742c-.713 1.486-1.124 3.142-1.124 4.897 0 5.428 3.867 10.122 9.194 11.161 6.843 1.335 13.47 3.332 19.806 5.925v22.043c-7.346-3.869-15.294-6.707-23.637-8.335-14.697-2.868-25.366-15.819-25.366-30.794z" fill="url(#SVGID_9_)"/><path d="m445.051 137.49v28.987c0 5.524-4.478 10.001-10.001 10.001-5.524 0-10.001-4.478-10.001-10.001v-43.485h20.002z" fill="url(#SVGID_10_)"/></g></g><g><path d="m447.424 178.053c-5.787-17.175-20.86-30.271-39.73-34.308-101.407-21.696-203.983-21.696-305.388 0-18.869 4.037-33.942 17.133-39.73 34.308-25.618 76.031-25.614 152.856 0 228.879 5.787 17.175 20.86 30.271 39.73 34.308 101.405 21.696 203.98 21.697 305.387 0 18.869-4.037 33.942-17.132 39.729-34.308 25.616-76.023 25.619-152.848.002-228.879z" fill="url(#SVGID_11_)"/><path d="m447.424 178.053c-5.787-17.175-20.86-30.271-39.73-34.308-101.407-21.696-203.983-21.696-305.388 0-18.869 4.037-33.942 17.133-39.73 34.308-25.618 76.031-25.614 152.856 0 228.879 5.787 17.175 20.86 30.271 39.73 34.308 101.405 21.696 203.98 21.697 305.387 0 18.869-4.037 33.942-17.132 39.729-34.308 25.616-76.023 25.619-152.848.002-228.879z" fill="url(#SVGID_12_)"/><path d="m71.406 180.14c121.926-26.087 245.261-26.087 367.189 0 3.09.661 6.093 1.526 8.996 2.578 2.567.93 5.083-1.512 4.212-4.1-.008-.023-.015-.046-.023-.069-5.918-17.564-21.332-30.956-40.629-35.085-103.702-22.188-208.6-22.187-312.3 0-19.296 4.129-34.711 17.52-40.629 35.084-.008.023-.016.046-.023.069-.871 2.587 1.645 5.029 4.212 4.1 2.902-1.051 5.905-1.916 8.995-2.577z" fill="url(#SVGID_13_)"/><path d="m53.404 375.208c2.568 10.587 5.615 21.163 9.173 31.724 5.787 17.175 20.86 30.271 39.73 34.308 101.405 21.696 203.98 21.696 305.387 0 18.869-4.037 33.942-17.132 39.729-34.308 3.558-10.56 6.606-21.137 9.173-31.724z" fill="url(#SVGID_14_)"/><path d="m407.694 441.24c18.869-4.037 33.942-17.132 39.729-34.308 20.039-59.475 24.401-119.44 13.085-179.132-136.517-28.224-274.502-28.224-411.017 0-11.316 59.692-6.954 119.658 13.085 179.132 5.787 17.175 20.86 30.271 39.73 34.308 101.406 21.696 203.981 21.696 305.388 0z" fill="url(#SVGID_15_)"/><path d="m407.694 441.24c18.869-4.037 33.942-17.132 39.729-34.308 11.97-35.526 18.342-71.227 19.124-106.94-140.498-29.914-282.599-29.914-423.094 0 .783 35.713 7.154 71.414 19.124 106.941 5.787 17.175 20.86 30.271 39.73 34.308 101.405 21.695 203.98 21.695 305.387-.001z" fill="url(#SVGID_16_)"/><path d="m407.694 441.24c18.869-4.037 33.942-17.132 39.729-34.308 3.638-10.798 6.751-21.612 9.355-32.437-134.056-27.206-269.503-27.205-403.557 0 2.604 10.826 5.717 21.64 9.355 32.437 5.787 17.175 20.86 30.271 39.73 34.308 101.406 21.696 203.981 21.696 305.388 0z" fill="url(#SVGID_17_)"/></g></g></svg>