<svg id="Capa_1" enable-background="new 0 0 510 510" height="512" viewBox="0 0 510 510" width="512" xmlns="http://www.w3.org/2000/svg" xmlns:xlink="http://www.w3.org/1999/xlink"><linearGradient id="SVGID_1_" gradientUnits="userSpaceOnUse" x1="132.649" x2="445.358" y1="132.649" y2="445.358"><stop offset="0" stop-color="#edf5ff"/><stop offset="1" stop-color="#d5e8fe"/></linearGradient><linearGradient id="lg1"><stop offset="0" stop-color="#07485e" stop-opacity="0"/><stop offset=".2708" stop-color="#074459" stop-opacity=".271"/><stop offset=".597" stop-color="#05394a" stop-opacity=".597"/><stop offset=".9505" stop-color="#032632" stop-opacity=".951"/><stop offset="1" stop-color="#03232e"/></linearGradient><linearGradient id="SVGID_2_" gradientUnits="userSpaceOnUse" x1="305.333" x2="270.638" xlink:href="#lg1" y1="305.333" y2="270.638"/><linearGradient id="SVGID_3_" gradientUnits="userSpaceOnUse" x1="397.809" x2="266.285" xlink:href="#lg1" y1="376.191" y2="244.667"/><linearGradient id="lg2"><stop offset="0" stop-color="#ff637b"/><stop offset="1" stop-color="#e63950"/></linearGradient><linearGradient id="SVGID_4_" gradientTransform="matrix(-1 0 0 -1 -1618 -1618)" gradientUnits="userSpaceOnUse" x1="-2002.357" x2="-1717.442" xlink:href="#lg2" y1="-2002.357" y2="-1717.442"/><linearGradient id="SVGID_5_" gradientUnits="userSpaceOnUse" x1="125.644" x2="410.558" xlink:href="#lg2" y1="125.644" y2="410.558"/><linearGradient id="lg3"><stop offset="0" stop-color="#e63950" stop-opacity="0"/><stop offset=".0467" stop-color="#e4354b" stop-opacity=".047"/><stop offset=".4669" stop-color="#d31822" stop-opacity=".467"/><stop offset=".7991" stop-color="#c90709" stop-opacity=".799"/><stop offset="1" stop-color="#c50000"/></linearGradient><linearGradient id="SVGID_6_" gradientUnits="userSpaceOnUse" x1="465.763" x2="258.522" xlink:href="#lg3" y1="444.238" y2="236.997"/><linearGradient id="SVGID_7_" gradientUnits="userSpaceOnUse" x1="438.306" x2="387.062" xlink:href="#lg3" y1="453.027" y2="401.783"/><linearGradient id="lg4"><stop offset="0" stop-color="#fce9cb"/><stop offset="1" stop-color="#ffbd95"/></linearGradient><linearGradient id="SVGID_8_" gradientTransform="matrix(-.707 .707 .707 .707 660.749 1037.607)" gradientUnits="userSpaceOnUse" x1="-372.307" x2="-183.644" xlink:href="#lg4" y1="-968.314" y2="-748.038"/><linearGradient id="lg5"><stop offset="0" stop-color="#faa68e" stop-opacity="0"/><stop offset="1" stop-color="#c9766e"/></linearGradient><linearGradient id="SVGID_9_" gradientTransform="matrix(-.707 .707 .707 .707 660.749 1037.607)" gradientUnits="userSpaceOnUse" x1="-258.933" x2="-258.933" xlink:href="#lg5" y1="-844.296" y2="-1088.04"/><linearGradient id="SVGID_10_" gradientTransform="matrix(-.707 .707 .707 .707 660.749 1037.607)" gradientUnits="userSpaceOnUse" x1="-231.47" x2="-172.322" xlink:href="#lg5" y1="-808.837" y2="-940.391"/><linearGradient id="SVGID_11_" gradientTransform="matrix(-.707 .707 .707 .707 1285.472 -509.064)" gradientUnits="userSpaceOnUse" x1="1258.94" x2="1352.025" xlink:href="#lg5" y1="-273.775" y2="-314.548"/><linearGradient id="SVGID_12_" gradientTransform="matrix(-.707 .707 .707 .707 1285.472 -509.064)" gradientUnits="userSpaceOnUse" x1="1196.651" x2="1277.393" xlink:href="#lg5" y1="-258.634" y2="-289.967"/><linearGradient id="SVGID_13_" gradientTransform="matrix(-.707 .707 .707 .707 1285.472 -509.064)" gradientUnits="userSpaceOnUse" x1="1329.077" x2="1424.195" xlink:href="#lg5" y1="-260.471" y2="-297.643"/><linearGradient id="SVGID_14_" gradientTransform="matrix(-.707 .707 .707 .707 1285.472 -509.064)" gradientUnits="userSpaceOnUse" x1="1387.332" x2="1472.432" xlink:href="#lg5" y1="-237.832" y2="-261.041"/><linearGradient id="SVGID_16_" gradientTransform="matrix(-.707 .707 .707 .707 660.749 1037.607)" gradientUnits="userSpaceOnUse" x1="-386.94" x2="-270.553" xlink:href="#lg4" y1="-830.92" y2="-714.533"/><linearGradient id="SVGID_17_" gradientTransform="matrix(-1 0 0 1 421.773 0)" gradientUnits="userSpaceOnUse" x1="46.531" x2="196.782" xlink:href="#lg5" y1="293.244" y2="235.455"/><g><g><circle cx="255" cy="255" fill="url(#SVGID_1_)" r="246.078"/><path d="m97.091 443.719c42.736 35.797 97.801 57.359 157.909 57.359 135.905 0 246.078-110.173 246.078-246.078 0-60.108-21.563-115.173-57.359-157.909z" fill="url(#SVGID_2_)"/><path d="m509.8 265.15c-4.68 119.61-91.75 218.07-206.05 240.2l-100.83-100.83c-7.43-7.43-12.57-16.42-15.29-26.02l216.7-216.7c4.65 2.67 8.79 6.11 12.26 10.14z" fill="url(#SVGID_3_)"/><path d="m255 510c140.83 0 255-114.17 255-255s-114.17-255-255-255-255 114.17-255 255 114.17 255 255 255zm0-453.71c109.4 0 198.08 88.97 198.08 198.71s-88.68 198.71-198.08 198.71-198.08-88.97-198.08-198.71 88.68-198.71 198.08-198.71z" fill="url(#SVGID_4_)"/><path d="m255 0c-140.83 0-255 114.17-255 255s114.17 255 255 255 255-114.17 255-255-114.17-255-255-255zm0 490.581c-130.105 0-235.581-105.476-235.581-235.581s105.476-235.581 235.581-235.581 235.581 105.476 235.581 235.581-105.476 235.581-235.581 235.581z" fill="url(#SVGID_5_)"/><path d="m509.782 265.132-64.1-64.1c4.817 17.161 7.398 35.262 7.398 53.968 0 109.74-88.68 198.71-198.08 198.71-.979 0-1.952-.023-2.927-.037l51.656 51.656c114.306-22.123 201.376-120.575 206.053-240.197z" fill="url(#SVGID_6_)"/><path d="m487.86 359.058-43.973-44.079c-21.743 68.971-79.981 121.661-151.984 135.274 15.797 15.752 37.971 37.88 45.981 45.962 66.944-23 121.295-73.076 149.976-137.157z" fill="url(#SVGID_7_)"/><g><g><path d="m53.999 207.867c13.181-13.181 34.551-13.181 47.732 0l-27.233-27.233c-13.181-13.181-13.181-34.551 0-47.732 13.181-13.181 34.551-13.181 47.732 0l-19.882-19.882c-13.181-13.181-13.181-34.551 0-47.732s34.551-13.181 47.732 0l23.866 23.866c-13.181-13.181-13.181-34.551 0-47.732s34.551-13.181 47.732 0l188.704 188.704c11.669 11.669 18.225 27.496 18.225 43.999s6.556 32.33 18.225 43.999l7.321 7.321c15.642 15.642 15.642 41.002 0 56.643l-84.646 84.646c-15.642 15.642-41.002 15.642-56.643 0-14.721-14.721-33.281-25.011-53.565-29.699-20.284-4.687-38.844-14.978-53.565-29.699l-151.735-151.736c-13.181-13.181-13.181-34.552 0-47.733z" fill="url(#SVGID_8_)"/><g><path d="m160.079 298.471c-13.633 23.615-9.777 53.431 9.505 72.712l36.152 36.152c7.362 7.362 15.677 13.615 24.698 18.612.418.231.837.462 1.262.685 8.653 4.658 17.927 8.163 27.604 10.398 10.139 2.351 19.852 6.093 28.873 11.091 9.009 4.987 17.327 11.243 24.687 18.6 15.647 15.643 41.002 15.656 56.647.011l84.651-84.651c15.64-15.64 15.64-40.996 0-56.636l-7.319-7.319c-5.834-5.834-10.391-12.713-13.499-20.191-3.094-7.478-4.73-15.561-4.73-23.811 0-12.821-3.952-25.224-11.192-35.594-2.077-2.985-4.428-5.798-7.031-8.401l-46.378-46.377c-18.137-18.137-45.813-22.846-68.847-11.561-30.543 14.963-59.172 35.142-84.565 60.535-20.113 20.112-36.951 42.245-50.518 65.745z" fill="url(#SVGID_9_)"/></g><path d="m193.418 331.81c13.567-23.5 30.405-45.633 50.516-65.745 25.393-25.393 54.022-45.572 84.565-60.535 23.034-11.284 50.71-6.576 68.847 11.561l13.038 13.038c2.603 2.603 4.954 5.416 7.031 8.401 7.24 10.37 11.192 22.773 11.192 35.594 0 8.249 1.637 16.333 4.73 23.811 3.108 7.478 7.665 14.357 13.499 20.191l7.319 7.319c15.64 15.64 15.64 40.996 0 56.636l-84.651 84.651c-15.645 15.645-41 15.631-56.647-.011-7.36-7.358-15.677-13.613-24.687-18.6-9.021-4.997-18.734-8.74-28.873-11.091-9.677-2.235-18.951-5.74-27.604-10.398-.425-.224-.844-.454-1.262-.685-9.021-4.997-17.335-11.249-24.698-18.612l-2.812-2.812c-19.28-19.282-23.136-49.097-9.503-72.713z" fill="url(#SVGID_10_)"/><path d="m301.866 312.537 47.732-47.732-199.517-199.518c-13.181-13.181-34.551-13.181-47.732 0-13.181 13.181-13.181 34.551 0 47.732z" fill="url(#SVGID_11_)"/><path d="m349.599 264.805 47.732-47.732-175.651-175.652c-13.181-13.181-34.551-13.181-47.732 0-13.181 13.181-13.181 34.551 0 47.732z" fill="url(#SVGID_12_)"/><path d="m254.134 360.27 47.732-47.732-179.635-179.636c-13.181-13.181-34.551-13.181-47.732 0-13.181 13.181-13.181 34.551 0 47.732z" fill="url(#SVGID_13_)"/><path d="m206.401 408.002 47.732-47.732-152.401-152.403c-13.181-13.181-34.551-13.181-47.732 0-13.181 13.181-13.181 34.551 0 47.732z" fill="url(#SVGID_14_)"/></g></g><path d="m461.19 104.94-356.25 356.25c-21.5-15.67-40.46-34.63-56.13-56.13l356.25-356.25c21.5 15.67 40.46 34.63 56.13 56.13z" fill="url(#SVGID_5_)"/></g><path d="m301.493 256.21 11.084-23.8-.946-.217c-24.633-5.642-44.118-24.456-50.619-48.876l-3.15-11.833c-2.137-8.028 3.913-15.902 12.221-15.904l110.809-.028c25.991-.013 47.071 21.047 47.084 47.038l.03 61.225c.001 3.141-.524 6.259-1.554 9.226-3.531 10.166-.941 21.457 6.67 29.067 4.09 4.09 4.09 10.722 0 14.813l-18.476 18.476c-27.384 27.384-71.783 27.384-99.167 0-20.838-20.837-26.425-52.476-13.986-79.187z" fill="url(#SVGID_16_)"/><path d="m301.493 256.21 11.084-23.801-.946-.217h85.334c17.136 0 31.031 13.887 31.039 31.024.002 3.323-.447 6.65-1.541 9.787-3.548 10.17-.966 21.472 6.644 29.091 4.079 4.084 4.245 10.593.163 14.675l-18.626 18.626c-27.384 27.384-71.783 27.384-99.167 0-20.836-20.835-26.423-52.474-13.984-79.185z" fill="url(#SVGID_17_)"/></g></svg>