<svg id="Capa_1" enable-background="new 0 0 510 510" height="512" viewBox="0 0 510 510" width="512" xmlns="http://www.w3.org/2000/svg" xmlns:xlink="http://www.w3.org/1999/xlink"><linearGradient id="SVGID_1_" gradientUnits="userSpaceOnUse" x1="255" x2="255" y1="399.123" y2="511.658"><stop offset="0" stop-color="#9ae1d3"/><stop offset="1" stop-color="#80d1c1"/></linearGradient><linearGradient id="lg1"><stop offset="0" stop-color="#0b799d" stop-opacity="0"/><stop offset=".1739" stop-color="#117d9e" stop-opacity=".174"/><stop offset=".414" stop-color="#2389a0" stop-opacity=".414"/><stop offset=".6928" stop-color="#409ca3" stop-opacity=".693"/><stop offset=".9986" stop-color="#69b7a8" stop-opacity=".999"/><stop offset="1" stop-color="#69b7a8"/></linearGradient><linearGradient id="SVGID_2_" gradientUnits="userSpaceOnUse" x1="349.18" x2="281.257" xlink:href="#lg1" y1="490.362" y2="342.703"/><linearGradient id="SVGID_3_" gradientUnits="userSpaceOnUse" x1="253.744" x2="207.744" xlink:href="#lg1" y1="439.978" y2="408.478"/><linearGradient id="lg2"><stop offset="0" stop-color="#fce9cb"/><stop offset="1" stop-color="#ffbd95"/></linearGradient><linearGradient id="SVGID_4_" gradientUnits="userSpaceOnUse" x1="108.363" x2="137.417" xlink:href="#lg2" y1="234.042" y2="263.096"/><linearGradient id="SVGID_5_" gradientUnits="userSpaceOnUse" x1="387.101" x2="416.155" xlink:href="#lg2" y1="234.042" y2="263.096"/><linearGradient id="SVGID_6_" gradientUnits="userSpaceOnUse" x1="186.343" x2="309.565" xlink:href="#lg2" y1="134.548" y2="329.154"/><linearGradient id="lg3"><stop offset="0" stop-color="#f9dbb7" stop-opacity="0"/><stop offset=".0209" stop-color="#f7d2b0" stop-opacity=".021"/><stop offset=".1667" stop-color="#ea9b82" stop-opacity=".167"/><stop offset=".3134" stop-color="#df6c5a" stop-opacity=".313"/><stop offset=".4582" stop-color="#d5453a" stop-opacity=".458"/><stop offset=".6006" stop-color="#ce2720" stop-opacity=".601"/><stop offset=".7399" stop-color="#c9110e" stop-opacity=".74"/><stop offset=".8747" stop-color="#c60404" stop-opacity=".875"/><stop offset="1" stop-color="#c50000"/></linearGradient><linearGradient id="SVGID_7_" gradientUnits="userSpaceOnUse" x1="255" x2="255" xlink:href="#lg3" y1="253" y2="44.99"/><linearGradient id="SVGID_8_" gradientUnits="userSpaceOnUse" x1="255" x2="255" y1="366.232" y2="396.058"><stop offset="0" stop-color="#ff9690"/><stop offset="1" stop-color="#f9545b"/></linearGradient><linearGradient id="lg4"><stop offset="0" stop-color="#8a7889"/><stop offset="1" stop-color="#6e566e"/></linearGradient><linearGradient id="SVGID_9_" gradientUnits="userSpaceOnUse" x1="178.136" x2="266.136" xlink:href="#lg4" y1="34.777" y2="204.777"/><linearGradient id="SVGID_10_" gradientUnits="userSpaceOnUse" x1="211.824" x2="250.824" y1="83.957" y2="203.957"><stop offset="0" stop-color="#6e566e" stop-opacity="0"/><stop offset=".2944" stop-color="#674d66" stop-opacity=".294"/><stop offset="1" stop-color="#593b56"/></linearGradient><linearGradient id="SVGID_11_" gradientUnits="userSpaceOnUse" x1="255" x2="255" y1="230.667" y2="359.504"><stop offset="0" stop-color="#f9dbb7" stop-opacity="0"/><stop offset=".1111" stop-color="#f1ba9b" stop-opacity=".111"/><stop offset=".3498" stop-color="#e27965" stop-opacity=".35"/><stop offset=".5667" stop-color="#d54539" stop-opacity=".567"/><stop offset=".7543" stop-color="#cc1f1a" stop-opacity=".754"/><stop offset=".905" stop-color="#c70807" stop-opacity=".905"/><stop offset="1" stop-color="#c50000"/></linearGradient><linearGradient id="SVGID_12_" gradientTransform="matrix(.375 -.927 .927 .375 316.792 -95.639)" gradientUnits="userSpaceOnUse" x1="-356.489" x2="-367.962" xlink:href="#lg4" y1="-1.614" y2="19.206"/><linearGradient id="SVGID_13_" gradientTransform="matrix(-.375 -.927 -.927 .375 52.096 -95.639)" gradientUnits="userSpaceOnUse" x1="-409.381" x2="-420.854" xlink:href="#lg4" y1="-132.439" y2="-111.619"/><linearGradient id="SVGID_14_" gradientUnits="userSpaceOnUse" x1="245.07" x2="179.07" xlink:href="#lg3" y1="416.42" y2="386.086"/><linearGradient id="lg5"><stop offset="0" stop-color="#edf5ff"/><stop offset="1" stop-color="#d5e8fe"/></linearGradient><linearGradient id="SVGID_15_" gradientUnits="userSpaceOnUse" x1="208.358" x2="215.505" xlink:href="#lg5" y1="400.919" y2="408.067"/><linearGradient id="SVGID_16_" gradientUnits="userSpaceOnUse" x1="286.014" x2="97.871" xlink:href="#lg3" y1="379.254" y2="318.194"/><linearGradient id="SVGID_17_" gradientUnits="userSpaceOnUse" x1="224.5" x2="233.718" xlink:href="#lg5" y1="337.642" y2="346.861"/><g><path d="m486.754 463.53c12.805 14.415 3.674 37.25-15.537 38.897-55.03 4.716-127.891 7.573-207.827 7.573-88.483 0-168.293-3.502-224.84-9.136-18.978-1.891-28.082-24.562-15.317-38.732.096-.107.192-.213.288-.32 56.824-63.133 139.197-102.821 230.831-102.821 90.65 0 172.172 38.793 228.952 100.717 1.16 1.265 2.31 2.539 3.45 3.822z" fill="url(#SVGID_1_)"/><path d="m471.22 502.43c-51.59 4.42-118.86 7.21-192.94 7.54l-131.75-131.74c33.59-12.44 69.91-19.24 107.82-19.24 90.65 0 172.17 38.79 228.95 100.72 1.16 1.26 2.31 2.54 3.45 3.82 12.81 14.42 3.68 37.25-15.53 38.9z" fill="url(#SVGID_2_)"/><path d="m290 454.81-72.228-72.228c-1.097-1.717-2.829-1.717-3.926 0l-3.466 5.422c-2.168 3.392-4.58 6.636-7.381 9.527-3.242 3.348-5.222 7.925-5.17 12.966.056 5.409 1.737 10.283 5.557 13.62l45.92 45.92c14.728-2.355 28.505-7.628 40.694-15.227z" fill="url(#SVGID_3_)"/><g><g><path d="m115.631 280.922c-16.863 0-30.534-13.67-30.534-30.534v-18.158c0-16.863 13.67-30.534 30.534-30.534 16.863 0 30.534 13.67 30.534 30.534v18.159c0 16.863-13.671 30.533-30.534 30.533z" fill="url(#SVGID_4_)"/><path d="m394.369 280.922c-16.863 0-30.534-13.67-30.534-30.534v-18.158c0-16.863 13.67-30.534 30.534-30.534 16.863 0 30.534 13.67 30.534 30.534v18.159c-.001 16.863-13.671 30.533-30.534 30.533z" fill="url(#SVGID_5_)"/></g><path d="m255 428.583c76.292 0 139.053-60.317 141.809-136.559 1.182-32.689 1.182-65.401 0-98.089-2.757-76.242-65.517-136.559-141.809-136.559-76.291 0-139.052 60.317-141.808 136.559-1.182 32.689-1.182 65.401 0 98.089 2.755 76.241 65.516 136.559 141.808 136.559z" fill="url(#SVGID_6_)"/><path d="m255 57.376c-76.291 0-139.052 60.317-141.808 136.559-.422 11.686-.687 53.575-.808 65.265h285.232c-.12-11.69-.385-53.579-.808-65.265-2.756-76.242-65.516-136.559-141.808-136.559z" fill="url(#SVGID_7_)"/><path d="m219.03 394.657c.027.004.054.007.081.011 2.141.289 4.28-.467 5.828-1.973 8.445-8.216 18.782-13.057 29.953-13.057 11.312 0 21.766 4.956 30.268 13.357 1.517 1.499 3.618 2.266 5.737 2.019.011-.001.022-.003.034-.004 3.192-.373 4.71-5.54 2.582-8.802-.189-.29-.381-.579-.573-.865-9.436-14.013-22.983-22.792-38.047-22.792-15.228 0-28.917 8.981-38.36 23.268-.016.024-.032.048-.048.072-2.122 3.207-.609 8.338 2.545 8.766z" fill="url(#SVGID_8_)"/><g><path d="m113.591 241.396 2.627-39.194c1.406-20.975 13.447-40.008 31.509-50.253 8.956-5.08 18.954-7.747 29.001-7.747h76.668c27.857 0 54.309-10.967 73.254-30.201l18.466 29.523c4.423 7.071 10.63 12.967 17.989 17.065 15.074 8.393 25.097 24.212 26.174 41.621l1.728 27.945c.323 5.23 4.68 9.488 9.728 9.488 4.204 0 7.657-2.984 8.368-7.218v-77.034c.001-85.821-69.57-155.391-155.389-155.391-85.819 0-155.39 69.57-155.39 155.389v87.653c.473 3.707 3.413 6.369 7.046 6.369 4.244 0 7.924-3.596 8.221-8.015z" fill="url(#SVGID_9_)"/></g><path d="m365.221 47.182c-28.24-29.095-67.758-47.182-111.507-47.182-85.819 0-155.39 69.57-155.39 155.389v87.653c.473 3.707 3.413 6.369 7.046 6.369 4.243 0 7.924-3.596 8.22-8.015l2.627-39.194c1.406-20.975 13.447-40.008 31.509-50.253 8.956-5.08 18.954-7.747 29.001-7.747h76.668c27.857 0 54.309-10.967 73.255-30.201.001 0-24.853-76.232 38.571-66.819z" fill="url(#SVGID_10_)"/><path d="m263.749 315.333h-17.499c-14.023 0-24.949-10.339-23.449-22.19l9.149-72.289h46.098l9.149 72.289c1.501 11.851-9.424 22.19-23.448 22.19z" fill="url(#SVGID_11_)"/><g><path d="m214.878 235.104c-.008.02-.016.039-.024.059-4.314 10.45-15.931 23.103-46.769 24.033-4.691.142-8.609-3.547-8.75-8.238-.14-4.692 3.547-8.609 8.238-8.75 12.004-.362 27.225-3.004 31.571-13.531 1.791-4.339 6.76-6.403 11.098-4.612 4.318 1.782 6.384 6.715 4.636 11.039z" fill="url(#SVGID_12_)"/><path d="m295.122 235.104c.008.02.016.039.024.059 4.314 10.45 15.931 23.103 46.769 24.033 4.691.142 8.609-3.547 8.75-8.238.14-4.692-3.547-8.609-8.238-8.75-12.004-.362-27.225-3.004-31.571-13.531-1.791-4.339-6.76-6.403-11.098-4.612-4.319 1.782-6.384 6.715-4.636 11.039z" fill="url(#SVGID_13_)"/></g></g><path d="m217.772 382.582c-1.097-1.717-2.829-1.717-3.927 0l-3.466 5.422c-2.168 3.392-4.58 6.636-7.381 9.527-3.242 3.348-5.222 7.925-5.17 12.966.024 2.305.364 4.502 1.017 6.535 17.246 7.432 36.237 11.55 56.154 11.55 2.858 0 5.694-.095 8.511-.262z" fill="url(#SVGID_14_)"/><path d="m221.535 388.164-3.569-5.582c-1.097-1.717-3.605-1.717-4.702 0l-3.466 5.422c-2.168 3.392-4.58 6.636-7.381 9.527-3.242 3.348-5.222 7.925-5.17 12.966.104 10.082 8.541 18.311 18.622 18.174 10.028-.136 18.115-8.307 18.115-18.367 0-4.978-1.981-9.492-5.197-12.799-2.754-2.832-5.125-6.013-7.252-9.341z" fill="url(#SVGID_15_)"/><path d="m330.048 407.148-93.156-93.156c-1.415-2.214-3.649-2.214-5.064 0l-4.47 6.993c-2.796 4.374-5.907 8.558-9.519 12.288-4.182 4.318-6.735 10.222-6.668 16.723.072 6.977 2.24 13.263 7.168 17.566l59.225 59.225c18.995-3.037 36.763-9.837 52.484-19.639z" fill="url(#SVGID_16_)"/><path d="m241.494 321.192-4.603-7.2c-1.415-2.214-4.65-2.214-6.065 0l-4.47 6.993c-2.796 4.374-5.907 8.558-9.519 12.288-4.182 4.318-6.735 10.222-6.668 16.723.134 13.003 11.016 23.616 24.018 23.44 12.933-.176 23.363-10.714 23.363-23.689 0-6.42-2.555-12.242-6.703-16.508-3.55-3.653-6.609-7.755-9.353-12.047z" fill="url(#SVGID_17_)"/></g></svg>