<svg id="Capa_1" enable-background="new 0 0 510 510" height="512" viewBox="0 0 510 510" width="512" xmlns="http://www.w3.org/2000/svg" xmlns:xlink="http://www.w3.org/1999/xlink"><linearGradient id="lg1"><stop offset="0" stop-color="#ff637b"/><stop offset="1" stop-color="#e63950"/></linearGradient><linearGradient id="SVGID_1_" gradientUnits="userSpaceOnUse" x1="227.687" x2="227.687" xlink:href="#lg1" y1="18.551" y2="66.887"/><linearGradient id="lg2"><stop offset="0" stop-color="#ff9690"/><stop offset="1" stop-color="#f9545b"/></linearGradient><linearGradient id="SVGID_2_" gradientUnits="userSpaceOnUse" x1="227.687" x2="227.687" xlink:href="#lg2" y1="91.948" y2="140.284"/><linearGradient id="SVGID_3_" gradientUnits="userSpaceOnUse" x1="227.687" x2="227.687" xlink:href="#lg1" y1="165.345" y2="213.682"/><linearGradient id="SVGID_4_" gradientUnits="userSpaceOnUse" x1="227.687" x2="227.687" xlink:href="#lg1" y1="451.082" y2="503.678"/><linearGradient id="SVGID_5_" gradientUnits="userSpaceOnUse" x1="227.687" x2="227.687" xlink:href="#lg2" y1="370.342" y2="426.975"/><linearGradient id="SVGID_6_" gradientUnits="userSpaceOnUse" x1="227.687" x2="227.687" xlink:href="#lg1" y1="309.526" y2="351.521"/><linearGradient id="lg3"><stop offset="0" stop-color="#e63950" stop-opacity="0"/><stop offset=".0467" stop-color="#e4354b" stop-opacity=".047"/><stop offset=".4669" stop-color="#d31822" stop-opacity=".467"/><stop offset=".7991" stop-color="#c90709" stop-opacity=".799"/><stop offset="1" stop-color="#c50000"/></linearGradient><linearGradient id="SVGID_7_" gradientUnits="userSpaceOnUse" x1="115.925" x2="57.986" xlink:href="#lg3" y1="68.445" y2="10.506"/><linearGradient id="SVGID_8_" gradientUnits="userSpaceOnUse" x1="135.725" x2="68.583" xlink:href="#lg3" y1="140.394" y2="73.252"/><linearGradient id="SVGID_9_" gradientUnits="userSpaceOnUse" x1="272.457" x2="211.336" xlink:href="#lg2" y1="210.23" y2="271.351"/><linearGradient id="SVGID_10_" gradientUnits="userSpaceOnUse" x1="210.014" x2="143.821" xlink:href="#lg3" y1="364.947" y2="298.755"/><linearGradient id="SVGID_11_" gradientUnits="userSpaceOnUse" x1="123.464" x2="63.629" xlink:href="#lg3" y1="511.266" y2="451.431"/><linearGradient id="SVGID_12_" gradientUnits="userSpaceOnUse" x1="150.972" x2="85.024" xlink:href="#lg3" y1="442.339" y2="376.39"/><linearGradient id="SVGID_13_" gradientUnits="userSpaceOnUse" x1="304.07" x2="238.07" xlink:href="#lg3" y1="318.511" y2="259.011"/><linearGradient id="SVGID_14_" gradientUnits="userSpaceOnUse" x1="184.409" x2="262.815" xlink:href="#lg2" y1="211.722" y2="290.128"/><linearGradient id="SVGID_15_" gradientTransform="matrix(0 1 -1 0 -2682 -1064)" gradientUnits="userSpaceOnUse" x1="1315.014" x2="1327.663" xlink:href="#lg1" y1="-2975.381" y2="-2975.381"/><linearGradient id="SVGID_16_" gradientTransform="matrix(0 1 -1 0 -2682 -1064)" gradientUnits="userSpaceOnUse" x1="1316.63" x2="1325.338" xlink:href="#lg2" y1="-2998.176" y2="-2989.468"/><linearGradient id="SVGID_17_" gradientTransform="matrix(.707 .707 -.707 .707 -1561.362 23.46)" gradientUnits="userSpaceOnUse" x1="1424.445" x2="1437.094" xlink:href="#lg1" y1="-1166.54" y2="-1166.54"/><linearGradient id="SVGID_18_" gradientTransform="matrix(.707 .707 -.707 .707 -1561.362 23.46)" gradientUnits="userSpaceOnUse" x1="1426.061" x2="1434.77" xlink:href="#lg2" y1="-1189.336" y2="-1180.627"/><linearGradient id="SVGID_19_" gradientTransform="matrix(-.707 .707 -.707 -.707 -2705.46 -2625.362)" gradientUnits="userSpaceOnUse" x1="-41.409" x2="-28.76" xlink:href="#lg1" y1="-4177.044" y2="-4177.044"/><linearGradient id="SVGID_20_" gradientTransform="matrix(-.707 .707 -.707 -.707 -2705.46 -2625.362)" gradientUnits="userSpaceOnUse" x1="-39.793" x2="-31.085" xlink:href="#lg2" y1="-4199.84" y2="-4191.131"/><linearGradient id="SVGID_21_" gradientUnits="userSpaceOnUse" x1="222.781" x2="235.43" xlink:href="#lg1" y1="189.883" y2="189.883"/><linearGradient id="SVGID_22_" gradientUnits="userSpaceOnUse" x1="224.397" x2="233.106" xlink:href="#lg2" y1="167.087" y2="175.796"/><linearGradient id="SVGID_23_" gradientTransform="matrix(-1 0 0 -1 -1618 -3542.034)" gradientUnits="userSpaceOnUse" x1="-1850.25" x2="-1837.601" xlink:href="#lg1" y1="-3863.647" y2="-3863.647"/><linearGradient id="SVGID_24_" gradientTransform="matrix(-1 0 0 -1 -1618 -3542.034)" gradientUnits="userSpaceOnUse" x1="-1848.634" x2="-1839.925" xlink:href="#lg2" y1="-3886.442" y2="-3877.734"/><linearGradient id="SVGID_25_" gradientTransform="matrix(0 -1 1 0 860.034 -2682)" gradientUnits="userSpaceOnUse" x1="-2942.482" x2="-2929.833" xlink:href="#lg1" y1="-698.384" y2="-698.384"/><linearGradient id="SVGID_26_" gradientTransform="matrix(0 -1 1 0 860.034 -2682)" gradientUnits="userSpaceOnUse" x1="-2940.866" x2="-2932.158" xlink:href="#lg2" y1="-721.179" y2="-712.471"/><linearGradient id="SVGID_27_" gradientTransform="matrix(-.707 -.707 .707 -.707 -200.864 -3625.235)" gradientUnits="userSpaceOnUse" x1="-3051.913" x2="-3039.264" xlink:href="#lg1" y1="-2507.224" y2="-2507.224"/><linearGradient id="SVGID_28_" gradientTransform="matrix(-.707 -.707 .707 -.707 -200.864 -3625.235)" gradientUnits="userSpaceOnUse" x1="-3050.297" x2="-3041.589" xlink:href="#lg2" y1="-2530.02" y2="-2521.311"/><linearGradient id="SVGID_29_" gradientTransform="matrix(.707 -.707 .707 .707 943.235 -1264.864)" gradientUnits="userSpaceOnUse" x1="-1586.059" x2="-1573.41" xlink:href="#lg1" y1="503.28" y2="503.28"/><linearGradient id="SVGID_30_" gradientTransform="matrix(.707 -.707 .707 .707 943.235 -1264.864)" gradientUnits="userSpaceOnUse" x1="-1584.443" x2="-1575.735" xlink:href="#lg2" y1="480.485" y2="489.193"/><linearGradient id="SVGID_31_" gradientUnits="userSpaceOnUse" x1="181.752" x2="277.717" xlink:href="#lg2" y1="209.984" y2="305.95"/><linearGradient id="SVGID_32_" gradientUnits="userSpaceOnUse" x1="269.803" x2="234.462" xlink:href="#lg3" y1="223.06" y2="187.719"/><linearGradient id="SVGID_33_" gradientUnits="userSpaceOnUse" x1="236.431" x2="219.862" xlink:href="#lg3" y1="273.695" y2="240.95"/><linearGradient id="SVGID_34_" gradientTransform="matrix(.927 .375 -.375 .927 -761.188 166.687)" gradientUnits="userSpaceOnUse" x1="946.185" x2="956.33" xlink:href="#lg1" y1="-340.926" y2="-340.926"/><linearGradient id="SVGID_35_" gradientTransform="matrix(.927 .375 -.375 .927 -761.188 166.687)" gradientUnits="userSpaceOnUse" x1="947.481" x2="954.466" xlink:href="#lg2" y1="-359.209" y2="-352.225"/><linearGradient id="SVGID_36_" gradientTransform="matrix(-.375 .927 -.927 -.375 -2848.687 -1825.188)" gradientUnits="userSpaceOnUse" x1="772.105" x2="782.251" xlink:href="#lg1" y1="-3684.81" y2="-3684.81"/><linearGradient id="SVGID_37_" gradientTransform="matrix(-.375 .927 -.927 -.375 -2848.687 -1825.188)" gradientUnits="userSpaceOnUse" x1="773.401" x2="780.386" xlink:href="#lg2" y1="-3703.093" y2="-3696.109"/><linearGradient id="SVGID_38_" gradientTransform="matrix(.39 .921 -.921 .39 -2217.468 -396.915)" gradientUnits="userSpaceOnUse" x1="1551.686" x2="1561.831" xlink:href="#lg1" y1="-2048.921" y2="-2048.921"/><linearGradient id="SVGID_39_" gradientTransform="matrix(.39 .921 -.921 .39 -2217.468 -396.915)" gradientUnits="userSpaceOnUse" x1="1552.982" x2="1559.967" xlink:href="#lg2" y1="-2067.204" y2="-2060.22"/><linearGradient id="SVGID_40_" gradientTransform="matrix(-.921 .39 -.39 -.921 -2285.085 -3281.468)" gradientUnits="userSpaceOnUse" x1="-935.89" x2="-925.744" xlink:href="#lg1" y1="-4290.312" y2="-4290.312"/><linearGradient id="SVGID_41_" gradientTransform="matrix(-.921 .39 -.39 -.921 -2285.085 -3281.468)" gradientUnits="userSpaceOnUse" x1="-934.594" x2="-927.609" xlink:href="#lg2" y1="-4308.595" y2="-4301.61"/><linearGradient id="SVGID_42_" gradientTransform="matrix(-.927 -.375 .375 -.927 -933.279 -3723.597)" gradientUnits="userSpaceOnUse" x1="-2571.779" x2="-2561.633" xlink:href="#lg1" y1="-3306.764" y2="-3306.764"/><linearGradient id="SVGID_43_" gradientTransform="matrix(-.927 -.375 .375 -.927 -933.279 -3723.597)" gradientUnits="userSpaceOnUse" x1="-2570.483" x2="-2563.498" xlink:href="#lg2" y1="-3325.048" y2="-3318.063"/><linearGradient id="SVGID_44_" gradientUnits="userSpaceOnUse" x1="177.651" x2="172.128" xlink:href="#lg3" y1="250.667" y2="211.808"/><linearGradient id="SVGID_45_" gradientTransform="matrix(.375 -.927 .927 .375 1041.597 -1997.279)" gradientUnits="userSpaceOnUse" x1="-2397.7" x2="-2387.554" xlink:href="#lg1" y1="37.12" y2="37.12"/><linearGradient id="SVGID_46_" gradientTransform="matrix(.375 -.927 .927 .375 1041.597 -1997.279)" gradientUnits="userSpaceOnUse" x1="-2396.403" x2="-2389.419" xlink:href="#lg2" y1="18.836" y2="25.821"/><linearGradient id="SVGID_47_" gradientTransform="matrix(-.39 -.921 .921 -.39 411.691 -3269.448)" gradientUnits="userSpaceOnUse" x1="-3177.28" x2="-3167.135" xlink:href="#lg1" y1="-1598.769" y2="-1598.769"/><linearGradient id="SVGID_48_" gradientTransform="matrix(-.39 -.921 .921 -.39 411.691 -3269.448)" gradientUnits="userSpaceOnUse" x1="-3175.984" x2="-3168.999" xlink:href="#lg2" y1="-1617.053" y2="-1610.068"/><linearGradient id="SVGID_49_" gradientUnits="userSpaceOnUse" x1="222.898" x2="184.235" xlink:href="#lg3" y1="213.546" y2="183.365"/><linearGradient id="SVGID_50_" gradientTransform="matrix(.921 -.39 .39 .921 587.448 -652.309)" gradientUnits="userSpaceOnUse" x1="-689.704" x2="-679.559" xlink:href="#lg1" y1="642.621" y2="642.621"/><linearGradient id="SVGID_51_" gradientTransform="matrix(.921 -.39 .39 .921 587.448 -652.309)" gradientUnits="userSpaceOnUse" x1="-688.408" x2="-681.424" xlink:href="#lg2" y1="624.338" y2="631.322"/><linearGradient id="SVGID_52_" gradientUnits="userSpaceOnUse" x1="215.286" x2="249.442" xlink:href="#lg1" y1="243.518" y2="277.675"/><linearGradient id="lg4"><stop offset="0" stop-color="#9ae1d3"/><stop offset="1" stop-color="#80d1c1"/></linearGradient><linearGradient id="SVGID_53_" gradientTransform="matrix(-1 0 0 1 -1377.637 -534.97)" gradientUnits="userSpaceOnUse" x1="-1784.198" x2="-1756.127" xlink:href="#lg4" y1="932.628" y2="960.698"/><linearGradient id="SVGID_54_" gradientTransform="matrix(-.707 .707 .707 .707 -820.506 345.18)" gradientUnits="userSpaceOnUse" x1="-804.3" x2="-804.3" xlink:href="#lg4" y1="996.651" y2="984.699"/><linearGradient id="SVGID_55_" gradientTransform="matrix(-1 0 0 1 -1377.637 -534.97)" gradientUnits="userSpaceOnUse" x1="-1744.715" x2="-1723.776" y1="990.866" y2="897.026"><stop offset="0" stop-color="#0b799d" stop-opacity="0"/><stop offset=".1739" stop-color="#117d9e" stop-opacity=".174"/><stop offset=".414" stop-color="#2389a0" stop-opacity=".414"/><stop offset=".6928" stop-color="#409ca3" stop-opacity=".693"/><stop offset=".9986" stop-color="#69b7a8" stop-opacity=".999"/><stop offset="1" stop-color="#69b7a8"/></linearGradient><linearGradient id="lg5"><stop offset="0" stop-color="#edf5ff"/><stop offset="1" stop-color="#d5e8fe"/></linearGradient><linearGradient id="SVGID_56_" gradientTransform="matrix(-.707 .707 .707 .707 -820.506 345.18)" gradientUnits="userSpaceOnUse" x1="-830.721" x2="-773.017" xlink:href="#lg5" y1="813.334" y2="871.039"/><linearGradient id="SVGID_57_" gradientTransform="matrix(-.707 .707 .707 .707 -820.506 345.18)" gradientUnits="userSpaceOnUse" x1="-804.3" x2="-804.3" y1="853.055" y2="808.399"><stop offset="0" stop-color="#07485e" stop-opacity="0"/><stop offset=".2708" stop-color="#074459" stop-opacity=".271"/><stop offset=".597" stop-color="#05394a" stop-opacity=".597"/><stop offset=".9505" stop-color="#032632" stop-opacity=".951"/><stop offset="1" stop-color="#03232e"/></linearGradient><linearGradient id="SVGID_58_" gradientTransform="matrix(-1 0 0 1 -1377.637 -534.97)" gradientUnits="userSpaceOnUse" x1="-1605.152" x2="-1605.152" y1="892.202" y2="645.332"><stop offset="0" stop-color="#fff" stop-opacity="0"/><stop offset="1" stop-color="#fff"/></linearGradient><linearGradient id="SVGID_59_" gradientTransform="matrix(-1 0 0 1 -1377.637 -534.97)" gradientUnits="userSpaceOnUse" x1="-1699.245" x2="-1493.741" xlink:href="#lg5" y1="696.624" y2="902.129"/><linearGradient id="SVGID_60_" gradientTransform="matrix(1 0 0 -1 -809.687 2205.22)" gradientUnits="userSpaceOnUse" x1="957.995" x2="1130.985" xlink:href="#lg5" y1="1870.265" y2="2043.256"/><linearGradient id="SVGID_61_" gradientTransform="matrix(-.707 .707 .707 .707 -820.506 345.18)" gradientUnits="userSpaceOnUse" x1="-804.3" x2="-804.3" xlink:href="#lg5" y1="960.819" y2="987.749"/><g><g><path d="m377.024 15.405c-.273 13.778-2.087 28.752-5.327 44.04h-288.02c-3.24-15.288-5.054-30.262-5.327-44.04z" fill="url(#SVGID_1_)"/><path d="m362.407 88.802c-5.274 15.309-11.922 30.283-19.839 44.04h-229.762c-7.917-13.757-14.565-28.731-19.839-44.04z" fill="url(#SVGID_2_)"/><path d="m318.126 162.199c-5.421 5.809-11.199 11.031-17.301 15.54l-38.577 28.5h-69.122l-38.577-28.5c-6.103-4.509-11.88-9.731-17.301-15.54z" fill="url(#SVGID_3_)"/><path d="m78.35 494.595c.273-13.778 2.087-28.752 5.327-44.04h288.021c3.24 15.288 5.054 30.262 5.327 44.04z" fill="url(#SVGID_4_)"/><path d="m92.967 421.198c5.274-15.309 11.922-30.283 19.839-44.04h229.762c7.917 13.757 14.565 28.731 19.839 44.04z" fill="url(#SVGID_5_)"/><path d="m137.248 347.801c5.421-5.809 11.199-11.031 17.301-15.54l38.577-28.5h69.122l38.577 28.5c6.103 4.509 11.88 9.731 17.301 15.54z" fill="url(#SVGID_6_)"/><path d="m86.133 15.405h-7.783c.273 13.778 2.087 28.752 5.327 44.04h46.496z" fill="url(#SVGID_7_)"/><path d="m99.5 88.802h-6.533c5.274 15.309 11.922 30.283 19.839 44.04h30.733z" fill="url(#SVGID_8_)"/><path d="m391.264 510c-13.03 0-23.593-10.563-23.593-23.593 0-57.826-26.043-111.525-71.453-147.329l-166.277-131.103c-27.707-21.846-50.49-50.174-65.887-81.92-15.398-31.748-23.536-67.179-23.536-102.462 0-13.03 10.563-23.593 23.593-23.593s23.593 10.563 23.593 23.593c0 57.826 26.043 111.525 71.453 147.329l166.278 131.104c27.707 21.846 50.49 50.174 65.887 81.92 15.397 31.747 23.535 67.178 23.535 102.462 0 13.029-10.563 23.592-23.593 23.592z" fill="url(#SVGID_9_)"/><path d="m204.447 303.761h-11.32l-38.577 28.5c-6.103 4.509-11.88 9.731-17.301 15.54h111.238z" fill="url(#SVGID_10_)"/><path d="m91.196 450.555h-7.519c-3.24 15.288-5.054 30.262-5.327 44.04h56.886z" fill="url(#SVGID_11_)"/><path d="m92.967 421.198h73.728l-44.04-44.04h-9.85c-7.915 13.757-14.563 28.731-19.838 44.04z" fill="url(#SVGID_12_)"/><path d="m325.434 302.025-73.227-57.737-33.598 33.598 77.609 61.192c9.454 7.454 18.054 15.693 25.769 24.574h58.178c-14.461-23.521-33.083-44.558-54.731-61.627z" fill="url(#SVGID_13_)"/><path d="m64.111 510c13.03 0 23.593-10.563 23.593-23.593 0-57.826 26.043-111.525 71.453-147.329l166.278-131.104c27.707-21.846 50.49-50.174 65.887-81.92 15.397-31.747 23.535-67.178 23.535-102.462 0-13.029-10.563-23.592-23.593-23.592s-23.593 10.563-23.593 23.593c0 57.826-26.043 111.525-71.453 147.329l-166.277 131.103c-27.707 21.846-50.49 50.174-65.887 81.92-15.397 31.747-23.535 67.178-23.535 102.462-.001 13.03 10.562 23.593 23.592 23.593z" fill="url(#SVGID_14_)"/></g><g><g><g><path d="m277.254 255.748c0-1.961 1.59-3.551 3.551-3.551h25.152c1.961 0 3.551 1.59 3.551 3.551 0 1.961-1.59 3.551-3.551 3.551h-25.152c-1.961 0-3.551-1.59-3.551-3.551z" fill="url(#SVGID_15_)"/><circle cx="313.058" cy="255.748" fill="url(#SVGID_16_)" r="11.046"/></g><g><path d="m262.686 220.577c-1.387-1.387-1.387-3.635 0-5.021l17.785-17.785c1.387-1.387 3.635-1.387 5.021 0 1.387 1.387 1.387 3.635 0 5.021l-17.785 17.785c-1.386 1.387-3.634 1.387-5.021 0z" fill="url(#SVGID_17_)"/><circle cx="288.003" cy="195.26" fill="url(#SVGID_18_)" r="11.046"/></g><g><path d="m262.686 290.919c1.387-1.387 3.635-1.387 5.021 0l17.785 17.785c1.387 1.387 1.387 3.635 0 5.021-1.387 1.387-3.635 1.387-5.021 0l-17.785-17.785c-1.387-1.387-1.387-3.635 0-5.021z" fill="url(#SVGID_19_)"/><circle cx="288.003" cy="316.236" fill="url(#SVGID_20_)" r="11.046"/></g><g><path d="m227.515 206.009c-1.961 0-3.551-1.59-3.551-3.551v-25.152c0-1.961 1.59-3.551 3.551-3.551 1.961 0 3.551 1.59 3.551 3.551v25.152c0 1.962-1.59 3.551-3.551 3.551z" fill="url(#SVGID_21_)"/><circle cx="227.515" cy="170.205" fill="url(#SVGID_22_)" r="11.046"/></g><g><path d="m227.515 305.487c1.961 0 3.551 1.59 3.551 3.551v25.152c0 1.961-1.59 3.551-3.551 3.551-1.961 0-3.551-1.59-3.551-3.551v-25.152c.001-1.962 1.59-3.551 3.551-3.551z" fill="url(#SVGID_23_)"/><circle cx="227.515" cy="341.29" fill="url(#SVGID_24_)" r="11.046"/></g><g><path d="m177.777 255.748c0 1.961-1.59 3.551-3.551 3.551h-25.152c-1.961 0-3.551-1.59-3.551-3.551 0-1.961 1.59-3.551 3.551-3.551h25.152c1.961 0 3.551 1.59 3.551 3.551z" fill="url(#SVGID_25_)"/><circle cx="141.973" cy="255.748" fill="url(#SVGID_26_)" r="11.046"/></g><g><path d="m192.345 290.919c1.387 1.387 1.387 3.635 0 5.021l-17.785 17.785c-1.387 1.387-3.635 1.387-5.021 0-1.387-1.387-1.387-3.635 0-5.021l17.785-17.785c1.386-1.387 3.634-1.387 5.021 0z" fill="url(#SVGID_27_)"/><circle cx="167.028" cy="316.236" fill="url(#SVGID_28_)" r="11.046"/></g><g><path d="m192.345 220.577c-1.387 1.387-3.635 1.387-5.021 0l-17.785-17.785c-1.387-1.387-1.387-3.635 0-5.021 1.387-1.387 3.635-1.387 5.021 0l17.785 17.785c1.386 1.387 1.386 3.635 0 5.021z" fill="url(#SVGID_29_)"/><circle cx="167.028" cy="195.26" fill="url(#SVGID_30_)" r="11.046"/></g><circle cx="227.515" cy="255.748" fill="url(#SVGID_31_)" r="68.019"/><path d="m254.65 193.362-10.274 25.484s10.888 2.789 21.145 20.043l24.577-9.827c-6.814-15.957-19.551-28.776-35.448-35.7z" fill="url(#SVGID_32_)"/><path d="m227.515 323.767c37.566 0 68.019-30.453 68.019-68.019 0-8.785-1.666-17.181-4.698-24.889l-125.285 52.981c10.694 23.55 34.416 39.927 61.964 39.927z" fill="url(#SVGID_33_)"/><g><path d="m242.472 218.764c-1.458-.59-2.162-2.25-1.572-3.708l7.563-18.702c.59-1.458 2.25-2.162 3.708-1.572 1.458.59 2.162 2.25 1.572 3.708l-7.563 18.702c-.59 1.457-2.25 2.161-3.708 1.572z" fill="url(#SVGID_34_)"/><circle cx="253.237" cy="192.141" fill="url(#SVGID_35_)" r="8.86"/></g><g><path d="m264.5 270.704c.59-1.458 2.25-2.162 3.708-1.573l18.702 7.563c1.458.59 2.162 2.25 1.572 3.708-.59 1.458-2.25 2.162-3.708 1.572l-18.702-7.563c-1.458-.589-2.162-2.249-1.572-3.707z" fill="url(#SVGID_36_)"/><circle cx="291.122" cy="281.47" fill="url(#SVGID_37_)" r="8.86"/></g><g><path d="m264.243 240.172c-.614-1.448.062-3.12 1.51-3.734l18.572-7.877c1.448-.614 3.12.062 3.734 1.51.614 1.448-.062 3.12-1.51 3.734l-18.572 7.877c-1.449.614-3.12-.062-3.734-1.51z" fill="url(#SVGID_38_)"/><circle cx="290.68" cy="228.959" fill="url(#SVGID_39_)" r="8.86"/></g><g><path d="m243.092 292.475c1.448-.614 3.12.062 3.734 1.51l7.877 18.572c.614 1.448-.062 3.12-1.51 3.734-1.448.614-3.12-.062-3.734-1.51l-7.877-18.572c-.614-1.448.062-3.12 1.51-3.734z" fill="url(#SVGID_40_)"/><circle cx="254.304" cy="318.913" fill="url(#SVGID_41_)" r="8.86"/></g><g><path d="m212.559 292.732c1.458.59 2.162 2.25 1.572 3.708l-7.563 18.702c-.59 1.458-2.25 2.162-3.708 1.573-1.458-.59-2.162-2.25-1.572-3.708l7.563-18.702c.59-1.459 2.25-2.163 3.708-1.573z" fill="url(#SVGID_42_)"/><circle cx="201.793" cy="319.355" fill="url(#SVGID_43_)" r="8.86"/></g><path d="m161.65 238.591 25.04 25.04s-2.371-16.886 3.841-22.839l-26-10.766z" fill="url(#SVGID_44_)"/><g><path d="m190.531 240.792c-.59 1.458-2.25 2.162-3.708 1.572l-18.702-7.563c-1.458-.59-2.162-2.25-1.572-3.708.59-1.458 2.25-2.162 3.708-1.572l18.702 7.563c1.458.59 2.162 2.25 1.572 3.708z" fill="url(#SVGID_45_)"/><circle cx="163.909" cy="230.026" fill="url(#SVGID_46_)" r="8.86"/></g><g><path d="m190.788 271.324c.614 1.448-.062 3.12-1.51 3.734l-18.572 7.877c-1.448.614-3.12-.062-3.734-1.51-.614-1.448.062-3.12 1.51-3.734l18.572-7.877c1.448-.614 3.12.062 3.734 1.51z" fill="url(#SVGID_47_)"/><circle cx="164.351" cy="282.536" fill="url(#SVGID_48_)" r="8.86"/></g><path d="m201.095 193.051 10.837 24.626c9.074-4.537 21.223-3.574 21.223-3.574l-23.893-23.893c-2.799.777-5.526 1.727-8.167 2.841z" fill="url(#SVGID_49_)"/><g><path d="m211.939 219.021c-1.448.614-3.12-.062-3.734-1.51l-7.877-18.572c-.614-1.448.062-3.12 1.51-3.734 1.448-.614 3.12.062 3.734 1.51l7.877 18.572c.614 1.448-.062 3.12-1.51 3.734z" fill="url(#SVGID_50_)"/><circle cx="200.727" cy="192.583" fill="url(#SVGID_51_)" r="8.86"/></g><circle cx="227.515" cy="255.748" fill="url(#SVGID_52_)" r="43.328"/></g><g><path d="m409.329 488.237 50.675-50.675-93.347-93.348-50.675 50.675z" fill="url(#SVGID_53_)"/><path d="m409.329 488.237 50.675-50.675c10.851 10.851 10.851 28.445 0 39.296l-11.379 11.379c-10.851 10.851-28.444 10.851-39.296 0z" fill="url(#SVGID_54_)"/><path d="m382.24 362.06v99.087l-66.258-66.258 50.675-50.675 16.714 16.715z" fill="url(#SVGID_55_)"/><path d="m333.828 410.472 48.412-48.412c6.556-6.556 6.556-17.186 0-23.743l-13.207-13.207-72.155 72.155 13.207 13.207c6.556 6.557 17.186 6.557 23.743 0z" fill="url(#SVGID_56_)"/><path d="m369.033 325.111 2.386 2.386v45.384l-37.591 37.591c-6.556 6.556-17.186 6.556-23.743 0l-13.207-13.207z" fill="url(#SVGID_57_)"/><circle cx="227.515" cy="255.748" fill="url(#SVGID_58_)" r="125.159"/><g><path d="m113.843 369.42c62.783 62.783 164.56 62.783 227.344 0 62.783-62.783 62.783-164.56 0-227.344-62.783-62.783-164.56-62.783-227.344 0-62.783 62.783-62.783 164.56 0 227.344zm31.77-31.758c-45.241-45.241-45.241-118.587 0-163.827 45.229-45.229 118.575-45.229 163.816 0 45.229 45.241 45.229 118.587 0 163.827-45.241 45.229-118.587 45.229-163.816 0z" fill="url(#SVGID_59_)"/><path d="m323.202 160.061c-52.849-52.849-138.526-52.849-191.374 0s-52.849 138.526 0 191.374 138.526 52.849 191.374 0c52.849-52.849 52.849-138.526 0-191.374zm-13.785 177.601c-45.229 45.229-118.575 45.229-163.816 0-45.229-45.241-45.229-118.587 0-163.827 45.241-45.229 118.587-45.229 163.816 0 45.241 45.24 45.241 118.586 0 163.827z" fill="url(#SVGID_60_)"/></g><path d="m419.332 494.799 47.234-47.234c3.887-3.887 3.887-10.189 0-14.076-3.887-3.887-10.189-3.887-14.076 0l-47.234 47.234c-3.887 3.887-3.887 10.189 0 14.076 3.887 3.887 10.189 3.887 14.076 0z" fill="url(#SVGID_61_)"/></g></g></g></svg>