<svg id="Capa_1" enable-background="new 0 0 510 510" height="512" viewBox="0 0 510 510" width="512" xmlns="http://www.w3.org/2000/svg" xmlns:xlink="http://www.w3.org/1999/xlink"><linearGradient id="lg1"><stop offset="0" stop-color="#edf5ff"/><stop offset="1" stop-color="#d5e8fe"/></linearGradient><linearGradient id="SVGID_1_" gradientUnits="userSpaceOnUse" x1="132.649" x2="445.358" xlink:href="#lg1" y1="132.649" y2="445.358"/><linearGradient id="lg2"><stop offset="0" stop-color="#07485e" stop-opacity="0"/><stop offset=".2708" stop-color="#074459" stop-opacity=".271"/><stop offset=".597" stop-color="#05394a" stop-opacity=".597"/><stop offset=".9505" stop-color="#032632" stop-opacity=".951"/><stop offset="1" stop-color="#03232e"/></linearGradient><linearGradient id="SVGID_2_" gradientUnits="userSpaceOnUse" x1="305.333" x2="270.638" xlink:href="#lg2" y1="305.333" y2="270.638"/><linearGradient id="lg3"><stop offset="0" stop-color="#ff637b"/><stop offset="1" stop-color="#e63950"/></linearGradient><linearGradient id="SVGID_3_" gradientTransform="matrix(-1 0 0 -1 2638 -3746)" gradientUnits="userSpaceOnUse" x1="2253.644" x2="2538.558" xlink:href="#lg3" y1="-4130.356" y2="-3845.442"/><linearGradient id="SVGID_4_" gradientUnits="userSpaceOnUse" x1="125.644" x2="410.558" xlink:href="#lg3" y1="125.644" y2="410.558"/><linearGradient id="lg4"><stop offset="0" stop-color="#e63950" stop-opacity="0"/><stop offset=".0467" stop-color="#e4354b" stop-opacity=".047"/><stop offset=".4669" stop-color="#d31822" stop-opacity=".467"/><stop offset=".7991" stop-color="#c90709" stop-opacity=".799"/><stop offset="1" stop-color="#c50000"/></linearGradient><linearGradient id="SVGID_5_" gradientUnits="userSpaceOnUse" x1="439" x2="363.575" xlink:href="#lg4" y1="439" y2="363.575"/><linearGradient id="lg5"><stop offset="0" stop-color="#edf5ff"/><stop offset="1" stop-color="#b5dbff"/></linearGradient><linearGradient id="SVGID_6_" gradientTransform="matrix(-.707 .707 .707 .707 2122.14 -481.908)" gradientUnits="userSpaceOnUse" x1="1786.633" x2="1808.843" xlink:href="#lg5" y1="-627.927" y2="-597.903"/><linearGradient id="SVGID_7_" gradientTransform="matrix(-.707 .707 .707 .707 2122.14 -481.908)" gradientUnits="userSpaceOnUse" x1="1789.203" x2="1788.505" xlink:href="#lg2" y1="-609.643" y2="-674.91"/><linearGradient id="SVGID_8_" gradientTransform="matrix(.707 -.707 .707 .707 1092.652 547.58)" gradientUnits="userSpaceOnUse" x1="-440.152" x2="-417.942" xlink:href="#lg5" y1="-627.927" y2="-597.903"/><linearGradient id="SVGID_9_" gradientTransform="matrix(.707 -.707 .707 .707 1092.652 547.58)" gradientUnits="userSpaceOnUse" x1="-437.582" x2="-438.28" xlink:href="#lg2" y1="-609.643" y2="-674.91"/><linearGradient id="SVGID_10_" gradientTransform="matrix(-.707 .707 .707 .707 2122.14 -481.908)" gradientUnits="userSpaceOnUse" x1="1900.142" x2="1835.926" xlink:href="#lg2" y1="-606.488" y2="-638.729"/><linearGradient id="SVGID_11_" gradientUnits="userSpaceOnUse" x1="263.547" x2="189.439" xlink:href="#lg5" y1="205.547" y2="279.655"/><linearGradient id="SVGID_12_" gradientTransform="matrix(-1 0 0 1 2532.968 0)" gradientUnits="userSpaceOnUse" x1="2303.911" x2="2353.467" xlink:href="#lg2" y1="240.537" y2="294.858"/><linearGradient id="SVGID_13_" gradientTransform="matrix(-.707 .707 .707 .707 2122.14 -481.908)" gradientUnits="userSpaceOnUse" x1="1806.97" x2="1890.575" y1="-1006.59" y2="-988.011"><stop offset="0" stop-color="#8a7889"/><stop offset="1" stop-color="#6e566e"/></linearGradient><linearGradient id="SVGID_14_" gradientTransform="matrix(-.707 .707 .707 .707 2122.14 -481.908)" gradientUnits="userSpaceOnUse" x1="1863.152" x2="1836.574" y1="-997.893" y2="-1058.257"><stop offset="0" stop-color="#6e566e" stop-opacity="0"/><stop offset=".2944" stop-color="#674d66" stop-opacity=".294"/><stop offset="1" stop-color="#593b56"/></linearGradient><linearGradient id="SVGID_15_" gradientTransform="matrix(-.707 .707 .707 .707 2122.14 -481.908)" gradientUnits="userSpaceOnUse" x1="1874.048" x2="1789.846" xlink:href="#lg2" y1="-628.383" y2="-663.74"/><linearGradient id="SVGID_16_" gradientTransform="matrix(-.707 .707 .707 .707 2122.14 -481.908)" gradientUnits="userSpaceOnUse" x1="1828.088" x2="1857.953" xlink:href="#lg5" y1="-650.235" y2="-650.235"/><linearGradient id="SVGID_18_" gradientUnits="userSpaceOnUse" x1="267" x2="220.176" xlink:href="#lg4" y1="267" y2="220.176"/><linearGradient id="SVGID_19_" gradientUnits="userSpaceOnUse" x1="306.201" x2="308.201" xlink:href="#lg5" y1="86.069" y2="196.069"/><linearGradient id="SVGID_20_" gradientUnits="userSpaceOnUse" x1="320.788" x2="296.758" xlink:href="#lg2" y1="135.055" y2="13.002"/><linearGradient id="SVGID_21_" gradientTransform="matrix(-.707 .707 .707 .707 2122.14 -481.908)" gradientUnits="userSpaceOnUse" x1="1670.127" x2="1771.023" xlink:href="#lg2" y1="-826.119" y2="-814.744"/><linearGradient id="SVGID_22_" gradientUnits="userSpaceOnUse" x1="334.001" x2="348.42" xlink:href="#lg2" y1="137.171" y2="185.234"/><linearGradient id="SVGID_23_" gradientUnits="userSpaceOnUse" x1="88.124" x2="134.124" xlink:href="#lg1" y1="246.789" y2="349.789"/><linearGradient id="SVGID_24_" gradientUnits="userSpaceOnUse" x1="128.712" x2="68.374" xlink:href="#lg2" y1="314.829" y2="8.358"/><linearGradient id="SVGID_25_" gradientTransform="matrix(.707 -.707 .707 .707 1201.306 438.927)" gradientUnits="userSpaceOnUse" x1="-710.319" x2="-609.423" xlink:href="#lg2" y1="-826.119" y2="-814.744"/><linearGradient id="SVGID_26_" gradientUnits="userSpaceOnUse" x1="133.736" x2="170.559" xlink:href="#lg2" y1="338.161" y2="460.905"/><g><g><circle cx="255" cy="255" fill="url(#SVGID_1_)" r="246.078"/><path d="m97.091 443.719c42.736 35.797 97.801 57.359 157.909 57.359 135.905 0 246.078-110.173 246.078-246.078 0-60.108-21.563-115.173-57.359-157.909z" fill="url(#SVGID_2_)"/><path d="m255 510c140.83 0 255-114.17 255-255s-114.17-255-255-255-255 114.17-255 255 114.17 255 255 255zm0-453.71c109.4 0 198.08 88.97 198.08 198.71s-88.68 198.71-198.08 198.71-198.08-88.97-198.08-198.71 88.68-198.71 198.08-198.71z" fill="url(#SVGID_3_)"/><path d="m255 0c-140.83 0-255 114.17-255 255s114.17 255 255 255 255-114.17 255-255-114.17-255-255-255zm0 490.581c-130.105 0-235.581-105.476-235.581-235.581s105.476-235.581 235.581-235.581 235.581 105.476 235.581 235.581-105.476 235.581-235.581 235.581z" fill="url(#SVGID_4_)"/><path d="m486.666 361.67-37.435-37.435-15.156 15.779c-18.528 39.206-49.469 71.354-87.735 91.341l-19.588 20.393 34.918 34.918c55.099-25.413 99.583-69.897 124.996-124.996z" fill="url(#SVGID_5_)"/><g><g><g><path d="m462.215 347.205-53.638 38.58-42.121-42.121 76.873-20.995c2.106-.575 4.359.023 5.902 1.566l13.733 13.733c2.652 2.651 2.295 7.048-.749 9.237z" fill="url(#SVGID_6_)"/><path d="m458.856 333.86 4.108 4.108c2.652 2.651 2.295 7.048-.749 9.237l-53.638 38.58-32.496-32.496 76.873-20.995c2.106-.576 4.359.022 5.902 1.566z" fill="url(#SVGID_7_)"/></g><g><path d="m347.205 462.215 38.58-53.638-42.121-42.121-20.995 76.873c-.575 2.106.023 4.359 1.566 5.902l13.733 13.733c2.652 2.652 7.048 2.295 9.237-.749z" fill="url(#SVGID_8_)"/><path d="m333.86 458.856 4.108 4.108c2.651 2.651 7.048 2.295 9.237-.749l38.58-53.638-32.496-32.496-20.995 76.873c-.576 2.106.022 4.358 1.566 5.902z" fill="url(#SVGID_9_)"/></g></g><path d="m337.968 462.964-.82-.82v-70.789l.13-1.516 6.386-23.383 42.121 42.121-38.58 53.638c-2.189 3.044-6.586 3.401-9.237.749z" fill="url(#SVGID_10_)"/><path d="m134.339 220.556c93.635 93.635 260.003 221.402 283.811 197.594s-103.959-190.176-197.594-283.811-145.803-107.203-169.612-83.395c-23.808 23.809-10.239 75.978 83.395 169.612z" fill="url(#SVGID_11_)"/><path d="m134.339 220.556c-93.634-93.634-107.203-145.803-83.395-169.612l367.206 367.206c-23.808 23.809-190.176-103.959-283.811-197.594z" fill="url(#SVGID_12_)"/><path d="m138.189 78.182c5.858 4.869 11.982 10.138 18.382 15.825 1.637 1.455 1.084 4.154-1.005 4.811-12.915 4.065-25.071 11.203-35.308 21.44s-17.375 22.393-21.44 35.308c-.658 2.089-3.357 2.642-4.811 1.005-5.687-6.4-10.956-12.524-15.825-18.382-3.314-3.987-4.205-9.471-2.261-14.277 4.247-10.5 10.626-20.339 19.14-28.852 8.513-8.513 18.352-14.893 28.852-19.14 4.806-1.944 10.289-1.053 14.276 2.262z" fill="url(#SVGID_13_)"/><path d="m98.818 155.566c-.658 2.089-3.357 2.642-4.811 1.005-5.687-6.4-10.956-12.524-15.825-18.382-3.314-3.987-4.205-9.471-2.261-14.277 4.247-10.5 10.626-20.339 19.14-28.853l25.198 25.199c-10.237 10.237-17.376 22.393-21.441 35.308z" fill="url(#SVGID_14_)"/><path d="m331.034 387.123v-49.841c-.253-1.671.268-3.429 1.544-4.705 2.032-2.032 5.287-2.152 7.462-.275l49.518 42.72c1.982 1.71 2.853 4.199 2.599 6.598v37.274c-15.878-4.977-37.119-16.274-61.123-31.771z" fill="url(#SVGID_15_)"/><path d="m386.215 389.97 3.755-3.755c3.141-3.141 2.952-8.29-.412-11.192l-49.518-42.72c-2.176-1.877-5.431-1.757-7.462.275-2.032 2.032-2.152 5.287-.275 7.462l42.72 49.518c2.902 3.364 8.05 3.553 11.192.412z" fill="url(#SVGID_16_)"/></g><path d="m461.19 104.94-356.25 356.25c-21.5-15.67-40.46-34.63-56.13-56.13l356.25-356.25c21.5 15.67 40.46 34.63 56.13 56.13z" fill="url(#SVGID_4_)"/><path d="m444.56 121.57-322.99 322.99-56.13-56.13 322.99-322.99z" fill="url(#SVGID_18_)"/></g><g><g><g><g><path d="m415.93 104.882-61.122 33.035-86.762 46.888c-8.383-9.404-16.775-18.551-25.042-27.324-7.611-8.059-15.123-15.812-22.452-23.141-2.39-2.39-4.748-4.723-7.08-7.005-6.831-6.682-13.43-12.932-19.804-18.75l180.762-47.237c4.864-1.27 10.043.133 13.596 3.694l29.424 29.424c3.112 3.104 2.348 8.325-1.52 10.416z" fill="url(#SVGID_19_)"/><path d="m415.93 104.882-61.122 33.035-86.762 46.888c-8.383-9.404-16.775-18.551-25.042-27.324-7.611-8.059-15.123-15.812-22.452-23.141-2.39-2.39-4.748-4.723-7.08-7.005l103.669-27.092 76.254-19.929c3.652-.954 7.487-.398 10.674 1.444 1.054.614 2.034 1.361 2.922 2.249l10.458 10.458c3.113 3.105 2.349 8.326-1.519 10.417z" fill="url(#SVGID_20_)"/><path d="m317.14 100.244 76.255-19.927c4.866-1.272 10.041.132 13.597 3.688l10.46 10.46c3.106 3.106 2.344 8.327-1.521 10.415l-61.123 33.032z" fill="url(#SVGID_21_)"/><path d="m415.93 104.882-61.122 33.035-86.762 46.888c-8.383-9.404-16.775-18.551-25.042-27.324l89.359-42.015 71.705-33.707.456-.216 12.923 12.923c3.115 3.104 2.351 8.325-1.517 10.416z" fill="url(#SVGID_22_)"/></g></g><g><g><path d="m184.804 268.047-46.888 86.761-33.035 61.122c-2.092 3.868-7.312 4.632-10.417 1.519l-10.458-10.458-2.465-2.465-16.501-16.501c-3.561-3.552-4.963-8.732-3.694-13.596l47.236-180.761c5.818 6.375 12.068 12.973 18.75 19.804 2.283 2.332 4.615 4.69 7.005 7.08 7.329 7.329 15.081 14.841 23.141 22.452 8.776 8.268 17.922 16.659 27.326 25.043z" fill="url(#SVGID_23_)"/><path d="m184.804 268.047-46.888 86.761-33.035 61.122c-2.092 3.868-7.312 4.632-10.417 1.519l-10.458-10.458c-.888-.888-1.635-1.868-2.249-2.922-1.843-3.187-2.399-7.022-1.444-10.674l19.929-76.254 27.092-103.669c2.283 2.332 4.615 4.69 7.005 7.08 7.329 7.329 15.081 14.841 23.141 22.452 8.774 8.268 17.92 16.659 27.324 25.043z" fill="url(#SVGID_24_)"/><path d="m100.244 317.14-19.927 76.255c-1.272 4.866.132 10.041 3.688 13.597l10.46 10.46c3.106 3.106 8.327 2.344 10.415-1.521l33.032-61.123z" fill="url(#SVGID_25_)"/><path d="m184.804 268.047-46.888 86.761-33.035 61.122c-2.092 3.868-7.312 4.632-10.417 1.519l-10.458-10.458-2.465-2.465.216-.456 33.707-71.705 42.015-89.359c8.775 8.266 17.921 16.657 27.325 25.041z" fill="url(#SVGID_26_)"/></g></g></g></g></g></svg>