<svg id="Capa_1" enable-background="new 0 0 510 510" height="512" viewBox="0 0 510 510" width="512" xmlns="http://www.w3.org/2000/svg" xmlns:xlink="http://www.w3.org/1999/xlink"><linearGradient id="lg1"><stop offset="0" stop-color="#8a7889"/><stop offset="1" stop-color="#6e566e"/></linearGradient><linearGradient id="SVGID_1_" gradientUnits="userSpaceOnUse" x1="183.495" x2="275.495" xlink:href="#lg1" y1="69.201" y2="290.201"/><linearGradient id="lg2"><stop offset="0" stop-color="#edf5ff"/><stop offset="1" stop-color="#d5e8fe"/></linearGradient><linearGradient id="SVGID_2_" gradientUnits="userSpaceOnUse" x1="255" x2="255" xlink:href="#lg2" y1="438.815" y2="512.495"/><linearGradient id="lg3"><stop offset="0" stop-color="#07485e" stop-opacity="0"/><stop offset=".2708" stop-color="#074459" stop-opacity=".271"/><stop offset=".597" stop-color="#05394a" stop-opacity=".597"/><stop offset=".9505" stop-color="#032632" stop-opacity=".951"/><stop offset="1" stop-color="#03232e"/></linearGradient><linearGradient id="SVGID_3_" gradientUnits="userSpaceOnUse" x1="255" x2="255" xlink:href="#lg3" y1="528.667" y2="477.646"/><linearGradient id="SVGID_4_" gradientUnits="userSpaceOnUse" x1="384.504" x2="248.004" xlink:href="#lg3" y1="495.762" y2="381.262"/><linearGradient id="lg4"><stop offset="0" stop-color="#fce9cb"/><stop offset="1" stop-color="#ffbd95"/></linearGradient><linearGradient id="SVGID_5_" gradientUnits="userSpaceOnUse" x1="119.783" x2="146.574" xlink:href="#lg4" y1="255.533" y2="282.324"/><linearGradient id="SVGID_6_" gradientUnits="userSpaceOnUse" x1="376.813" x2="403.605" xlink:href="#lg4" y1="255.533" y2="282.324"/><linearGradient id="SVGID_7_" gradientUnits="userSpaceOnUse" x1="255" x2="255" xlink:href="#lg4" y1="387" y2="454.667"/><linearGradient id="SVGID_8_" gradientUnits="userSpaceOnUse" x1="191.363" x2="212.696" xlink:href="#lg2" y1="399.442" y2="475.442"/><linearGradient id="SVGID_9_" gradientUnits="userSpaceOnUse" x1="306.946" x2="333.613" xlink:href="#lg2" y1="434.913" y2="469.58"/><linearGradient id="SVGID_10_" gradientUnits="userSpaceOnUse" x1="191.69" x2="305.316" xlink:href="#lg4" y1="163.787" y2="343.238"/><linearGradient id="SVGID_11_" gradientUnits="userSpaceOnUse" x1="189.567" x2="213.996" xlink:href="#lg1" y1="236.315" y2="260.744"/><linearGradient id="lg5"><stop offset="0" stop-color="#6e566e" stop-opacity="0"/><stop offset=".0471" stop-color="#6e566e" stop-opacity=".047"/><stop offset="1" stop-color="#6e566e"/></linearGradient><linearGradient id="SVGID_12_" gradientUnits="userSpaceOnUse" x1="197.279" x2="223.205" xlink:href="#lg5" y1="250.602" y2="202.382"/><linearGradient id="SVGID_13_" gradientUnits="userSpaceOnUse" x1="306.319" x2="330.748" xlink:href="#lg1" y1="236.315" y2="260.744"/><linearGradient id="SVGID_14_" gradientUnits="userSpaceOnUse" x1="314.031" x2="339.958" xlink:href="#lg5" y1="250.602" y2="202.382"/><linearGradient id="SVGID_15_" gradientUnits="userSpaceOnUse" x1="197.239" x2="289.239" xlink:href="#lg1" y1="63.48" y2="284.48"/><linearGradient id="lg6"><stop offset="0" stop-color="#6e566e" stop-opacity="0"/><stop offset=".2944" stop-color="#674d66" stop-opacity=".294"/><stop offset="1" stop-color="#593b56"/></linearGradient><linearGradient id="SVGID_16_" gradientUnits="userSpaceOnUse" x1="386.555" x2="327.539" xlink:href="#lg6" y1="158.251" y2="192.062"/><linearGradient id="SVGID_17_" gradientUnits="userSpaceOnUse" x1="255" x2="255" y1="240.955" y2="408.272"><stop offset="0" stop-color="#faa68e" stop-opacity="0"/><stop offset="1" stop-color="#c9766e"/></linearGradient><linearGradient id="SVGID_18_" gradientUnits="userSpaceOnUse" x1="297.612" x2="169.612" xlink:href="#lg6" y1="142.5" y2="40.5"/><linearGradient id="SVGID_19_" gradientUnits="userSpaceOnUse" x1="251.593" x2="269.593" xlink:href="#lg2" y1="46.685" y2="99.685"/><linearGradient id="SVGID_20_" gradientUnits="userSpaceOnUse" x1="255" x2="255" xlink:href="#lg3" y1="112" y2="155.026"/><linearGradient id="SVGID_21_" gradientUnits="userSpaceOnUse" x1="309.777" x2="171.983" xlink:href="#lg3" y1="124.723" y2="-13.071"/><linearGradient id="SVGID_22_" gradientUnits="userSpaceOnUse" x1="229.333" x2="288.647" y1="44.869" y2="104.182"><stop offset="0" stop-color="#ff637b"/><stop offset="1" stop-color="#e63950"/></linearGradient><linearGradient id="lg7"><stop offset="0" stop-color="#e63950" stop-opacity="0"/><stop offset=".0467" stop-color="#e4354b" stop-opacity=".047"/><stop offset=".4669" stop-color="#d31822" stop-opacity=".467"/><stop offset=".7991" stop-color="#c90709" stop-opacity=".799"/><stop offset="1" stop-color="#c50000"/></linearGradient><linearGradient id="SVGID_23_" gradientUnits="userSpaceOnUse" x1="261.158" x2="210.893" xlink:href="#lg7" y1="70.522" y2="90.317"/><linearGradient id="SVGID_24_" gradientUnits="userSpaceOnUse" x1="254.884" x2="257.108" xlink:href="#lg7" y1="63.556" y2="88.466"/><linearGradient id="SVGID_25_" gradientTransform="matrix(-1 0 0 -1 2101.629 676.979)" gradientUnits="userSpaceOnUse" x1="1846.629" x2="1846.629" y1="293.654" y2="323.48"><stop offset="0" stop-color="#ff9690"/><stop offset="1" stop-color="#f9545b"/></linearGradient><g><path d="m186.91 394h136.18c58.671 0 107.727-40.202 113.378-92.874 2.966-27.647 3.486-54.09 1.562-102.242-3.55-88.83-84.481-159.166-183.03-159.166-98.549 0-179.48 70.336-183.03 159.166-1.924 48.152-1.404 74.595 1.562 102.242 5.65 52.672 54.707 92.874 113.378 92.874z" fill="url(#SVGID_1_)"/><path d="m468.705 467.149c11.808 13.293 3.388 34.349-14.327 35.868-50.744 4.349-117.931 6.983-191.641 6.983-81.592 0-155.187-3.229-207.33-8.425-17.5-1.744-25.895-22.649-14.124-35.716.089-.098.177-.197.266-.295 52.399-58.217 128.356-94.813 212.854-94.813 83.59 0 158.764 35.772 211.121 92.874 1.07 1.166 2.13 2.34 3.181 3.524z" fill="url(#SVGID_2_)"/><path d="m255 461.19c-26.283 0-47.59 17.195-47.59 38.405 0 3.434.566 6.76 1.614 9.927 17.399.313 35.351.478 53.713.478 12.939 0 25.672-.083 38.155-.24 1.099-3.239 1.698-6.644 1.698-10.165 0-21.211-21.307-38.405-47.59-38.405z" fill="url(#SVGID_3_)"/><path d="m468.705 467.149c-1.051-1.183-2.112-2.358-3.181-3.524-52.357-57.102-127.531-92.874-211.121-92.874-34.461 0-67.5 6.091-98.101 17.25l121.968 121.958c67.594-.342 128.953-2.901 176.109-6.943 17.714-1.518 26.134-22.575 14.326-35.867z" fill="url(#SVGID_4_)"/><g><path d="m126.485 298.763c-15.55 0-28.156-12.606-28.156-28.156v-16.745c0-15.55 12.606-28.156 28.156-28.156 15.55 0 28.156 12.606 28.156 28.156v16.745c0 15.55-12.606 28.156-28.156 28.156z" fill="url(#SVGID_5_)"/><path d="m383.515 298.763c-15.55 0-28.156-12.606-28.156-28.156v-16.745c0-15.55 12.606-28.156 28.156-28.156 15.55 0 28.156 12.606 28.156 28.156v16.745c0 15.55-12.606 28.156-28.156 28.156z" fill="url(#SVGID_6_)"/></g><ellipse cx="255" cy="432.69" fill="url(#SVGID_7_)" rx="69.849" ry="54.333"/><g><path d="m255 488.07-18.36 21.82c-18.32-.16-36.14-.48-53.3-.95l-21.12-81.35c-1.58-6.07-2.4-12.85-2.4-19.73v-37.43l10.43 12.89z" fill="url(#SVGID_8_)"/><path d="m350.18 370.43v37.43c0 6.88-.82 13.66-2.4 19.73l-21.21 81.73c-17.18.37-34.94.6-53.14.66l-18.43-21.91 84.52-104.46z" fill="url(#SVGID_9_)"/></g><path d="m255 434.923c70.35 0 128.223-55.62 130.765-125.924 1.09-30.143 1.09-60.307 0-90.45-2.542-70.304-60.415-125.924-130.765-125.924-70.35 0-128.223 55.62-130.765 125.924-1.09 30.143-1.09 60.307 0 90.45 2.542 70.304 60.415 125.924 130.765 125.924z" fill="url(#SVGID_10_)"/><g><g><path d="m215.485 243.373c0 10.417-8.445 18.862-18.862 18.862s-18.861-8.445-18.861-18.862 8.444-18.862 18.861-18.862c10.418 0 18.862 8.444 18.862 18.862z" fill="url(#SVGID_11_)"/><path d="m205.061 226.5c1.272 2.539 1.989 5.404 1.989 8.437 0 10.417-8.445 18.862-18.862 18.862-3.033 0-5.899-.717-8.437-1.989 3.097 6.181 9.488 10.424 16.872 10.424 10.417 0 18.862-8.445 18.862-18.862 0-7.383-4.243-13.775-10.424-16.872z" fill="url(#SVGID_12_)"/></g><g><path d="m332.238 243.373c0 10.417-8.445 18.862-18.862 18.862s-18.861-8.445-18.861-18.862 8.444-18.862 18.861-18.862 18.862 8.444 18.862 18.862z" fill="url(#SVGID_13_)"/><path d="m321.813 226.5c1.272 2.539 1.989 5.404 1.989 8.437 0 10.417-8.445 18.862-18.862 18.862-3.033 0-5.899-.717-8.437-1.989 3.097 6.181 9.488 10.424 16.872 10.424 10.417 0 18.862-8.445 18.862-18.862.001-7.383-4.243-13.775-10.424-16.872z" fill="url(#SVGID_14_)"/></g></g><path d="m418.982 225.706c-.165-8.586-.394-17.171-.701-25.754-3.142-88.022-75.203-157.85-163.281-157.85-87.831 0-160.085 69.441-163.258 157.215-.273 7.563-.477 23.431-.64 30.996l155.379-21.341c38.358-5.268 73.052-25.56 96.449-56.409l16.53 53.257c3.04 9.793 11.144 17.172 21.179 19.282 1.913.402 3.862.605 5.817.605h32.526z" fill="url(#SVGID_15_)"/><path d="m364.876 84.638c-2.703 34.491-21.947 67.925-21.947 67.925l16.53 53.257c3.04 9.793 11.144 17.172 21.179 19.282 1.913.402 3.862.605 5.817.605h32.527c-.165-8.586-.394-17.171-.701-25.754-1.634-45.786-21.922-86.642-53.405-115.315z" fill="url(#SVGID_16_)"/><path d="m263.068 313.13h-16.136c-12.931 0-23.006-9.534-21.623-20.462l8.436-66.659h42.508l8.436 66.659c1.385 10.928-8.69 20.462-21.621 20.462z" fill="url(#SVGID_17_)"/><path d="m418.281 199.952c-3.142-88.022-75.203-157.85-163.281-157.85-41.844 0-80.145 15.769-109.132 41.765 2.814 15.391 7.36 29.625 13.45 42.773 1.671 3.608 4.352 6.515 7.6 8.506l74.518 74.518 5.045-.693c38.358-5.268 73.052-25.56 96.449-56.409l16.53 53.257c3.04 9.793 11.144 17.172 21.179 19.282 1.913.402 3.862.605 5.817.605h32.527c-.166-8.586-.395-17.171-.702-25.754z" fill="url(#SVGID_18_)"/><g><path d="m254.352 136.207c26.635 0 52.48.68 77.143 1.958 8.115.421 15.738-4.087 19.156-11.458 11.949-25.769 18.007-55.682 16.598-90.386-.473-11.659-7.369-20.974-18.303-23.925-61.261-16.529-126.633-16.529-187.893 0-10.934 2.95-17.83 12.266-18.303 23.924-1.408 34.674 4.639 64.564 16.567 90.318 3.424 7.393 11.072 11.877 19.21 11.462 24.269-1.234 49.667-1.893 75.825-1.893z" fill="url(#SVGID_19_)"/><path d="m146.476 87c2.843 14.191 7.168 27.39 12.842 39.64 3.424 7.394 11.072 11.877 19.21 11.462 24.268-1.236 49.666-1.895 75.825-1.895 26.635 0 52.48.68 77.143 1.958 8.115.421 15.738-4.086 19.156-11.458 5.689-12.269 10.025-25.49 12.873-39.707z" fill="url(#SVGID_20_)"/><path d="m356.911 111.267-85.4-83.993c-1.049-1.912-3.08-2.705-5.415-2.705h-22.146c-3.409 0-5.668 2.259-5.668 5.668v23.558h-23.558c-3.409 0-5.668 2.259-5.668 5.668v22.146c0 2.335.793 4.366 2.705 5.414l50.18 49.209c23.956.117 47.242.778 69.553 1.934 8.115.421 15.738-4.086 19.156-11.458 2.315-4.989 4.401-10.137 6.261-15.441z" fill="url(#SVGID_21_)"/><g><path d="m295.299 87.78h-23.054v23.054c0 3.409-2.763 6.172-6.172 6.172h-22.146c-3.409 0-6.172-2.763-6.172-6.172v-23.054h-23.054c-3.409 0-6.172-2.763-6.172-6.172v-22.146c0-3.409 2.763-6.172 6.172-6.172h23.054v-23.053c0-3.409 2.763-6.172 6.172-6.172h22.146c3.409 0 6.172 2.763 6.172 6.172v23.054h23.054c3.409 0 6.172 2.763 6.172 6.172v22.146c-.001 3.408-2.764 6.171-6.172 6.171z" fill="url(#SVGID_22_)"/><path d="m266.073 117.006h-11.073v-92.941h11.073c3.409 0 6.172 2.763 6.172 6.172v80.597c0 3.409-2.763 6.172-6.172 6.172z" fill="url(#SVGID_23_)"/><path d="m301.47 59.462v11.073h-92.94v-11.073c0-3.409 2.763-6.172 6.172-6.172h80.597c3.408.001 6.171 2.764 6.171 6.172z" fill="url(#SVGID_24_)"/></g></g></g><path d="m290.97 354.901c-.027-.004-.054-.007-.081-.011-2.141-.289-4.28.467-5.828 1.973-8.445 8.216-18.782 13.057-29.953 13.057-11.312 0-21.766-4.956-30.268-13.357-1.517-1.499-3.618-2.266-5.737-2.019-.011.001-.022.003-.034.004-3.192.373-4.71 5.54-2.582 8.802.189.29.381.579.573.865 9.436 14.013 22.983 22.792 38.047 22.792 15.228 0 28.917-8.981 38.36-23.268.016-.024.032-.048.048-.072 2.122-3.208.609-8.338-2.545-8.766z" fill="url(#SVGID_25_)"/></svg>