<svg id="Capa_1" enable-background="new 0 0 510 510" height="512" viewBox="0 0 510 510" width="512" xmlns="http://www.w3.org/2000/svg" xmlns:xlink="http://www.w3.org/1999/xlink"><linearGradient id="lg1"><stop offset="0" stop-color="#edf5ff"/><stop offset="1" stop-color="#d5e8fe"/></linearGradient><linearGradient id="SVGID_1_" gradientTransform="matrix(.768 .64 -.64 .768 318.75 -87.631)" gradientUnits="userSpaceOnUse" x1="223.817" x2="261.238" xlink:href="#lg1" y1="235.271" y2="235.271"/><linearGradient id="lg2"><stop offset="0" stop-color="#ffda2d"/><stop offset="1" stop-color="#fdbf00"/></linearGradient><linearGradient id="SVGID_2_" gradientTransform="matrix(.768 .64 -.64 .768 318.75 -87.631)" gradientUnits="userSpaceOnUse" x1="218.645" x2="252.535" xlink:href="#lg2" y1="194.958" y2="194.958"/><linearGradient id="lg3"><stop offset="0" stop-color="#fce9cb"/><stop offset="1" stop-color="#ffbd95"/></linearGradient><linearGradient id="SVGID_3_" gradientTransform="matrix(-.253 -.967 -.967 .253 2321.599 -1379.495)" gradientUnits="userSpaceOnUse" x1="-1112.894" x2="-1120.187" xlink:href="#lg3" y1="2474.779" y2="2512.103"/><linearGradient id="SVGID_4_" gradientTransform="matrix(-.034 -.999 -.999 .034 2243.326 -1663.278)" gradientUnits="userSpaceOnUse" x1="-1894.805" x2="-1923.344" xlink:href="#lg3" y1="2127.332" y2="2155.871"/><linearGradient id="SVGID_5_" gradientTransform="matrix(-.253 -.967 -.967 .253 2321.599 -1379.495)" gradientUnits="userSpaceOnUse" x1="-1070.083" x2="-1106.636" xlink:href="#lg3" y1="2520.044" y2="2556.596"/><linearGradient id="SVGID_6_" gradientTransform="matrix(1 .017 .017 -1 3223.468 -2582.061)" gradientUnits="userSpaceOnUse" x1="-2920.5" x2="-2898.205" xlink:href="#lg3" y1="-3032.275" y2="-2844.105"/><linearGradient id="SVGID_7_" gradientTransform="matrix(-1 0 0 1 4767.928 0)" gradientUnits="userSpaceOnUse" x1="4466.477" x2="4497.449" y1="347.522" y2="428.914"><stop offset="0" stop-color="#ffdecf" stop-opacity="0"/><stop offset="1" stop-color="#fff"/></linearGradient><linearGradient id="SVGID_8_" gradientTransform="matrix(-.707 .707 -.707 -.707 522.359 29.837)" gradientUnits="userSpaceOnUse" x1="267.634" x2="305.055" xlink:href="#lg1" y1="145.163" y2="145.163"/><linearGradient id="lg4"><stop offset="0" stop-color="#9ae1d3"/><stop offset="1" stop-color="#80d1c1"/></linearGradient><linearGradient id="SVGID_9_" gradientTransform="matrix(-.707 .707 -.707 -.707 522.359 29.837)" gradientUnits="userSpaceOnUse" x1="262.463" x2="296.352" xlink:href="#lg4" y1="104.85" y2="104.85"/><linearGradient id="SVGID_10_" gradientTransform="matrix(.84 -.542 .542 .84 -46.65 235.598)" gradientUnits="userSpaceOnUse" x1="409.84" x2="461.241" xlink:href="#lg2" y1="93.14" y2="144.541"/><linearGradient id="SVGID_11_" gradientTransform="matrix(.84 -.542 .542 .84 -46.65 235.598)" gradientUnits="userSpaceOnUse" x1="418.66" x2="435.41" xlink:href="#lg2" y1="74.379" y2="131.879"/><linearGradient id="SVGID_12_" gradientTransform="matrix(.84 -.542 .542 .84 -46.65 235.598)" gradientUnits="userSpaceOnUse" x1="426.298" x2="426.298" xlink:href="#lg2" y1="111.098" y2="85.997"/><linearGradient id="SVGID_13_" gradientTransform="matrix(.909 .417 -.417 .909 92.227 10.867)" gradientUnits="userSpaceOnUse" x1="202.793" x2="254.193" xlink:href="#lg4" y1="178.217" y2="229.618"/><linearGradient id="SVGID_14_" gradientTransform="matrix(.909 .417 -.417 .909 92.227 10.867)" gradientUnits="userSpaceOnUse" x1="211.613" x2="228.363" xlink:href="#lg4" y1="159.456" y2="216.956"/><linearGradient id="SVGID_15_" gradientTransform="matrix(.909 .417 -.417 .909 92.227 10.867)" gradientUnits="userSpaceOnUse" x1="219.251" x2="219.251" xlink:href="#lg4" y1="196.175" y2="171.074"/><g><g><path d="m304.581 309.884c-20.911-17.43-23.732-48.512-6.302-69.422l38.231-45.865c17.43-20.911 48.512-23.732 69.422-6.302 20.911 17.43 23.732 48.512 6.302 69.422l-38.231 45.865c-17.43 20.911-48.511 23.732-69.422 6.302z" fill="url(#SVGID_1_)"/><path d="m412.238 257.715-18.168 21.795c-10.644-11.151-22.791-22.532-36.125-33.647s-26.716-21.013-39.602-29.476l18.168-21.795c17.428-20.908 48.511-23.723 69.419-6.295 10.454 8.714 16.389 20.843 17.53 33.407 1.141 12.565-2.508 25.557-11.222 36.011z" fill="url(#SVGID_2_)"/></g><g><path d="m178.569 293.221c4.367 1.786 7.763 5.066 9.14 9.386l11.192 35.092c4.118 12.899 12.143 24.277 23.118 33.162-21.209 6.46-43.33-1.31-51.063-18.04-1.967-4.255-3.69-8.625-5.158-13.098l-9.856-30.06c-1.785-5.444.072-11.254 4.314-15.576 1.105-.539 2.262-.999 3.484-1.364 5.213-1.579 10.503-1.271 14.829.498z" fill="url(#SVGID_3_)"/><path d="m111.79 293.379 25.624 41.939c3.814 6.24 7.911 12.265 12.271 18.06 17.14 22.784 48.826 28.762 73.191 13.956-17.898-10.393-33.096-25.201-43.949-43.226l-29.511-49.038c-3.631-6.038-9.399-10.037-15.764-11.59-6.306-1.539-13.213-.679-19.203 2.948-1.408.843-2.69 1.81-3.872 2.88-3.563 7.436-3.427 16.476 1.213 24.071z" fill="url(#SVGID_4_)"/><path d="m64.986 302.042 43.841 45.167c6.525 6.719 13.342 13.091 20.423 19.101 27.839 23.629 69.111 22.162 95.374-3.208-25.292-7.936-48.454-22.149-67.097-41.607l-50.7-52.94c-6.24-6.519-14.573-9.888-22.963-10.033-8.312-.144-16.698 2.878-23.158 9.099-1.521 1.45-2.85 3.02-4.025 4.69-2.354 10.296.365 21.552 8.305 29.731z" fill="url(#SVGID_5_)"/><path d="m9.411 271.296c12.304-11.833 31.933-11.431 43.741.896l48.069 50.181c18.707 19.529 42.186 33.462 67.807 40.72.553-15.542 13.496-27.843 29.179-27.572l18.971.328c37.594.65 74.524-9.894 106.054-30.281 36.243-23.434 82.024-26.733 121.285-8.74l42.879 27.896c14.099 9.174 22.604 24.853 22.604 41.672v81.85c0 11.143-10.26 19.459-21.162 17.151-65.475-15.517-100.522-21.892-167.813-23.056l-77.986-1.35c-72.839-1.26-142.197-31.277-192.815-83.446l-41.564-42.837c-11.834-12.196-11.498-31.632.751-43.412z" fill="url(#SVGID_6_)"/><path d="m169.028 363.094c.553-15.542 13.496-27.843 29.179-27.572l18.971.328c37.594.65 74.524-9.894 106.054-30.281 36.243-23.434 82.024-26.733 121.285-8.74l3.705 1.698-76.044 73.457-38.301 9.029c-37.9 8.935-76.766 13.114-115.699 12.44l-20.478-.353c-15.839-.274-28.96-13.345-28.686-29.185.003-.177.014-.821.014-.821z" fill="url(#SVGID_7_)"/></g><g><path d="m160.485 74.49c19.249-19.249 50.459-19.249 69.708 0l42.221 42.221c19.249 19.249 19.249 50.458 0 69.708-19.249 19.249-50.458 19.249-69.708 0l-42.221-42.221c-19.249-19.249-19.249-50.459 0-69.708z" fill="url(#SVGID_8_)"/><path d="m202.707 186.423-20.063-20.063c12.067-9.593 24.5-20.661 36.775-32.935s23.342-24.707 32.935-36.775l20.063 20.063c19.247 19.247 19.241 50.457-.006 69.704-9.623 9.623-22.239 14.438-34.855 14.438s-25.225-4.809-34.849-14.432z" fill="url(#SVGID_9_)"/></g><g><path d="m420.471 54.037c-9.978-15.471-42.397-12.321-72.411 7.037-30.014 19.357-46.256 47.591-36.278 63.062.032.05 9.724 15.077 9.756 15.127 9.978 15.471 42.397 12.32 72.411-7.037s46.256-47.591 36.278-63.062c-.032-.05-9.756-15.127-9.756-15.127z" fill="url(#SVGID_10_)"/><path d="m420.471 54.037c9.978 15.471-6.264 43.705-36.278 63.062s-62.433 22.508-72.411 7.037 6.264-43.705 36.278-63.062c30.013-19.358 62.433-22.508 72.411-7.037z" fill="url(#SVGID_11_)"/><path d="m311.782 124.135c2.065 3.201 5.102 5.593 8.869 7.221l102.74-66.262c.07-4.103-.855-7.856-2.92-11.057s-5.102-5.593-8.869-7.221l-102.74 66.262c-.07 4.102.855 7.856 2.92 11.057z" fill="url(#SVGID_12_)"/></g><g><path d="m272.727 298.103c7.684-16.729-12.396-42.376-44.85-57.283s-64.993-13.43-72.677 3.299c-.025.054-7.489 16.303-7.513 16.357-7.684 16.729 12.396 42.375 44.851 57.283s64.993 13.431 72.677-3.298c.024-.055 7.512-16.358 7.512-16.358z" fill="url(#SVGID_13_)"/><path d="m272.727 298.103c-7.684 16.729-40.223 18.206-72.677 3.299s-52.535-40.554-44.85-57.283c7.684-16.729 40.223-18.206 72.677-3.299s52.535 40.554 44.85 57.283z" fill="url(#SVGID_14_)"/><path d="m155.2 244.118c-1.59 3.462-1.974 7.308-1.323 11.36l111.096 51.03c3.497-2.146 6.165-4.943 7.755-8.405s1.974-7.309 1.323-11.36l-111.096-51.03c-3.498 2.146-6.165 4.944-7.755 8.405z" fill="url(#SVGID_15_)"/></g></g></svg>