<svg id="Capa_1" enable-background="new 0 0 510 510" height="512" viewBox="0 0 510 510" width="512" xmlns="http://www.w3.org/2000/svg" xmlns:xlink="http://www.w3.org/1999/xlink"><linearGradient id="lg1"><stop offset="0" stop-color="#ff9690"/><stop offset="1" stop-color="#f9545b"/></linearGradient><linearGradient id="SVGID_1_" gradientUnits="userSpaceOnUse" x1="88.02" x2="464.501" xlink:href="#lg1" y1="86.689" y2="466.17"/><linearGradient id="lg2"><stop offset="0" stop-color="#e63950" stop-opacity="0"/><stop offset=".2038" stop-color="#e23246" stop-opacity=".204"/><stop offset=".5471" stop-color="#d71f2c" stop-opacity=".547"/><stop offset=".9856" stop-color="#c60102" stop-opacity=".986"/><stop offset="1" stop-color="#c50000"/></linearGradient><linearGradient id="SVGID_2_" gradientUnits="userSpaceOnUse" x1="258.279" x2="223.78" xlink:href="#lg2" y1="270.395" y2="108.403"/><linearGradient id="SVGID_3_" gradientUnits="userSpaceOnUse" x1="250.956" x2="292.218" xlink:href="#lg2" y1="349.867" y2="199.633"/><linearGradient id="SVGID_4_" gradientUnits="userSpaceOnUse" x1="250.956" x2="292.218" xlink:href="#lg2" y1="189.582" y2="39.347"/><linearGradient id="SVGID_5_" gradientUnits="userSpaceOnUse" x1="411.719" x2="376.386" xlink:href="#lg2" y1="262.086" y2="142.086"/><linearGradient id="lg3"><stop offset="0" stop-color="#e63950" stop-opacity="0"/><stop offset=".0467" stop-color="#e4354b" stop-opacity=".047"/><stop offset=".4669" stop-color="#d31822" stop-opacity=".467"/><stop offset=".7991" stop-color="#c90709" stop-opacity=".799"/><stop offset="1" stop-color="#c50000"/></linearGradient><linearGradient id="SVGID_6_" gradientUnits="userSpaceOnUse" x1="324.887" x2="245.887" xlink:href="#lg3" y1="424.466" y2="306.466"/><linearGradient id="SVGID_7_" gradientUnits="userSpaceOnUse" x1="176.385" x2="290.38" xlink:href="#lg2" y1="73.106" y2="167.601"/><linearGradient id="lg4"><stop offset="0" stop-color="#ff637b"/><stop offset="1" stop-color="#e63950"/></linearGradient><linearGradient id="SVGID_8_" gradientUnits="userSpaceOnUse" x1="351.148" x2="371.148" xlink:href="#lg4" y1="221.654" y2="244.654"/><linearGradient id="SVGID_9_" gradientUnits="userSpaceOnUse" x1="258.479" x2="276.979" xlink:href="#lg4" y1="249.356" y2="277.856"/><linearGradient id="SVGID_10_" gradientUnits="userSpaceOnUse" x1="334.518" x2="347.018" xlink:href="#lg4" y1="257.231" y2="275.731"/><linearGradient id="SVGID_11_" gradientUnits="userSpaceOnUse" x1="298.518" x2="314.018" xlink:href="#lg4" y1="224.432" y2="246.932"/><linearGradient id="SVGID_12_" gradientUnits="userSpaceOnUse" x1="328.567" x2="345.567" xlink:href="#lg4" y1="177.61" y2="199.11"/><linearGradient id="SVGID_13_" gradientTransform="matrix(0 1 -1 0 -2682 -3192)" gradientUnits="userSpaceOnUse" x1="3292.562" x2="3301.062" xlink:href="#lg4" y1="-3145.325" y2="-3145.325"/><linearGradient id="SVGID_14_" gradientTransform="matrix(0 1 -1 0 -2682 -3192)" gradientUnits="userSpaceOnUse" x1="3293.648" x2="3299.5" xlink:href="#lg1" y1="-3160.643" y2="-3154.792"/><linearGradient id="SVGID_15_" gradientTransform="matrix(.707 .707 -.707 .707 -2002.085 -1040.54)" gradientUnits="userSpaceOnUse" x1="2517.96" x2="2526.46" xlink:href="#lg4" y1="-947.142" y2="-947.142"/><linearGradient id="SVGID_16_" gradientTransform="matrix(.707 .707 -.707 .707 -2002.085 -1040.54)" gradientUnits="userSpaceOnUse" x1="2519.047" x2="2524.898" xlink:href="#lg1" y1="-962.46" y2="-956.608"/><linearGradient id="SVGID_17_" gradientTransform="matrix(-.707 .707 -.707 -.707 -1641.46 -5194.085)" gradientUnits="userSpaceOnUse" x1="2285.937" x2="2294.437" xlink:href="#lg4" y1="-5247.402" y2="-5247.402"/><linearGradient id="SVGID_18_" gradientTransform="matrix(-.707 .707 -.707 -.707 -1641.46 -5194.085)" gradientUnits="userSpaceOnUse" x1="2287.023" x2="2292.875" xlink:href="#lg1" y1="-5262.72" y2="-5256.868"/><linearGradient id="SVGID_19_" gradientUnits="userSpaceOnUse" x1="415.884" x2="424.384" xlink:href="#lg4" y1="59.483" y2="59.483"/><linearGradient id="SVGID_20_" gradientUnits="userSpaceOnUse" x1="416.97" x2="422.822" xlink:href="#lg1" y1="44.165" y2="50.017"/><linearGradient id="SVGID_21_" gradientTransform="matrix(-1 0 0 -1 510 -5670.034)" gradientUnits="userSpaceOnUse" x1="87.753" x2="96.253" xlink:href="#lg4" y1="-5818.037" y2="-5818.037"/><linearGradient id="SVGID_22_" gradientTransform="matrix(-1 0 0 -1 510 -5670.034)" gradientUnits="userSpaceOnUse" x1="88.839" x2="94.691" xlink:href="#lg1" y1="-5833.355" y2="-5827.503"/><linearGradient id="SVGID_23_" gradientTransform="matrix(0 -1 1 0 2988.034 -2682)" gradientUnits="userSpaceOnUse" x1="-2788.924" x2="-2780.425" xlink:href="#lg4" y1="-2613.229" y2="-2613.229"/><linearGradient id="SVGID_24_" gradientTransform="matrix(0 -1 1 0 2988.034 -2682)" gradientUnits="userSpaceOnUse" x1="-2787.838" x2="-2781.987" xlink:href="#lg1" y1="-2628.547" y2="-2622.695"/><linearGradient id="SVGID_25_" gradientTransform="matrix(-.707 -.707 .707 -.707 2367.859 -4689.234)" gradientUnits="userSpaceOnUse" x1="-2014.323" x2="-2005.823" xlink:href="#lg4" y1="-4811.413" y2="-4811.413"/><linearGradient id="SVGID_26_" gradientTransform="matrix(-.707 -.707 .707 -.707 2367.859 -4689.234)" gradientUnits="userSpaceOnUse" x1="-2013.237" x2="-2007.385" xlink:href="#lg1" y1="-4826.731" y2="-4820.878"/><linearGradient id="SVGID_27_" gradientTransform="matrix(.707 -.707 .707 .707 2007.235 -824.141)" gradientUnits="userSpaceOnUse" x1="-1782.3" x2="-1773.8" xlink:href="#lg4" y1="-511.152" y2="-511.152"/><linearGradient id="SVGID_28_" gradientTransform="matrix(.707 -.707 .707 .707 2007.235 -824.141)" gradientUnits="userSpaceOnUse" x1="-1781.214" x2="-1775.362" xlink:href="#lg1" y1="-526.47" y2="-520.618"/><linearGradient id="SVGID_29_" gradientUnits="userSpaceOnUse" x1="388.313" x2="452.8" xlink:href="#lg1" y1="72.991" y2="137.478"/><linearGradient id="SVGID_30_" gradientUnits="userSpaceOnUse" x1="447.482" x2="423.733" xlink:href="#lg3" y1="81.778" y2="58.029"/><linearGradient id="SVGID_31_" gradientUnits="userSpaceOnUse" x1="425.057" x2="413.922" xlink:href="#lg3" y1="115.803" y2="93.8"/><linearGradient id="SVGID_32_" gradientTransform="matrix(.927 .375 -.375 .927 -1082.477 -309.806)" gradientUnits="userSpaceOnUse" x1="1544.517" x2="1551.334" xlink:href="#lg4" y1="-215.038" y2="-215.038"/><linearGradient id="SVGID_33_" gradientTransform="matrix(.927 .375 -.375 .927 -1082.477 -309.806)" gradientUnits="userSpaceOnUse" x1="1545.388" x2="1550.081" xlink:href="#lg1" y1="-227.324" y2="-222.63"/><linearGradient id="SVGID_34_" gradientTransform="matrix(-.375 .927 -.927 -.375 -2372.194 -4274.478)" gradientUnits="userSpaceOnUse" x1="3009.91" x2="3016.728" xlink:href="#lg4" y1="-4264.567" y2="-4264.567"/><linearGradient id="SVGID_35_" gradientTransform="matrix(-.375 .927 -.927 -.375 -2372.194 -4274.478)" gradientUnits="userSpaceOnUse" x1="3010.782" x2="3015.475" xlink:href="#lg1" y1="-4276.854" y2="-4272.16"/><linearGradient id="SVGID_36_" gradientTransform="matrix(.39 .921 -.921 .39 -2548.446 -2025.033)" gradientUnits="userSpaceOnUse" x1="3115.898" x2="3122.716" xlink:href="#lg4" y1="-1936.309" y2="-1936.309"/><linearGradient id="SVGID_37_" gradientTransform="matrix(.39 .921 -.921 .39 -2548.446 -2025.033)" gradientUnits="userSpaceOnUse" x1="3116.77" x2="3121.463" xlink:href="#lg1" y1="-1948.596" y2="-1943.902"/><linearGradient id="SVGID_38_" gradientTransform="matrix(-.921 .39 -.39 -.921 -656.967 -5740.446)" gradientUnits="userSpaceOnUse" x1="1288.638" x2="1295.456" xlink:href="#lg4" y1="-5835.95" y2="-5835.95"/><linearGradient id="SVGID_39_" gradientTransform="matrix(-.921 .39 -.39 -.921 -656.967 -5740.446)" gradientUnits="userSpaceOnUse" x1="1289.51" x2="1294.203" xlink:href="#lg1" y1="-5848.235" y2="-5843.542"/><linearGradient id="SVGID_40_" gradientTransform="matrix(-.927 -.375 .375 -.927 1516.011 -5375.104)" gradientUnits="userSpaceOnUse" x1="-1039.62" x2="-1032.802" xlink:href="#lg4" y1="-5525.995" y2="-5525.995"/><linearGradient id="SVGID_41_" gradientTransform="matrix(-.927 -.375 .375 -.927 1516.011 -5375.104)" gradientUnits="userSpaceOnUse" x1="-1038.748" x2="-1034.055" xlink:href="#lg1" y1="-5538.281" y2="-5533.588"/><linearGradient id="SVGID_42_" gradientUnits="userSpaceOnUse" x1="385.557" x2="381.846" xlink:href="#lg3" y1="100.329" y2="74.216"/><linearGradient id="SVGID_43_" gradientTransform="matrix(.375 -.927 .927 .375 2693.104 -1675.989)" gradientUnits="userSpaceOnUse" x1="-2505.014" x2="-2498.196" xlink:href="#lg4" y1="-1476.465" y2="-1476.465"/><linearGradient id="SVGID_44_" gradientTransform="matrix(.375 -.927 .927 .375 2693.104 -1675.989)" gradientUnits="userSpaceOnUse" x1="-2504.143" x2="-2499.449" xlink:href="#lg1" y1="-1488.751" y2="-1484.058"/><linearGradient id="SVGID_45_" gradientTransform="matrix(-.39 -.921 .921 -.39 2870.669 -3769.331)" gradientUnits="userSpaceOnUse" x1="-2611.002" x2="-2604.184" xlink:href="#lg4" y1="-3804.723" y2="-3804.723"/><linearGradient id="SVGID_46_" gradientTransform="matrix(-.39 -.921 .921 -.39 2870.669 -3769.331)" gradientUnits="userSpaceOnUse" x1="-2610.131" x2="-2605.437" xlink:href="#lg1" y1="-3817.009" y2="-3812.316"/><linearGradient id="SVGID_47_" gradientUnits="userSpaceOnUse" x1="415.962" x2="389.982" xlink:href="#lg3" y1="75.384" y2="55.103"/><linearGradient id="SVGID_48_" gradientTransform="matrix(.921 -.39 .39 .921 1087.33 -321.331)" gradientUnits="userSpaceOnUse" x1="-783.742" x2="-776.924" xlink:href="#lg4" y1="94.917" y2="94.917"/><linearGradient id="SVGID_49_" gradientTransform="matrix(.921 -.39 .39 .921 1087.33 -321.331)" gradientUnits="userSpaceOnUse" x1="-782.871" x2="-778.177" xlink:href="#lg1" y1="82.631" y2="87.324"/><linearGradient id="SVGID_50_" gradientUnits="userSpaceOnUse" x1="410.847" x2="433.8" xlink:href="#lg4" y1="95.525" y2="118.478"/><linearGradient id="SVGID_51_" gradientUnits="userSpaceOnUse" x1="449.976" x2="368.297" y1="134.654" y2="52.975"><stop offset="0" stop-color="#fff" stop-opacity="0"/><stop offset="1" stop-color="#fff"/></linearGradient><linearGradient id="lg5"><stop offset="0" stop-color="#9ae1d3"/><stop offset="1" stop-color="#80d1c1"/></linearGradient><linearGradient id="SVGID_52_" gradientUnits="userSpaceOnUse" x1="378.175" x2="442.734" xlink:href="#lg5" y1="75.446" y2="140.006"/><linearGradient id="SVGID_53_" gradientUnits="userSpaceOnUse" x1="12.897" x2="60.122" xlink:href="#lg5" y1="195.91" y2="235.057"/><linearGradient id="SVGID_54_" gradientTransform="matrix(.819 .574 -.574 .819 147.816 112.313)" gradientUnits="userSpaceOnUse" x1="-99.916" x2="-52.693" xlink:href="#lg5" y1="72.553" y2="111.699"/><linearGradient id="SVGID_55_" gradientTransform="matrix(.819 -.574 -.574 -.819 147.816 468.28)" gradientUnits="userSpaceOnUse" x1="-14.009" x2="33.213" xlink:href="#lg5" y1="195.073" y2="234.218"/><linearGradient id="SVGID_56_" gradientTransform="matrix(-1 0 0 1 1040.969 0)" gradientUnits="userSpaceOnUse" x1="543.866" x2="591.092" xlink:href="#lg5" y1="275.504" y2="314.652"/><linearGradient id="SVGID_57_" gradientTransform="matrix(-.819 .574 .574 .819 893.153 112.313)" gradientUnits="userSpaceOnUse" x1="380.527" x2="427.75" xlink:href="#lg5" y1="-167.109" y2="-127.963"/><linearGradient id="SVGID_58_" gradientTransform="matrix(-.819 -.574 .574 -.819 893.153 468.28)" gradientUnits="userSpaceOnUse" x1="375.043" x2="422.266" xlink:href="#lg5" y1="-174.929" y2="-135.785"/><g><g><path d="m360.322 134.786h-104.509c21.682 0 39.258-17.577 39.258-39.258v-55.457c0-22.13-17.94-40.071-40.071-40.071-22.131 0-40.071 17.941-40.071 40.071 0 8.048-6.524 14.572-14.572 14.572h-50.679c-44.262 0-80.143 35.881-80.143 80.143 0 44.261 35.881 80.143 80.143 80.143-44.262 0-80.143 35.881-80.143 80.143 0 44.261 35.881 80.142 80.142 80.142h104.509c-21.682 0-39.258 17.577-39.258 39.259v55.456c.001 22.13 17.941 40.071 40.072 40.071 22.131 0 40.071-17.94 40.071-40.071 0-8.048 6.524-14.572 14.572-14.572h50.679c44.262 0 80.143-35.881 80.143-80.143 0-44.261-35.881-80.143-80.143-80.143 44.262 0 80.143-35.881 80.143-80.143-.001-44.261-35.882-80.142-80.143-80.142z" fill="url(#SVGID_1_)"/><path d="m360.322 295.071h-290.786c0-44.262 35.881-80.143 80.143-80.143h290.786c-.001 44.262-35.882 80.143-80.143 80.143z" fill="url(#SVGID_2_)"/><path d="m440.464 375.214h-290.786c-44.262 0-80.143-35.881-80.143-80.143h290.786c44.262 0 80.143 35.881 80.143 80.143z" fill="url(#SVGID_3_)"/><path d="m440.464 214.929h-290.786c-44.262 0-80.143-35.881-80.143-80.143h290.786c44.262 0 80.143 35.881 80.143 80.143z" fill="url(#SVGID_4_)"/><path d="m440.46 214.93c0 17.89-5.86 34.4-15.77 47.74l-80.03-80.04c-2.38-1.24-4.01-3.73-4.01-6.61v-24.23c0-1.29-.36-2.56-.99-3.69-2.4-4.3-4.43-8.75-6.08-13.31h15.8c3.69 8.3 8.94 16.08 15.75 22.89 18.18 18.18 43.25 25.26 66.8 21.25 5.46 10.83 8.53 23.06 8.53 36z" fill="url(#SVGID_5_)"/><path d="m295.071 375.214h-40.071-.813c-21.682 0-39.258 17.577-39.258 39.258v55.456c0 22.131 17.94 40.072 40.071 40.072 22.131 0 40.071-17.94 40.071-40.071 0-8.048 6.524-14.572 14.572-14.572h50.679c44.262 0 80.143-35.881 80.143-80.143z" fill="url(#SVGID_6_)"/></g><path d="m255 0c-22.131 0-40.071 17.94-40.071 40.071v14.572h-65.251c-44.262 0-80.143 35.881-80.143 80.143h185.465.813c21.682 0 39.258-17.577 39.258-39.258v-55.457c0-22.131-17.94-40.071-40.071-40.071z" fill="url(#SVGID_7_)"/><circle cx="359.794" cy="231.597" fill="url(#SVGID_8_)" r="19.608"/><circle cx="269.567" cy="266.438" fill="url(#SVGID_9_)" r="19.608"/><circle cx="343.171" cy="270.038" fill="url(#SVGID_10_)" r="15.034"/><circle cx="306.652" cy="236.239" fill="url(#SVGID_11_)" r="14.968"/><circle cx="336.661" cy="187.847" fill="url(#SVGID_12_)" r="15.034"/><g><g><g><g><g><path d="m452.489 103.743c0-1.318 1.068-2.386 2.386-2.386h16.902c1.318 0 2.386 1.068 2.386 2.386 0 1.318-1.068 2.386-2.386 2.386h-16.902c-1.318 0-2.386-1.068-2.386-2.386z" fill="url(#SVGID_13_)"/><circle cx="476.548" cy="103.743" fill="url(#SVGID_14_)" r="7.423"/></g><g><path d="m442.699 80.109c-.932-.932-.932-2.442 0-3.374l11.951-11.951c.932-.932 2.442-.932 3.374 0 .932.932.932 2.442 0 3.374l-11.951 11.951c-.931.932-2.442.932-3.374 0z" fill="url(#SVGID_15_)"/><circle cx="459.712" cy="63.097" fill="url(#SVGID_16_)" r="7.423"/></g><g><path d="m442.699 127.377c.932-.932 2.442-.932 3.374 0l11.951 11.951c.932.932.932 2.442 0 3.374-.932.932-2.442.932-3.374 0l-11.951-11.951c-.932-.931-.932-2.442 0-3.374z" fill="url(#SVGID_17_)"/><circle cx="459.712" cy="144.39" fill="url(#SVGID_18_)" r="7.423"/></g><g><path d="m419.065 70.32c-1.318 0-2.386-1.068-2.386-2.386v-16.902c0-1.318 1.068-2.386 2.386-2.386 1.318 0 2.386 1.068 2.386 2.386v16.902c0 1.318-1.068 2.386-2.386 2.386z" fill="url(#SVGID_19_)"/><circle cx="419.065" cy="46.26" fill="url(#SVGID_20_)" r="7.423"/></g><g><path d="m419.065 137.167c1.318 0 2.386 1.068 2.386 2.386v16.902c0 1.318-1.068 2.386-2.386 2.386-1.318 0-2.386-1.068-2.386-2.386v-16.902c0-1.318 1.069-2.386 2.386-2.386z" fill="url(#SVGID_21_)"/><circle cx="419.065" cy="161.226" fill="url(#SVGID_22_)" r="7.423"/></g><g><path d="m385.642 103.743c0 1.318-1.068 2.386-2.386 2.386h-16.902c-1.318 0-2.386-1.068-2.386-2.386 0-1.318 1.068-2.386 2.386-2.386h16.902c1.318 0 2.386 1.068 2.386 2.386z" fill="url(#SVGID_23_)"/><circle cx="361.583" cy="103.743" fill="url(#SVGID_24_)" r="7.423"/></g><g><path d="m395.431 127.377c.932.932.932 2.442 0 3.374l-11.951 11.951c-.932.932-2.442.932-3.374 0-.932-.932-.932-2.442 0-3.374l11.951-11.951c.932-.932 2.443-.932 3.374 0z" fill="url(#SVGID_25_)"/><circle cx="378.419" cy="144.39" fill="url(#SVGID_26_)" r="7.423"/></g><g><path d="m395.431 80.109c-.932.932-2.442.932-3.374 0l-11.951-11.951c-.932-.932-.932-2.442 0-3.374.932-.932 2.442-.932 3.374 0l11.951 11.951c.932.932.932 2.442 0 3.374z" fill="url(#SVGID_27_)"/><circle cx="378.419" cy="63.097" fill="url(#SVGID_28_)" r="7.423"/></g><circle cx="419.065" cy="103.743" fill="url(#SVGID_29_)" r="45.708"/><path d="m437.299 61.821-6.904 17.124s7.316 1.874 14.209 13.468l16.515-6.604c-4.578-10.721-13.138-19.335-23.82-23.988z" fill="url(#SVGID_30_)"/><path d="m419.065 149.451c25.244 0 45.708-20.464 45.708-45.708 0-5.903-1.12-11.545-3.157-16.725l-84.189 35.602c7.186 15.825 23.126 26.831 41.638 26.831z" fill="url(#SVGID_31_)"/><g><path d="m429.115 78.891c-.98-.396-1.453-1.512-1.057-2.492l5.082-12.567c.396-.98 1.512-1.453 2.492-1.057.98.396 1.453 1.512 1.057 2.492l-5.082 12.567c-.396.98-1.512 1.453-2.492 1.057z" fill="url(#SVGID_32_)"/><circle cx="436.35" cy="61.001" fill="url(#SVGID_33_)" r="5.954"/></g><g><path d="m443.918 113.793c.396-.98 1.512-1.453 2.492-1.057l12.567 5.082c.98.396 1.453 1.512 1.057 2.492-.396.98-1.512 1.453-2.492 1.057l-12.567-5.082c-.98-.396-1.453-1.512-1.057-2.492z" fill="url(#SVGID_34_)"/><circle cx="461.808" cy="121.028" fill="url(#SVGID_35_)" r="5.954"/></g><g><path d="m443.745 93.276c-.413-.973.042-2.096 1.015-2.509l12.48-5.293c.973-.413 2.096.042 2.509 1.015.413.973-.042 2.096-1.015 2.509l-12.48 5.293c-.973.413-2.096-.042-2.509-1.015z" fill="url(#SVGID_36_)"/><circle cx="461.511" cy="85.742" fill="url(#SVGID_37_)" r="5.954"/></g><g><path d="m429.532 128.423c.973-.413 2.096.042 2.509 1.015l5.293 12.48c.413.973-.042 2.096-1.015 2.509-.973.413-2.096-.042-2.509-1.015l-5.293-12.48c-.412-.973.042-2.096 1.015-2.509z" fill="url(#SVGID_38_)"/><circle cx="437.067" cy="146.189" fill="url(#SVGID_39_)" r="5.954"/></g><g><path d="m409.015 128.596c.98.396 1.453 1.512 1.057 2.492l-5.082 12.567c-.396.98-1.512 1.453-2.492 1.057-.98-.396-1.453-1.512-1.057-2.492l5.082-12.567c.397-.98 1.512-1.454 2.492-1.057z" fill="url(#SVGID_40_)"/><circle cx="401.781" cy="146.485" fill="url(#SVGID_41_)" r="5.954"/></g><path d="m374.805 92.214 16.826 16.826s-1.593-11.347 2.581-15.348l-17.471-7.234z" fill="url(#SVGID_42_)"/><g><path d="m394.213 93.693c-.396.98-1.512 1.453-2.492 1.057l-12.567-5.082c-.98-.396-1.453-1.512-1.057-2.492.396-.98 1.512-1.453 2.492-1.057l12.567 5.082c.98.397 1.453 1.512 1.057 2.492z" fill="url(#SVGID_43_)"/><circle cx="376.323" cy="86.459" fill="url(#SVGID_44_)" r="5.954"/></g><g><path d="m394.385 114.21c.413.973-.042 2.096-1.015 2.509l-12.48 5.293c-.973.413-2.096-.042-2.509-1.015-.413-.973.042-2.096 1.015-2.509l12.48-5.293c.973-.412 2.097.042 2.509 1.015z" fill="url(#SVGID_45_)"/><circle cx="376.62" cy="121.744" fill="url(#SVGID_46_)" r="5.954"/></g><path d="m401.311 61.612 7.282 16.548c6.097-3.049 14.261-2.402 14.261-2.402l-16.056-16.056c-1.879.523-3.712 1.161-5.487 1.91z" fill="url(#SVGID_47_)"/><g><path d="m408.598 79.063c-.973.413-2.096-.042-2.509-1.015l-5.293-12.48c-.413-.973.042-2.096 1.015-2.509.973-.413 2.096.042 2.509 1.015l5.293 12.48c.413.973-.042 2.097-1.015 2.509z" fill="url(#SVGID_48_)"/><circle cx="401.064" cy="61.298" fill="url(#SVGID_49_)" r="5.954"/></g><circle cx="419.065" cy="103.743" fill="url(#SVGID_50_)" r="29.115"/></g></g><circle cx="419.065" cy="103.743" fill="url(#SVGID_51_)" r="84.104"/></g><path d="m480.812 36.985c-35.768-33.15-91.954-31.903-126.303 2.716-29.21 29.44-34.158 73.875-14.848 108.399.633 1.131.985 2.397.985 3.693v24.224c0 4.123 3.342 7.466 7.466 7.466h25.388c1.221 0 2.417.313 3.5.878 34.282 17.901 77.57 12.477 106.366-16.318 36.344-36.345 35.493-95.795-2.554-131.058zm-10.509 118.004c-28.295 28.295-74.181 28.295-102.484 0-28.295-28.303-28.295-74.188 0-102.491 28.303-28.295 74.188-28.295 102.484 0 28.303 28.302 28.303 74.188 0 102.491z" fill="url(#SVGID_52_)"/></g><g><g><path d="m53.443 229.926c-5.708.001-11.414-2.081-15.966-6.243-.006-.005-.012-.012-.018-.017-.549-.488-1.367-.482-1.911.014-9.103 8.327-22.833 8.327-31.937-.003-4.528-4.143-4.84-11.174-.696-15.703 4.144-4.528 11.173-4.842 15.703-.696.548.501 1.377.504 1.926-.001 9.103-8.325 22.831-8.325 31.933 0 .007.007.014.012.021.018.549.486 1.365.481 1.908-.015.307-.28.628-.543.964-.787 4.964-3.611 11.918-2.516 15.529 2.449 3.412 4.691 2.622 11.155-1.664 14.899-4.521 4.056-10.158 6.085-15.792 6.085z" fill="url(#SVGID_53_)"/></g><g><g><path d="m51.551 169.743c-10.954.001-20.538-7.504-23.002-18.477-.005-.022-.01-.042-.014-.063-.162-.726-.835-1.19-1.577-1.106-12.246 1.602-23.476-6.291-26.148-18.336-1.33-5.993 2.451-11.929 8.444-13.259 5.988-1.334 11.928 2.451 13.258 8.444.161.728.838 1.195 1.578 1.108 12.212-1.604 23.44 6.266 26.134 18.279.004.02.009.038.012.058.161.724.834 1.198 1.573 1.106 6.033-.788 11.582 3.418 12.443 9.449.868 6.077-3.351 11.706-9.427 12.575-.046.007-.1.014-.147.021-1.05.134-2.095.201-3.127.201z" fill="url(#SVGID_54_)"/></g><g><path d="m11.672 312.72c-.797 0-1.606-.086-2.417-.266-5.993-1.33-9.774-7.266-8.444-13.259 2.672-12.045 13.916-19.934 26.147-18.335.744.089 1.416-.38 1.577-1.106.004-.022.009-.043.014-.064 2.697-12.008 13.922-19.856 26.13-18.273.047.007.093.013.139.02 6.077.868 10.303 6.498 9.435 12.576-.862 6.037-6.427 10.234-12.456 9.448-.74-.101-1.4.389-1.561 1.107-.004.021-.009.041-.014.062-2.696 12.01-13.914 19.875-26.134 18.274-.729-.088-1.416.38-1.577 1.107-1.148 5.181-5.743 8.709-10.839 8.709z" fill="url(#SVGID_55_)"/></g></g></g><g><g><path d="m456.557 309.52c5.708.001 11.414-2.081 15.966-6.243.006-.005.012-.012.018-.017.549-.488 1.367-.482 1.911.014 9.103 8.327 22.833 8.327 31.937-.003 4.528-4.143 4.84-11.174.696-15.703-4.144-4.528-11.173-4.842-15.703-.696-.548.501-1.377.504-1.926-.001-9.103-8.325-22.831-8.325-31.933 0-.007.007-.014.012-.021.018-.549.486-1.365.481-1.908-.015-.307-.28-.628-.543-.964-.787-4.964-3.611-11.918-2.516-15.529 2.449-3.412 4.691-2.622 11.155 1.664 14.899 4.521 4.056 10.158 6.085 15.792 6.085z" fill="url(#SVGID_56_)"/></g><g><g><path d="m458.449 249.337c10.954.001 20.538-7.504 23.002-18.477.005-.022.01-.042.014-.063.162-.726.835-1.19 1.577-1.106 12.246 1.602 23.476-6.291 26.148-18.336 1.33-5.993-2.451-11.929-8.444-13.259-5.988-1.334-11.928 2.451-13.258 8.444-.161.728-.838 1.195-1.578 1.108-12.212-1.604-23.44 6.266-26.134 18.279-.004.02-.009.038-.012.058-.161.724-.834 1.198-1.573 1.106-6.033-.788-11.582 3.418-12.443 9.449-.868 6.077 3.351 11.706 9.427 12.575.046.007.1.014.147.021 1.05.134 2.095.201 3.127.201z" fill="url(#SVGID_57_)"/></g><g><path d="m498.328 392.314c.797 0 1.606-.086 2.417-.266 5.993-1.33 9.774-7.266 8.444-13.259-2.672-12.045-13.916-19.934-26.147-18.335-.744.089-1.416-.38-1.577-1.106-.004-.022-.009-.043-.014-.064-2.697-12.008-13.922-19.856-26.13-18.273-.047.007-.093.013-.139.02-6.077.868-10.303 6.498-9.435 12.576.862 6.037 6.427 10.234 12.456 9.448.74-.101 1.4.389 1.561 1.107.004.021.009.041.014.062 2.696 12.01 13.914 19.875 26.134 18.274.729-.088 1.416.38 1.577 1.107 1.148 5.181 5.743 8.709 10.839 8.709z" fill="url(#SVGID_58_)"/></g></g></g></g></svg>