<svg id="Capa_1" enable-background="new 0 0 510 510" height="512" viewBox="0 0 510 510" width="512" xmlns="http://www.w3.org/2000/svg" xmlns:xlink="http://www.w3.org/1999/xlink"><linearGradient id="lg1"><stop offset="0" stop-color="#ff637b"/><stop offset="1" stop-color="#e63950"/></linearGradient><linearGradient id="SVGID_1_" gradientUnits="userSpaceOnUse" x1="255" x2="255" xlink:href="#lg1" y1="399.039" y2="511.336"/><linearGradient id="lg2"><stop offset="0" stop-color="#e63950" stop-opacity="0"/><stop offset=".0467" stop-color="#e4354b" stop-opacity=".047"/><stop offset=".4669" stop-color="#d31822" stop-opacity=".467"/><stop offset=".7991" stop-color="#c90709" stop-opacity=".799"/><stop offset="1" stop-color="#c50000"/></linearGradient><linearGradient id="SVGID_2_" gradientUnits="userSpaceOnUse" x1="349.18" x2="281.257" xlink:href="#lg2" y1="490.362" y2="342.703"/><linearGradient id="SVGID_3_" gradientUnits="userSpaceOnUse" x1="392.557" x2="283.224" xlink:href="#lg2" y1="472.015" y2="415.348"/><linearGradient id="lg3"><stop offset="0" stop-color="#fce9cb"/><stop offset="1" stop-color="#ffbd95"/></linearGradient><linearGradient id="SVGID_4_" gradientUnits="userSpaceOnUse" x1="108.363" x2="137.417" xlink:href="#lg3" y1="234.042" y2="263.096"/><linearGradient id="SVGID_5_" gradientUnits="userSpaceOnUse" x1="387.101" x2="416.155" xlink:href="#lg3" y1="234.042" y2="263.096"/><linearGradient id="SVGID_6_" gradientUnits="userSpaceOnUse" x1="186.343" x2="309.565" xlink:href="#lg3" y1="134.548" y2="329.154"/><linearGradient id="SVGID_7_" gradientUnits="userSpaceOnUse" x1="265.976" x2="248.417" xlink:href="#lg1" y1="403.314" y2="331.261"/><linearGradient id="SVGID_8_" gradientUnits="userSpaceOnUse" x1="255" x2="255" y1="367.822" y2="398.691"><stop offset="0" stop-color="#ff9690"/><stop offset="1" stop-color="#f9545b"/></linearGradient><linearGradient id="SVGID_9_" gradientUnits="userSpaceOnUse" x1="255" x2="255" y1="253" y2="44.99"><stop offset="0" stop-color="#f9dbb7" stop-opacity="0"/><stop offset=".0209" stop-color="#f7d2b0" stop-opacity=".021"/><stop offset=".1667" stop-color="#ea9b82" stop-opacity=".167"/><stop offset=".3134" stop-color="#df6c5a" stop-opacity=".313"/><stop offset=".4582" stop-color="#d5453a" stop-opacity=".458"/><stop offset=".6006" stop-color="#ce2720" stop-opacity=".601"/><stop offset=".7399" stop-color="#c9110e" stop-opacity=".74"/><stop offset=".8747" stop-color="#c60404" stop-opacity=".875"/><stop offset="1" stop-color="#c50000"/></linearGradient><linearGradient id="lg4"><stop offset="0" stop-color="#8a7889"/><stop offset="1" stop-color="#6e566e"/></linearGradient><linearGradient id="SVGID_10_" gradientUnits="userSpaceOnUse" x1="178.136" x2="266.136" xlink:href="#lg4" y1="34.777" y2="204.777"/><linearGradient id="SVGID_11_" gradientUnits="userSpaceOnUse" x1="211.824" x2="250.824" y1="83.957" y2="203.957"><stop offset="0" stop-color="#6e566e" stop-opacity="0"/><stop offset=".2944" stop-color="#674d66" stop-opacity=".294"/><stop offset="1" stop-color="#593b56"/></linearGradient><linearGradient id="SVGID_12_" gradientUnits="userSpaceOnUse" x1="255" x2="255" y1="230.667" y2="359.504"><stop offset="0" stop-color="#f9dbb7" stop-opacity="0"/><stop offset=".1111" stop-color="#f1ba9b" stop-opacity=".111"/><stop offset=".3498" stop-color="#e27965" stop-opacity=".35"/><stop offset=".5667" stop-color="#d54539" stop-opacity=".567"/><stop offset=".7543" stop-color="#cc1f1a" stop-opacity=".754"/><stop offset=".905" stop-color="#c70807" stop-opacity=".905"/><stop offset="1" stop-color="#c50000"/></linearGradient><linearGradient id="SVGID_13_" gradientTransform="matrix(.375 -.927 .927 .375 2461.628 -106.993)" gradientUnits="userSpaceOnUse" x1="-1170.946" x2="-1182.419" xlink:href="#lg4" y1="-1985.831" y2="-1965.01"/><linearGradient id="SVGID_14_" gradientTransform="matrix(-.375 -.927 -.927 .375 35.259 -106.993)" gradientUnits="userSpaceOnUse" x1="-426.218" x2="-437.69" xlink:href="#lg4" y1="-143.793" y2="-122.973"/><linearGradient id="lg5"><stop offset="0" stop-color="#ffda2d"/><stop offset="1" stop-color="#80d1c1"/></linearGradient><linearGradient id="SVGID_15_" gradientUnits="userSpaceOnUse" x1="132.468" x2="275.802" xlink:href="#lg5" y1="324.834" y2="457.501"/><linearGradient id="lg6"><stop offset="0" stop-color="#0b799d" stop-opacity="0"/><stop offset=".1739" stop-color="#117d9e" stop-opacity=".174"/><stop offset=".414" stop-color="#2389a0" stop-opacity=".414"/><stop offset=".6928" stop-color="#409ca3" stop-opacity=".693"/><stop offset=".9986" stop-color="#69b7a8" stop-opacity=".999"/><stop offset="1" stop-color="#69b7a8"/></linearGradient><linearGradient id="SVGID_16_" gradientUnits="userSpaceOnUse" x1="281.664" x2="115.664" xlink:href="#lg6" y1="422.731" y2="550.731"/><linearGradient id="SVGID_17_" gradientUnits="userSpaceOnUse" x1="287.769" x2="166.435" xlink:href="#lg6" y1="438.495" y2="389.828"/><linearGradient id="SVGID_18_" gradientUnits="userSpaceOnUse" x1="158.021" x2="188.021" xlink:href="#lg5" y1="422.535" y2="475.535"/><linearGradient id="SVGID_19_" gradientUnits="userSpaceOnUse" x1="190.467" x2="277.467" xlink:href="#lg6" y1="485.504" y2="408.004"/><linearGradient id="SVGID_20_" gradientUnits="userSpaceOnUse" x1="318.982" x2="340.982" xlink:href="#lg5" y1="368.14" y2="442.14"/><linearGradient id="SVGID_21_" gradientUnits="userSpaceOnUse" x1="339.841" x2="402.795" xlink:href="#lg6" y1="440.087" y2="384.007"/><linearGradient id="SVGID_22_" gradientUnits="userSpaceOnUse" x1="152.346" x2="170.346" xlink:href="#lg5" y1="397.796" y2="430.796"/><linearGradient id="SVGID_23_" gradientUnits="userSpaceOnUse" x1="169.506" x2="220.641" xlink:href="#lg6" y1="433.973" y2="388.421"/><linearGradient id="SVGID_24_" gradientUnits="userSpaceOnUse" x1="326.625" x2="346.388" xlink:href="#lg5" y1="471.995" y2="491.758"/><linearGradient id="SVGID_25_" gradientUnits="userSpaceOnUse" x1="333.506" x2="384.641" xlink:href="#lg6" y1="483.093" y2="437.542"/><linearGradient id="SVGID_26_" gradientUnits="userSpaceOnUse" x1="257.857" x2="218.587" xlink:href="#lg6" y1="455.202" y2="415.932"/><linearGradient id="SVGID_27_" gradientUnits="userSpaceOnUse" x1="279.799" x2="252.06" xlink:href="#lg6" y1="475.41" y2="447.671"/><linearGradient id="SVGID_28_" gradientUnits="userSpaceOnUse" x1="297.104" x2="269.365" xlink:href="#lg6" y1="424.787" y2="397.048"/><linearGradient id="SVGID_29_" gradientUnits="userSpaceOnUse" x1="232.604" x2="204.865" xlink:href="#lg6" y1="401.468" y2="373.729"/><linearGradient id="SVGID_30_" gradientUnits="userSpaceOnUse" x1="238.502" x2="210.763" xlink:href="#lg6" y1="502.816" y2="475.078"/><g><g><path d="m486.754 463.53c12.805 14.415 3.674 37.25-15.537 38.897-44.243 3.792-100.012 6.382-161.717 7.252-15.044.212-30.441-8.042-46.11-8.042-21.548 0-42.582 8.156-62.89 7.76-63.085-1.229-119.173-4.271-161.95-8.533-18.978-1.891-28.082-24.562-15.317-38.732.096-.107.192-.213.288-.32 56.824-63.133 139.197-102.821 230.831-102.821 90.65 0 172.172 38.793 228.952 100.717 1.16 1.265 2.31 2.539 3.45 3.822z" fill="url(#SVGID_1_)"/><path d="m471.22 502.43c-51.59 4.42-118.86 7.21-192.94 7.54l-131.75-131.74c33.59-12.44 69.91-19.24 107.82-19.24 90.65 0 172.17 38.79 228.95 100.72 1.16 1.26 2.31 2.54 3.45 3.82 12.81 14.42 3.68 37.25-15.53 38.9z" fill="url(#SVGID_2_)"/><path d="m483.304 459.708c-47.493-51.796-112.299-87.402-185.275-97.666l11.471 147.635c66.258-.696 114.749-3.224 161.717-7.25 19.211-1.647 28.342-24.482 15.537-38.897-1.14-1.283-2.29-2.557-3.45-3.822z" fill="url(#SVGID_3_)"/><g><g><path d="m115.631 280.922c-16.863 0-30.534-13.67-30.534-30.534v-18.158c0-16.863 13.67-30.534 30.534-30.534 16.863 0 30.534 13.67 30.534 30.534v18.159c0 16.863-13.671 30.533-30.534 30.533z" fill="url(#SVGID_4_)"/><path d="m394.369 280.922c-16.863 0-30.534-13.67-30.534-30.534v-18.158c0-16.863 13.67-30.534 30.534-30.534 16.863 0 30.534 13.67 30.534 30.534v18.159c-.001 16.863-13.671 30.533-30.534 30.533z" fill="url(#SVGID_5_)"/></g><path d="m255 428.583c76.292 0 139.053-60.317 141.809-136.559 1.182-32.689 1.182-65.401 0-98.089-2.757-76.242-65.517-136.559-141.809-136.559-76.291 0-139.052 60.317-141.808 136.559-1.182 32.689-1.182 65.401 0 98.089 2.755 76.241 65.516 136.559 141.808 136.559z" fill="url(#SVGID_6_)"/><g><path d="m310.9 350.319c-.236-5.612-3.67-10.097-9.115-11.517-30.508-7.957-63.063-7.957-93.57 0-5.445 1.42-8.879 5.905-9.115 11.517-.912 21.704 4.449 39.518 14.371 54.12 2.011 2.96 5.72 5.143 9.797 5.803 21.318 3.453 42.146 3.453 63.464 0 4.078-.66 7.786-2.843 9.797-5.803 9.922-14.602 15.282-32.415 14.371-54.12z" fill="url(#SVGID_7_)"/><path d="m294.227 387.304c2.167 3.212.622 8.299-2.63 8.666-9.314 1.051-21.647 1.687-35.177 1.687-14.977 0-28.485-.78-38.056-2.036-3.212-.421-4.753-5.472-2.593-8.629.016-.024.033-.048.049-.071 9.618-14.066 23.56-22.908 39.07-22.908 15.343 0 29.142 8.643 38.752 22.44.197.282.392.566.585.851z" fill="url(#SVGID_8_)"/></g><path d="m255 57.376c-76.291 0-139.052 60.317-141.808 136.559-.422 11.686-.687 53.575-.808 65.265h285.232c-.12-11.69-.385-53.579-.808-65.265-2.756-76.242-65.516-136.559-141.808-136.559z" fill="url(#SVGID_9_)"/><g><path d="m113.591 241.396 2.627-39.194c1.406-20.975 13.447-40.008 31.509-50.253 8.956-5.08 18.954-7.747 29.001-7.747h76.668c27.857 0 54.309-10.967 73.254-30.201l18.466 29.523c4.423 7.071 10.63 12.967 17.989 17.065 15.074 8.393 25.097 24.212 26.174 41.621l1.728 27.945c.323 5.23 4.68 9.488 9.728 9.488 4.204 0 7.657-2.984 8.368-7.218v-77.034c.001-85.821-69.57-155.391-155.389-155.391-85.819 0-155.39 69.57-155.39 155.389v87.653c.473 3.707 3.413 6.369 7.046 6.369 4.244 0 7.924-3.596 8.221-8.015z" fill="url(#SVGID_10_)"/></g><path d="m365.221 47.182c-28.24-29.095-67.758-47.182-111.507-47.182-85.819 0-155.39 69.57-155.39 155.389v87.653c.473 3.707 3.413 6.369 7.046 6.369 4.243 0 7.924-3.596 8.22-8.015l2.627-39.194c1.406-20.975 13.447-40.008 31.509-50.253 8.956-5.08 18.954-7.747 29.001-7.747h76.668c27.857 0 54.309-10.967 73.255-30.201.001 0-24.853-76.232 38.571-66.819z" fill="url(#SVGID_11_)"/><path d="m263.749 315.333h-17.499c-14.023 0-24.949-10.339-23.449-22.19l9.149-72.289h46.098l9.149 72.289c1.501 11.851-9.424 22.19-23.448 22.19z" fill="url(#SVGID_12_)"/><g><path d="m214.878 235.104c-.008.02-.016.039-.024.059-4.314 10.45-15.931 23.103-46.769 24.033-4.691.142-8.609-3.547-8.75-8.238-.14-4.692 3.547-8.609 8.238-8.75 12.004-.362 27.225-3.004 31.571-13.531 1.791-4.339 6.76-6.403 11.098-4.612 4.318 1.782 6.384 6.715 4.636 11.039z" fill="url(#SVGID_13_)"/><path d="m295.122 235.104c.008.02.016.039.024.059 4.314 10.45 15.931 23.103 46.769 24.033 4.691.142 8.609-3.547 8.75-8.238.14-4.692-3.547-8.609-8.238-8.75-12.004-.362-27.225-3.004-31.571-13.531-1.791-4.339-6.76-6.403-11.098-4.612-4.319 1.782-6.384 6.715-4.636 11.039z" fill="url(#SVGID_14_)"/></g></g></g><path d="m309.5 371.227c0-4.686-3.436-8.663-8.072-9.343l-22.97-3.372c-15.555-2.283-31.36-2.283-46.916 0l-22.97 3.372c-4.636.68-8.072 4.657-8.072 9.343v138.168c20.31.396 41.34.605 62.89.605 15.671 0 31.064-.111 46.11-.323z" fill="url(#SVGID_15_)"/><path d="m301.428 361.884-22.97-3.372c-15.555-2.283-31.36-2.283-46.916 0l-8.878 1.303v149.932c13.328.166 26.919.253 40.726.253 15.671 0 31.064-.111 46.11-.323v-138.45c0-4.685-3.436-8.663-8.072-9.343z" fill="url(#SVGID_16_)"/><path d="m301.428 361.884-22.97-3.372c-5.903-.866-11.843-1.4-17.791-1.609v153.094c.909.001 1.813.003 2.724.003 15.671 0 31.064-.111 46.11-.323v-138.45c-.001-4.685-3.437-8.663-8.073-9.343z" fill="url(#SVGID_17_)"/><g><circle cx="188.473" cy="476.335" fill="url(#SVGID_18_)" r="25.962"/><path d="m200.087 453.111c1.751 3.495 2.738 7.438 2.738 11.613 0 14.338-11.623 25.962-25.961 25.962-4.175 0-8.119-.987-11.613-2.738 4.263 8.507 13.06 14.348 23.224 14.348 14.338 0 25.961-11.623 25.961-25.962-.001-10.163-5.842-18.96-14.349-23.223z" fill="url(#SVGID_19_)"/></g><g><circle cx="338.399" cy="433.451" fill="url(#SVGID_20_)" r="18.786"/><path d="m346.802 416.647c1.267 2.529 1.981 5.383 1.981 8.403 0 10.375-8.411 18.786-18.786 18.786-3.021 0-5.875-.714-8.403-1.981 3.084 6.156 9.45 10.382 16.805 10.382 10.375 0 18.786-8.411 18.786-18.786 0-7.354-4.227-13.72-10.383-16.804z" fill="url(#SVGID_21_)"/></g><g><circle cx="169.139" cy="428.583" fill="url(#SVGID_22_)" r="15.259"/><path d="m175.16 414.933c1.029 2.054 1.609 4.372 1.609 6.826 0 8.427-6.832 15.259-15.259 15.259-2.454 0-4.772-.58-6.826-1.609 2.505 5 7.676 8.433 13.65 8.433 8.427 0 15.259-6.832 15.259-15.259 0-5.974-3.433-11.145-8.433-13.65z" fill="url(#SVGID_23_)"/></g><g><circle cx="332.334" cy="477.704" fill="url(#SVGID_24_)" r="15.259"/><path d="m339.16 464.054c1.029 2.054 1.609 4.372 1.609 6.826 0 8.427-6.832 15.259-15.259 15.259-2.454 0-4.772-.58-6.826-1.609 2.505 5 7.676 8.433 13.65 8.433 8.427 0 15.259-6.832 15.259-15.259 0-5.974-3.433-11.145-8.433-13.65z" fill="url(#SVGID_25_)"/></g><g><circle cx="243.908" cy="441.252" fill="url(#SVGID_26_)" r="15.259"/><path d="m269.945 454.778c-5.953 0-10.778 4.826-10.778 10.778 0 5.953 4.826 10.779 10.778 10.779 5.953 0 10.778-4.826 10.778-10.779s-4.825-10.778-10.778-10.778z" fill="url(#SVGID_27_)"/><path d="m287.25 404.155c-5.953 0-10.778 4.826-10.778 10.778s4.826 10.779 10.778 10.779c5.953 0 10.778-4.826 10.778-10.779s-4.825-10.778-10.778-10.778z" fill="url(#SVGID_28_)"/><path d="m222.75 380.836c-5.953 0-10.778 4.826-10.778 10.778 0 5.953 4.826 10.779 10.778 10.779 5.953 0 10.778-4.826 10.778-10.779s-4.825-10.778-10.778-10.778z" fill="url(#SVGID_29_)"/><path d="m228.648 482.184c-5.953 0-10.778 4.826-10.778 10.778s4.826 10.779 10.778 10.779c5.953 0 10.778-4.826 10.778-10.779s-4.825-10.778-10.778-10.778z" fill="url(#SVGID_30_)"/></g></g></svg>