<svg id="Capa_1" enable-background="new 0 0 510 510" height="512" viewBox="0 0 510 510" width="512" xmlns="http://www.w3.org/2000/svg" xmlns:xlink="http://www.w3.org/1999/xlink"><linearGradient id="lg1"><stop offset="0" stop-color="#ff637b"/><stop offset="1" stop-color="#e63950"/></linearGradient><linearGradient id="SVGID_1_" gradientUnits="userSpaceOnUse" x1="222.073" x2="288.087" xlink:href="#lg1" y1="22.727" y2="88.741"/><linearGradient id="lg2"><stop offset="0" stop-color="#e63950" stop-opacity="0"/><stop offset=".0467" stop-color="#e4354b" stop-opacity=".047"/><stop offset=".4669" stop-color="#d31822" stop-opacity=".467"/><stop offset=".7991" stop-color="#c90709" stop-opacity=".799"/><stop offset="1" stop-color="#c50000"/></linearGradient><linearGradient id="SVGID_2_" gradientUnits="userSpaceOnUse" x1="265.545" x2="253.466" xlink:href="#lg2" y1="117.006" y2="67.935"/><linearGradient id="SVGID_3_" gradientUnits="userSpaceOnUse" x1="290.331" x2="245.159" xlink:href="#lg2" y1="73.306" y2="28.134"/><linearGradient id="lg3"><stop offset="0" stop-color="#edf5ff"/><stop offset="1" stop-color="#d5e8fe"/></linearGradient><linearGradient id="SVGID_4_" gradientUnits="userSpaceOnUse" x1="242.207" x2="264.044" xlink:href="#lg3" y1="25.182" y2="47.019"/><linearGradient id="SVGID_5_" gradientUnits="userSpaceOnUse" x1="243.43" x2="256.266" xlink:href="#lg3" y1="74.499" y2="87.335"/><linearGradient id="SVGID_6_" gradientUnits="userSpaceOnUse" x1="90.059" x2="156.073" xlink:href="#lg1" y1="222.073" y2="288.087"/><linearGradient id="SVGID_7_" gradientUnits="userSpaceOnUse" x1="133.531" x2="121.452" xlink:href="#lg2" y1="316.353" y2="267.281"/><linearGradient id="SVGID_8_" gradientUnits="userSpaceOnUse" x1="158.317" x2="113.145" xlink:href="#lg2" y1="272.652" y2="227.481"/><linearGradient id="SVGID_9_" gradientUnits="userSpaceOnUse" x1="110.193" x2="132.03" xlink:href="#lg3" y1="224.528" y2="246.366"/><linearGradient id="SVGID_10_" gradientUnits="userSpaceOnUse" x1="111.416" x2="124.252" xlink:href="#lg3" y1="273.845" y2="286.681"/><linearGradient id="SVGID_11_" gradientUnits="userSpaceOnUse" x1="354.087" x2="420.101" xlink:href="#lg1" y1="222.073" y2="288.087"/><linearGradient id="SVGID_12_" gradientUnits="userSpaceOnUse" x1="397.559" x2="385.48" xlink:href="#lg2" y1="316.353" y2="267.281"/><linearGradient id="SVGID_13_" gradientUnits="userSpaceOnUse" x1="422.345" x2="377.173" xlink:href="#lg2" y1="272.652" y2="227.481"/><linearGradient id="SVGID_14_" gradientUnits="userSpaceOnUse" x1="374.221" x2="396.058" xlink:href="#lg3" y1="224.528" y2="246.366"/><linearGradient id="SVGID_15_" gradientUnits="userSpaceOnUse" x1="375.444" x2="388.28" xlink:href="#lg3" y1="273.845" y2="286.681"/><linearGradient id="lg4"><stop offset="0" stop-color="#9ae1d3"/><stop offset="1" stop-color="#80d1c1"/></linearGradient><linearGradient id="SVGID_16_" gradientUnits="userSpaceOnUse" x1="22.727" x2="88.741" xlink:href="#lg4" y1="421.419" y2="487.434"/><linearGradient id="lg5"><stop offset="0" stop-color="#0b799d" stop-opacity="0"/><stop offset=".1739" stop-color="#117d9e" stop-opacity=".174"/><stop offset=".414" stop-color="#2389a0" stop-opacity=".414"/><stop offset=".6928" stop-color="#409ca3" stop-opacity=".693"/><stop offset=".9986" stop-color="#69b7a8" stop-opacity=".999"/><stop offset="1" stop-color="#69b7a8"/></linearGradient><linearGradient id="SVGID_17_" gradientUnits="userSpaceOnUse" x1="66.199" x2="54.12" xlink:href="#lg5" y1="515.699" y2="466.627"/><linearGradient id="SVGID_18_" gradientUnits="userSpaceOnUse" x1="90.984" x2="45.813" xlink:href="#lg5" y1="471.999" y2="426.827"/><linearGradient id="SVGID_19_" gradientUnits="userSpaceOnUse" x1="42.861" x2="64.698" xlink:href="#lg3" y1="423.875" y2="445.712"/><linearGradient id="SVGID_20_" gradientUnits="userSpaceOnUse" x1="44.083" x2="56.92" xlink:href="#lg3" y1="473.191" y2="486.028"/><linearGradient id="SVGID_21_" gradientUnits="userSpaceOnUse" x1="157.391" x2="223.406" xlink:href="#lg1" y1="421.419" y2="487.434"/><linearGradient id="SVGID_22_" gradientUnits="userSpaceOnUse" x1="200.864" x2="188.784" xlink:href="#lg2" y1="515.699" y2="466.627"/><linearGradient id="SVGID_23_" gradientUnits="userSpaceOnUse" x1="225.649" x2="180.477" xlink:href="#lg2" y1="471.999" y2="426.827"/><linearGradient id="SVGID_24_" gradientUnits="userSpaceOnUse" x1="177.525" x2="199.362" xlink:href="#lg3" y1="423.875" y2="445.712"/><linearGradient id="SVGID_25_" gradientUnits="userSpaceOnUse" x1="178.748" x2="191.584" xlink:href="#lg3" y1="473.191" y2="486.028"/><linearGradient id="SVGID_26_" gradientUnits="userSpaceOnUse" x1="286.755" x2="352.769" xlink:href="#lg4" y1="421.419" y2="487.434"/><linearGradient id="SVGID_27_" gradientUnits="userSpaceOnUse" x1="330.227" x2="318.148" xlink:href="#lg5" y1="515.699" y2="466.627"/><linearGradient id="SVGID_28_" gradientUnits="userSpaceOnUse" x1="355.013" x2="309.841" xlink:href="#lg5" y1="471.999" y2="426.827"/><linearGradient id="SVGID_29_" gradientUnits="userSpaceOnUse" x1="306.889" x2="328.726" xlink:href="#lg3" y1="423.875" y2="445.712"/><linearGradient id="SVGID_30_" gradientUnits="userSpaceOnUse" x1="308.111" x2="320.948" xlink:href="#lg3" y1="473.191" y2="486.028"/><linearGradient id="SVGID_31_" gradientUnits="userSpaceOnUse" x1="421.419" x2="487.434" xlink:href="#lg1" y1="421.419" y2="487.434"/><linearGradient id="SVGID_32_" gradientUnits="userSpaceOnUse" x1="464.892" x2="452.812" xlink:href="#lg2" y1="515.699" y2="466.627"/><linearGradient id="SVGID_33_" gradientUnits="userSpaceOnUse" x1="489.677" x2="444.505" xlink:href="#lg2" y1="471.999" y2="426.827"/><linearGradient id="SVGID_34_" gradientUnits="userSpaceOnUse" x1="441.553" x2="463.39" xlink:href="#lg3" y1="423.875" y2="445.712"/><linearGradient id="SVGID_35_" gradientUnits="userSpaceOnUse" x1="442.776" x2="455.612" xlink:href="#lg3" y1="473.191" y2="486.028"/><linearGradient id="lg6"><stop offset="0" stop-color="#8a7889"/><stop offset="1" stop-color="#6e566e"/></linearGradient><linearGradient id="SVGID_36_" gradientUnits="userSpaceOnUse" x1="255" x2="255" xlink:href="#lg6" y1="126" y2="184.671"/><linearGradient id="SVGID_37_" gradientUnits="userSpaceOnUse" x1="122.986" x2="122.986" xlink:href="#lg6" y1="345.333" y2="388.744"/><linearGradient id="SVGID_38_" gradientUnits="userSpaceOnUse" x1="387.014" x2="387.014" xlink:href="#lg6" y1="335.333" y2="381.914"/><g><g><circle cx="255" cy="55.654" fill="url(#SVGID_1_)" r="55.654"/><path d="m297.299 91.801-9.374-9.374c-8.365-8.621-20.058-13.218-33.021-13.218-13.579 0-25.02 5.115-33.441 14.471-.014.016-.029.032-.043.047-1.519 1.686-1.712 4.182.028 5.246l20.865 20.865c4.077.951 8.32 1.47 12.686 1.47 16.936-.001 32.092-7.574 42.3-19.507z" fill="url(#SVGID_2_)"/><path d="m254.907 11.297c-15.106 0-26.585 11.479-26.585 26.585 0 7.969 2.644 15.14 8.082 20.139l46.042 46.042c16.84-9.569 28.208-27.656 28.208-48.409 0-.229-.015-.455-.017-.683l-35.592-35.591c-4.999-5.439-12.169-8.083-20.138-8.083z" fill="url(#SVGID_3_)"/><g><circle cx="254.907" cy="37.882" fill="url(#SVGID_4_)" r="27.351"/><path d="m289.344 83.934c1.898 2.136.544 5.52-2.302 5.764-8.155.699-18.952 1.122-30.798 1.122-13.112 0-24.939-.519-33.319-1.354-2.812-.28-4.161-3.64-2.27-5.74.014-.016.028-.032.043-.047 8.421-9.356 20.628-15.237 34.207-15.237 13.434 0 25.514 5.749 33.929 14.925.17.188.341.377.51.567z" fill="url(#SVGID_5_)"/></g></g><g><circle cx="122.986" cy="255" fill="url(#SVGID_6_)" r="55.654"/><path d="m165.285 291.147-9.374-9.374c-8.365-8.621-20.058-13.218-33.021-13.218-13.579 0-25.02 5.115-33.441 14.471-.014.016-.029.032-.043.047-1.519 1.686-1.712 4.182.028 5.246l20.865 20.865c4.077.951 8.32 1.47 12.686 1.47 16.936 0 32.092-7.574 42.3-19.507z" fill="url(#SVGID_7_)"/><path d="m122.893 210.644c-15.106 0-26.585 11.479-26.585 26.585 0 7.969 2.644 15.14 8.082 20.139l46.042 46.042c16.84-9.569 28.208-27.656 28.208-48.409 0-.229-.015-.455-.017-.683l-35.591-35.591c-5-5.439-12.17-8.083-20.139-8.083z" fill="url(#SVGID_8_)"/><g><circle cx="122.893" cy="237.229" fill="url(#SVGID_9_)" r="27.351"/><path d="m157.33 283.28c1.898 2.136.544 5.52-2.302 5.764-8.155.699-18.952 1.122-30.798 1.122-13.112 0-24.939-.519-33.319-1.354-2.812-.28-4.161-3.64-2.27-5.74.014-.016.028-.032.043-.047 8.421-9.356 20.628-15.237 34.207-15.237 13.434 0 25.514 5.749 33.929 14.925.17.188.341.377.51.567z" fill="url(#SVGID_10_)"/></g></g><g><circle cx="387.014" cy="255" fill="url(#SVGID_11_)" r="55.654"/><path d="m429.313 291.147-9.374-9.374c-8.365-8.621-20.058-13.218-33.021-13.218-13.579 0-25.02 5.115-33.441 14.471-.014.016-.029.032-.043.047-1.519 1.686-1.712 4.182.028 5.246l20.865 20.865c4.077.951 8.32 1.47 12.686 1.47 16.936 0 32.092-7.574 42.3-19.507z" fill="url(#SVGID_12_)"/><path d="m386.921 210.644c-15.105 0-26.585 11.479-26.585 26.585 0 7.969 2.644 15.14 8.082 20.139l46.042 46.042c16.84-9.569 28.208-27.656 28.208-48.409 0-.229-.015-.455-.017-.683l-35.591-35.591c-5-5.439-12.17-8.083-20.139-8.083z" fill="url(#SVGID_13_)"/><g><circle cx="386.921" cy="237.229" fill="url(#SVGID_14_)" r="27.351"/><path d="m421.358 283.28c1.898 2.136.544 5.52-2.302 5.764-8.155.699-18.952 1.122-30.798 1.122-13.112 0-24.939-.519-33.319-1.354-2.812-.28-4.161-3.64-2.27-5.74.014-.016.028-.032.043-.047 8.421-9.356 20.628-15.237 34.207-15.237 13.434 0 25.514 5.749 33.929 14.925.17.188.341.377.51.567z" fill="url(#SVGID_15_)"/></g></g><g><g><circle cx="55.654" cy="454.346" fill="url(#SVGID_16_)" r="55.654"/><path d="m97.953 490.493-9.374-9.374c-8.365-8.621-20.058-13.218-33.021-13.218-13.579 0-25.02 5.115-33.441 14.471-.014.016-.029.032-.043.047-1.519 1.686-1.712 4.182.028 5.246l20.865 20.865c4.077.951 8.32 1.47 12.686 1.47 16.935 0 32.092-7.573 42.3-19.507z" fill="url(#SVGID_17_)"/><path d="m55.561 409.99c-15.106 0-26.585 11.479-26.585 26.585 0 7.969 2.644 15.14 8.082 20.139l46.042 46.041c16.84-9.569 28.208-27.656 28.208-48.409 0-.229-.015-.455-.017-.683l-35.591-35.591c-5-5.438-12.17-8.082-20.139-8.082z" fill="url(#SVGID_18_)"/><g><circle cx="55.561" cy="436.575" fill="url(#SVGID_19_)" r="27.351"/><path d="m89.997 482.627c1.898 2.136.544 5.52-2.302 5.764-8.155.699-18.952 1.122-30.798 1.122-13.112 0-24.939-.519-33.319-1.354-2.812-.28-4.161-3.64-2.27-5.74.014-.016.028-.032.043-.047 8.421-9.356 20.628-15.237 34.207-15.237 13.433 0 25.514 5.749 33.929 14.925.171.188.342.376.51.567z" fill="url(#SVGID_20_)"/></g></g><g><circle cx="190.318" cy="454.346" fill="url(#SVGID_21_)" r="55.654"/><path d="m232.617 490.493-9.374-9.374c-8.365-8.621-20.058-13.218-33.021-13.218-13.579 0-25.02 5.115-33.441 14.471-.014.016-.029.032-.043.047-1.519 1.686-1.712 4.182.028 5.246l20.865 20.865c4.077.951 8.32 1.47 12.686 1.47 16.936 0 32.093-7.573 42.3-19.507z" fill="url(#SVGID_22_)"/><path d="m190.225 409.99c-15.106 0-26.585 11.479-26.585 26.585 0 7.969 2.644 15.14 8.082 20.139l46.042 46.042c16.84-9.569 28.208-27.656 28.208-48.409 0-.229-.015-.455-.017-.683l-35.591-35.591c-4.999-5.439-12.17-8.083-20.139-8.083z" fill="url(#SVGID_23_)"/><g><circle cx="190.225" cy="436.575" fill="url(#SVGID_24_)" r="27.351"/><path d="m224.662 482.627c1.898 2.136.544 5.52-2.302 5.764-8.155.699-18.952 1.122-30.798 1.122-13.112 0-24.939-.519-33.319-1.354-2.812-.28-4.161-3.64-2.27-5.74.014-.016.028-.032.043-.047 8.421-9.356 20.628-15.237 34.207-15.237 13.434 0 25.514 5.749 33.929 14.925.171.188.341.376.51.567z" fill="url(#SVGID_25_)"/></g></g></g><g><g><circle cx="319.682" cy="454.346" fill="url(#SVGID_26_)" r="55.654"/><path d="m361.981 490.493-9.374-9.374c-8.365-8.621-20.058-13.218-33.021-13.218-13.579 0-25.02 5.115-33.441 14.471-.014.016-.029.032-.043.047-1.519 1.686-1.712 4.182.028 5.246l20.865 20.865c4.077.951 8.32 1.47 12.686 1.47 16.935 0 32.092-7.573 42.3-19.507z" fill="url(#SVGID_27_)"/><path d="m319.589 409.99c-15.106 0-26.585 11.479-26.585 26.585 0 7.969 2.644 15.14 8.082 20.139l46.042 46.042c16.84-9.569 28.208-27.656 28.208-48.409 0-.229-.015-.455-.017-.683l-35.591-35.591c-5-5.439-12.17-8.083-20.139-8.083z" fill="url(#SVGID_28_)"/><g><circle cx="319.589" cy="436.575" fill="url(#SVGID_29_)" r="27.351"/><path d="m354.025 482.627c1.898 2.136.544 5.52-2.302 5.764-8.155.699-18.952 1.122-30.798 1.122-13.112 0-24.939-.519-33.319-1.354-2.812-.28-4.161-3.64-2.27-5.74.014-.016.028-.032.043-.047 8.421-9.356 20.628-15.237 34.207-15.237 13.434 0 25.514 5.749 33.929 14.925.171.188.342.376.51.567z" fill="url(#SVGID_30_)"/></g></g><g><circle cx="454.346" cy="454.346" fill="url(#SVGID_31_)" r="55.654"/><path d="m496.645 490.493-9.374-9.374c-8.365-8.621-20.058-13.218-33.021-13.218-13.579 0-25.02 5.115-33.441 14.471-.014.016-.029.032-.043.047-1.519 1.686-1.712 4.182.028 5.246l20.865 20.865c4.077.951 8.32 1.47 12.686 1.47 16.936 0 32.093-7.573 42.3-19.507z" fill="url(#SVGID_32_)"/><path d="m454.253 409.99c-15.106 0-26.585 11.479-26.585 26.585 0 7.969 2.644 15.14 8.082 20.139l46.042 46.042c16.84-9.569 28.208-27.656 28.208-48.409 0-.229-.015-.455-.017-.683l-35.591-35.591c-4.999-5.439-12.17-8.083-20.139-8.083z" fill="url(#SVGID_33_)"/><g><circle cx="454.253" cy="436.575" fill="url(#SVGID_34_)" r="27.351"/><path d="m488.69 482.627c1.898 2.136.544 5.52-2.302 5.764-8.155.699-18.952 1.122-30.798 1.122-13.112 0-24.939-.519-33.319-1.354-2.812-.28-4.161-3.64-2.27-5.74.014-.016.029-.032.043-.047 8.421-9.356 20.628-15.237 34.207-15.237 13.434 0 25.514 5.749 33.928 14.925.172.188.342.376.511.567z" fill="url(#SVGID_35_)"/></g></g></g><path d="m354.348 142.665h-89.449v-14c0-5.522-4.477-10-10-10s-10 4.478-10 10v14h-89.246c-23.527 0-42.667 19.141-42.667 42.667 0 5.522 4.477 10 10 10s10-4.478 10-10c0-12.499 10.168-22.667 22.667-22.667h198.695c12.498 0 22.666 10.168 22.666 22.667 0 5.522 4.478 10 10 10s10-4.478 10-10c0-23.526-19.14-42.667-42.666-42.667z" fill="url(#SVGID_36_)"/><path d="m160.087 341.326h-27.155v-14c0-5.522-4.477-10-10-10s-10 4.478-10 10v14h-27.048c-23.526 0-42.667 19.141-42.667 42.667 0 5.522 4.477 10 10 10s10-4.478 10-10c0-12.499 10.168-22.667 22.667-22.667h74.203c12.499 0 22.667 10.168 22.667 22.667 0 5.522 4.477 10 10 10s10-4.478 10-10c0-23.526-19.14-42.667-42.667-42.667z" fill="url(#SVGID_37_)"/><path d="m424.115 341.326h-27.154v-14c0-5.522-4.478-10-10-10s-10 4.478-10 10v14h-27.049c-23.526 0-42.666 19.141-42.666 42.667 0 5.522 4.478 10 10 10s10-4.478 10-10c0-12.499 10.168-22.667 22.666-22.667h74.203c12.499 0 22.667 10.168 22.667 22.667 0 5.522 4.478 10 10 10s10-4.478 10-10c0-23.526-19.14-42.667-42.667-42.667z" fill="url(#SVGID_38_)"/></g></svg>