<svg id="Capa_1" enable-background="new 0 0 510 510" height="512" viewBox="0 0 510 510" width="512" xmlns="http://www.w3.org/2000/svg" xmlns:xlink="http://www.w3.org/1999/xlink"><linearGradient id="lg1"><stop offset="0" stop-color="#edf5ff"/><stop offset="1" stop-color="#d5e8fe"/></linearGradient><linearGradient id="SVGID_1_" gradientTransform="matrix(.707 .707 -.707 .707 251.506 -107.072)" gradientUnits="userSpaceOnUse" x1="180.15" x2="336.766" xlink:href="#lg1" y1="272.593" y2="272.593"/><linearGradient id="SVGID_2_" gradientTransform="matrix(.707 .707 -.707 .707 251.506 -107.072)" gradientUnits="userSpaceOnUse" x1="253.574" x2="311.103" y1="554.961" y2="612.49"><stop offset="0" stop-color="#cbd0e4"/><stop offset="1" stop-color="#6a7d83"/></linearGradient><linearGradient id="SVGID_3_" gradientTransform="matrix(.707 .707 -.707 .707 251.506 -107.072)" gradientUnits="userSpaceOnUse" x1="346.997" x2="204.232" xlink:href="#lg1" y1="181.335" y2="181.335"/><linearGradient id="lg2"><stop offset="0" stop-color="#9ae1d3"/><stop offset="1" stop-color="#80d1c1"/></linearGradient><linearGradient id="SVGID_4_" gradientTransform="matrix(.707 .707 -.707 .707 251.506 -107.072)" gradientUnits="userSpaceOnUse" x1="243.103" x2="308.612" xlink:href="#lg2" y1="181.335" y2="181.335"/><linearGradient id="SVGID_5_" gradientTransform="matrix(.707 .707 -.707 .707 251.506 -107.072)" gradientUnits="userSpaceOnUse" x1="235.2" x2="306.996" y1="228.579" y2="228.579"><stop offset="0" stop-color="#8a7889"/><stop offset="1" stop-color="#6e566e"/></linearGradient><linearGradient id="lg3"><stop offset="0" stop-color="#ffda2d"/><stop offset="1" stop-color="#fdbf00"/></linearGradient><linearGradient id="SVGID_6_" gradientTransform="matrix(.707 -.707 .707 .707 65.455 1060.466)" gradientUnits="userSpaceOnUse" x1="683.879" x2="683.879" xlink:href="#lg3" y1="-449.484" y2="-404.62"/><linearGradient id="SVGID_7_" gradientTransform="matrix(.707 -.707 .707 .707 65.455 1060.466)" gradientUnits="userSpaceOnUse" x1="713.925" x2="713.925" xlink:href="#lg3" y1="-449.484" y2="-404.62"/><linearGradient id="SVGID_8_" gradientTransform="matrix(.707 -.707 .707 .707 65.455 1060.466)" gradientUnits="userSpaceOnUse" x1="730.705" x2="730.705" xlink:href="#lg3" y1="-449.484" y2="-404.62"/><linearGradient id="SVGID_9_" gradientTransform="matrix(.707 -.707 .707 .707 65.455 1060.466)" gradientUnits="userSpaceOnUse" x1="752.87" x2="752.87" xlink:href="#lg3" y1="-449.484" y2="-404.62"/><linearGradient id="SVGID_10_" gradientTransform="matrix(.707 -.707 .707 .707 65.455 1060.466)" gradientUnits="userSpaceOnUse" x1="779.03" x2="779.03" xlink:href="#lg3" y1="-449.484" y2="-404.62"/><linearGradient id="lg4"><stop offset="0" stop-color="#07485e" stop-opacity="0"/><stop offset=".2708" stop-color="#074459" stop-opacity=".271"/><stop offset=".597" stop-color="#05394a" stop-opacity=".597"/><stop offset=".9505" stop-color="#032632" stop-opacity=".951"/><stop offset="1" stop-color="#03232e"/></linearGradient><linearGradient id="SVGID_11_" gradientTransform="matrix(.707 .707 -.707 .707 251.506 -107.072)" gradientUnits="userSpaceOnUse" x1="300.647" x2="57.647" xlink:href="#lg4" y1="269.888" y2="285.823"/><linearGradient id="SVGID_12_" gradientTransform="matrix(.707 .707 -.707 .707 251.506 -107.072)" gradientUnits="userSpaceOnUse" x1="270.343" x2="141.982" xlink:href="#lg4" y1="39.106" y2="-23.746"/><linearGradient id="SVGID_13_" gradientTransform="matrix(.707 .707 -.707 .707 251.506 -107.072)" gradientUnits="userSpaceOnUse" x1="247.791" x2="261.733" xlink:href="#lg2" y1="-28.253" y2="8.263"/><g><path d="m494.636 59.491-44.128-44.128c-20.483-20.483-53.691-20.483-74.174 0l-207.673 207.675c-20.429 20.429-34.563 46.295-40.723 74.522-6.159 28.227-20.293 54.092-40.723 74.522l-76.714 76.714c-14.001 14.001-14.001 36.702 0 50.703 14.001 14.001 36.702 14.001 50.703 0l76.714-76.714c20.429-20.429 46.295-34.563 74.522-40.723 28.227-6.159 54.092-20.293 74.522-40.723l207.674-207.674c20.483-20.482 20.483-53.691 0-74.174z" fill="url(#SVGID_1_)"/><path d="m51.924 458.076c-8.685-8.685-17.333-16.995-25.842-24.861l-15.582 15.582c-14.001 14.001-14.001 36.702 0 50.703s36.702 14.001 50.703 0l15.582-15.582c-7.866-8.51-16.175-17.157-24.861-25.842z" fill="url(#SVGID_2_)"/><path d="m227.407 338.103-55.51-55.51c-6.97-6.97-6.97-18.269 0-25.239l187.589-187.589c6.97-6.97 18.269-6.97 25.239 0l55.51 55.51c6.97 6.97 6.97 18.269 0 25.239l-187.589 187.589c-6.969 6.97-18.269 6.97-25.239 0z" fill="url(#SVGID_3_)"/><path d="m228.774 318.016-36.79-36.79c-5.547-5.547-5.547-14.539 0-20.086l171.288-171.288c5.547-5.547 14.539-5.547 20.086 0l36.79 36.79c5.547 5.547 5.547 14.539 0 20.086l-171.288 171.288c-5.547 5.547-14.54 5.547-20.086 0z" fill="url(#SVGID_4_)"/><path d="m227.989 306.448-24.438-24.438c-4.66-4.66-4.66-12.216 0-16.876l96.901-96.901c4.66-4.66 12.216-4.66 16.876 0l24.438 24.438c4.66 4.66 4.66 12.216 0 16.876l-96.901 96.901c-4.66 4.66-12.216 4.66-16.876 0z" fill="url(#SVGID_5_)"/><g><path d="m250.935 271.619-.762-.762c-2.686-2.686-4.85-1.563-7.055.641-1.363 1.363-3.006.601-4.209-.601-1.203-1.203-1.964-2.846-.601-4.209 1.523-1.523 2.926-3.327-.321-6.574-2.325-2.325-4.209-1.563-5.852.08-1.964 1.964-2.485 3.448-.922 5.011 1.363 1.363 1.684 2.886-.641 5.211-2.886 2.886-3.848 2.645-5.772.721-3.127-3.127-4.93-9.42 1.964-16.315 5.091-5.091 10.783-7.095 16.194-1.684 2.926 2.926 4.57 6.734 3.487 9.66 3.247-1.483 6.734-1.443 9.981 1.804l.762.762c6.574 6.574 4.529 13.589-1.082 19.201-6.895 6.895-13.749 5.331-17.116 1.964-1.804-1.804-1.523-3.047.682-5.251 2.565-2.565 3.768-2.645 5.291-1.122 1.884 1.884 4.089.561 5.893-1.243 2.724-2.724 2.684-4.688.079-7.294z" fill="url(#SVGID_6_)"/><path d="m264.885 230.572c1.042 1.042 1.964 3.247 2.525 5.091l8.578 27.338c.281.922-.08 1.764-.922 2.606-1.964 1.964-5.331 2.606-7.135.802-.361-.361-.601-.762-.761-1.323l-7.215-26.937-2.806-2.806-7.175 7.175 2.686 2.686c1.082 1.082.401 3.447-1.243 5.091-1.684 1.684-3.928 2.245-5.011 1.162l-6.213-6.213c-.962-.962-.561-3.287.802-4.65l14.23-14.23c1.203-1.203 3.688-1.764 4.65-.802z" fill="url(#SVGID_7_)"/><path d="m289.497 245.002c1.644 1.644 1.684 4.49.04 6.133-1.764 1.764-4.53 1.644-6.173 0-1.684-1.683-1.764-4.409 0-6.173 1.644-1.644 4.45-1.644 6.133.04z" fill="url(#SVGID_8_)"/><path d="m285.89 235.863-10.623-10.623c-6.895-6.895-5.171-13.749.361-19.281s12.426-7.296 19.321-.401l10.623 10.623c6.895 6.895 5.131 13.789-.401 19.321s-12.387 7.256-19.281.361zm2.805-24.051c-2.766-2.766-5.371-2.646-7.616-.401s-2.325 4.81.441 7.576l10.623 10.623c2.766 2.766 5.331 2.686 7.576.441s2.365-4.85-.401-7.616z" fill="url(#SVGID_9_)"/><path d="m296.205 189.479c-1.332 1.332-1.355 2.851.234 4.44l6.193 6.193c1.589 1.589 3.108 1.566 4.464.21 1.87-1.87.561-3.412-.281-4.393-.794-.935-.234-1.963.701-2.898 1.262-1.262 2.173-1.519 3.576-.117 3.108 3.108 2.36 7.408-.982 10.75-3.061 3.061-7.104 4.113-11.124.094l-6.193-6.193c-4.02-4.02-2.968-8.063.094-11.124 3.342-3.342 7.548-4.183 10.516-1.215 1.402 1.402 1.145 2.314-.094 3.552-.982.982-2.033 1.519-2.921.725-.631-.585-2.196-2.011-4.183-.024z" fill="url(#SVGID_10_)"/></g><path d="m11.08 500.05c14.041 13.438 36.312 13.261 50.124-.551l76.714-76.714c20.429-20.429 46.295-34.563 74.522-40.723 28.227-6.159 54.092-20.294 74.522-40.723l207.674-207.674c20.483-20.482 20.483-53.691 0-74.174l-21.499-21.499z" fill="url(#SVGID_11_)"/><path d="m494.636 59.491-21.499-21.499-138.964 138.965 58.586 58.586 101.877-101.877c20.483-20.483 20.483-53.692 0-74.175z" fill="url(#SVGID_12_)"/><path d="m494.638 133.67-8.948 8.948c-36.929-41.905-76.402-81.379-118.307-118.307l8.948-8.948c20.488-20.488 53.698-20.478 74.177 0l44.13 44.13c20.478 20.478 20.487 53.689 0 74.177z" fill="url(#SVGID_13_)"/></g></svg>