<svg id="Capa_1" enable-background="new 0 0 510 510" height="512" viewBox="0 0 510 510" width="512" xmlns="http://www.w3.org/2000/svg" xmlns:xlink="http://www.w3.org/1999/xlink"><linearGradient id="lg1"><stop offset="0" stop-color="#fce9cb"/><stop offset="1" stop-color="#ffbd95"/></linearGradient><linearGradient id="SVGID_1_" gradientTransform="matrix(.707 .707 -.707 .707 -1483.62 -1256.466)" gradientUnits="userSpaceOnUse" x1="2197.998" x2="2400.329" xlink:href="#lg1" y1="-308.873" y2="-72.638"/><linearGradient id="lg2"><stop offset="0" stop-color="#faa68e" stop-opacity="0"/><stop offset="1" stop-color="#c9766e"/></linearGradient><linearGradient id="SVGID_2_" gradientTransform="matrix(.707 .707 -.707 .707 -1483.62 -1256.466)" gradientUnits="userSpaceOnUse" x1="2319.418" x2="2319.418" xlink:href="#lg2" y1="-164.767" y2="-417.26"/><linearGradient id="SVGID_3_" gradientTransform="matrix(.707 .707 -.707 .707 -1483.62 -1256.466)" gradientUnits="userSpaceOnUse" x1="2347.866" x2="2409.138" xlink:href="#lg2" y1="-128.035" y2="-264.311"/><linearGradient id="SVGID_4_" gradientTransform="matrix(.707 .707 -.707 .707 -2108.343 -2803.137)" gradientUnits="userSpaceOnUse" x1="3837.602" x2="3938.645" xlink:href="#lg2" y1="391.426" y2="347.167"/><linearGradient id="SVGID_5_" gradientTransform="matrix(.707 .707 -.707 .707 -2108.343 -2803.137)" gradientUnits="userSpaceOnUse" x1="3773.38" x2="3861.162" xlink:href="#lg2" y1="407.04" y2="372.976"/><linearGradient id="SVGID_6_" gradientTransform="matrix(.707 .707 -.707 .707 -2108.343 -2803.137)" gradientUnits="userSpaceOnUse" x1="3910.416" x2="4013.776" xlink:href="#lg2" y1="405.189" y2="364.797"/><linearGradient id="SVGID_7_" gradientTransform="matrix(.707 .707 -.707 .707 -2108.343 -2803.137)" gradientUnits="userSpaceOnUse" x1="3970.239" x2="4062.395" xlink:href="#lg2" y1="428.914" y2="403.78"/><linearGradient id="SVGID_8_" gradientTransform="matrix(.707 .707 -.707 .707 554.218 -836.598)" gradientUnits="userSpaceOnUse" x1="420.681" x2="558.109" xlink:href="#lg1" y1="1048.652" y2="1114.258"/><linearGradient id="SVGID_9_" gradientUnits="userSpaceOnUse" x1="163.756" x2="383.756" xlink:href="#lg2" y1="242.219" y2="286.219"/><linearGradient id="lg3"><stop offset="0" stop-color="#9ae1d3"/><stop offset="1" stop-color="#80d1c1"/></linearGradient><linearGradient id="SVGID_10_" gradientTransform="matrix(-.707 .707 -.707 -.707 2492.397 -193.771)" gradientUnits="userSpaceOnUse" x1="1863.904" x2="1919.408" xlink:href="#lg3" y1="978.523" y2="1055.22"/><linearGradient id="SVGID_11_" gradientTransform="matrix(-.707 .707 -.707 -.707 2492.397 -193.771)" gradientUnits="userSpaceOnUse" x1="1845.801" x2="1901.306" xlink:href="#lg3" y1="991.623" y2="1068.32"/><linearGradient id="SVGID_12_" gradientTransform="matrix(.707 -.707 .707 .707 482.963 1041.13)" gradientUnits="userSpaceOnUse" x1="368.061" x2="409.682" xlink:href="#lg3" y1="-1021.909" y2="-964.397"/><linearGradient id="SVGID_13_" gradientTransform="matrix(.707 -.707 .707 .707 482.963 1041.13)" gradientUnits="userSpaceOnUse" x1="354.487" x2="396.107" xlink:href="#lg3" y1="-1012.085" y2="-954.574"/><g><g><g><g><path d="m488.269 200.133c-13.654-13.654-35.792-13.654-49.446 0l28.211-28.211c13.654-13.654 13.654-35.792 0-49.446-13.654-13.654-35.792-13.654-49.446 0l20.596-20.596c13.654-13.654 13.654-35.792 0-49.446s-35.792-13.654-49.446 0l-24.723 24.723c13.654-13.654 13.654-35.792 0-49.446s-35.792-13.654-49.446 0l-211.025 211.027c-12.088 12.088-18.879 28.483-18.879 45.578s-6.791 33.49-18.879 45.578l-7.584 7.584c-16.203 16.203-16.203 42.473 0 58.676l87.684 87.684c16.203 16.203 42.473 16.203 58.677 0 15.249-15.249 34.475-25.909 55.487-30.765 21.012-4.856 40.238-15.515 55.487-30.765l172.731-172.731c13.655-13.652 13.655-35.79.001-49.444z" fill="url(#SVGID_1_)"/><g><path d="m362.834 309.537c14.123 24.463 10.128 55.349-9.846 75.322l-37.449 37.449c-7.627 7.627-16.24 14.103-25.584 19.28-.433.239-.867.478-1.307.71-8.964 4.826-18.57 8.456-28.595 10.772-10.503 2.435-20.565 6.312-29.91 11.489-9.333 5.167-17.949 11.646-25.573 19.268-16.209 16.204-42.474 16.218-58.68.012l-87.689-87.689c-16.201-16.202-16.201-42.469 0-58.67l7.582-7.582c6.043-6.043 10.764-13.169 13.984-20.916 3.205-7.746 4.9-16.12 4.9-24.666 0-13.281 4.093-26.13 11.593-36.871 2.151-3.092 4.587-6.006 7.283-8.702l48.042-48.042c18.788-18.788 47.458-23.666 71.319-11.976 31.639 15.5 61.296 36.403 87.6 62.708 20.834 20.833 38.276 43.76 52.33 68.104z" fill="url(#SVGID_2_)"/></g><path d="m328.298 344.073c-14.054-24.344-31.496-47.271-52.33-68.105-26.304-26.304-55.961-47.208-87.6-62.708-23.861-11.689-52.531-6.812-71.318 11.976l-13.506 13.506c-2.697 2.697-5.132 5.61-7.283 8.702-7.5 10.742-11.593 23.59-11.593 36.871 0 8.546-1.696 16.919-4.9 24.666-3.22 7.746-7.941 14.873-13.984 20.916l-7.582 7.582c-16.202 16.202-16.202 42.469-.001 58.67l87.689 87.689c16.206 16.206 42.472 16.192 58.68-.012 7.624-7.622 16.24-14.102 25.573-19.268 9.345-5.177 19.407-9.053 29.91-11.489 10.025-2.316 19.631-5.946 28.595-10.772.441-.232.874-.471 1.307-.71 9.345-5.177 17.958-11.653 25.584-19.28l2.913-2.913c19.974-19.973 23.968-50.858 9.846-75.321z" fill="url(#SVGID_3_)"/><path d="m215.957 324.108-49.446-49.446 222.227-222.227c13.654-13.654 35.792-13.654 49.446 0 13.654 13.654 13.654 35.792 0 49.446z" fill="url(#SVGID_4_)"/><path d="m166.511 274.662-49.446-49.446 197.505-197.504c13.654-13.654 35.792-13.654 49.446 0 13.654 13.654 13.654 35.792 0 49.446z" fill="url(#SVGID_5_)"/><path d="m265.403 373.553-49.446-49.446 201.631-201.631c13.654-13.654 35.792-13.654 49.446 0 13.654 13.654 13.654 35.792 0 49.446z" fill="url(#SVGID_6_)"/><path d="m314.848 422.999-49.446-49.446 173.42-173.42c13.654-13.654 35.792-13.654 49.446 0 13.654 13.654 13.654 35.792 0 49.446z" fill="url(#SVGID_7_)"/></g></g><path d="m201.657 227.351c-10.826-10.826-23.791-18.21-37.54-22.128v-59.976c-5.845-25.52-25.337-45.7-50.637-52.439l-12.254-3.26c-8.314-2.22-16.474 4.051-16.474 12.65l-.022 119.535-.007 58.87c0 .337.007.667.015.996-.044.894-.066 1.809-.066 2.717-.007 17.089-6.797 33.489-18.883 45.575l-1.611 1.611c3.809 6.798 8.607 13.178 14.379 18.95 33.995 33.995 89.107 33.995 123.102 0s33.993-89.107-.002-123.101z" fill="url(#SVGID_8_)"/><path d="m201.657 227.351c-10.826-10.826-23.791-18.21-37.54-22.128v-59.976c-5.845-25.52-25.337-45.7-50.637-52.439l-12.254-3.26c-8.314-2.22-16.474 4.051-16.474 12.65l-.022 119.535-.007 58.87c0 .337.007.667.015.996-.044.894-.066 1.809-.066 2.717-.007 17.089-6.797 33.489-18.883 45.575l-1.611 1.611c3.809 6.798 8.607 13.178 14.379 18.95 33.995 33.995 89.107 33.995 123.102 0s33.993-89.107-.002-123.101z" fill="url(#SVGID_9_)"/></g><g><path d="m340.331 481.285c3.017-3.017 7.174-4.894 11.778-4.926 33.09-.227 64.202-13.241 87.606-36.645s36.418-54.516 36.645-87.606c.064-9.289 7.647-16.768 16.936-16.704s16.768 7.646 16.704 16.936c-.289 41.988-16.802 81.467-46.497 111.162-29.697 29.696-69.174 46.209-111.163 46.498-9.29.064-16.871-7.415-16.936-16.704-.031-4.687 1.856-8.939 4.927-12.011z" fill="url(#SVGID_10_)"/><path d="m427.383 340.331c3.088-3.088 7.367-4.978 12.078-4.926 9.289.101 16.737 7.714 16.636 17.003-.302 27.563-11.206 53.482-30.706 72.982s-45.419 30.405-72.982 30.706c-9.289.101-16.902-7.347-17.003-16.635-.101-9.29 7.347-16.902 16.635-17.003 18.717-.204 36.318-7.611 49.563-20.855 13.244-13.244 20.651-30.846 20.855-49.563.049-4.577 1.924-8.708 4.924-11.709z" fill="url(#SVGID_11_)"/></g><g><path d="m127.227 21.532c-2.262 2.262-5.38 3.67-8.832 3.694-24.813.17-48.142 9.929-65.692 27.478-17.549 17.549-27.308 40.879-27.479 65.692-.048 6.965-5.734 12.573-12.699 12.526-6.965-.049-12.572-5.734-12.525-12.7.216-31.485 12.599-61.088 34.866-83.356 22.268-22.267 51.871-34.649 83.356-34.866 6.966-.048 12.651 5.56 12.699 12.526.024 3.514-1.391 6.703-3.694 9.006z" fill="url(#SVGID_12_)"/><path d="m61.951 127.227c-2.315 2.315-5.524 3.733-9.057 3.694-6.966-.076-12.55-5.784-12.474-12.75.226-20.668 8.403-40.104 23.025-54.726s34.058-22.8 54.726-23.025c6.966-.076 12.674 5.509 12.75 12.474.076 6.966-5.509 12.674-12.474 12.75-14.035.153-27.233 5.707-37.165 15.638-9.931 9.931-15.485 23.13-15.638 37.165-.038 3.432-1.443 6.53-3.693 8.78z" fill="url(#SVGID_13_)"/></g></g></svg>