<svg id="Capa_1" enable-background="new 0 0 510 510" height="512" viewBox="0 0 510 510" width="512" xmlns="http://www.w3.org/2000/svg" xmlns:xlink="http://www.w3.org/1999/xlink"><linearGradient id="lg1"><stop offset="0" stop-color="#fce9cb"/><stop offset="1" stop-color="#ffbd95"/></linearGradient><linearGradient id="SVGID_1_" gradientUnits="userSpaceOnUse" x1="487.995" x2="456.249" xlink:href="#lg1" y1="176.667" y2="171.601"/><linearGradient id="SVGID_2_" gradientUnits="userSpaceOnUse" x1="416.249" x2="416.249" xlink:href="#lg1" y1="95.56" y2="221.05"/><linearGradient id="lg2"><stop offset="0" stop-color="#edf5ff"/><stop offset="1" stop-color="#b5dbff"/></linearGradient><linearGradient id="SVGID_3_" gradientTransform="matrix(.707 .707 -.707 .707 280.971 -78.528)" gradientUnits="userSpaceOnUse" x1="241.869" x2="241.869" xlink:href="#lg2" y1="129.842" y2="154.168"/><linearGradient id="SVGID_4_" gradientUnits="userSpaceOnUse" x1="350.154" x2="350.154" y1="213.957" y2="436.435"><stop offset="0" stop-color="#8a7889"/><stop offset="1" stop-color="#6e566e"/></linearGradient><linearGradient id="lg3"><stop offset="0" stop-color="#6e566e" stop-opacity="0"/><stop offset=".2944" stop-color="#674d66" stop-opacity=".294"/><stop offset="1" stop-color="#593b56"/></linearGradient><linearGradient id="SVGID_5_" gradientUnits="userSpaceOnUse" x1="351.578" x2="242.829" xlink:href="#lg3" y1="312.194" y2="291.93"/><linearGradient id="SVGID_6_" gradientUnits="userSpaceOnUse" x1="129.125" x2="187.551" xlink:href="#lg1" y1="93.39" y2="58.604"/><linearGradient id="SVGID_7_" gradientUnits="userSpaceOnUse" x1="173.543" x2="260.451" xlink:href="#lg1" y1="46.748" y2="133.656"/><linearGradient id="SVGID_8_" gradientUnits="userSpaceOnUse" x1="214.8" x2="214.8" xlink:href="#lg2" y1="153.208" y2="177.534"/><linearGradient id="SVGID_9_" gradientUnits="userSpaceOnUse" x1="149.831" x2="244.395" y1="264.449" y2="338.749"><stop offset="0" stop-color="#9ae1d3"/><stop offset="1" stop-color="#80d1c1"/></linearGradient><linearGradient id="SVGID_10_" gradientUnits="userSpaceOnUse" x1="88.395" x2="154.251" y1="306.823" y2="236.913"><stop offset="0" stop-color="#0b799d" stop-opacity="0"/><stop offset=".1739" stop-color="#117d9e" stop-opacity=".174"/><stop offset=".414" stop-color="#2389a0" stop-opacity=".414"/><stop offset=".6928" stop-color="#409ca3" stop-opacity=".693"/><stop offset=".9986" stop-color="#69b7a8" stop-opacity=".999"/><stop offset="1" stop-color="#69b7a8"/></linearGradient><linearGradient id="SVGID_11_" gradientUnits="userSpaceOnUse" x1="396.753" x2="376.489" xlink:href="#lg3" y1="349.18" y2="254.954"/><linearGradient id="lg4"><stop offset="0" stop-color="#ff637b"/><stop offset="1" stop-color="#e63950"/></linearGradient><linearGradient id="SVGID_12_" gradientTransform="matrix(1 .005 .005 -1 -1939.277 1876.173)" gradientUnits="userSpaceOnUse" x1="2184.725" x2="2200.343" xlink:href="#lg4" y1="1407.44" y2="1407.44"/><linearGradient id="SVGID_13_" gradientTransform="matrix(.613 -.791 -.791 -.613 -3367.983 3027.692)" gradientUnits="userSpaceOnUse" x1="4276.887" x2="4292.505" xlink:href="#lg4" y1="-1325.564" y2="-1325.564"/><linearGradient id="SVGID_14_" gradientTransform="matrix(-.605 -.796 .796 -.605 403.919 3045.264)" gradientUnits="userSpaceOnUse" x1="2176.543" x2="2192.161" xlink:href="#lg4" y1="1411.474" y2="1411.474"/><g><g><g><path d="m430.82 204.82 64.243-64.301-1.485 36.009c-.585 14.187-12.561 26.173-26.748 26.772z" fill="url(#SVGID_1_)"/><path d="m426.719 45.032c1.162 1.162 2.066 2.509 2.765 3.945 3.084 6.335 9.502 10.082 16.742 10.396 4.164.181 8.171 1.787 11.235 4.851 1.28 1.28 2.101 2.929 2.59 4.765 1.949 7.319 7.898 12.633 15.367 14.095 3.188.624 6.175 2.131 8.581 4.537 2.681 2.681 4.246 6.084 4.717 9.682.971 7.423 5.355 13.793 12.216 16.461 1.569.61 3.009 1.471 4.199 2.66 6.895 6.895 6.408 18.56-1.087 26.055l-53.28 53.28c-6.635 6.635-15.424 10.574-24.432 10.95-9.008.376-17.797 4.315-24.432 10.95l-5.497 5.497-73.905-73.905 1.334-1.334c8.371-8.371 14.41-18.736 17.431-29.915 3.021-11.179 9.06-21.544 17.431-29.915l41.97-41.97c7.495-7.492 19.16-7.979 26.055-1.085z" fill="url(#SVGID_2_)"/></g><path d="m381.201 250.701-87.405-87.405 18.985-18.985c6.924-6.924 18.151-6.924 25.075 0l62.33 62.33c6.924 6.924 6.924 18.151 0 25.075z" fill="url(#SVGID_3_)"/><path d="m499.686 281.807c7.352 23.285 7.352 48.27 0 71.555-4.353 13.787-15.096 24.622-28.844 29.093l-133.446 43.397c-20.497 6.666-42.603 6.497-62.996-.48l-46.041-14.962c-20.455-6.647-34.016-26.061-33.217-47.554 2.824-75.961 34.263-148.045 88.013-201.795 7.519-7.519 19.711-7.519 27.23 0l81.422 81.422c6.116 6.116 6.115 16.031-.001 22.146l-34.721 34.713 113.546-33.063c12.295-3.581 25.199 3.316 29.055 15.528z" fill="url(#SVGID_4_)"/><path d="m483.84 375.684-87.712-87.712-39.044 11.369 25.209-25.204-96.42-96.42c-2.77-3.622-6.433-6.525-10.658-8.382-48.891 52.761-77.392 121.386-80.074 193.519-.799 21.493 12.762 40.907 33.217 47.554l46.041 14.962c20.393 6.977 42.499 7.145 62.996.48l133.446-43.397c4.741-1.54 9.112-3.853 12.999-6.769z" fill="url(#SVGID_5_)"/><g><g><path d="m149.83 126.498.041-90.895-24.412 26.512c-9.618 10.445-9.626 27.389-.017 37.844z" fill="url(#SVGID_6_)"/><path d="m265.716 16.411c-1.644 0-3.235.313-4.745.835-6.66 2.299-13.848.41-19.19-4.487-3.072-2.816-7.041-4.514-11.375-4.514-1.81 0-3.557.585-5.201 1.538-6.553 3.797-14.517 3.348-20.833-.899-2.696-1.813-5.873-2.859-9.276-2.859-3.792 0-7.305 1.3-10.182 3.511-5.935 4.562-13.54 5.966-20.278 3.001-1.541-.678-3.168-1.088-4.85-1.088-9.75 0-17.655 8.593-17.655 19.192v75.349c0 9.384 3.429 18.384 9.533 25.019 6.104 6.636 9.533 15.635 9.533 25.019v7.774h104.517v-1.887c0-11.838 3.059-23.438 8.827-33.479 5.769-10.041 8.827-21.641 8.827-33.479v-59.354c.003-10.6-7.901-19.192-17.652-19.192z" fill="url(#SVGID_7_)"/></g><path d="m276.604 185.292h-123.609v-26.849c0-9.792 7.938-17.731 17.731-17.731h88.148c9.792 0 17.731 7.938 17.731 17.731v26.849z" fill="url(#SVGID_8_)"/><path d="m7.766 221.56c-9.97 34.667-10.348 71.39-1.092 106.255 5.445 20.511 19.456 37.685 38.455 47.138l94.577 47.059c24.756 12.318 53.372 14.37 79.633 5.712 43.03-14.188 72.101-54.384 72.101-99.692v-133.863c0-14.973-12.138-27.112-27.112-27.112h-94.318c-14.973 0-27.112 12.138-27.112 27.112v62.82l-103.29-49.693c-12.741-6.13-27.934.676-31.842 14.264z" fill="url(#SVGID_9_)"/><path d="m7.766 221.56c-9.97 34.667-10.348 71.39-1.092 106.255 5.445 20.51 19.456 37.685 38.455 47.138l94.577 47.059c1.056.526 2.122 1.026 3.192 1.514v-166.537l-103.29-49.693c-12.741-6.13-27.934.676-31.842 14.264z" fill="url(#SVGID_10_)"/></g><path d="m499.686 281.807c-3.075-12.298-15.549-19.461-27.72-15.917l-114.881 33.452-57.352 57.352c-26.792 26.792-6.206 73.012 31.581 70.232 2.323-.171 4.373-.519 6.081-1.074l133.446-43.397c13.749-4.471 24.492-15.307 28.844-29.093 7.352-23.286 7.352-48.27.001-71.555z" fill="url(#SVGID_11_)"/></g><g><g><path d="m255.042 453.904c-7.771-.036-14.101 6.234-14.137 14.006l-.102 21.93c-.036 7.771 6.234 14.101 14.006 14.137 7.771.036 14.101-6.234 14.137-14.006l.102-21.93c.036-7.772-6.235-14.101-14.006-14.137z" fill="url(#SVGID_12_)"/></g><g><path d="m281.364 441.076c-4.76 6.143-3.638 14.982 2.505 19.742l17.336 13.432c6.143 4.76 14.982 3.638 19.742-2.505 4.76-6.143 3.638-14.982-2.505-19.742l-17.336-13.432c-6.143-4.76-14.982-3.639-19.742 2.505z" fill="url(#SVGID_13_)"/></g><g><path d="m228.84 440.831c4.702 6.187 3.499 15.015-2.689 19.718l-17.46 13.27c-6.187 4.702-15.015 3.499-19.718-2.689-4.702-6.187-3.499-15.015 2.689-19.718l17.46-13.27c6.188-4.702 15.015-3.498 19.718 2.689z" fill="url(#SVGID_14_)"/></g></g></g></svg>