<svg id="Capa_1" enable-background="new 0 0 510 510" height="512" viewBox="0 0 510 510" width="512" xmlns="http://www.w3.org/2000/svg" xmlns:xlink="http://www.w3.org/1999/xlink"><linearGradient id="SVGID_1_" gradientTransform="matrix(.707 -.707 .707 .707 -605.85 61.349)" gradientUnits="userSpaceOnUse" x1="374.76" x2="374.76" y1="728.974" y2="678.252"><stop offset="0" stop-color="#edf5ff"/><stop offset="1" stop-color="#b5dbff"/></linearGradient><linearGradient id="lg1"><stop offset="0" stop-color="#8a7889"/><stop offset="1" stop-color="#6e566e"/></linearGradient><linearGradient id="SVGID_2_" gradientUnits="userSpaceOnUse" x1="95.69" x2="95.69" xlink:href="#lg1" y1="102.654" y2="297.03"/><linearGradient id="SVGID_3_" gradientTransform="matrix(.707 -.707 .707 .707 -605.85 61.349)" gradientUnits="userSpaceOnUse" x1="429.493" x2="429.493" xlink:href="#lg1" y1="715.309" y2="791.218"/><linearGradient id="SVGID_4_" gradientTransform="matrix(.707 -.707 .707 .707 -605.85 61.349)" gradientUnits="userSpaceOnUse" x1="429.493" x2="429.493" y1="786.246" y2="733.738"><stop offset="0" stop-color="#6e566e" stop-opacity="0"/><stop offset=".2944" stop-color="#674d66" stop-opacity=".294"/><stop offset="1" stop-color="#593b56"/></linearGradient><linearGradient id="SVGID_5_" gradientTransform="matrix(.707 .707 -.707 .707 617.769 73.201)" gradientUnits="userSpaceOnUse" x1="-96.665" x2="-9.665" y1="261.357" y2="325.603"><stop offset="0" stop-color="#fce9cb"/><stop offset="1" stop-color="#ffbd95"/></linearGradient><linearGradient id="lg2"><stop offset="0" stop-color="#ff637b"/><stop offset="1" stop-color="#e63950"/></linearGradient><linearGradient id="SVGID_6_" gradientTransform="matrix(.707 .707 -.707 .707 617.769 73.201)" gradientUnits="userSpaceOnUse" x1="25.75" x2="75.612" xlink:href="#lg2" y1="405.366" y2="405.366"/><linearGradient id="SVGID_7_" gradientTransform="matrix(.707 .707 -.707 .707 617.769 73.201)" gradientUnits="userSpaceOnUse" x1="-109.913" x2="-85.814" xlink:href="#lg2" y1="437.008" y2="484.681"/><linearGradient id="SVGID_8_" gradientTransform="matrix(.707 .707 -.707 .707 617.769 73.201)" gradientUnits="userSpaceOnUse" x1="79.982" x2="13.568" y1="378.188" y2="311.773"><stop offset="0" stop-color="#e63950" stop-opacity="0"/><stop offset=".0467" stop-color="#e4354b" stop-opacity=".047"/><stop offset=".4669" stop-color="#d31822" stop-opacity=".467"/><stop offset=".7991" stop-color="#c90709" stop-opacity=".799"/><stop offset="1" stop-color="#c50000"/></linearGradient><linearGradient id="SVGID_9_" gradientTransform="matrix(.707 .707 -.707 .707 617.769 73.201)" gradientUnits="userSpaceOnUse" x1="-44.614" x2="-24.183" xlink:href="#lg2" y1="377.216" y2="412.317"/><linearGradient id="lg3"><stop offset="0" stop-color="#9ae1d3"/><stop offset="1" stop-color="#80d1c1"/></linearGradient><linearGradient id="SVGID_10_" gradientTransform="matrix(.921 .391 -.391 .921 240.046 133.861)" gradientUnits="userSpaceOnUse" x1="59.341" x2="89.827" xlink:href="#lg3" y1="-88.821" y2="-46.695"/><linearGradient id="SVGID_11_" gradientTransform="matrix(.921 .391 -.391 .921 240.046 133.861)" gradientUnits="userSpaceOnUse" x1="53.693" x2="79.588" xlink:href="#lg3" y1="-60.28" y2="-24.497"/><linearGradient id="SVGID_12_" gradientTransform="matrix(.977 .216 -.216 .977 190.192 122.741)" gradientUnits="userSpaceOnUse" x1="-123.069" x2="-62.026" xlink:href="#lg3" y1="219.437" y2="303.788"/><linearGradient id="SVGID_13_" gradientTransform="matrix(.977 .216 -.216 .977 190.192 122.741)" gradientUnits="userSpaceOnUse" x1="-75.441" x2="-42.545" xlink:href="#lg3" y1="226.647" y2="272.104"/><g><g><g><path d="m217.503 284.945-69.766 69.766c-8.553 8.553-22.419 8.553-30.972 0l-26.214-26.214c-8.553-8.553-8.553-22.419 0-30.972l69.766-69.766c8.553-8.553 22.419-8.553 30.972 0l26.214 26.214c8.553 8.553 8.553 22.42 0 30.972z" fill="url(#SVGID_1_)"/><path d="m184.933 235.95-86.188 86.197c-8.595 8.586-22.524 8.586-31.119 0l-29.596-29.595c-24.35-24.35-38.03-57.376-38.03-91.812v-113.581c0-24.821 30.009-37.251 47.56-19.7l137.372 137.372c8.596 8.595 8.596 22.524.001 31.119z" fill="url(#SVGID_2_)"/><g><path d="m248.554 199.993-66.959 79.348c-11.591 13.736-24.91 25.915-39.624 36.234l-27.452 16.14c-11.897 6.995-13.983 23.341-4.224 33.1l43.991 43.991c3.756 3.756 9.846 3.756 13.602 0l30.254-30.254c3.756-3.756 3.756-9.846 0-13.602-3.756-3.756-3.756-9.846 0-13.602l14.221-14.221c3.756-3.756 9.846-3.756 13.602 0 3.756 3.756 9.846 3.756 13.602 0l105.727-105.727c5.805-5.805 5.805-15.217 0-21.022l-14.703-14.703c-23.204-23.201-61.397-21.192-82.037 4.318z" fill="url(#SVGID_3_)"/><path d="m154.285 408.806c3.756 3.756 9.846 3.756 13.602 0l30.254-30.253c3.756-3.756 3.756-9.846 0-13.602s-3.756-9.846 0-13.602l14.221-14.221c3.756-3.756 9.846-3.756 13.602 0s9.846 3.756 13.602 0l105.727-105.727c5.805-5.805 5.805-15.217 0-21.022l-14.703-14.703c-1.019-1.019-2.076-1.971-3.15-2.893l-194.588 194.59z" fill="url(#SVGID_4_)"/></g></g><g><path d="m245.62 271.949 25.207 1.247c38.792 1.919 76.587-12.653 104.051-40.117l93.291-93.291c13.177-13.178 35.745-4.946 37.343 13.621l4.155 48.27c2.282 26.506-7.261 52.667-26.073 71.479l-43.205 43.205h-176.493l-31.346-31.346z" fill="url(#SVGID_5_)"/><g><path d="m439.705 354.636-63.748-34.222-3.743 16.028c-5.118 21.916-16.263 41.963-32.177 57.876l-35.375 35.375c-4.819 4.819-4.819 12.632 0 17.45 4.819 4.819 12.632 4.819 17.45 0l41.694-41.694c18.987-18.987 41.133-34.524 65.448-45.917z" fill="url(#SVGID_6_)"/><path d="m175.108 277.352c-7.772 7.772-11.67 17.028-9.105 21.648 7.251 13.058 20.465 29.951 37.269 46.755s33.696 30.018 46.755 37.269c4.62 2.566 13.876-1.333 21.648-9.105l2.091-2.091c9.304-9.304 12.727-20.306 7.303-23.498-12.705-7.476-28.608-20.116-44.432-35.94s-28.464-31.726-35.94-44.432c-3.191-5.424-14.194-2.001-23.498 7.303z" fill="url(#SVGID_7_)"/><path d="m374.106 328.34v67.432c16.541-14.634 35.105-26.848 55.148-36.24l10.451-4.897-63.748-34.222z" fill="url(#SVGID_8_)"/><path d="m464.965 295.838c-.77-3.287-3.985-5.388-7.305-4.771-30.714 5.716-171.478 30.157-198.293 3.342-9.508-9.508-9.997-17.366-9.642-20.717.129-1.215-.393-2.403-1.348-3.165-7.123-5.69-35.834-25.342-66.11-.368-3.161 2.607-3.759 7.217-1.354 10.534 10.037 13.84 39.077 50.762 86.617 86.346 3.025 2.264 7.243 2.046 9.982-.556 15.074-14.322 66.494-54.267 129.45-4.629 9.184 7.241 22.303 6.564 30.573-1.706l12.732-12.732c13.493-13.491 19.052-33 14.698-51.578z" fill="url(#SVGID_9_)"/></g></g></g><g><path d="m387.278 138.012c-5.564 3.034-12.45 1.844-16.747-2.815-9.714-10.532-21.642-18.965-35.212-24.723s-27.923-8.476-42.247-8.143c-6.336.147-11.977-3.977-13.661-10.087-2.371-8.599 3.944-17.189 12.861-17.407 18.234-.446 36.512 3.002 53.785 10.331s32.454 18.078 44.803 31.5c6.038 6.564 4.249 17.074-3.582 21.344z" fill="url(#SVGID_10_)"/><path d="m346.59 160.208c-4.782 2.608-10.703 2.211-14.97-1.176-4.07-3.23-8.602-5.93-13.506-8.011s-9.995-3.464-15.146-4.147c-5.4-.715-9.8-4.697-11.248-9.948-2.626-9.528 5.357-18.615 15.149-17.277 7.476 1.022 14.862 3.044 21.982 6.066 7.121 3.021 13.707 6.927 19.637 11.594 7.767 6.111 6.779 18.166-1.898 22.899z" fill="url(#SVGID_11_)"/></g><g><path d="m109.108 438.958c.913-6.272-2.595-12.315-8.457-14.726-13.251-5.451-25.302-13.707-35.415-24.432s-17.647-23.241-22.31-36.788c-2.063-5.993-7.89-9.85-14.205-9.307-8.887.764-14.749 9.669-11.856 18.107 5.915 17.253 15.498 33.196 28.37 46.848s28.225 24.154 45.101 31.072c8.253 3.381 17.487-1.947 18.772-10.774z" fill="url(#SVGID_12_)"/><path d="m77.282 388.441c5.307 5.628 11.257 10.448 17.692 14.387 8.43 5.16 19.39.046 20.814-9.734.785-5.39-1.645-10.805-6.302-13.629-4.443-2.694-8.548-6.007-12.203-9.883s-6.72-8.169-9.149-12.763c-2.546-4.816-7.808-7.559-13.236-7.092-9.847.847-15.596 11.489-10.939 20.207 3.554 6.657 8.016 12.879 13.323 18.507z" fill="url(#SVGID_13_)"/></g></g></svg>