<svg id="Capa_1" enable-background="new 0 0 510 510" height="512" viewBox="0 0 510 510" width="512" xmlns="http://www.w3.org/2000/svg" xmlns:xlink="http://www.w3.org/1999/xlink"><linearGradient id="lg1"><stop offset="0" stop-color="#fce9cb"/><stop offset="1" stop-color="#ffbd95"/></linearGradient><linearGradient id="SVGID_1_" gradientUnits="userSpaceOnUse" x1="124.74" x2="258.001" xlink:href="#lg1" y1="236.518" y2="267.612"/><linearGradient id="lg2"><stop offset="0" stop-color="#faa68e" stop-opacity="0"/><stop offset="1" stop-color="#c9766e"/></linearGradient><linearGradient id="SVGID_2_" gradientUnits="userSpaceOnUse" x1="162.363" x2="-26.155" xlink:href="#lg2" y1="444.303" y2="363.51"/><linearGradient id="lg3"><stop offset="0" stop-color="#ffdecf" stop-opacity="0"/><stop offset="1" stop-color="#fff"/></linearGradient><linearGradient id="SVGID_3_" gradientUnits="userSpaceOnUse" x1="233.617" x2="136.378" xlink:href="#lg3" y1="278.266" y2="203.205"/><linearGradient id="SVGID_4_" gradientUnits="userSpaceOnUse" x1="219.827" x2="219.827" xlink:href="#lg2" y1="372.84" y2="271.466"/><linearGradient id="lg4"><stop offset="0" stop-color="#edf5ff"/><stop offset="1" stop-color="#b5dbff"/></linearGradient><linearGradient id="SVGID_5_" gradientTransform="matrix(0 1 -1 0 -223.198 1251.202)" gradientUnits="userSpaceOnUse" x1="-843.156" x2="-843.156" xlink:href="#lg4" y1="-312.616" y2="-287.894"/><linearGradient id="lg5"><stop offset="0" stop-color="#8a7889"/><stop offset="1" stop-color="#6e566e"/></linearGradient><linearGradient id="SVGID_6_" gradientUnits="userSpaceOnUse" x1="14.572" x2="58.272" xlink:href="#lg5" y1="369.187" y2="447.44"/><linearGradient id="SVGID_7_" gradientTransform="matrix(-1 0 0 1 -820.274 0)" gradientUnits="userSpaceOnUse" x1="-1205.534" x2="-1072.272" xlink:href="#lg1" y1="236.518" y2="267.612"/><linearGradient id="SVGID_8_" gradientUnits="userSpaceOnUse" x1="253.388" x2="173.103" xlink:href="#lg2" y1="228.259" y2="216.063"/><linearGradient id="SVGID_9_" gradientTransform="matrix(-1 0 0 1 -820.274 0)" gradientUnits="userSpaceOnUse" x1="-1097.026" x2="-1194.265" xlink:href="#lg3" y1="278.144" y2="203.082"/><linearGradient id="SVGID_10_" gradientTransform="matrix(-1 0 0 1 -820.274 0)" gradientUnits="userSpaceOnUse" x1="-1110.407" x2="-1110.407" xlink:href="#lg2" y1="372.84" y2="271.466"/><linearGradient id="SVGID_11_" gradientTransform="matrix(0 1 1 0 -597.076 1251.202)" gradientUnits="userSpaceOnUse" x1="-843.156" x2="-843.156" xlink:href="#lg4" y1="1017.658" y2="1042.38"/><linearGradient id="SVGID_12_" gradientTransform="matrix(-1 0 0 1 -820.274 0)" gradientUnits="userSpaceOnUse" x1="-1315.702" x2="-1272.002" xlink:href="#lg5" y1="369.187" y2="447.44"/><g><g><g><path d="m236.035.107c-.728-.068-1.446-.107-2.155-.107-11.646 0-21.409 9.316-21.69 21.215l-.262 11.257c0 99.349-28.456 188.865-58.409 256.858-11.456 26.005-37.164 42.806-65.58 42.806h-31.502c-11.978 0-21.689 9.71-21.689 21.689v107.056c0 11.978 9.71 21.689 21.689 21.689h47.125c19.11 0 37.559-6.996 51.864-19.668l51.237-45.387c31.006-27.466 48.767-66.895 48.791-108.316l.195-287.052c.213-11.336-8.328-20.944-19.614-22.04z" fill="url(#SVGID_1_)"/><path d="m34.748 353.825v107.056c0 11.978 9.71 21.689 21.689 21.689h47.125c19.11 0 37.559-6.996 51.864-19.668l40.121-35.541-95.225-95.225h-43.885c-11.978 0-21.689 9.71-21.689 21.689z" fill="url(#SVGID_2_)"/><path d="m231.38 145.013c-13.246-.021-24.127 10.605-24.392 23.963l-.321 16.158c-.637 32.019-10.781 63.119-29.132 89.311-13.505 19.276-20.109 42.141-19.42 65.017.636 21.118 17.874 37.939 39.001 37.939 20.081 0 36.881-15.246 38.825-35.233l3.197-32.879c1.328-13.656 3.548-27.208 6.6-40.584 6.056-26.541 8.188-48.594 8.73-75.844v-22.496c.268-13.491-8.898-25.072-22.389-25.341-.151 0-.699-.011-.699-.011z" fill="url(#SVGID_3_)"/><g><path d="m245.738 268.708c-3.052 13.376-5.272 26.928-6.6 40.584l-3.197 32.879c-1.944 19.987-18.744 35.232-38.825 35.232-4.525 0-8.87-.777-12.914-2.197v62.205l22.461-19.896c31.006-27.466 48.767-66.895 48.791-108.316l-.985-116.334c-.833 25.545-3.05 50.942-8.731 75.843z" fill="url(#SVGID_4_)"/></g></g><path d="m56.811 496.788v-177.484h23.887c11.829 0 21.418 9.589 21.418 21.418v134.648c0 11.829-9.589 21.418-21.418 21.418z" fill="url(#SVGID_5_)"/><path d="m53.719 510h-34.892c-6.922 0-12.534-5.612-12.534-12.534v-178.84c0-6.922 5.612-12.534 12.534-12.534h34.892c6.922 0 12.534 5.612 12.534 12.534v178.84c0 6.922-5.612 12.534-12.534 12.534z" fill="url(#SVGID_6_)"/></g><g><g><path d="m273.965.107c.728-.068 1.446-.107 2.155-.107 11.646 0 21.409 9.316 21.69 21.215l.262 11.257c0 99.349 28.456 188.865 58.409 256.858 11.456 26.005 37.164 42.806 65.58 42.806h31.502c11.978 0 21.689 9.71 21.689 21.689v107.056c0 11.978-9.71 21.689-21.689 21.689h-47.125c-19.11 0-37.559-6.996-51.864-19.668l-51.237-45.387c-31.006-27.466-48.767-66.895-48.791-108.316l-.195-287.052c-.213-11.336 8.328-20.944 19.614-22.04z" fill="url(#SVGID_7_)"/><path d="m273.965.107c.728-.068 1.446-.107 2.155-.107 11.646 0 21.409 9.316 21.69 21.215l.262 11.257c0 99.349 28.456 188.865 58.409 256.858 11.456 26.005 37.164 42.806 65.58 42.806h31.502c11.978 0 21.689 9.71 21.689 21.689v107.056c0 11.978-9.71 21.689-21.689 21.689h-47.125c-19.11 0-37.559-6.996-51.864-19.668l-51.237-45.387c-31.006-27.466-48.767-66.895-48.791-108.316l-.195-287.052c-.213-11.336 8.328-20.944 19.614-22.04z" fill="url(#SVGID_8_)"/><path d="m279.084 145.013c13.246-.021 24.127 10.605 24.392 23.963l.321 16.158c.637 32.019 10.781 63.119 29.132 89.311 13.505 19.276 20.109 42.141 19.42 65.017-.636 21.118-17.874 37.939-39.001 37.939-20.081 0-36.881-15.246-38.825-35.233l-3.197-32.879c-1.328-13.656-3.548-27.208-6.6-40.584-6.056-26.541-9.716-48.594-10.258-75.844l-.016-22.496c-.268-13.491 10.442-25.072 23.933-25.341.151 0 .699-.011.699-.011z" fill="url(#SVGID_9_)"/><g><path d="m264.262 268.708c3.052 13.376 5.272 26.928 6.6 40.584l3.197 32.879c1.944 19.987 18.744 35.232 38.825 35.232 4.525 0 8.87-.777 12.914-2.197v62.205l-22.461-19.896c-31.006-27.466-48.767-66.895-48.791-108.316l-.031-45.856-.048-70.478c.832 25.545 4.114 50.942 9.795 75.843z" fill="url(#SVGID_10_)"/></g></g><path d="m453.189 496.788v-177.484h-23.887c-11.829 0-21.418 9.589-21.418 21.418v134.648c0 11.829 9.589 21.418 21.418 21.418z" fill="url(#SVGID_11_)"/><path d="m456.281 510h34.892c6.922 0 12.534-5.612 12.534-12.534v-178.84c0-6.922-5.612-12.534-12.534-12.534h-34.892c-6.922 0-12.534 5.612-12.534 12.534v178.84c0 6.922 5.612 12.534 12.534 12.534z" fill="url(#SVGID_12_)"/></g></g></svg>