<svg id="Capa_1" enable-background="new 0 0 510 510" height="512" viewBox="0 0 510 510" width="512" xmlns="http://www.w3.org/2000/svg" xmlns:xlink="http://www.w3.org/1999/xlink"><linearGradient id="lg1"><stop offset="0" stop-color="#f8f6fb"/><stop offset="1" stop-color="#ffdecf"/></linearGradient><linearGradient id="SVGID_1_" gradientUnits="userSpaceOnUse" x1="321.125" x2="383.258" xlink:href="#lg1" y1="49.893" y2="112.026"/><linearGradient id="lg2"><stop offset="0" stop-color="#faa68e" stop-opacity="0"/><stop offset="1" stop-color="#faa68e"/></linearGradient><linearGradient id="SVGID_2_" gradientUnits="userSpaceOnUse" x1="362.713" x2="442.689" xlink:href="#lg2" y1="66.654" y2="21.943"/><linearGradient id="SVGID_3_" gradientUnits="userSpaceOnUse" x1="83.192" x2="145.325" xlink:href="#lg1" y1="69.758" y2="131.891"/><linearGradient id="SVGID_4_" gradientUnits="userSpaceOnUse" x1="124.781" x2="204.756" xlink:href="#lg2" y1="86.519" y2="41.809"/><linearGradient id="lg3"><stop offset="0" stop-color="#ff9690"/><stop offset="1" stop-color="#f9545b"/></linearGradient><linearGradient id="SVGID_5_" gradientUnits="userSpaceOnUse" x1="125.695" x2="392.303" xlink:href="#lg3" y1="166.786" y2="433.394"/><linearGradient id="lg4"><stop offset="0" stop-color="#e63950" stop-opacity="0"/><stop offset=".0467" stop-color="#e4354b" stop-opacity=".047"/><stop offset=".4669" stop-color="#d31822" stop-opacity=".467"/><stop offset=".7991" stop-color="#c90709" stop-opacity=".799"/><stop offset="1" stop-color="#c50000"/></linearGradient><linearGradient id="SVGID_6_" gradientUnits="userSpaceOnUse" x1="255" x2="255" xlink:href="#lg4" y1="407.091" y2="614.726"/><linearGradient id="SVGID_7_" gradientUnits="userSpaceOnUse" x1="378.944" x2="-11.496" xlink:href="#lg3" y1="420.035" y2="29.595"/><linearGradient id="SVGID_8_" gradientUnits="userSpaceOnUse" x1="443.902" x2="251.512" xlink:href="#lg4" y1="359.819" y2="216.274"/><linearGradient id="SVGID_9_" gradientUnits="userSpaceOnUse" x1="317.286" x2="163.704" xlink:href="#lg4" y1="339.949" y2="223.266"/><linearGradient id="SVGID_10_" gradientUnits="userSpaceOnUse" x1="257.285" x2="29.758" xlink:href="#lg4" y1="356.058" y2="204.373"/><linearGradient id="SVGID_11_" gradientUnits="userSpaceOnUse" x1="190.229" x2="-79.224" xlink:href="#lg4" y1="367.456" y2="201.792"/><linearGradient id="lg5"><stop offset="0" stop-color="#ff637b"/><stop offset="1" stop-color="#e63950"/></linearGradient><linearGradient id="SVGID_12_" gradientUnits="userSpaceOnUse" x1="121.095" x2="127.095" xlink:href="#lg5" y1="266.987" y2="367.987"/><linearGradient id="SVGID_13_" gradientUnits="userSpaceOnUse" x1="205.797" x2="211.797" xlink:href="#lg5" y1="261.955" y2="362.955"/><linearGradient id="SVGID_14_" gradientUnits="userSpaceOnUse" x1="290.584" x2="296.584" xlink:href="#lg5" y1="256.918" y2="357.918"/><linearGradient id="SVGID_15_" gradientUnits="userSpaceOnUse" x1="381.872" x2="387.872" xlink:href="#lg5" y1="251.495" y2="352.495"/><linearGradient id="SVGID_16_" gradientUnits="userSpaceOnUse" x1="421.1" x2="424.101" xlink:href="#lg4" y1="269.827" y2="49.299"/><linearGradient id="SVGID_17_" gradientUnits="userSpaceOnUse" x1="327.971" x2="51.821" xlink:href="#lg4" y1="160.401" y2="-.244"/><linearGradient id="SVGID_18_" gradientUnits="userSpaceOnUse" x1="457.452" x2="504.795" xlink:href="#lg1" y1="177.568" y2="224.911"/><linearGradient id="SVGID_19_" gradientUnits="userSpaceOnUse" x1="495.27" x2="526.075" xlink:href="#lg2" y1="176.323" y2="135.758"/><linearGradient id="SVGID_20_" gradientUnits="userSpaceOnUse" x1="231.521" x2="278.864" xlink:href="#lg1" y1="65.139" y2="112.483"/><linearGradient id="SVGID_21_" gradientUnits="userSpaceOnUse" x1="269.339" x2="300.144" xlink:href="#lg2" y1="63.895" y2="23.33"/><linearGradient id="SVGID_22_" gradientUnits="userSpaceOnUse" x1="523.641" x2="473.389" xlink:href="#lg4" y1="319.431" y2="269.178"/><linearGradient id="SVGID_23_" gradientUnits="userSpaceOnUse" x1="468.821" x2="507.633" xlink:href="#lg1" y1="264.61" y2="303.422"/><linearGradient id="SVGID_24_" gradientUnits="userSpaceOnUse" x1="499.824" x2="525.078" xlink:href="#lg2" y1="263.59" y2="230.335"/><linearGradient id="SVGID_25_" gradientUnits="userSpaceOnUse" x1="411.704" x2="481.092" xlink:href="#lg1" y1="33.529" y2="102.917"/><linearGradient id="SVGID_26_" gradientUnits="userSpaceOnUse" x1="466.874" x2="566.667" xlink:href="#lg2" y1="47.722" y2="-4.68"/><linearGradient id="SVGID_27_" gradientUnits="userSpaceOnUse" x1="423.888" x2="501.206" xlink:href="#lg1" y1="116.174" y2="193.492"/><linearGradient id="SVGID_28_" gradientUnits="userSpaceOnUse" x1="479.568" x2="568.113" xlink:href="#lg2" y1="134.482" y2="78.362"/><linearGradient id="SVGID_29_" gradientTransform="matrix(.707 -.707 .707 .707 -1139.318 -248.9)" gradientUnits="userSpaceOnUse" x1="824.499" x2="860.822" xlink:href="#lg1" y1="1325.08" y2="1411.811"/><g><g><circle cx="339.074" cy="67.842" fill="url(#SVGID_1_)" r="47.973"/><path d="m360.534 24.929c3.236 6.457 5.059 13.745 5.059 21.46 0 26.495-21.478 47.973-47.973 47.973-7.714 0-15.002-1.824-21.46-5.059 7.877 15.72 24.133 26.513 42.914 26.513 26.495 0 47.973-21.478 47.973-47.973 0-18.781-10.793-35.038-26.513-42.914z" fill="url(#SVGID_2_)"/></g><g><circle cx="101.142" cy="87.707" fill="url(#SVGID_3_)" r="47.973"/><path d="m122.601 44.794c3.236 6.457 5.059 13.745 5.059 21.46 0 26.495-21.478 47.973-47.973 47.973-7.714 0-15.002-1.824-21.46-5.059 7.877 15.72 24.133 26.513 42.914 26.513 26.495 0 47.973-21.478 47.973-47.973.001-18.781-10.792-35.038-26.513-42.914z" fill="url(#SVGID_4_)"/></g><g><g><path d="m486.851 147.748c-6.973-22.264-25.135-39.239-47.871-44.472-122.185-28.124-245.779-28.124-367.962 0-22.736 5.233-40.897 22.208-47.87 44.472-30.868 98.556-30.863 198.142.001 296.687 6.973 22.263 25.135 39.239 47.87 44.472 122.183 28.124 245.776 28.124 367.961 0 22.735-5.233 40.897-22.208 47.87-44.472 30.865-98.546 30.868-198.13.001-296.687z" fill="url(#SVGID_5_)"/><path d="m2.508 344.828c3.402 33.267 10.271 66.496 20.641 99.607 6.973 22.263 25.135 39.239 47.87 44.472 122.183 28.124 245.776 28.124 367.961 0 22.735-5.233 40.897-22.208 47.87-44.472 10.37-33.111 17.239-66.34 20.641-99.607z" fill="url(#SVGID_6_)"/></g><path d="m71.491 393.617c5.519 14.637 19.894 25.797 37.889 29.238 96.709 18.49 194.533 18.49 291.24 0 17.995-3.441 32.37-14.601 37.889-29.237 24.432-64.794 24.428-130.265 0-195.052-5.519-14.637-19.894-25.797-37.889-29.237-96.707-18.49-194.531-18.49-291.24 0-17.995 3.44-32.37 14.6-37.889 29.237-24.428 64.787-24.431 130.256 0 195.051z" fill="url(#SVGID_7_)"/><path d="m416.648 253.346c-6.319-8.707-16.956-11.28-29.21-11.28h-30.994c-5.24 0-7.684 2.293-7.684 6.037v95.228c0 3.129 1.496 5.229 4.85 6.315l119.276 119.276c6.26-6.95 11.075-15.262 13.964-24.487 10.43-33.302 17.322-66.724 20.703-100.183z" fill="url(#SVGID_8_)"/><path d="m486.851 444.435c1.65-5.269 3.194-10.542 4.668-15.817l-180.793-180.792c-1.718-5.152-8.393-6.658-15.223-6.658-6.888 0-12.625 1.545-14.272 6.785l-27.85 91.335c-.15.599-.299 1.198-.299 1.647 0 3.075 1.632 5.685 5.072 7.402l147.526 147.525c11.111-2.089 22.212-4.403 33.301-6.956 22.735-5.232 40.897-22.207 47.87-44.471z" fill="url(#SVGID_9_)"/><path d="m438.981 488.907c8.682-1.999 16.694-5.714 23.674-10.778l-224.413-224.413c-6.572-8.955-17.66-11.65-30.483-11.65-20.663 0-35.684 8.582-35.684 34.335v39.679c0 13.862 3.646 23.032 11.155 28.552l160.463 160.463c31.825-3.511 63.604-8.895 95.288-16.188z" fill="url(#SVGID_10_)"/><path d="m403.446 496.279-245.939-245.939c-3.41-8.941-22.058-9.172-29.256-9.172-18.716 0-37.33 7.534-37.33 29.993 0 11.343 3.976 18.681 10.705 24.037l32.391 32.726c-2.863 2.198-7.132 4.129-11.156 4.129-13.924 0-18.417-11.08-25.454-11.08-5.69 0-9.181 6.486-9.181 11.577 0 4.118 1.866 8.181 6.621 11.523l165.886 165.886c47.632-.339 95.258-4.89 142.713-13.68z" fill="url(#SVGID_11_)"/><g><path d="m113.278 268.915c0-4.642 4.342-8.984 14.973-8.984 12.278 0 15.123 5.69 20.513 5.69 6.589 0 9.284-8.235 9.284-12.278 0-11.679-21.86-13.176-29.796-13.176-18.716 0-38.331 8.534-38.331 30.994 0 35.037 47.464 31.892 47.464 50.01 0 7.187-7.636 9.882-14.524 9.882-13.924 0-18.417-11.08-25.454-11.08-5.69 0-10.182 7.486-10.182 12.577 0 9.882 16.47 19.465 36.085 19.465 21.71 0 37.432-11.679 37.432-33.24.001-37.732-47.464-34.887-47.464-49.86z" fill="url(#SVGID_12_)"/><path d="m207.759 241.066c-20.663 0-36.684 9.583-36.684 35.336v39.679c0 25.753 16.021 35.336 36.684 35.336s36.833-9.583 36.833-35.336v-39.679c.001-25.754-16.17-35.336-36.833-35.336zm13.476 75.014c0 10.331-5.091 14.973-13.476 14.973s-13.326-4.641-13.326-14.973v-39.679c0-10.331 4.941-14.973 13.326-14.973s13.476 4.641 13.476 14.973z" fill="url(#SVGID_13_)"/><path d="m310.775 247.953c-1.647-5.24-8.385-7.786-15.272-7.786s-13.626 2.545-15.272 7.786l-27.85 91.335c-.15.599-.299 1.198-.299 1.647 0 5.54 8.534 9.583 14.972 9.583 3.743 0 6.738-1.198 7.636-4.342l5.091-18.716h31.593l5.091 18.716c.898 3.144 3.893 4.342 7.636 4.342 6.439 0 14.973-4.043 14.973-9.583 0-.449-.15-1.048-.299-1.647zm-26.202 61.539 10.93-40.127 10.93 40.127z" fill="url(#SVGID_14_)"/><path d="m387.438 241.066h-30.994c-5.24 0-8.684 3.294-8.684 7.037v95.228c0 4.791 5.84 7.187 11.679 7.187s11.678-2.396 11.678-7.187v-32.342h14.823c20.663 0 36.833-9.583 36.833-34.737v-.749c.001-25.154-15.57-34.437-35.335-34.437zm11.979 36.983c0 10.182-5.09 14.973-13.476 14.973h-14.823v-31.593h14.823c8.385 0 13.476 4.791 13.476 14.973z" fill="url(#SVGID_15_)"/></g></g><path d="m486.851 147.748c-6.973-22.264-25.135-39.239-47.871-44.472-33.862-7.794-65.833-13.419-99.851-16.893-8.842 20.786-6.802 45.747 10.151 62.699l160.506 160.506c1.53-54.029-6.1-108.087-22.935-161.84z" fill="url(#SVGID_16_)"/><path d="m501.44 386.4-278.92-278.93c-7.3-5.78-10.34-14.28-11.58-23.97 30.87-1.77 59.76-1.76 90.63.03 45.9 2.66 91.76 9.24 137.41 19.75 22.74 5.23 40.9 22.2 47.87 44.47 15 47.9 22.71 96.03 23.13 144.17.28 31.51-2.57 63.03-8.54 94.48z" fill="url(#SVGID_17_)"/><g><g><circle cx="471.128" cy="191.244" fill="url(#SVGID_18_)" r="36.554"/><path d="m487.48 158.545c2.465 4.92 3.855 10.473 3.855 16.352 0 20.188-16.366 36.554-36.554 36.554-5.878 0-11.431-1.39-16.352-3.855 6.002 11.978 18.389 20.202 32.699 20.202 20.188 0 36.554-16.366 36.554-36.554 0-14.31-8.224-26.697-20.202-32.699z" fill="url(#SVGID_19_)"/></g><g><circle cx="245.198" cy="78.816" fill="url(#SVGID_20_)" r="36.554"/><path d="m261.55 46.117c2.465 4.92 3.855 10.473 3.855 16.352 0 20.188-16.366 36.554-36.554 36.554-5.878 0-11.431-1.39-16.352-3.855 6.002 11.978 18.389 20.202 32.699 20.202 20.188 0 36.554-16.366 36.554-36.554 0-14.31-8.224-26.698-20.202-32.699z" fill="url(#SVGID_21_)"/></g><g><path d="m480.033 246.856c-16.55 0-28.967 12.416-28.967 28.967 0 8.715 2.723 16.559 8.662 22.034l47.687 47.687c2.88-27.76 3.334-55.547 1.362-83.316l-6.71-6.71c-5.475-5.939-13.319-8.662-22.034-8.662z" fill="url(#SVGID_22_)"/><circle cx="480.033" cy="275.823" fill="url(#SVGID_23_)" r="29.967"/><path d="m493.438 249.016c2.021 4.034 3.16 8.586 3.16 13.405 0 16.55-13.417 29.967-29.967 29.967-4.819 0-9.371-1.139-13.405-3.16 4.92 9.82 15.075 16.562 26.807 16.562 16.55 0 29.967-13.417 29.967-29.967 0-11.732-6.742-21.887-16.562-26.807z" fill="url(#SVGID_24_)"/></g><g><circle cx="431.749" cy="53.575" fill="url(#SVGID_25_)" r="53.575"/><path d="m455.715 5.65c3.613 7.211 5.65 15.35 5.65 23.965 0 29.589-23.986 53.575-53.575 53.575-8.615 0-16.754-2.037-23.966-5.65 8.796 17.556 26.952 29.609 47.925 29.609 29.589 0 53.575-23.986 53.575-53.575 0-20.972-12.053-39.128-29.609-47.924z" fill="url(#SVGID_26_)"/></g><g><circle cx="446.224" cy="138.51" fill="url(#SVGID_27_)" r="59.698"/><path d="m472.929 85.108c4.026 8.036 6.296 17.104 6.296 26.704 0 32.97-26.728 59.698-59.698 59.698-9.6 0-18.669-2.269-26.704-6.296 9.802 19.562 30.032 32.993 53.402 32.993 32.97 0 59.698-26.728 59.698-59.698-.001-23.369-13.432-43.599-32.994-53.401z" fill="url(#SVGID_28_)"/></g><g><circle cx="389.627" cy="108.736" fill="url(#SVGID_29_)" r="57.058"/></g></g></g></svg>