<svg id="Capa_1" enable-background="new 0 0 510 510" height="512" viewBox="0 0 510 510" width="512" xmlns="http://www.w3.org/2000/svg" xmlns:xlink="http://www.w3.org/1999/xlink"><linearGradient id="lg1"><stop offset="0" stop-color="#9ae1d3"/><stop offset="1" stop-color="#80d1c1"/></linearGradient><linearGradient id="SVGID_1_" gradientUnits="userSpaceOnUse" x1="453.258" x2="519.255" xlink:href="#lg1" y1="287.803" y2="334.301"/><linearGradient id="lg2"><stop offset="0" stop-color="#0b799d" stop-opacity="0"/><stop offset=".1739" stop-color="#117d9e" stop-opacity=".174"/><stop offset=".414" stop-color="#2389a0" stop-opacity=".414"/><stop offset=".6928" stop-color="#409ca3" stop-opacity=".693"/><stop offset=".9986" stop-color="#69b7a8" stop-opacity=".999"/><stop offset="1" stop-color="#69b7a8"/></linearGradient><linearGradient id="SVGID_2_" gradientUnits="userSpaceOnUse" x1="440.968" x2="543.635" xlink:href="#lg2" y1="301.244" y2="314.577"/><linearGradient id="SVGID_3_" gradientUnits="userSpaceOnUse" x1="-25.784" x2="102.14" xlink:href="#lg1" y1="242.922" y2="370.846"/><linearGradient id="SVGID_4_" gradientUnits="userSpaceOnUse" x1="61.07" x2="-102.93" xlink:href="#lg2" y1="309.879" y2="269.879"/><linearGradient id="SVGID_5_" gradientUnits="userSpaceOnUse" x1="207.294" x2="286.79" xlink:href="#lg1" y1="206.852" y2="370.344"/><linearGradient id="SVGID_6_" gradientUnits="userSpaceOnUse" x1="398.775" x2="39.395" xlink:href="#lg2" y1="346.433" y2="109.501"/><linearGradient id="SVGID_7_" gradientUnits="userSpaceOnUse" x1="255" x2="255" xlink:href="#lg2" y1="408.431" y2="508.937"/><linearGradient id="lg3"><stop offset="0" stop-color="#edf5ff"/><stop offset="1" stop-color="#b5dbff"/></linearGradient><linearGradient id="SVGID_8_" gradientUnits="userSpaceOnUse" x1="255" x2="255" xlink:href="#lg3" y1="233.837" y2="338.928"/><linearGradient id="SVGID_9_" gradientTransform="matrix(-1 0 0 -1 -2682 451.721)" gradientUnits="userSpaceOnUse" x1="-2937" x2="-2937" xlink:href="#lg3" y1="151.373" y2="223.63"/><linearGradient id="lg4"><stop offset="0" stop-color="#07485e" stop-opacity="0"/><stop offset=".2708" stop-color="#074459" stop-opacity=".271"/><stop offset=".597" stop-color="#05394a" stop-opacity=".597"/><stop offset=".9505" stop-color="#032632" stop-opacity=".951"/><stop offset="1" stop-color="#03232e"/></linearGradient><linearGradient id="SVGID_10_" gradientUnits="userSpaceOnUse" x1="255" x2="255" xlink:href="#lg4" y1="255.299" y2="322.632"/><linearGradient id="SVGID_11_" gradientUnits="userSpaceOnUse" x1="255" x2="255" xlink:href="#lg3" y1="75.883" y2="284.033"/><linearGradient id="lg5"><stop offset="0" stop-color="#07485e" stop-opacity="0"/><stop offset=".3967" stop-color="#063c4e" stop-opacity=".397"/><stop offset="1" stop-color="#03232e"/></linearGradient><linearGradient id="SVGID_12_" gradientUnits="userSpaceOnUse" x1="258.856" x2="154.759" xlink:href="#lg5" y1="159.702" y2="165.651"/><linearGradient id="SVGID_13_" gradientUnits="userSpaceOnUse" x1="294.991" x2="231.491" xlink:href="#lg4" y1="170.294" y2="139.794"/><linearGradient id="SVGID_14_" gradientUnits="userSpaceOnUse" x1="211.634" x2="242.634" xlink:href="#lg5" y1="189.794" y2="185.794"/><g><g><path d="m477.287 140.947h10.967c12.01 0 21.746 9.736 21.746 21.746v284.546c0 12.01-9.736 21.746-21.746 21.746h-10.967c-12.625 0-24.854-4.401-34.584-12.446l-28.452-23.524v-256.099l28.452-23.524c9.73-8.044 21.959-12.445 34.584-12.445z" fill="url(#SVGID_1_)"/><path d="m469.622 141.5c1.115 2.883 2.034 5.878 2.691 8.989 21.648 102.591 21.648 206.364 0 308.953-.656 3.11-1.576 6.106-2.691 8.988-9.848-1.405-19.176-5.49-26.919-11.892l-28.452-23.524v-256.098l28.452-23.524c7.743-6.402 17.071-10.486 26.919-11.892z" fill="url(#SVGID_2_)"/></g><g><path d="m32.713 140.947h-10.967c-12.01 0-21.746 9.735-21.746 21.745v284.546c0 12.01 9.736 21.746 21.746 21.746h10.967c12.625 0 24.854-4.401 34.584-12.446l28.452-23.524v-256.098l-28.452-23.524c-9.73-8.044-21.959-12.445-34.584-12.445z" fill="url(#SVGID_3_)"/><path d="m40.378 141.5c-1.115 2.883-2.034 5.878-2.691 8.989-21.648 102.591-21.648 206.364 0 308.953.656 3.11 1.576 6.106 2.691 8.988 9.848-1.405 19.176-5.49 26.919-11.892l28.452-23.524v-256.098l-28.452-23.524c-7.743-6.402-17.071-10.486-26.919-11.892z" fill="url(#SVGID_4_)"/></g><g><path d="m449.67 190.781c-5.855-17.137-21.104-30.204-40.194-34.232-102.59-21.648-206.364-21.648-308.953 0-19.089 4.028-34.339 17.095-40.193 34.232-25.917 75.862-25.913 152.516 0 228.37 5.854 17.137 21.104 30.203 40.193 34.232 102.589 21.648 206.362 21.648 308.953 0 19.089-4.028 34.339-17.094 40.193-34.231 25.915-75.856 25.918-152.509.001-228.371z" fill="url(#SVGID_5_)"/><path d="m409.476 453.382c19.089-4.028 34.339-17.094 40.193-34.231 25.914-75.854 25.917-152.508 0-228.37-5.855-17.137-21.104-30.204-40.194-34.232-73.597-15.53-145.803-19.916-219.743-13.164 6.204 10.062 10.538 21.235 12.699 32.987l7.272 41.542h-48.366c-21.726 0-37.338 15.612-37.338 37.338v41.148c0 12.675 4.001 23.942 13.31 31.137l141.675 141.675c43.59-1.417 87.147-6.683 130.492-15.83z" fill="url(#SVGID_6_)"/><path d="m48.289 375.433c3.064 14.594 7.072 29.171 12.041 43.718 5.854 17.137 21.104 30.203 40.193 34.231 102.589 21.648 206.362 21.648 308.952 0 19.089-4.028 34.339-17.094 40.193-34.231 4.97-14.547 8.977-29.124 12.041-43.718z" fill="url(#SVGID_7_)"/></g><g><path d="m348.662 335.739h-187.324c-21.726 0-39.338-17.612-39.338-39.338v-41.148c0-21.726 17.612-39.338 39.338-39.338h187.323c21.726 0 39.338 17.612 39.338 39.338v41.147c.001 21.726-17.611 39.339-39.337 39.339z" fill="url(#SVGID_8_)"/><path d="m177.258 230.284h155.485c16.159 0 29.258 13.099 29.258 29.258v23.872c0 16.159-13.099 29.258-29.258 29.258h-155.485c-16.159 0-29.258-13.099-29.258-29.258v-23.872c0-16.159 13.099-29.258 29.258-29.258z" fill="url(#SVGID_9_)"/><path d="m332.742 230.284h-155.484c-16.159 0-29.258 13.099-29.258 29.258v18.173h214v-18.173c0-16.159-13.099-29.258-29.258-29.258z" fill="url(#SVGID_10_)"/><g><path d="m336.202 71.361h-32.902l5.438-15.171c2.76-7.7-2.947-15.808-11.127-15.808h-25.472c-15.979 0-28.932 12.953-28.932 28.932v12.631c0 12.023-9.747 21.77-21.77 21.77h-47.662c-8.132 0-12.205 9.832-6.455 15.583l6.603 6.603c13.748 13.748 22.993 31.349 26.51 50.471l18.638 101.344h69.487l18.646-120.236c3.527-22.744 13.24-44.079 28.076-61.675l7.919-9.392c5.018-5.951.788-15.052-6.997-15.052z" fill="url(#SVGID_11_)"/><path d="m243.206 277.715v-208.401c0-15.979 12.953-28.932 28.932-28.932h25.472c8.18 0 13.887 8.108 11.127 15.808l-18.848 52.585c-13.621 38.001-20.584 78.068-20.584 118.437v50.504h-26.099z" fill="url(#SVGID_12_)"/><path d="m343.2 86.412-7.92 9.39c-14.84 17.6-24.55 38.93-28.08 61.68l-18.64 120.23h-19.25v-50.5c0-40.37 6.96-80.44 20.58-118.44l13.41-37.41h32.9c7.79 0 12.02 9.1 7 15.05z" fill="url(#SVGID_13_)"/><g><path d="m235.85 277.715-20.995-114.16c-3.961-21.54-14.376-41.367-29.862-56.854l-2.987-2.987h-8.232c-8.133 0-12.205 9.833-6.455 15.583l6.603 6.603c13.748 13.748 22.993 31.349 26.51 50.471l18.638 101.344z" fill="url(#SVGID_14_)"/></g></g></g></g></svg>