<svg id="Capa_1" enable-background="new 0 0 510 510" height="512" viewBox="0 0 510 510" width="512" xmlns="http://www.w3.org/2000/svg" xmlns:xlink="http://www.w3.org/1999/xlink"><linearGradient id="SVGID_1_" gradientUnits="userSpaceOnUse" x1="185.863" x2="383.303" y1="267.318" y2="464.758"><stop offset="0" stop-color="#edf5ff"/><stop offset="1" stop-color="#d5e8fe"/></linearGradient><linearGradient id="lg1"><stop offset="0" stop-color="#07485e" stop-opacity="0"/><stop offset=".2708" stop-color="#074459" stop-opacity=".271"/><stop offset=".597" stop-color="#05394a" stop-opacity=".597"/><stop offset=".9505" stop-color="#032632" stop-opacity=".951"/><stop offset="1" stop-color="#03232e"/></linearGradient><linearGradient id="SVGID_2_" gradientUnits="userSpaceOnUse" x1="279.733" x2="152.239" xlink:href="#lg1" y1="264.607" y2="-15.879"/><linearGradient id="SVGID_3_" gradientUnits="userSpaceOnUse" x1="254.999" x2="254.999" xlink:href="#lg1" y1="455.504" y2="539.242"/><linearGradient id="SVGID_4_" gradientUnits="userSpaceOnUse" x1="198.329" x2="360.17" y1="126.082" y2="287.923"><stop offset="0" stop-color="#9ae1d3"/><stop offset="1" stop-color="#80d1c1"/></linearGradient><linearGradient id="SVGID_5_" gradientUnits="userSpaceOnUse" x1="255" x2="255" y1="207.718" y2="-97.757"><stop offset="0" stop-color="#0b799d" stop-opacity="0"/><stop offset=".1739" stop-color="#117d9e" stop-opacity=".174"/><stop offset=".414" stop-color="#2389a0" stop-opacity=".414"/><stop offset=".6928" stop-color="#409ca3" stop-opacity=".693"/><stop offset=".9986" stop-color="#69b7a8" stop-opacity=".999"/><stop offset="1" stop-color="#69b7a8"/></linearGradient><linearGradient id="SVGID_6_" gradientUnits="userSpaceOnUse" x1="361.567" x2="103.166" xlink:href="#lg1" y1="426.721" y2="274.854"/><linearGradient id="SVGID_7_" gradientUnits="userSpaceOnUse" x1="349.671" x2="187.228" xlink:href="#lg1" y1="285.093" y2="122.65"/><linearGradient id="lg2"><stop offset="0" stop-color="#ffda2d"/><stop offset="1" stop-color="#fdbf00"/></linearGradient><linearGradient id="SVGID_8_" gradientUnits="userSpaceOnUse" x1="236.474" x2="300.6" xlink:href="#lg2" y1="172.169" y2="236.295"/><linearGradient id="lg3"><stop offset="0" stop-color="#ff9100" stop-opacity="0"/><stop offset="1" stop-color="#ff9100"/></linearGradient><linearGradient id="SVGID_9_" gradientUnits="userSpaceOnUse" x1="256.718" x2="324.771" xlink:href="#lg3" y1="209.669" y2="83.1"/><linearGradient id="SVGID_10_" gradientUnits="userSpaceOnUse" x1="197.846" x2="312.152" xlink:href="#lg2" y1="352.247" y2="352.247"/><linearGradient id="SVGID_11_" gradientUnits="userSpaceOnUse" x1="289.537" x2="158.058" xlink:href="#lg3" y1="369.339" y2="280.867"/><g><g><path d="m414.734 497.397h-319.47c-16.561 0-29.987-13.426-29.987-29.987v-261.912c0-9.941 4.927-19.236 13.154-24.817l159.735-108.348c10.163-6.894 23.503-6.894 33.666 0l159.735 108.349c8.227 5.58 13.154 14.875 13.154 24.817v261.911c0 16.562-13.425 29.987-29.987 29.987z" fill="url(#SVGID_1_)"/><path d="m444.72 205.496v261.914c0 16.558-13.419 29.988-29.988 29.988h-73.44l-276.013-276.012v-15.889c0-9.939 4.93-19.233 13.147-24.82l159.743-108.348c10.155-6.891 23.505-6.891 33.66 0l159.744 108.347c8.217 5.588 13.147 14.881 13.147 24.82z" fill="url(#SVGID_2_)"/><path d="m65.277 410.655v56.755c0 16.561 13.426 29.987 29.987 29.987h319.47c16.561 0 29.987-13.426 29.987-29.987v-56.755z" fill="url(#SVGID_3_)"/></g><g><path d="m203.122 27.9-183.242 118.348c-26.507 17.119-26.507 55.891 0 73.011 14.352 9.269 32.803 9.269 47.154 0l169.918-109.742c10.99-7.098 25.119-7.098 36.108.001l169.903 109.741c14.352 9.27 32.804 9.27 47.156.001h.001c26.506-17.119 26.507-55.89.001-73.01l-183.23-118.349c-31.582-20.399-72.187-20.399-103.769-.001z" fill="url(#SVGID_4_)"/><path d="m490.121 196.442-183.23-118.347c-31.582-20.399-72.186-20.399-103.769-.001l-183.242 118.348c-4.887 3.156-8.865 7.052-11.95 11.408 3.085 4.357 7.064 8.252 11.95 11.408 14.352 9.269 32.803 9.269 47.154 0l169.918-109.742c10.99-7.098 25.119-7.097 36.108.001l169.903 109.741c14.352 9.27 32.804 9.27 47.156.001h.001c4.887-3.156 8.865-7.052 11.95-11.408-3.084-4.358-7.063-8.253-11.949-11.409z" fill="url(#SVGID_5_)"/></g><path d="m292.064 263.647c-6.857-8.739-25.57-14.959-27.883-14.419l-13.992-1c-1.653 0-3.273.115-4.877.327-14.761 1.947-27.133 12.683-30.93 27.411l-14.008 54.348c-1.424 5.515 1.686 10.915 6.661 12.765 0 0 13.698 14.859 14.499 15.792v86.472c0 4.664 2.929 8.624 7.037 10.195l41.858 41.858h144.305c16.561 0 29.987-13.426 29.987-29.987v-53.568z" fill="url(#SVGID_6_)"/><path d="m444.721 310.391-151.401-151.401c-9.083-10.883-22.747-16.114-38.032-16.114-27.346 0-48.674 21.312-48.674 48.658 0 15.285 6.093 28.087 16.959 37.17l221.149 221.149v-139.462z" fill="url(#SVGID_7_)"/><g><path d="m304.516 190.694c0 27.342-22.169 49.507-49.517 49.507-27.347 0-49.517-22.165-49.517-49.507s22.169-49.507 49.517-49.507 49.517 22.165 49.517 49.507z" fill="url(#SVGID_8_)"/><path d="m277.15 146.408c3.34 6.664 5.222 14.185 5.222 22.146 0 27.342-22.169 49.507-49.517 49.507-7.963 0-15.485-1.882-22.15-5.221 8.13 16.223 24.91 27.361 44.294 27.361 27.347 0 49.517-22.165 49.517-49.507 0-19.38-11.14-36.157-27.366-44.286z" fill="url(#SVGID_9_)"/></g><g><path d="m311.806 330.307-14.011-54.332c-4.211-16.329-18.938-27.74-35.801-27.74h-13.99c-16.864 0-31.59 11.411-35.801 27.74l-14.011 54.332c-1.755 6.805 3.384 13.437 10.412 13.437 5.938 0 10.752 4.814 10.752 10.752v90.845c0 6.031 4.889 10.919 10.92 10.919h49.447c6.031 0 10.919-4.889 10.919-10.919v-90.845c0-5.938 4.814-10.752 10.752-10.752 7.028 0 12.167-6.632 10.412-13.437z" fill="url(#SVGID_10_)"/><path d="m297.796 275.975c-4.211-16.329-18.938-27.74-35.801-27.74h-6.995v208.026h24.724c6.031 0 10.919-4.889 10.919-10.919v-90.845c0-5.938 4.814-10.752 10.752-10.752 7.028 0 12.167-6.632 10.412-13.437z" fill="url(#SVGID_11_)"/></g></g></svg>