<svg id="Capa_1" enable-background="new 0 0 510 510" height="512" viewBox="0 0 510 510" width="512" xmlns="http://www.w3.org/2000/svg" xmlns:xlink="http://www.w3.org/1999/xlink"><linearGradient id="lg1"><stop offset="0" stop-color="#edf5ff"/><stop offset="1" stop-color="#d5e8fe"/></linearGradient><linearGradient id="SVGID_1_" gradientUnits="userSpaceOnUse" x1="159.634" x2="461.634" xlink:href="#lg1" y1="124.267" y2="538.267"/><linearGradient id="lg2"><stop offset="0" stop-color="#07485e" stop-opacity="0"/><stop offset=".2708" stop-color="#074459" stop-opacity=".271"/><stop offset=".597" stop-color="#05394a" stop-opacity=".597"/><stop offset=".9505" stop-color="#032632" stop-opacity=".951"/><stop offset="1" stop-color="#03232e"/></linearGradient><linearGradient id="SVGID_2_" gradientUnits="userSpaceOnUse" x1="431.672" x2="-70.923" xlink:href="#lg2" y1="240.621" y2="-261.974"/><linearGradient id="SVGID_3_" gradientUnits="userSpaceOnUse" x1="116.75" x2="189.963" xlink:href="#lg1" y1="47.987" y2="121.2"/><linearGradient id="SVGID_4_" gradientUnits="userSpaceOnUse" x1="255" x2="255" xlink:href="#lg2" y1="458" y2="550.195"/><linearGradient id="SVGID_5_" gradientUnits="userSpaceOnUse" x1="358.652" x2="50.839" xlink:href="#lg2" y1="253.813" y2="-54.001"/><linearGradient id="SVGID_6_" gradientUnits="userSpaceOnUse" x1="204.046" x2="321.795" y1="100.664" y2="218.413"><stop offset="0" stop-color="#ff637b"/><stop offset="1" stop-color="#e63950"/></linearGradient><linearGradient id="lg3"><stop offset="0" stop-color="#e63950" stop-opacity="0"/><stop offset=".0467" stop-color="#e4354b" stop-opacity=".047"/><stop offset=".4669" stop-color="#d31822" stop-opacity=".467"/><stop offset=".7991" stop-color="#c90709" stop-opacity=".799"/><stop offset="1" stop-color="#c50000"/></linearGradient><linearGradient id="SVGID_7_" gradientUnits="userSpaceOnUse" x1="267.225" x2="167.438" xlink:href="#lg3" y1="151.592" y2="190.889"/><linearGradient id="SVGID_8_" gradientUnits="userSpaceOnUse" x1="254.769" x2="259.184" xlink:href="#lg3" y1="137.762" y2="187.215"/><g><g><path d="m409.95 0h-224.385c-9.787 0-19.173 3.888-26.094 10.808l-80.493 80.494c-6.92 6.92-10.808 16.307-10.808 26.094v360.724c0 17.534 14.346 31.88 31.88 31.88h309.91c17.529 0 31.87-14.341 31.87-31.87v-446.25c0-17.534-14.346-31.88-31.88-31.88z" fill="url(#SVGID_1_)"/><g><g fill="#9ae1d3"><g><path d="m204.622 326.466h-76.904c-5.636 0-10.204-4.569-10.204-10.204v-20.408c0-5.636 4.569-10.204 10.204-10.204h76.904c5.636 0 10.204 4.569 10.204 10.204v20.408c0 5.636-4.568 10.204-10.204 10.204z"/><path d="m382.282 326.466h-134.264c-5.636 0-10.204-4.569-10.204-10.204v-20.408c0-5.636 4.569-10.204 10.204-10.204h134.264c5.636 0 10.204 4.569 10.204 10.204v20.408c0 5.636-4.568 10.204-10.204 10.204z"/></g><g><path d="m305.378 387.942h76.904c5.636 0 10.204-4.569 10.204-10.204v-20.408c0-5.636-4.569-10.204-10.204-10.204h-76.904c-5.636 0-10.204 4.569-10.204 10.204v20.408c0 5.636 4.568 10.204 10.204 10.204z"/><path d="m127.718 387.942h134.264c5.636 0 10.204-4.569 10.204-10.204v-20.408c0-5.636-4.569-10.204-10.204-10.204h-134.264c-5.636 0-10.204 4.569-10.204 10.204v20.408c0 5.636 4.568 10.204 10.204 10.204z"/></g><g><path d="m204.622 449.418h-76.904c-5.636 0-10.204-4.569-10.204-10.204v-20.408c0-5.636 4.569-10.204 10.204-10.204h76.904c5.636 0 10.204 4.569 10.204 10.204v20.408c0 5.636-4.568 10.204-10.204 10.204z"/><path d="m382.282 449.418h-134.264c-5.636 0-10.204-4.569-10.204-10.204v-20.408c0-5.636 4.569-10.204 10.204-10.204h134.264c5.636 0 10.204 4.569 10.204 10.204v20.408c0 5.636-4.568 10.204-10.204 10.204z"/></g></g></g><path d="m441.83 478.13v-446.25c0-17.534-14.346-31.88-31.88-31.88h-224.385c-9.787 0-19.173 3.888-26.094 10.808l-80.493 80.494c-5.134 5.134-8.595 11.627-10.041 18.633l372.582 372.582c.2-1.436.311-2.899.311-4.387z" fill="url(#SVGID_2_)"/><path d="m69.263 108.443c-.118.512-.227 1.011-.326 1.492h97.648c6.914 0 12.52-5.605 12.52-12.52v-96.834c-.763.136-1.565.295-2.392.478-7.279 1.61-13.916 5.353-19.188 10.624l-77.655 77.655c-5.251 5.251-8.938 11.87-10.607 19.105z" fill="url(#SVGID_3_)"/><path d="m68.17 447.201v30.919c0 17.534 14.346 31.88 31.88 31.88h309.91c17.529 0 31.87-14.342 31.87-31.87v-30.929z" fill="url(#SVGID_4_)"/></g><path d="m441.83 216.373-154.099-150.637c-2.082-3.796-6.114-5.371-10.749-5.371h-43.964c-6.767 0-11.252 4.485-11.252 11.252v46.767h-46.767c-6.767 0-11.252 4.485-11.252 11.252v43.964c0 4.635 1.574 8.667 5.371 10.749l272.712 267.434z" fill="url(#SVGID_5_)"/><g><path d="m335.001 185.853h-45.766v45.766c0 6.767-5.486 12.252-12.252 12.252h-43.965c-6.767 0-12.252-5.486-12.252-12.252v-45.766h-45.766c-6.767 0-12.252-5.486-12.252-12.252v-43.965c0-6.767 5.486-12.252 12.252-12.252h45.766v-45.767c0-6.767 5.486-12.252 12.252-12.252h43.965c6.767 0 12.252 5.486 12.252 12.252v45.766h45.766c6.767 0 12.252 5.486 12.252 12.252v43.965c0 6.767-5.485 12.253-12.252 12.253z" fill="url(#SVGID_6_)"/><path d="m276.982 243.872h-21.982v-184.507h21.982c6.767 0 12.252 5.486 12.252 12.252v160.002c.001 6.767-5.485 12.253-12.252 12.253z" fill="url(#SVGID_7_)"/><path d="m347.253 129.636v21.982h-184.506v-21.982c0-6.767 5.486-12.252 12.252-12.252h160.002c6.767-.001 12.252 5.485 12.252 12.252z" fill="url(#SVGID_8_)"/></g></g></svg>