<svg id="Capa_1" enable-background="new 0 0 510 510" height="512" viewBox="0 0 510 510" width="512" xmlns="http://www.w3.org/2000/svg" xmlns:xlink="http://www.w3.org/1999/xlink"><linearGradient id="lg1"><stop offset="0" stop-color="#edf5ff"/><stop offset="1" stop-color="#d5e8fe"/></linearGradient><linearGradient id="SVGID_1_" gradientUnits="userSpaceOnUse" x1="327.549" x2="521.618" xlink:href="#lg1" y1="325.234" y2="465.457"/><linearGradient id="lg2"><stop offset="0" stop-color="#07485e" stop-opacity="0"/><stop offset=".2708" stop-color="#074459" stop-opacity=".271"/><stop offset=".597" stop-color="#05394a" stop-opacity=".597"/><stop offset=".9505" stop-color="#032632" stop-opacity=".951"/><stop offset="1" stop-color="#03232e"/></linearGradient><linearGradient id="SVGID_2_" gradientUnits="userSpaceOnUse" x1="493.005" x2="378.211" xlink:href="#lg2" y1="288.322" y2="288.322"/><linearGradient id="SVGID_3_" gradientUnits="userSpaceOnUse" x1="121.046" x2="424.881" xlink:href="#lg1" y1="156.291" y2="460.126"/><linearGradient id="SVGID_4_" gradientUnits="userSpaceOnUse" x1="236.517" x2="236.517" xlink:href="#lg2" y1="452.174" y2="534.96"/><linearGradient id="lg3"><stop offset="0" stop-color="#7faef4"/><stop offset="1" stop-color="#4c8df1"/></linearGradient><linearGradient id="SVGID_5_" gradientUnits="userSpaceOnUse" x1="308.301" x2="327.41" xlink:href="#lg3" y1="59.18" y2="147.56"/><linearGradient id="SVGID_6_" gradientUnits="userSpaceOnUse" x1="282.403" x2="298.972" xlink:href="#lg3" y1="138.431" y2="215.065"/><linearGradient id="SVGID_7_" gradientUnits="userSpaceOnUse" x1="247.129" x2="-25.198" xlink:href="#lg2" y1="246.105" y2="-26.221"/><linearGradient id="lg4"><stop offset="0" stop-color="#ff637b"/><stop offset="1" stop-color="#e63950"/></linearGradient><linearGradient id="SVGID_8_" gradientTransform="matrix(0 1 -1 0 -554 0)" gradientUnits="userSpaceOnUse" x1="131.374" x2="144.472" xlink:href="#lg4" y1="-759.499" y2="-759.499"/><linearGradient id="lg5"><stop offset="0" stop-color="#ff9690"/><stop offset="1" stop-color="#f9545b"/></linearGradient><linearGradient id="SVGID_9_" gradientTransform="matrix(0 1 -1 0 -554 0)" gradientUnits="userSpaceOnUse" x1="133.048" x2="142.065" xlink:href="#lg5" y1="-783.101" y2="-774.085"/><linearGradient id="SVGID_10_" gradientTransform="matrix(.707 .707 -.707 .707 -277 114.737)" gradientUnits="userSpaceOnUse" x1="303.283" x2="316.38" xlink:href="#lg4" y1="-345.923" y2="-345.923"/><linearGradient id="SVGID_11_" gradientTransform="matrix(.707 .707 -.707 .707 -277 114.737)" gradientUnits="userSpaceOnUse" x1="304.956" x2="313.973" xlink:href="#lg5" y1="-369.526" y2="-360.509"/><linearGradient id="SVGID_12_" gradientTransform="matrix(-.707 .707 -.707 -.707 -668.737 -277)" gradientUnits="userSpaceOnUse" x1="-282.626" x2="-269.528" xlink:href="#lg4" y1="-930.383" y2="-930.383"/><linearGradient id="SVGID_13_" gradientTransform="matrix(-.707 .707 -.707 -.707 -668.737 -277)" gradientUnits="userSpaceOnUse" x1="-280.952" x2="-271.935" xlink:href="#lg5" y1="-953.986" y2="-944.969"/><linearGradient id="SVGID_14_" gradientUnits="userSpaceOnUse" x1="132.398" x2="145.495" xlink:href="#lg4" y1="68.077" y2="68.077"/><linearGradient id="SVGID_15_" gradientUnits="userSpaceOnUse" x1="134.071" x2="143.088" xlink:href="#lg5" y1="44.474" y2="53.491"/><linearGradient id="SVGID_16_" gradientTransform="matrix(-1 0 0 -1 -554 -350.034)" gradientUnits="userSpaceOnUse" x1="-696.202" x2="-683.104" xlink:href="#lg4" y1="-554.509" y2="-554.509"/><linearGradient id="SVGID_17_" gradientTransform="matrix(-1 0 0 -1 -554 -350.034)" gradientUnits="userSpaceOnUse" x1="-694.528" x2="-685.511" xlink:href="#lg5" y1="-578.112" y2="-569.095"/><linearGradient id="SVGID_18_" gradientTransform="matrix(0 -1 1 0 -203.966 -554)" gradientUnits="userSpaceOnUse" x1="-695.178" x2="-682.081" xlink:href="#lg4" y1="273.067" y2="273.067"/><linearGradient id="SVGID_19_" gradientTransform="matrix(0 -1 1 0 -203.966 -554)" gradientUnits="userSpaceOnUse" x1="-693.505" x2="-684.488" xlink:href="#lg5" y1="249.464" y2="258.481"/><linearGradient id="SVGID_20_" gradientTransform="matrix(-.707 -.707 .707 -.707 -421.226 -524.511)" gradientUnits="userSpaceOnUse" x1="-867.086" x2="-853.989" xlink:href="#lg4" y1="-140.509" y2="-140.509"/><linearGradient id="SVGID_21_" gradientTransform="matrix(-.707 -.707 .707 -.707 -421.226 -524.511)" gradientUnits="userSpaceOnUse" x1="-865.413" x2="-856.396" xlink:href="#lg5" y1="-164.112" y2="-155.095"/><linearGradient id="SVGID_22_" gradientTransform="matrix(.707 -.707 .707 .707 -29.489 -421.226)" gradientUnits="userSpaceOnUse" x1="-281.178" x2="-268.081" xlink:href="#lg4" y1="443.952" y2="443.952"/><linearGradient id="SVGID_23_" gradientTransform="matrix(.707 -.707 .707 .707 -29.489 -421.226)" gradientUnits="userSpaceOnUse" x1="-279.505" x2="-270.488" xlink:href="#lg5" y1="420.349" y2="429.366"/><linearGradient id="SVGID_24_" gradientUnits="userSpaceOnUse" x1="89.915" x2="189.28" xlink:href="#lg5" y1="88.891" y2="188.256"/><linearGradient id="lg6"><stop offset="0" stop-color="#e63950" stop-opacity="0"/><stop offset=".0467" stop-color="#e4354b" stop-opacity=".047"/><stop offset=".4669" stop-color="#d31822" stop-opacity=".467"/><stop offset=".7991" stop-color="#c90709" stop-opacity=".799"/><stop offset="1" stop-color="#c50000"/></linearGradient><linearGradient id="SVGID_25_" gradientUnits="userSpaceOnUse" x1="181.086" x2="144.492" xlink:href="#lg6" y1="102.43" y2="65.837"/><linearGradient id="SVGID_26_" gradientUnits="userSpaceOnUse" x1="146.531" x2="129.375" xlink:href="#lg6" y1="154.859" y2="120.954"/><linearGradient id="SVGID_27_" gradientTransform="matrix(.927 .375 -.375 .927 -124.05 83.644)" gradientUnits="userSpaceOnUse" x1="258.088" x2="268.593" xlink:href="#lg4" y1="-103.886" y2="-103.886"/><linearGradient id="SVGID_28_" gradientTransform="matrix(.927 .375 -.375 .927 -124.05 83.644)" gradientUnits="userSpaceOnUse" x1="259.43" x2="266.662" xlink:href="#lg5" y1="-122.817" y2="-115.585"/><linearGradient id="SVGID_29_" gradientTransform="matrix(-.375 .927 -.927 -.375 -637.644 -124.05)" gradientUnits="userSpaceOnUse" x1="-53.118" x2="-42.613" xlink:href="#lg4" y1="-870.72" y2="-870.72"/><linearGradient id="SVGID_30_" gradientTransform="matrix(-.375 .927 -.927 -.375 -637.644 -124.05)" gradientUnits="userSpaceOnUse" x1="-51.775" x2="-44.543" xlink:href="#lg5" y1="-889.651" y2="-882.418"/><linearGradient id="SVGID_31_" gradientTransform="matrix(.39 .921 -.921 .39 -423.862 86.166)" gradientUnits="userSpaceOnUse" x1="261.302" x2="271.807" xlink:href="#lg4" y1="-551.755" y2="-551.755"/><linearGradient id="SVGID_32_" gradientTransform="matrix(.39 .921 -.921 .39 -423.862 86.166)" gradientUnits="userSpaceOnUse" x1="262.644" x2="269.876" xlink:href="#lg5" y1="-570.686" y2="-563.454"/><linearGradient id="SVGID_33_" gradientTransform="matrix(-.921 .39 -.39 -.921 -640.166 -423.862)" gradientUnits="userSpaceOnUse" x1="-500.987" x2="-490.482" xlink:href="#lg4" y1="-873.933" y2="-873.933"/><linearGradient id="SVGID_34_" gradientTransform="matrix(-.921 .39 -.39 -.921 -640.166 -423.862)" gradientUnits="userSpaceOnUse" x1="-499.645" x2="-492.413" xlink:href="#lg5" y1="-892.864" y2="-885.632"/><linearGradient id="SVGID_35_" gradientTransform="matrix(-.927 -.375 .375 -.927 -506.417 -448.554)" gradientUnits="userSpaceOnUse" x1="-819.951" x2="-809.446" xlink:href="#lg4" y1="-355.548" y2="-355.548"/><linearGradient id="SVGID_36_" gradientTransform="matrix(-.927 -.375 .375 -.927 -506.417 -448.554)" gradientUnits="userSpaceOnUse" x1="-818.609" x2="-811.377" xlink:href="#lg5" y1="-374.479" y2="-367.247"/><linearGradient id="SVGID_37_" gradientUnits="userSpaceOnUse" x1="85.668" x2="79.949" xlink:href="#lg6" y1="131.016" y2="90.779"/><linearGradient id="SVGID_38_" gradientTransform="matrix(.375 -.927 .927 .375 -105.446 -506.417)" gradientUnits="userSpaceOnUse" x1="-508.746" x2="-498.241" xlink:href="#lg4" y1="411.286" y2="411.286"/><linearGradient id="SVGID_39_" gradientTransform="matrix(.375 -.927 .927 .375 -105.446 -506.417)" gradientUnits="userSpaceOnUse" x1="-507.404" x2="-500.172" xlink:href="#lg5" y1="392.355" y2="399.587"/><linearGradient id="SVGID_40_" gradientTransform="matrix(-.39 -.921 .921 -.39 -317.915 -560.529)" gradientUnits="userSpaceOnUse" x1="-823.165" x2="-812.66" xlink:href="#lg4" y1="92.322" y2="92.322"/><linearGradient id="SVGID_41_" gradientTransform="matrix(-.39 -.921 .921 -.39 -317.915 -560.529)" gradientUnits="userSpaceOnUse" x1="-821.823" x2="-814.591" xlink:href="#lg5" y1="73.391" y2="80.623"/><linearGradient id="SVGID_42_" gradientUnits="userSpaceOnUse" x1="132.518" x2="92.486" xlink:href="#lg6" y1="92.578" y2="61.329"/><linearGradient id="SVGID_43_" gradientTransform="matrix(.921 -.39 .39 .921 6.529 -317.915)" gradientUnits="userSpaceOnUse" x1="-60.876" x2="-50.371" xlink:href="#lg4" y1="414.5" y2="414.5"/><linearGradient id="SVGID_44_" gradientTransform="matrix(.921 -.39 .39 .921 6.529 -317.915)" gradientUnits="userSpaceOnUse" x1="-59.534" x2="-52.302" xlink:href="#lg5" y1="395.568" y2="402.801"/><linearGradient id="SVGID_45_" gradientUnits="userSpaceOnUse" x1="124.636" x2="160.003" xlink:href="#lg4" y1="123.613" y2="158.98"/><g><g><path d="m69.814 101.214v404.252h403.219c20.416 0 36.967-16.551 36.967-36.967v-367.279c0-16.64-18.602-26.513-32.383-17.188-7.024 4.753-16.233 4.754-23.258.001l-10.391-7.029c-13.291-8.991-30.715-8.991-44.006 0l-.014.009c-13.292 8.992-30.719 8.991-44.01-.003-13.293-8.995-30.722-8.995-44.014 0-13.291 8.994-30.718 8.995-44.01.003l-.011-.007c-13.292-8.992-30.719-8.991-44.01.003l-.003.002c-13.291 8.994-30.718 8.995-44.01.003l-.014-.01c-13.291-8.991-30.715-8.991-44.006 0l-10.392 7.03c-7.024 4.752-16.232 4.752-23.256 0l-.015-.01c-13.783-9.322-32.383.552-32.383 17.19z" fill="url(#SVGID_1_)"/><path d="m440.249 74.808c-3.154-1.662-6.472-2.885-9.876-3.631v434.289h42.661c20.416 0 36.967-16.551 36.967-36.967v-323.94z" fill="url(#SVGID_2_)"/><path d="m440.186 35.486v437.132c0 18.141 14.706 32.847 32.847 32.847h-436.066c-20.416.001-36.967-16.549-36.967-36.966v-433.007c0-16.64 18.602-26.513 32.383-17.188 7.024 4.753 16.234 4.754 23.258.001l10.391-7.029c13.291-8.991 30.715-8.991 44.006 0l.014.009c13.292 8.992 30.719 8.991 44.01-.003 13.293-8.995 30.722-8.995 44.014 0 13.291 8.994 30.718 8.995 44.01.003l.011-.007c13.292-8.992 30.719-8.991 44.01.003l.003.002c13.291 8.994 30.718 8.995 44.01.003l.014-.01c13.291-8.991 30.715-8.991 44.006 0l10.392 7.03c7.024 4.752 16.232 4.752 23.256 0l.015-.01c13.783-9.322 32.383.552 32.383 17.19z" fill="url(#SVGID_3_)"/><path d="m0 402.603v65.896c0 20.416 16.551 36.967 36.967 36.967h436.066c-18.141 0-32.847-14.706-32.847-32.847v-70.016z" fill="url(#SVGID_4_)"/><g><g><g fill="#9ae1d3"><g><path d="m198.865 305.843h-138.769c-6.639 0-12.021-5.382-12.021-12.021v-24.042c0-6.639 5.382-12.021 12.021-12.021h138.769c6.639 0 12.021 5.382 12.021 12.021v24.042c0 6.64-5.382 12.021-12.021 12.021z"/><path d="m380.09 305.843h-130.103c-6.639 0-12.021-5.382-12.021-12.021v-24.042c0-6.639 5.382-12.021 12.021-12.021h130.103c6.639 0 12.021 5.382 12.021 12.021v24.042c0 6.64-5.382 12.021-12.021 12.021z"/></g><g><path d="m289.089 378.265h91.001c6.639 0 12.021-5.382 12.021-12.021v-24.042c0-6.639-5.382-12.021-12.021-12.021h-91.001c-6.639 0-12.021 5.382-12.021 12.021v24.042c0 6.639 5.382 12.021 12.021 12.021z"/><path d="m60.096 378.265h177.871c6.639 0 12.021-5.382 12.021-12.021v-24.042c0-6.639-5.382-12.021-12.021-12.021h-177.871c-6.639 0-12.021 5.382-12.021 12.021v24.042c0 6.639 5.382 12.021 12.021 12.021z"/></g><g><path d="m198.865 450.686h-138.769c-6.639 0-12.021-5.382-12.021-12.021v-24.042c0-6.639 5.382-12.021 12.021-12.021h138.769c6.639 0 12.021 5.382 12.021 12.021v24.042c0 6.639-5.382 12.021-12.021 12.021z"/><path d="m380.09 450.686h-130.103c-6.639 0-12.021-5.382-12.021-12.021v-24.042c0-6.639 5.382-12.021 12.021-12.021h130.103c6.639 0 12.021 5.382 12.021 12.021v24.042c0 6.639-5.382 12.021-12.021 12.021z"/></g></g></g><path d="m386.953 124.452h-140.795c-2.848 0-5.158-2.309-5.158-5.158v-43.875c0-2.848 2.309-5.158 5.158-5.158h140.795c2.848 0 5.158 2.309 5.158 5.158v43.875c0 2.848-2.309 5.158-5.158 5.158z" fill="url(#SVGID_5_)"/><path d="m333.985 198.628h-88.85c-2.284 0-4.135-1.851-4.135-4.135v-45.92c0-2.284 1.851-4.135 4.135-4.135h88.85c2.284 0 4.135 1.851 4.135 4.135v45.92c0 2.284-1.851 4.135-4.135 4.135z" fill="url(#SVGID_6_)"/></g></g><path d="m208.018 65.558c-4.467-4.467-11.709-3.467-16.175 1-3.556 3.556-3.271 7.868-1.165 12.141l-2.515 3.515c-.018-.01-41.112-40.49-41.112-40.49-2.012-3.274-5.626-4.936-9.751-4.936-6.317 0-10.393 4.599-10.393 10.915 0 4.122 1.139 7.73 4.41 9.742.625 1.018 1.927 2.453 2.829 3.227v5.792c-4.773.245-9.418.973-13.894 2.124-.622-.604-1.847-1.632-2.602-2.034-2.21-4.149-7.26-5.474-11.67-3.604-4.664 1.978-6.32 6.841-4.341 11.505.158.374.346 1.248.546 1.589-1.929 1.134-3.796 2.36-5.602 3.666-.102-.068-13.826-14.152-13.826-14.152-4.467-4.467-11.186-3.422-15.653 1.045s-4.989 10.664-.523 15.13c0 0 14.606 13.722 14.673 13.824-1.537 2.125-3.482 4.86-4.779 7.154-.344-.194-1.22-.898-1.596-1.05-4.697-1.9-9.522-.154-11.421 4.543-1.777 4.394-.429 9.355 3.665 11.533.433.812 1.512 2.083 2.177 2.739-.971 4.09-1.066 8.316-1.289 12.647l-6.314.522c-.775-.902-2.21-2.727-3.228-3.352-2.012-3.271-5.62-4.932-9.742-4.932-6.317 0-10.915 4.598-10.915 10.915 0 4.125 1.662 7.739 4.936 9.751l40.003 41.599-3.029 2.029c-4.273-2.106-9.585-1.391-13.141 2.165-4.467 4.467-4.467 10.709 0 15.176l298.471 298.472h107.981c-18.141 0-32.847-14.706-32.847-32.847v-174.611z" fill="url(#SVGID_7_)"/><g><g><path d="m188.801 136.276c0-2.03 1.646-3.676 3.676-3.676h26.043c2.03 0 3.676 1.646 3.676 3.676 0 2.03-1.646 3.676-3.676 3.676h-26.043c-2.03.001-3.676-1.645-3.676-3.676z" fill="url(#SVGID_8_)"/><circle cx="225.873" cy="136.276" fill="url(#SVGID_9_)" r="11.438"/></g><g><path d="m173.716 99.859c-1.436-1.436-1.436-3.764 0-5.199l18.415-18.415c1.436-1.436 3.764-1.436 5.199 0 1.436 1.436 1.436 3.764 0 5.199l-18.415 18.415c-1.435 1.436-3.763 1.436-5.199 0z" fill="url(#SVGID_10_)"/><circle cx="199.93" cy="73.645" fill="url(#SVGID_11_)" r="11.438"/></g><g><path d="m173.716 172.693c1.436-1.436 3.764-1.436 5.199 0l18.415 18.415c1.436 1.436 1.436 3.764 0 5.199-1.436 1.436-3.764 1.436-5.199 0l-18.415-18.415c-1.435-1.436-1.435-3.763 0-5.199z" fill="url(#SVGID_12_)"/><circle cx="199.93" cy="198.907" fill="url(#SVGID_13_)" r="11.438"/></g><g><path d="m137.3 84.775c-2.03 0-3.676-1.646-3.676-3.676v-26.043c0-2.03 1.646-3.676 3.676-3.676 2.03 0 3.676 1.646 3.676 3.676v26.043c0 2.03-1.646 3.676-3.676 3.676z" fill="url(#SVGID_14_)"/><circle cx="137.3" cy="47.703" fill="url(#SVGID_15_)" r="11.438"/></g><g><path d="m137.3 187.777c2.03 0 3.676 1.646 3.676 3.676v26.043c0 2.03-1.646 3.676-3.676 3.676-2.03 0-3.676-1.646-3.676-3.676v-26.043c-.001-2.03 1.645-3.676 3.676-3.676z" fill="url(#SVGID_16_)"/><circle cx="137.3" cy="224.849" fill="url(#SVGID_17_)" r="11.438"/></g><g><path d="m85.799 136.276c0 2.03-1.646 3.676-3.676 3.676h-26.044c-2.03 0-3.676-1.646-3.676-3.676 0-2.03 1.646-3.676 3.676-3.676h26.043c2.031 0 3.677 1.646 3.677 3.676z" fill="url(#SVGID_18_)"/><circle cx="48.726" cy="136.276" fill="url(#SVGID_19_)" r="11.438"/></g><g><path d="m100.883 172.693c1.436 1.436 1.436 3.764 0 5.199l-18.415 18.415c-1.436 1.436-3.764 1.436-5.199 0-1.436-1.436-1.436-3.764 0-5.199l18.415-18.415c1.435-1.436 3.763-1.436 5.199 0z" fill="url(#SVGID_20_)"/><circle cx="74.669" cy="198.907" fill="url(#SVGID_21_)" r="11.438"/></g><g><path d="m100.883 99.859c-1.436 1.436-3.764 1.436-5.199 0l-18.416-18.415c-1.436-1.436-1.436-3.764 0-5.199 1.436-1.436 3.764-1.436 5.199 0l18.415 18.415c1.437 1.436 1.437 3.764.001 5.199z" fill="url(#SVGID_22_)"/><circle cx="74.669" cy="73.645" fill="url(#SVGID_23_)" r="11.438"/></g><circle cx="137.3" cy="136.276" fill="url(#SVGID_24_)" r="70.429"/><path d="m165.395 71.68-10.638 26.386s11.274 2.888 21.894 20.753l25.448-10.176c-7.055-16.521-20.243-29.794-36.704-36.963z" fill="url(#SVGID_25_)"/><path d="m137.3 206.705c38.897 0 70.429-31.532 70.429-70.429 0-9.096-1.725-17.789-4.865-25.771l-129.724 54.859c11.072 24.383 35.635 41.341 64.16 41.341z" fill="url(#SVGID_26_)"/><g><path d="m152.786 97.982c-1.51-.611-2.239-2.329-1.628-3.839l7.831-19.365c.611-1.51 2.329-2.239 3.839-1.628 1.51.611 2.239 2.329 1.628 3.839l-7.831 19.365c-.611 1.509-2.33 2.238-3.839 1.628z" fill="url(#SVGID_27_)"/><circle cx="163.933" cy="70.416" fill="url(#SVGID_28_)" r="9.174"/></g><g><path d="m175.594 151.762c.611-1.51 2.329-2.239 3.839-1.628l19.365 7.831c1.51.611 2.239 2.329 1.628 3.839-.611 1.51-2.329 2.239-3.839 1.628l-19.365-7.831c-1.51-.61-2.238-2.329-1.628-3.839z" fill="url(#SVGID_29_)"/><circle cx="203.16" cy="162.909" fill="url(#SVGID_30_)" r="9.174"/></g><g><path d="m175.328 120.148c-.636-1.499.064-3.23 1.563-3.866l19.23-8.156c1.499-.636 3.23.064 3.866 1.563.636 1.499-.064 3.23-1.563 3.866l-19.23 8.156c-1.499.636-3.23-.064-3.866-1.563z" fill="url(#SVGID_31_)"/><circle cx="202.702" cy="108.539" fill="url(#SVGID_32_)" r="9.174"/></g><g><path d="m153.428 174.305c1.499-.636 3.23.064 3.866 1.563l8.156 19.23c.636 1.499-.064 3.23-1.563 3.866-1.499.636-3.23-.064-3.866-1.563l-8.156-19.23c-.637-1.5.063-3.231 1.563-3.866z" fill="url(#SVGID_33_)"/><circle cx="165.037" cy="201.679" fill="url(#SVGID_34_)" r="9.174"/></g><g><path d="m121.814 174.571c1.51.611 2.239 2.329 1.628 3.839l-7.831 19.365c-.611 1.51-2.329 2.239-3.839 1.628-1.51-.611-2.239-2.329-1.628-3.839l7.831-19.365c.61-1.51 2.329-2.239 3.839-1.628z" fill="url(#SVGID_35_)"/><circle cx="110.666" cy="202.136" fill="url(#SVGID_36_)" r="9.174"/></g><path d="m69.101 118.512 25.927 25.927s-2.455-17.484 3.977-23.649l-26.921-11.147z" fill="url(#SVGID_37_)"/><g><path d="m99.005 120.79c-.611 1.51-2.329 2.239-3.839 1.628l-19.365-7.831c-1.51-.611-2.239-2.329-1.628-3.839.611-1.51 2.329-2.239 3.839-1.628l19.365 7.831c1.51.611 2.239 2.329 1.628 3.839z" fill="url(#SVGID_38_)"/><circle cx="71.439" cy="109.643" fill="url(#SVGID_39_)" r="9.174"/></g><g><path d="m99.271 152.404c.636 1.499-.064 3.23-1.563 3.866l-19.23 8.156c-1.499.636-3.23-.064-3.866-1.563-.636-1.499.064-3.23 1.563-3.866l19.23-8.156c1.499-.636 3.23.064 3.866 1.563z" fill="url(#SVGID_40_)"/><circle cx="71.897" cy="164.014" fill="url(#SVGID_41_)" r="9.174"/></g><path d="m109.943 71.358 11.221 25.499c9.395-4.698 21.975-3.701 21.975-3.701l-24.74-24.74c-2.898.805-5.721 1.788-8.456 2.942z" fill="url(#SVGID_42_)"/><g><path d="m121.172 98.248c-1.499.636-3.23-.064-3.866-1.563l-8.156-19.23c-.636-1.499.064-3.23 1.563-3.866 1.499-.636 3.23.064 3.866 1.563l8.156 19.23c.636 1.499-.064 3.23-1.563 3.866z" fill="url(#SVGID_43_)"/><circle cx="109.562" cy="70.873" fill="url(#SVGID_44_)" r="9.174"/></g><circle cx="137.3" cy="136.276" fill="url(#SVGID_45_)" r="44.863"/></g></g></svg>