<svg id="Capa_1" enable-background="new 0 0 510 510" height="512" viewBox="0 0 510 510" width="512" xmlns="http://www.w3.org/2000/svg" xmlns:xlink="http://www.w3.org/1999/xlink"><linearGradient id="SVGID_1_" gradientTransform="matrix(.707 .707 -.707 .707 -16.221 663.479)" gradientUnits="userSpaceOnUse" x1="-98.225" x2="-72.738" y1="-244.965" y2="-244.965"><stop offset="0" stop-color="#cbd0e4"/><stop offset="1" stop-color="#6a7d83"/></linearGradient><linearGradient id="lg1"><stop offset="0" stop-color="#edf5ff"/><stop offset="1" stop-color="#d5e8fe"/></linearGradient><linearGradient id="SVGID_2_" gradientTransform="matrix(.707 .707 -.707 .707 -16.221 663.479)" gradientUnits="userSpaceOnUse" x1="-96.919" x2="-93.638" xlink:href="#lg1" y1="-347.022" y2="-315.523"/><linearGradient id="lg2"><stop offset="0" stop-color="#07485e" stop-opacity="0"/><stop offset=".2708" stop-color="#074459" stop-opacity=".271"/><stop offset=".597" stop-color="#05394a" stop-opacity=".597"/><stop offset=".9505" stop-color="#032632" stop-opacity=".951"/><stop offset="1" stop-color="#03232e"/></linearGradient><linearGradient id="SVGID_3_" gradientTransform="matrix(.707 .707 -.707 .707 -16.221 663.479)" gradientUnits="userSpaceOnUse" x1="-97.056" x2="-97.056" xlink:href="#lg2" y1="-323.212" y2="-385.585"/><linearGradient id="SVGID_4_" gradientTransform="matrix(.707 .707 -.707 .707 -16.221 663.479)" gradientUnits="userSpaceOnUse" x1="-196.453" x2="2.341" xlink:href="#lg1" y1="-500.723" y2="-500.723"/><linearGradient id="SVGID_5_" gradientTransform="matrix(.707 .707 -.707 .707 -16.221 663.479)" gradientUnits="userSpaceOnUse" x1="-139.963" x2="-78.933" y1="-477.267" y2="-441.83"><stop offset="0" stop-color="#9ae1d3"/><stop offset="1" stop-color="#80d1c1"/></linearGradient><linearGradient id="SVGID_6_" gradientTransform="matrix(.707 .707 -.707 .707 -16.221 663.479)" gradientUnits="userSpaceOnUse" x1="-97.056" x2="-97.056" xlink:href="#lg2" y1="-393.224" y2="-341.886"/><linearGradient id="lg3"><stop offset="0" stop-color="#0b799d"/><stop offset="1" stop-color="#07485e"/></linearGradient><linearGradient id="SVGID_7_" gradientTransform="matrix(.707 .707 -.707 .707 -16.221 663.479)" gradientUnits="userSpaceOnUse" x1="-29.221" x2="-29.221" xlink:href="#lg3" y1="-406.811" y2="-394.164"/><linearGradient id="SVGID_8_" gradientTransform="matrix(.707 .707 -.707 .707 -16.221 663.479)" gradientUnits="userSpaceOnUse" x1="-41.138" x2="-41.138" xlink:href="#lg3" y1="-454.662" y2="-442.014"/><linearGradient id="SVGID_9_" gradientTransform="matrix(.707 .707 -.707 .707 -16.221 663.479)" gradientUnits="userSpaceOnUse" x1="-29.221" x2="-29.221" xlink:href="#lg3" y1="-502.512" y2="-489.865"/><linearGradient id="SVGID_10_" gradientTransform="matrix(.707 .707 -.707 .707 -16.221 663.479)" gradientUnits="userSpaceOnUse" x1="-41.138" x2="-41.138" xlink:href="#lg3" y1="-550.362" y2="-537.715"/><linearGradient id="SVGID_11_" gradientTransform="matrix(.707 .707 -.707 .707 -16.221 663.479)" gradientUnits="userSpaceOnUse" x1="-29.221" x2="-29.221" xlink:href="#lg3" y1="-598.212" y2="-585.565"/><linearGradient id="SVGID_12_" gradientTransform="matrix(.707 .707 -.707 .707 -16.221 663.479)" gradientUnits="userSpaceOnUse" x1="-126.915" x2="21.394" xlink:href="#lg2" y1="-585.815" y2="-585.815"/><linearGradient id="SVGID_13_" gradientUnits="userSpaceOnUse" x1="284.207" x2="214.207" y1="258.142" y2="71.142"><stop offset="0" stop-color="#fff" stop-opacity="0"/><stop offset="1" stop-color="#fff"/></linearGradient><linearGradient id="SVGID_14_" gradientTransform="matrix(.707 .707 -.707 .707 -16.221 663.479)" gradientUnits="userSpaceOnUse" x1="-97.056" x2="-97.056" xlink:href="#lg2" y1="-545.019" y2="-732.776"/><linearGradient id="SVGID_15_" gradientTransform="matrix(.707 .707 -.707 .707 -16.221 663.479)" gradientUnits="userSpaceOnUse" x1="-119.696" x2="-90.165" xlink:href="#lg1" y1="-698.048" y2="-698.048"/><linearGradient id="SVGID_16_" gradientTransform="matrix(.707 .707 -.707 .707 -16.221 663.479)" gradientUnits="userSpaceOnUse" x1="-97.056" x2="-97.056" xlink:href="#lg2" y1="-692.016" y2="-775.368"/><linearGradient id="SVGID_17_" gradientTransform="matrix(.707 .707 -.707 .707 -16.221 663.479)" gradientUnits="userSpaceOnUse" x1="-97.056" x2="-97.056" xlink:href="#lg1" y1="-758.102" y2="-726.096"/><linearGradient id="SVGID_18_" gradientTransform="matrix(.707 .707 -.707 .707 -16.221 663.479)" gradientUnits="userSpaceOnUse" x1="-97.056" x2="-97.056" xlink:href="#lg1" y1="-673.969" y2="-625.098"/><g><path d="m3.802 506.198c-5.069-5.069-5.069-13.289 0-18.358l150.771-150.771c5.069-5.069 13.289-5.069 18.358 0 5.069 5.069 5.069 13.289 0 18.358l-150.771 150.771c-5.069 5.069-13.288 5.069-18.358 0z" fill="url(#SVGID_1_)"/><g><path d="m167.129 409.227-66.356-66.356c-9.354-9.354-9.354-24.52 0-33.874l22.041-22.041 100.23 100.23-22.041 22.041c-9.354 9.354-24.52 9.354-33.874 0z" fill="url(#SVGID_2_)"/><path d="m223.047 387.183-22.044 22.044c-9.355 9.355-24.515 9.355-33.869 0l-49.628-49.628v-67.335l5.311-5.311z" fill="url(#SVGID_3_)"/></g><g><path d="m223.587 398.343-111.93-111.93c-7.908-7.908-7.908-20.73 0-28.638l174.548-174.549c7.908-7.908 20.73-7.908 28.638 0l111.931 111.931c7.908 7.908 7.908 20.73 0 28.638l-174.549 174.548c-7.908 7.908-20.73 7.908-28.638 0z" fill="url(#SVGID_4_)"/><path d="m231.104 376.974-98.078-98.078c-5.207-5.207-5.207-13.649 0-18.857l87.038-87.038c5.207-5.207 13.649-5.207 18.857 0l98.078 98.078c5.207 5.207 5.207 13.649 0 18.857l-87.038 87.038c-5.207 5.207-13.65 5.207-18.857 0z" fill="url(#SVGID_5_)"/><path d="m138.23 231.201-26.573 26.573c-7.908 7.908-7.908 20.73 0 28.638l111.931 111.931c7.908 7.908 20.73 7.908 28.638 0l26.573-26.573z" fill="url(#SVGID_6_)"/><g><path d="m256.982 373.966-25.015-25.015c-2.782-2.782-2.782-7.292 0-10.074 2.782-2.782 7.292-2.782 10.074 0l25.015 25.015c2.782 2.782 2.782 7.292 0 10.074-2.782 2.782-7.292 2.782-10.074 0z" fill="url(#SVGID_7_)"/><path d="m290.817 340.131-41.869-41.869c-2.782-2.782-2.782-7.292 0-10.074 2.782-2.782 7.292-2.782 10.074 0l41.869 41.869c2.782 2.782 2.782 7.292 0 10.074-2.782 2.782-7.292 2.782-10.074 0z" fill="url(#SVGID_8_)"/><path d="m324.652 306.296-25.015-25.015c-2.782-2.782-2.782-7.292 0-10.074 2.782-2.782 7.292-2.782 10.074 0l25.015 25.015c2.782 2.782 2.782 7.292 0 10.074-2.781 2.782-7.292 2.782-10.074 0z" fill="url(#SVGID_9_)"/><path d="m358.487 272.461-41.869-41.869c-2.782-2.782-2.782-7.292 0-10.074 2.782-2.782 7.292-2.782 10.074 0l41.869 41.869c2.782 2.782 2.782 7.292 0 10.074-2.781 2.782-7.292 2.782-10.074 0z" fill="url(#SVGID_10_)"/><path d="m392.323 238.626-25.015-25.015c-2.782-2.782-2.782-7.292 0-10.074 2.782-2.782 7.292-2.782 10.074 0l25.015 25.015c2.782 2.782 2.782 7.292 0 10.074-2.782 2.781-7.292 2.781-10.074 0z" fill="url(#SVGID_11_)"/></g></g><path d="m308.258 242.339-40.597-40.597 82.849-82.849 40.597 40.597z" fill="url(#SVGID_12_)"/><path d="m325.862 94.246-186.545 186.545c-9.19 9.19-9.19 24.091-.001 33.281l84.271 84.271c7.908 7.908 20.73 7.908 28.638 0l174.548-174.548c7.908-7.908 7.908-20.73 0-28.638z" fill="url(#SVGID_13_)"/><path d="m426.774 195.157-111.931-111.931c-7.908-7.908-20.73-7.908-28.638 0v281.137l140.569-140.569c7.908-7.907 7.908-20.729 0-28.637z" fill="url(#SVGID_14_)"/><g><path d="m406.444 144.154-40.598-40.598 45.2-45.2 40.598 40.598z" fill="url(#SVGID_15_)"/><path d="m408.328 61.074v81.195l43.316-43.315-40.598-40.598z" fill="url(#SVGID_16_)"/><path d="m479.807 132.553-102.36-102.36c-5.015-5.015-5.015-13.147 0-18.162l8.269-8.269c5.015-5.015 13.147-5.015 18.162 0l102.36 102.36c5.015 5.015 5.015 13.147 0 18.162l-8.269 8.269c-5.015 5.015-13.146 5.015-18.162 0z" fill="url(#SVGID_17_)"/></g><path d="m435.387 230.913-156.3-156.3c-7.658-7.658-7.658-20.075 0-27.733l12.626-12.626c7.658-7.658 20.075-7.658 27.733 0l156.3 156.3c7.658 7.658 7.658 20.075 0 27.733l-12.626 12.626c-7.658 7.658-20.075 7.658-27.733 0z" fill="url(#SVGID_18_)"/></g></svg>