<svg id="Capa_1" enable-background="new 0 0 512 512" height="512" viewBox="0 0 512 512" width="512" xmlns="http://www.w3.org/2000/svg"><g><path d="m406 0h-150-150c-24.814 0-45 20.186-45 45v422c0 24.814 20.186 45 45 45h150 150c24.814 0 45-20.186 45-45v-422c0-24.814-20.186-45-45-45z" fill="#465a61"/><path d="m451 467v-422c0-24.814-20.186-45-45-45h-150v512h150c24.814 0 45-20.186 45-45z" fill="#3b4a51"/><path d="m421 45v422c0 8.401-6.599 15-15 15h-300c-8.401 0-15-6.599-15-15v-422c0-8.401 6.599-15 15-15h300c8.401 0 15 6.599 15 15z" fill="#f0f7ff"/><path d="m421 45v422c0 8.401-6.599 15-15 15h-150v-452h150c8.401 0 15 6.599 15 15z" fill="#dfe7f4"/><path d="m346 120h-90-90c-24.814 0-45 20.186-45 45v182c0 24.814 20.186 45 45 45h90 15l15-30 15 30h45c24.814 0 45-20.186 45-45v-182c0-24.814-20.186-45-45-45z" fill="#73bcff"/><path d="m286 362 15 30h45c24.814 0 45-20.186 45-45v-182c0-24.814-20.186-45-45-45h-90v272h15z" fill="#2ea6ff"/><circle cx="256" cy="75" fill="#76e2f8" r="15"/><path d="m286 422h-30-30c-8.291 0-15 6.709-15 15s6.709 15 15 15h30 30c8.291 0 15-6.709 15-15s-6.709-15-15-15z" fill="#76e2f8"/><path d="m301 437c0-8.291-6.709-15-15-15h-30v30h30c8.291 0 15-6.709 15-15z" fill="#73bcff"/><path d="m271 75c0-8.284-6.716-15-15-15v30c8.284 0 15-6.716 15-15z" fill="#73bcff"/><path d="m316 271h-15v-15c0-8.276 6.724-15 15-15 8.291 0 15-6.709 15-15s-6.709-15-15-15c-24.814 0-45 20.186-45 45v15h-15c-8.291 0-15 6.709-15 15s6.709 15 15 15h15v91h30v-91h15c8.291 0 15-6.709 15-15s-6.709-15-15-15z" fill="#f0f7ff"/><path d="m271 392h30v-91h15c8.291 0 15-6.709 15-15s-6.709-15-15-15h-15v-15c0-8.276 6.724-15 15-15 8.291 0 15-6.709 15-15s-6.709-15-15-15c-24.814 0-45 20.186-45 45v15h-15v30h15z" fill="#dfe7f4"/></g></svg>