<svg id="Capa_1" enable-background="new 0 0 512 512" height="512" viewBox="0 0 512 512" width="512" xmlns="http://www.w3.org/2000/svg"><g><path d="m467 61h-211-211c-8.291 0-15 6.709-15 15v345h226 226v-345c0-8.291-6.709-15-15-15z" fill="#465a61"/><path d="m482 76c0-8.291-6.709-15-15-15h-211v360h226z" fill="#3b4a51"/><path d="m60 91h392v300h-392z" fill="#f0f7ff"/><path d="m256 91h196v300h-196z" fill="#dfe7f4"/><path d="m379.633 136.454c-.634-.174-7.936-1.895-18.633-2.961l-30 45.163-75 .007-75 .007-30-45.163c-10.708 1.068-18.012 2.787-18.633 2.946-6.679 1.671-11.367 7.662-11.367 14.547v150c0 9.743 9.15 16.893 18.633 14.546.234-.073 27.041-6.387 52.734 0 26.602 6.65 54.36 27.261 54.639 27.466 2.682 2.005 5.85 2.964 8.994 2.964 3.195 0 6.367-.991 8.994-2.979.278-.205 27.891-20.757 54.639-27.451 25.796-6.416 52.5-.044 52.764.015 9.429 2.356 18.603-4.878 18.603-14.561v-150c0-6.885-4.687-12.876-11.367-14.546z" fill="#a34f3e"/><path d="m264.994 342.997c.278-.205 27.891-20.757 54.639-27.451 25.796-6.416 52.5-.044 52.764.015 9.429 2.356 18.603-4.878 18.603-14.561v-150c0-6.885-4.688-12.876-11.367-14.546-.634-.174-7.936-1.895-18.633-2.961l-30 45.163-75 .007v167.313c3.195 0 6.367-.99 8.994-2.979z" fill="#873f2e"/><path d="m497 391h-241-241c-8.284 0-15 6.716-15 15 0 24.853 20.147 45 45 45h211 211c24.853 0 45-20.147 45-45 0-8.284-6.716-15-15-15z" fill="#596c76"/><path d="m512 406c0-8.284-6.716-15-15-15h-241v60h211c24.853 0 45-20.147 45-45z" fill="#465a61"/><path d="m256 162.777c-40.272-26.4-70.367-32.725-105-29.269v149.958c34.951-3.334 64.861 2.997 105 29.312 40.463-26.525 70.567-32.62 105-29.312v-149.973c-34.16-3.407-64.325 2.619-105 29.284z" fill="#fff7cc"/><path d="m361 283.466v-149.973c-34.16-3.408-64.325 2.618-105 29.284v150c40.463-26.524 70.567-32.62 105-29.311z" fill="#ffe6b3"/></g></svg>