<svg id="Capa_1" enable-background="new 0 0 511 511" height="512" viewBox="0 0 511 511" width="512" xmlns="http://www.w3.org/2000/svg"><g><path d="m334.7 406.732c-.571-8.276 5.669-15.439 13.931-16.011 73.799-5.098 106.04-47.168 104.766-84.111-.557-16.245-9.009-35.215-30.996-35.215-11.675 0-24.697 4.351-31.67 10.591-6.182 5.537-15.688 5.01-21.182-1.172-5.522-6.182-4.995-15.659 1.172-21.182 12.583-11.25 32.373-18.237 51.68-18.237 34.6 0 59.678 26.396 60.981 64.175 1.816 52.515-43.184 108.896-132.671 115.093-9.062.378-15.469-6.222-16.011-13.931z" fill="#00a66c"/><path d="m386.423 220.258c-2.314-5.61-7.793-9.258-13.857-9.258h-150-30l-15 30-15-30h-105c-6.064 0-12.041 3.018-14.37 8.613-2.314 5.61-1.538 11.411 2.754 15.703 2.065 4.16 2.9 21.519 3.574 35.464 3.281 68.229 10.096 210.2 173.042 210.218.011 0 .018.002.029.002 163.257 0 154.951-142.324 158.174-210.732.645-13.77 1.45-30.908 2.402-33.662 4.292-4.293 5.581-10.738 3.252-16.348z" fill="#91eb90"/><path d="m395.769 270.268c.645-13.77 1.45-30.908 2.402-33.662 4.292-4.292 5.581-10.737 3.252-16.348-2.314-5.61-7.793-9.258-13.857-9.258h-165v269.998c.011 0 .018.002.029.002 163.257 0 169.951-142.324 173.174-210.732z" fill="#59c36a"/><path d="m166.96 176.605c-5.859-5.859-5.859-15.352 0-21.211 4.248-4.321 10.605-13.521 10.605-19.395s-6.357-15.073-10.649-19.438c-1.948-1.934-19.351-20.937-19.351-41.562s17.402-38.628 19.395-40.605c5.859-5.859 15.352-5.859 21.211 0 5.845 5.845 5.859 15.308.044 21.167-4.292 4.365-10.649 13.564-10.649 19.438s6.357 16.073 10.649 20.438c1.948 1.934 19.351 19.937 19.351 40.562s-17.402 38.628-19.395 40.605c-5.859 5.861-15.351 5.861-21.211.001z" fill="#fff7cc"/><path d="m256.96 146.605c-5.859-5.859-5.859-15.352 0-21.211 4.248-4.321 10.605-13.521 10.605-19.395s-6.357-15.073-10.649-19.438c-1.948-1.934-19.351-20.937-19.351-41.562s17.403-38.627 19.395-40.604c5.859-5.859 15.352-5.859 21.211 0 5.845 5.845 5.859 15.308.044 21.167-4.292 4.365-10.649 13.564-10.649 19.438s6.357 15.073 10.649 19.438c1.948 1.934 19.351 20.937 19.351 41.562s-17.402 38.628-19.395 40.605c-5.859 5.86-15.351 5.86-21.211 0z" fill="#ffe6b3"/><path d="m402.566 481h-180-180c-8.291 0-15 6.709-15 15s6.709 15 15 15h180 180c8.291 0 15-6.709 15-15s-6.709-15-15-15z" fill="#ffe470"/><path d="m417.566 496c0-8.291-6.709-15-15-15h-180v30h180c8.291 0 15-6.709 15-15z" fill="#f8bb5e"/><path d="m192.566 279.914v-68.914h-15-15v68.914c-11.526 12.177-30 34.305-30 51.086v45c0 8.291 6.709 15 15 15h30 30c8.291 0 15-6.709 15-15v-45c0-16.782-18.474-38.91-30-51.086z" fill="#f0f7ff"/></g></svg>