<svg id="Capa_1" enable-background="new 0 0 512 512" height="512" viewBox="0 0 512 512" width="512" xmlns="http://www.w3.org/2000/svg"><g><g><path d="m323.427 39.529c-29.751 12.056-53.262 34.424-67.427 62.403-14.165-27.979-37.676-50.347-67.427-62.402-58.096-23.54-127.709-2.783-184.34 55.635l.322 21.211 251.445 64.232 251.444-64.233.322-20.661c-56.616-58.418-126.185-79.769-184.339-56.185z" fill="#fff7cc"/><path d="m323.427 39.529c-29.751 12.056-53.262 34.424-67.427 62.403v78.677l251.444-64.233.322-20.661c-56.616-58.419-126.185-79.77-184.339-56.186z" fill="#ffe6b3"/></g><path d="m499.52 90.769c-45.499-11.557-137.568-19.057-243.52 56.265-105.967-75.322-198.007-67.778-244.618-55.986-6.694 1.67-11.382 7.676-11.382 14.56v301c0 4.629 2.725 8.848 6.372 11.689 3.647 2.827 8.979 3.662 13.491 2.549 41.587-10.546 127.372-16.706 227.143 58.132 2.666 2.007 5.83 3.003 8.994 3.003s6.328-.996 8.994-3.003c99.771-74.81 185.541-68.708 228.373-57.81 4.482 1.099 9.257.103 12.861-2.739 3.647-2.842 5.771-7.207 5.771-11.821v-301c.001-6.87-5.829-13.154-12.479-14.839z" fill="#a34f3e"/><path d="m493.367 421.169c4.482 1.099 9.257.103 12.861-2.739 3.647-2.842 5.771-7.207 5.771-11.821v-301c0-6.87-5.83-13.154-12.48-14.839-45.498-11.558-137.567-19.058-243.519 56.264v334.947c3.164 0 6.328-.996 8.994-3.003 99.771-74.809 185.541-68.708 228.373-57.809z" fill="#873f2e"/><g><path d="m189.408 262.054c-37.646-18.413-75.864-28.022-113.613-28.55-8.203-.117-14.795-6.797-14.795-15v-30c0-4.014 1.611-7.866 4.468-10.679s7.017-4.351 10.737-4.321c42.217.586 84.741 11.221 126.387 31.597 5.142 2.52 8.408 7.749 8.408 13.477v30c0 5.171-2.666 9.99-7.061 12.729-4.244 2.649-9.717 3.086-14.531.747z" fill="#c86e59"/></g></g></svg>