<svg id="Capa_1" enable-background="new 0 0 511.931 511.931" height="512" viewBox="0 0 511.931 511.931" width="512" xmlns="http://www.w3.org/2000/svg"><g><g><g><path d="m336.537 137.746-198.791 198.791c-5.013 5.013-12.834 5.832-18.789 1.968l-18.955-12.202c-50.796-32.483-95.6-61.5-99.702-99.245-1.999-18.406 5.987-36.75 23.751-54.514 14.418-14.418 29.955-24.3 44.974-33.871 14.294-9.094 27.78-17.671 39.878-29.769s20.675-25.584 29.769-39.878c9.571-15.019 19.452-30.556 33.871-44.974 17.765-17.765 36.109-25.751 54.515-23.752 37.745 4.102 66.762 48.905 99.245 99.701l12.202 18.955c3.863 5.956 3.045 13.777-1.968 18.79z" fill="#fff7cc"/></g></g><g><g><path d="m487.88 339.388c-14.418 14.418-29.955 24.3-44.974 33.871-14.294 9.094-27.78 17.671-39.878 29.769s-20.675 25.584-29.769 39.878c-9.571 15.019-19.452 30.556-33.871 44.974-17.764 17.764-36.108 25.75-54.514 23.751-37.745-4.102-65.804-47.947-98.287-98.743l-12.202-18.955c-3.864-5.956-3.045-13.776 1.968-18.789l198.791-198.791c5.013-5.013 12.834-5.832 18.789-1.968l18.955 12.202c50.796 32.483 94.641 60.543 98.743 98.287 1.999 18.406-5.987 36.75-23.751 54.514z" fill="#ffe6b3"/></g></g><path d="m421.79 27.046-50.868 71.646 21.151 21.151 21.151 21.151 72.226-51.303c21.221-16.909 22.687-48.245 3.853-67.078-18.526-18.526-50.033-17.904-67.513 4.433z" fill="#f8bb5e"/><path d="m22.613 489.303c18.527 18.527 50.033 17.903 67.514-4.433l50.868-71.646-21.151-21.151-21.151-21.151-72.226 51.303c-20.272 16.189-22.633 48.299-3.854 67.078z" fill="#f8bb5e"/><path d="m485.45 89.691c21.22-16.91 22.687-48.245 3.853-67.078l-97.231 97.231 21.151 21.151z" fill="#ff9f00"/><path d="m90.126 484.87 50.868-71.646-21.151-21.151-97.231 97.231c18.527 18.526 50.034 17.902 67.514-4.434z" fill="#ff9f00"/><g><circle cx="202.925" cy="118.072" fill="#ffe6b3" r="15"/></g><g><circle cx="139.285" cy="224.138" fill="#ffe6b3" r="15"/></g><g><g><g><circle cx="308.991" cy="393.844" fill="#ffca80" r="15"/></g></g></g><g><g><g><circle cx="372.631" cy="287.778" fill="#ffca80" r="15"/></g></g></g><path d="m351.417 75.646-275.771 275.771c-5.863 5.863-5.863 15.351 0 21.213l31.82 31.82 31.82 31.82c5.863 5.863 15.351 5.863 21.213 0l275.771-275.771c5.863-5.863 5.863-15.351 0-21.213l-31.82-31.82-31.82-31.82c-5.862-5.863-15.35-5.863-21.213 0z" fill="#ffe470"/><path d="m160.499 436.27 275.771-275.771c5.863-5.863 5.863-15.351 0-21.213l-31.82-31.82-296.985 296.984 31.82 31.82c5.863 5.863 15.351 5.863 21.214 0z" fill="#f8bb5e"/></g></svg>