<svg id="Capa_1" enable-background="new 0 0 512.002 512.002" height="512" viewBox="0 0 512.002 512.002" width="512" xmlns="http://www.w3.org/2000/svg"><g><path d="m225.875 29.736c-8.383-23.249-33.994-35.519-57.612-27.056-23.335 8.423-35.464 34.263-27.041 57.598l5.083 14.106 84.653-30.527z" fill="#596c76"/><path d="m188.493 59.171 42.464-15.313-5.083-14.121c-8.383-23.249-33.994-35.519-57.612-27.056-.05.018-.097.039-.147.057z" fill="#465a61"/><path d="m374.38 88.125c-4.766-13.286-18.71-31.694-39.434-43.828-31.889-18.701-69.942-19.109-106.874-11.552-15.196 3.109-30.218 7.423-44.517 12.592-49.03 17.682-99.391 46.794-117.217 95.845-8.145 22.403-7.289 45.207-2.373 58.916 2.847 7.917 11.62 11.797 19.189 9.009l141.101-50.896 3.816-1.377 137.285-49.519c7.783-2.797 11.837-11.395 9.024-19.19z" fill="#ff7d43"/><path d="m224.256 158.21 3.816-1.377 137.285-49.519c7.782-2.796 11.836-11.395 9.023-19.189-4.766-13.286-18.71-31.694-39.434-43.828-31.889-18.701-69.942-19.109-106.874-11.552-15.196 3.109-30.218 7.423-44.517 12.592z" fill="#ff4b00"/><path d="m378.072 150c-8.291 0-15-6.709-15-15s6.709-15 15-15c6.064-.044 17.051-2.051 21.211-6.211 4.395-4.395 6.211-15.981 6.211-21.211 0-2.813.425-27.847 14.985-42.437 14.59-14.575 40.639-15 43.451-15 8.291 0 15 6.709 15 15 0 8.276-6.694 14.985-14.971 15-6.138.059-18.109 2.065-22.255 6.211-4.38 4.395-6.211 15.996-6.211 21.226 0 2.813-.425 27.847-15 42.422s-39.609 15-42.421 15z" fill="#ffe6b3"/><path d="m361.548 490.423-76.274-157.475c-3.618-7.412-12.539-10.532-20.054-6.899-7.441 3.618-10.532 12.598-6.899 20.054l36.509 74.897h-66.758-66.758l36.509-74.897c3.633-7.456.542-16.436-6.899-20.054-7.5-3.662-16.45-.542-20.054 6.899l-76.275 157.475c-3.633 7.456-.542 16.436 6.899 20.054 7.418 3.633 16.428.558 20.054-6.899l25.143-52.578h81.381 81.381l25.142 52.577c3.624 7.452 12.631 10.534 20.054 6.899 7.441-3.618 10.532-12.597 6.899-20.053z" fill="#465a61"/><path d="m334.595 503.577c3.624 7.452 12.631 10.534 20.054 6.899 7.441-3.618 10.532-12.598 6.899-20.054l-76.274-157.475c-3.618-7.412-12.539-10.532-20.054-6.899-7.441 3.618-10.532 12.598-6.899 20.054l36.509 74.898h-66.758v30h81.381z" fill="#3b4a51"/><path d="m228.072 195h-165c0 90.981 74.019 166 165 166s165-75.019 165-166z" fill="#ff7d43"/><path d="m393.072 195h-165v166c90.981 0 165-75.019 165-166z" fill="#ff4b00"/><path d="m438.072 180h-210-180c-8.284 0-15 6.716-15 15s6.716 15 15 15h180 195v15c0 8.291 6.709 15 15 15s15-6.709 15-15v-30c0-8.291-6.709-15-15-15z" fill="#596c76"/><path d="m423.072 225c0 8.291 6.709 15 15 15s15-6.709 15-15v-30c0-8.291-6.709-15-15-15h-210v30h195z" fill="#465a61"/></g></svg>