<svg id="Capa_1" enable-background="new 0 0 512.007 512.007" height="512" viewBox="0 0 512.007 512.007" width="512" xmlns="http://www.w3.org/2000/svg"><g><g><path d="m467 174.004c-8.291 0-15-6.709-15-15v-15c0-24.814-20.186-45-45-45h-30c-41.353 0-75-34.647-75-76 0-8.291 6.709-15 15-15s15 6.709 15 15c0 24.814 20.186 46 45 46h30c41.353 0 75 33.647 75 75v15c0 8.291-6.709 15-15 15z" fill="#3b4a51"/></g><g><path d="m482 144.004h-226-9.551c-116.03 0-216.449 123.721-216.449 225v45h226 150l45-30h16 30c9.131 0 16.144-8.088 14.854-17.126zm-75 120h-121c-16.569 0-30-13.431-30-30s13.431-30 30-30h121c16.569 0 30 13.431 30 30s-13.431 30-30 30z" fill="#ff7d43"/><path d="m451 384.004h16 30c9.131 0 16.144-8.088 14.854-17.126l-29.854-222.874h-226v90c0-16.569 13.431-30 30-30h121c16.569 0 30 13.431 30 30s-13.431 30-30 30h-121c-16.569 0-30-13.431-30-30v180h150z" fill="#ff4b00"/></g><g><path d="m166 324.004h-30c-8.291 0-15-6.709-15-15s6.709-15 15-15h30c8.291 0 15 6.709 15 15s-6.709 15-15 15z" fill="#465a61"/></g><path d="m497 474.004h-241-241c-8.291 0-15 6.709-15 15s6.709 15 15 15h241 241c8.291 0 15-6.709 15-15s-6.709-15-15-15z" fill="#f0f7ff"/><path d="m512 489.004c0-8.291-6.709-15-15-15h-241v30h241c8.291 0 15-6.709 15-15z" fill="#dfe7f4"/><path d="m256 384.004h-211c-24.556 0-45 19.655-45 45 0 8.401 6.599 15 15 15h241 151c8.401 0 15-6.599 15-15 0-24.901 20.099-45 45-45z" fill="#dfe7f4"/><path d="m422 429.004c0-24.901 20.099-45 45-45h-211v60h151c8.401 0 15-6.6 15-15z" fill="#c7cfe1"/></g></svg>