<svg id="Capa_1" enable-background="new 0 0 512 512" height="512" viewBox="0 0 512 512" width="512" xmlns="http://www.w3.org/2000/svg"><g><path d="m466 0h-420c-8.401 0-15 6.599-15 15v482c0 8.401 6.599 15 15 15h420c8.401 0 15-6.599 15-15v-482c0-8.401-6.599-15-15-15z" fill="#596c76"/><path d="m481 15v482c0 8.401-6.599 15-15 15h-210v-512h210c8.401 0 15 6.599 15 15z" fill="#465a61"/><path d="m451 30v452h-180l-15-30-15 30h-180v-452z" fill="#dfe7f4"/><path d="m451 30v452h-180l-15-30v-422z" fill="#c7cfe1"/><path d="m136 271c-8.291 0-15-6.709-15-15v-181c0-8.291 6.709-15 15-15s15 6.709 15 15v181c0 8.291-6.709 15-15 15z" fill="#f0f7ff"/><path d="m376 271c-8.291 0-15-6.709-15-15v-181c0-8.291 6.709-15 15-15s15 6.709 15 15v181c0 8.291-6.709 15-15 15z" fill="#dfe7f4"/><path d="m376 301h-240c-8.401 0-15 6.599-15 15v60c0 8.401 6.599 15 15 15h105v121h30v-121h105c8.401 0 15-6.599 15-15v-60c0-8.401-6.599-15-15-15z" fill="#ff7d43"/><path d="m376 301h-120v211h15v-121h105c8.401 0 15-6.599 15-15v-60c0-8.401-6.599-15-15-15z" fill="#ff4b00"/><g fill="#f0f7ff"><path d="m281.605 116.605c5.859-5.859 5.859-15.352 0-21.211s-15.352-5.859-21.211 0l-4.394 4.395-55.605 55.605c-5.859 5.859-5.859 15.352 0 21.211s15.352 5.859 21.211 0l34.394-34.394z"/><path d="m311.605 155.395c-5.859-5.859-15.352-5.859-21.211 0l-34.394 34.394-25.605 25.605c-5.859 5.859-5.859 15.352 0 21.211s15.352 5.859 21.211 0l4.395-4.395 55.605-55.605c5.859-5.859 5.859-15.351-.001-21.21z"/></g><g fill="#dfe7f4"><path d="m281.605 95.395c-5.859-5.859-15.352-5.859-21.211 0l-4.394 4.394v42.422l25.605-25.605c5.86-5.86 5.86-15.352 0-21.211z"/><path d="m311.605 155.395c-5.859-5.859-15.352-5.859-21.211 0l-34.394 34.394v42.422l55.605-55.605c5.86-5.86 5.86-15.352 0-21.211z"/></g></g></svg>