<svg id="Capa_1" enable-background="new 0 0 512 512" height="512" viewBox="0 0 512 512" width="512" xmlns="http://www.w3.org/2000/svg"><g><path d="m435.253 95.395c-5.171-36.358-36.489-65.395-74.253-65.395-11.279 0-22.192 2.549-32.241 7.456-16.758-23.174-43.828-37.456-72.759-37.456s-56.001 14.282-72.759 37.456c-10.049-4.907-20.962-7.456-32.241-7.456-37.236 0-68.218 28.275-73.916 65.307-44.722 12.685-77.084 53.32-77.084 100.693 0 47.256 32.201 87.803 76.747 100.605 5.171 36.358 36.489 65.395 74.253 65.395 11.279 0 22.192-2.549 32.241-7.456 16.758 23.174 43.828 37.456 72.759 37.456s56.001-14.282 72.759-37.456c10.049 4.907 20.962 7.456 32.241 7.456 37.236 0 68.218-28.275 73.916-65.307 44.722-12.685 77.084-53.32 77.084-100.693 0-47.256-32.201-87.803-76.747-100.605z" fill="#f0f7ff"/><path d="m328.759 354.544c10.049 4.907 20.962 7.456 32.241 7.456 37.236 0 68.218-28.275 73.916-65.307 44.722-12.685 77.084-53.32 77.084-100.693 0-47.256-32.201-87.803-76.747-100.605-5.171-36.358-36.489-65.395-74.253-65.395-11.279 0-22.192 2.549-32.241 7.456-16.758-23.174-43.828-37.456-72.759-37.456v392c28.931 0 56.001-14.282 72.759-37.456z" fill="#dfe7f4"/><path d="m346 211h-60c-6.064 0-11.543-3.647-13.857-9.258-2.329-5.61-1.04-12.056 3.252-16.348l34.394-34.394h-23.789c-8.291 0-15-6.709-15-15s6.709-15 15-15h60c6.064 0 11.543 3.647 13.857 9.258 2.329 5.61 1.04 12.056-3.252 16.348l-34.394 34.394h23.789c8.291 0 15 6.709 15 15s-6.709 15-15 15z" fill="#73bcff"/><path d="m226 271h-60c-6.064 0-11.543-3.647-13.857-9.258-2.329-5.61-1.04-12.056 3.252-16.348l34.394-34.394h-23.789c-8.291 0-15-6.709-15-15s6.709-15 15-15h60c6.064 0 11.543 3.647 13.857 9.258 2.329 5.61 1.04 12.056-3.252 16.348l-34.394 34.394h23.789c8.291 0 15 6.709 15 15s-6.709 15-15 15z" fill="#76e2f8"/><g fill="#f0f7ff"><circle cx="46" cy="497" r="15"/><path d="m136 482c-24.814 0-45-20.186-45-45s20.186-45 45-45 45 20.186 45 45-20.186 45-45 45z"/></g></g></svg>