<svg id="Capa_1" enable-background="new 0 0 512 512" height="512" viewBox="0 0 512 512" width="512" xmlns="http://www.w3.org/2000/svg"><g><g><path d="m106 0c35.2 0 67.09 30.879 70.605 34.395 2.813 2.812 4.395 6.621 4.395 10.605v61c0 3.984-1.582 7.793-4.395 10.605-3.515 3.516-35.405 34.395-70.605 34.395l-30-30v-91z" fill="#596c76"/></g><path d="m466 241c-8.291 0-15 6.709-15 15v30c0 107.52-87.48 196-195 196s-195-88.48-195-196v-30c0-8.291-6.709-15-15-15s-15 6.709-15 15v30c0 124.072 100.928 226 225 226s225-101.928 225-226v-30c0-8.291-6.709-15-15-15z" fill="#465a61"/><path d="m481 286v-30c0-8.291-6.709-15-15-15s-15 6.709-15 15v30c0 107.52-87.48 196-195 196v30c124.072 0 225-101.928 225-226z" fill="#3b4a51"/><path d="m327.367 181.454-71.367 17.842-48.633 12.158c-6.679 1.67-11.367 7.661-11.367 14.546v107.763c-4.715-1.681-9.716-2.763-15-2.763-24.814 0-45 20.186-45 45s20.186 45 45 45 45-20.186 45-45v-108.296l30-7.5 60-15v58.559c-4.715-1.681-9.716-2.763-15-2.763-24.814 0-45 20.186-45 45s20.186 45 45 45 45-20.186 45-45v-150c0-9.824-9.346-16.983-18.633-14.546z" fill="#91eb90"/><path d="m301 391c24.814 0 45-20.186 45-45v-150c0-9.824-9.346-16.983-18.633-14.546l-71.367 17.842v60.908l60-15v58.559c-4.715-1.681-9.716-2.763-15-2.763-24.814 0-45 20.186-45 45s20.186 45 45 45z" fill="#59c36a"/><g><path d="m406 0c-35.2 0-67.09 30.879-70.605 34.395-2.813 2.812-4.395 6.621-4.395 10.605v61c0 3.984 1.582 7.793 4.395 10.605 3.515 3.516 35.405 34.395 70.605 34.395l30-30v-91z" fill="#465a61"/></g><path d="m436 0h-30v151c8.276 0 15 6.724 15 15v60c0 24.814 20.186 45 45 45s46-20.186 46-45v-151c0-41.353-34.647-75-76-75z" fill="#ff4b00"/><path d="m76 0h30v151c-8.276 0-15 6.724-15 15v60c0 24.814-20.186 45-45 45s-46-20.186-46-45v-151c0-41.353 34.647-75 76-75z" fill="#ff7d43"/></g></svg>