<svg id="Capa_1" enable-background="new 0 0 512.039 512.039" height="512" viewBox="0 0 512.039 512.039" width="512" xmlns="http://www.w3.org/2000/svg"><g><path d="m430.026 44.878c-41.368-51.513-116.798-60.097-168.692-18.37-12.338 9.913-21.98 22.158-29.348 35.535-17.173 31.177-20.559 69.219-6.628 103.332l27.773-11.338c-8.8-21.546-8.339-45.205-.342-66.13 5.568-14.57 14.68-27.852 27.325-38.02 37.961-30.482 94.774-25.761 126.533 13.784 21.313 26.514 25.884 62.271 11.938 93.325l27.363 12.305c18.604-41.411 12.496-89.091-15.922-124.423z" fill="#76e2f8"/><path d="m280.113 49.887c37.961-30.482 94.774-25.761 126.533 13.784 21.313 26.514 25.884 62.271 11.938 93.325l27.363 12.305c18.604-41.411 12.495-89.092-15.923-124.424-41.365-51.512-116.796-60.097-168.69-18.369-12.338 9.913-21.98 22.158-29.348 35.535l20.803 25.864c5.568-14.569 14.679-27.852 27.324-38.02z" fill="#73bcff"/><path d="m254.244 193.911-97.661-1.802-7.324 71.982 131.265 21.753z" fill="#dfe7f4"/><path d="m147.794 285.288c-8.232-.894-14.18-8.306-13.286-16.538l9.185-84.346c.894-8.232 8.115-14.165 16.538-13.286 8.232.894 14.18 8.306 13.286 16.538l-9.185 84.346c-.884 8.132-8.173 14.166-16.538 13.286z" fill="#f0f7ff"/><g fill="#59c36a"><path d="m269.435 430.33c-3.706-7.427-12.729-10.4-20.127-6.709-.886.439-12.925 7.007-23.291 22.033-10.366-15.026-22.405-21.594-23.291-22.033-7.31-3.662-16.128-.718-19.907 6.563-3.779 7.266-.923 16.289 6.299 20.171.894.483 21.899 12.202 21.899 46.685h30c0-34.204 20.684-46.025 21.885-46.67 7.28-3.766 10.21-12.687 6.533-20.04z"/><path d="m389.435 430.33c-3.706-7.427-12.729-10.4-20.127-6.709-.886.439-12.925 7.007-23.291 22.033-10.366-15.026-22.405-21.594-23.291-22.033-7.31-3.662-16.128-.718-19.907 6.563-3.779 7.266-.923 16.289 6.299 20.171.894.483 21.899 12.202 21.899 46.685h30c0-34.204 20.684-46.025 21.885-46.67 7.28-3.766 10.21-12.687 6.533-20.04z"/><path d="m510.435 430.33c-3.706-7.427-12.729-10.4-20.127-6.709-.886.439-12.925 7.007-23.291 22.033-10.366-15.026-22.405-21.594-23.291-22.033-7.31-3.662-16.128-.718-19.907 6.563-3.779 7.266-.923 16.289 6.299 20.171.894.483 21.899 12.202 21.899 46.685h30c0-34.204 20.684-46.025 21.885-46.67 7.28-3.766 10.21-12.687 6.533-20.04z"/></g><path d="m187.017 319.039c-38.39 0-69 24-81 32.78-18.314-30.84-52.61-51.78-91-51.78-8.291 0-15 6.709-15 15 0 52.806 40.031 98.297 91 105.883v76.117c0 8.291 6.709 15 15 15s15-6.709 15-15v-77.372c48.227-15.376 73.543-100.628 66-100.628z" fill="#91eb90"/><path d="m211.017 315.039c0-8.291-6.709-15-15-15-38.39 0-71.686 20.94-90 51.78v160.22c8.291 0 15-6.709 15-15v-76.12c50.812-7.596 90-53.082 90-105.88z" fill="#59c36a"/><path d="m497.017 482.039h-391-91c-8.291 0-15 6.709-15 15s6.709 15 15 15h91 391c8.291 0 15-6.709 15-15s-6.709-15-15-15z" fill="#465a61"/><path d="m512.017 497.039c0-8.291-6.709-15-15-15h-391v30h391c8.291 0 15-6.709 15-15z" fill="#3b4a51"/><path d="m506.866 211.811-155.532-144.902c-2.717-2.542-6.167-3.893-9.666-4.025s-7.048.956-9.963 3.292l-58.555 47.047-58.383 46.908c-5.83 4.673-7.324 12.92-3.516 19.336l108.164 182.49c4.686 7.912 15.222 9.725 22.295 4.043l81.848-65.771 82.458-65.771c7.124-5.711 7.51-16.418.85-22.647z" fill="#f0f7ff"/><path d="m506.866 211.811-155.532-144.902c-2.717-2.542-6.167-3.893-9.666-4.025s-7.048.956-9.963 3.292l-58.555 47.047 150.408 187.006 82.458-65.771c7.124-5.711 7.51-16.418.85-22.647z" fill="#dfe7f4"/></g></svg>