<svg id="Capa_1" enable-background="new 0 0 512.003 512.003" height="512" viewBox="0 0 512.003 512.003" width="512" xmlns="http://www.w3.org/2000/svg"><g><path d="m316.003 120.001c-8.291 0-15 6.709-15 15 0 25.62-27.29 55.049-45 70.605-17.71-15.557-45-44.985-45-70.605 0-8.291-6.709-15-15-15-65.024 0-135 32.534-135 103.96v91.04c0 8.291 6.709 15 15 15h45l15-30 15 30v167c0 8.291 6.709 15 15 15h90 90c8.291 0 15-6.709 15-15v-167l15-30 15 30h45c8.291 0 15-6.709 15-15v-91.04c0-71.425-69.976-103.96-135-103.96z" fill="#76e2f8"/><path d="m361.003 497.001v-167l15-30 15 30h45c8.291 0 15-6.709 15-15v-91.04c0-71.426-69.976-103.96-135-103.96-8.291 0-15 6.709-15 15 0 25.62-27.29 55.049-45 70.605v306.395h90c8.291 0 15-6.709 15-15z" fill="#73bcff"/><g><g><path d="m256.001 90.004c-79.657 0-142.857-16.8-181.849-30.893-42.682-15.428-66.418-30.932-67.407-31.584-6.916-4.56-8.826-13.864-4.266-20.78 4.556-6.91 13.846-8.823 20.759-4.28.22.144 22.479 14.579 62.175 28.812 36.545 13.104 95.805 28.725 170.589 28.725 143.836 0 231.871-56.948 232.743-57.523 6.916-4.561 16.221-2.65 20.779 4.266 4.561 6.916 2.65 16.22-4.266 20.78-.989.652-24.726 16.157-67.408 31.584-38.991 14.093-102.191 30.893-181.849 30.893z" fill="#f0f7ff"/></g><path d="m505.258 27.527c6.916-4.56 8.826-13.864 4.266-20.78-4.559-6.917-13.863-8.827-20.779-4.266-.872.575-88.907 57.523-232.743 57.523v30c79.657 0 142.857-16.8 181.849-30.893 42.682-15.428 66.418-30.932 67.407-31.584z" fill="#dfe7f4"/><g><path d="m166.001 150.004c-8.284 0-15-6.716-15-15v-90c0-8.284 6.716-15 15-15s15 6.716 15 15v90c0 8.284-6.715 15-15 15z" fill="#f8bb5e"/></g><g><g><path d="m346.001 150.004c-8.284 0-15-6.716-15-15v-90c0-8.284 6.716-15 15-15s15 6.716 15 15v90c0 8.284-6.715 15-15 15z" fill="#ff9f00"/></g></g></g><path d="m376.003 240.001c-8.284 0-15 6.714-15 15v75h30v-75c0-8.285-6.716-15-15-15z" fill="#2ea6ff"/><path d="m151.003 255.001c0-8.286-6.716-15-15-15s-15 6.714-15 15v75h30z" fill="#73bcff"/></g></svg>