<svg id="Capa_1" enable-background="new 0 0 512 512" height="512" viewBox="0 0 512 512" width="512" xmlns="http://www.w3.org/2000/svg"><g><path d="m463.041 256 10.591-7.061c4.482-2.988 7.017-8.159 6.636-13.535-3.97-56.396-23.818-108.428-57.378-150.483-3.926-4.907-10.444-6.87-16.465-4.863l-6.709 2.227 2.681-8.057c1.875-5.596.293-11.748-4.028-15.747-40.006-37.061-90.572-58.481-142.369-58.481s-102.363 21.42-142.368 58.48c-4.321 3.999-5.903 10.151-4.028 15.747l2.681 8.057-6.709-2.227c-6.006-2.007-12.539-.044-16.465 4.863-33.56 42.056-53.408 94.087-57.378 150.483-.381 5.376 2.153 10.547 6.636 13.535l10.59 7.062-10.591 7.061c-4.482 2.988-7.017 8.159-6.636 13.535 3.97 56.396 23.818 108.428 57.378 150.483 3.926 4.907 10.459 6.87 16.465 4.863l6.709-2.227-2.681 8.057c-1.875 5.596-.293 11.748 4.028 15.747 40.006 37.061 90.572 58.481 142.369 58.481s102.363-21.42 142.368-58.48c4.321-3.999 5.903-10.151 4.028-15.747l-2.681-8.057 6.709 2.227c6.021 2.007 12.539.044 16.465-4.863 33.56-42.056 53.408-94.087 57.378-150.483.381-5.376-2.153-10.547-6.636-13.535zm-237.041-15c8.291 0 15 6.709 15 15 0 8.276 6.724 15 15 15s15-6.724 15-15c0-8.291 6.709-15 15-15s15 6.709 15 15c0 24.814-20.186 45-45 45s-45-20.186-45-45c0-8.291 6.709-15 15-15zm-105-60c0-16.538 20.186-30 45-30s45 13.462 45 30-20.186 30-45 30-45-13.462-45-30zm135 225c-41.353 0-75-13.462-75-30s33.647-30 75-30 75 13.462 75 30-33.647 30-75 30zm90-195c-24.814 0-45-13.462-45-30s20.186-30 45-30 45 13.462 45 30-20.186 30-45 30z" fill="#91eb90"/><path d="m402.396 437.772-2.681-8.057 6.709 2.227c6.021 2.007 12.539.044 16.465-4.863 33.56-42.056 53.408-94.087 57.378-150.483.381-5.376-2.153-10.547-6.636-13.535l-10.59-7.061 10.591-7.061c4.482-2.988 7.017-8.159 6.636-13.535-3.97-56.396-23.818-108.428-57.378-150.483-3.926-4.907-10.444-6.87-16.465-4.863l-6.709 2.227 2.681-8.057c1.875-5.596.293-11.748-4.028-15.747-40.006-37.061-90.572-58.481-142.369-58.481v271c8.276 0 15-6.724 15-15 0-8.291 6.709-15 15-15s15 6.709 15 15c0 24.814-20.186 45-45 45v45c41.353 0 75 13.462 75 30s-33.647 30-75 30v106c51.797 0 102.363-21.42 142.368-58.48 4.321-3.999 5.903-10.152 4.028-15.748zm-56.396-226.772c-24.814 0-45-13.462-45-30s20.186-30 45-30 45 13.462 45 30-20.186 30-45 30z" fill="#59c36a"/></g></svg>