<svg id="Capa_1" enable-background="new 0 0 512 512" height="512" viewBox="0 0 512 512" width="512" xmlns="http://www.w3.org/2000/svg"><g><path d="m300.224 386.254h-44.224-44.224l-30 90h74.224 74.224z" fill="#465a61"/><path d="m300.224 386.254h-44.224v90h74.224z" fill="#3b4a51"/><path d="m497 16h-241-241c-8.291 0-15 6.709-15 15v360c0 8.291 6.709 15 15 15h241 241c8.291 0 15-6.709 15-15v-360c0-8.291-6.709-15-15-15z" fill="#465a61"/><path d="m512 391v-360c0-8.291-6.709-15-15-15h-241v390h241c8.291 0 15-6.709 15-15z" fill="#3b4a51"/><path d="m256 46h-226v330h226 226v-330z" fill="#f0f7ff"/><path d="m256 46h226v330h-226z" fill="#dfe7f4"/><circle cx="256" cy="211" fill="#ff7d43" r="135"/><path d="m391 211c0-74.443-60.557-135-135-135v270c74.443 0 135-60.557 135-135z" fill="#ff4b00"/><path d="m324.32 198.52-68.32-45.548-21.68-14.453c-4.585-3.062-10.518-3.34-15.396-.747-4.877 2.608-7.924 7.691-7.924 13.228v120c0 5.537 3.047 10.62 7.925 13.228 4.81 2.58 10.745 2.353 15.396-.747l21.679-14.453 68.32-45.547c4.175-2.783 6.68-7.471 6.68-12.48s-2.505-9.698-6.68-12.481z" fill="#f0f7ff"/><path d="m331 211c0-5.01-2.505-9.697-6.68-12.48l-68.32-45.548v116.056l68.32-45.547c4.175-2.784 6.68-7.471 6.68-12.481z" fill="#dfe7f4"/><path d="m406 466h-150-150c-8.291 0-15 6.709-15 15s6.709 15 15 15h150 150c8.291 0 15-6.709 15-15s-6.709-15-15-15z" fill="#596c76"/><path d="m421 481c0-8.291-6.709-15-15-15h-150v30h150c8.291 0 15-6.709 15-15z" fill="#465a61"/></g></svg>