<svg id="Capa_1" enable-background="new 0 0 512 512" height="512" viewBox="0 0 512 512" width="512" xmlns="http://www.w3.org/2000/svg"><g><path d="m497 391-38.751-30h-69.375l-41.874 30h-91-241c-8.291 0-15 6.709-15 15v60c0 8.291 6.709 15 15 15h241 241c8.291 0 15-6.709 15-15v-60c0-8.291-6.709-15-15-15z" fill="#596c76"/><path d="m512 466v-60c0-8.291-6.709-15-15-15l-38.751-30h-69.375l-41.874 30h-91v90h241c8.291 0 15-6.709 15-15z" fill="#465a61"/><path d="m151.89 241.308c-15.674-19.043-31.89-38.731-31.89-105.308h-30-30c0 66.577-16.216 86.265-31.89 105.308-13.828 16.772-28.11 34.13-28.11 74.692 0 8.291 6.709 15 15 15h75 75c8.291 0 15-6.709 15-15 0-40.562-14.282-57.92-28.11-74.692z" fill="#465a61"/><path d="m180 316c0-40.562-14.282-57.92-28.11-74.692-15.674-19.043-31.89-38.731-31.89-105.308h-30v195h75c8.291 0 15-6.709 15-15z" fill="#3b4a51"/><path d="m30 136c0 8.291 6.709 15 15 15h45 45c8.291 0 15-6.709 15-15 0-6.161-3.724-11.428-9.031-13.737 5.622-9.131 9.031-19.771 9.031-31.263 0-33.091-26.909-60-60-60s-60 26.909-60 60c0 11.492 3.409 22.132 9.031 31.263-5.307 2.309-9.031 7.576-9.031 13.737z" fill="#596c76"/><path d="m165 241h-75-75c-8.291 0-15 6.709-15 15s6.709 15 15 15h75 75c8.291 0 15-6.709 15-15s-6.709-15-15-15z" fill="#596c76"/><path d="m150 136c0-6.161-3.724-11.428-9.031-13.737 5.622-9.131 9.031-19.771 9.031-31.263 0-33.091-26.909-60-60-60v120h45c8.291 0 15-6.709 15-15z" fill="#465a61"/><path d="m180 256c0-8.291-6.709-15-15-15h-75v30h75c8.291 0 15-6.709 15-15z" fill="#465a61"/><path d="m483.89 301.308c-15.674-19.043-31.89-38.731-31.89-105.308h-30-30c0 66.577-16.216 86.265-31.89 105.308-13.828 16.772-28.11 34.13-28.11 74.692 0 8.291 6.709 15 15 15h75 75c8.291 0 15-6.709 15-15 0-40.562-14.282-57.92-28.11-74.692z" fill="#ffe6b3"/><path d="m512 376c0-40.562-14.282-57.92-28.11-74.692-15.674-19.043-31.89-38.731-31.89-105.308h-30v195h75c8.291 0 15-6.709 15-15z" fill="#ffca80"/><path d="m362 196c0 8.291 6.709 15 15 15h45 45c8.291 0 15-6.709 15-15 0-6.161-3.724-11.428-9.031-13.737 5.622-9.131 9.031-19.771 9.031-31.263 0-33.091-26.909-60-60-60s-60 26.909-60 60c0 11.492 3.409 22.132 9.031 31.263-5.307 2.309-9.031 7.576-9.031 13.737z" fill="#fff7cc"/><path d="m497 301h-75-75c-8.291 0-15 6.709-15 15s6.709 15 15 15h75 75c8.291 0 15-6.709 15-15s-6.709-15-15-15z" fill="#fff7cc"/><g fill="#ffe6b3"><path d="m482 196c0-6.161-3.724-11.428-9.031-13.737 5.622-9.131 9.031-19.771 9.031-31.263 0-33.091-26.909-60-60-60v120h45c8.291 0 15-6.709 15-15z"/><path d="m512 316c0-8.291-6.709-15-15-15h-75v30h75c8.291 0 15-6.709 15-15z"/></g></g></svg>