<svg id="Capa_1" enable-background="new 0 0 512.001 512.001" height="512" viewBox="0 0 512.001 512.001" width="512" xmlns="http://www.w3.org/2000/svg"><g><path d="m450.424 61.577c-38.025-38.025-90.525-61.576-148.423-61.576-115.796 0-210 94.204-210 210 0 57.898 23.551 110.398 61.577 148.423s90.526 61.577 148.423 61.577c115.796 0 210-94.204 210-210 0-57.898-23.551-110.398-61.577-148.424z" fill="#dfe7f4"/><path d="m512.001 210.001c0-57.898-23.551-110.398-61.577-148.423l-296.847 296.846c38.026 38.026 90.526 61.577 148.423 61.577 115.796 0 210.001-94.204 210.001-210z" fill="#c7cfe1"/><path d="m429.281 82.72c-32.574-32.573-77.574-52.72-127.28-52.72-99.412 0-180 80.588-180 180 0 49.706 20.147 94.706 52.722 127.278 32.573 32.574 77.573 52.722 127.278 52.722 99.412 0 180-80.588 180-180 0-49.705-20.148-94.705-52.72-127.28z" fill="#f0f7ff"/><path d="m482.001 210.001c0-49.706-20.147-94.706-52.72-127.28l-254.559 254.558c32.573 32.574 77.573 52.722 127.278 52.722 99.412 0 180.001-80.589 180.001-180z" fill="#dfe7f4"/><path d="m335.08 261.393-42.235-42.237-42.111-42.109c-23.35-23.35-61.494-23.511-85.107-.249-15.513 15.513-22.822 34.541-29.912 52.939-6.226 16.201-12.114 31.509-23.115 42.51-11.016 11.016-26.323 16.904-42.524 23.13-18.398 7.09-37.441 14.399-53.877 30.879-22.5 23.218-21.431 61.509 2.402 85.356l40.895 40.893 41.019 41.021c23.679 23.652 61.985 25.076 86.323 1.465 15.513-15.498 22.822-34.541 29.912-52.939 6.226-16.201 12.114-31.509 23.13-42.524 11.001-11.001 26.309-16.89 42.51-23.115 18.398-7.09 37.427-14.399 53.027-30 23.159-23.525 23.013-61.67-.337-85.02z" fill="#ffe470"/><path d="m186.838 494.992c15.513-15.498 22.822-34.541 29.912-52.939 6.226-16.201 12.114-31.509 23.13-42.524 11.001-11.001 26.309-16.89 42.51-23.115 18.398-7.09 37.427-14.399 53.027-30 23.159-23.525 23.013-61.67-.337-85.02l-42.235-42.237-233.35 233.35 41.019 41.021c23.68 23.651 61.985 25.076 86.324 1.464z" fill="#f8bb5e"/><path d="m166.733 345.269c-8.143-8.11-19.362-13.138-31.736-13.138-24.814 0-45 20.186-45 45 0 12.374 5.028 23.593 13.138 31.736 8.154 8.187 19.422 13.264 31.862 13.264 24.814 0 45-20.186 45-45 0-12.44-5.078-23.709-13.264-31.862z" fill="#f8bb5e"/><path d="m134.997 422.131c24.814 0 45-20.186 45-45 0-12.44-5.078-23.708-13.264-31.862l-63.598 63.598c8.153 8.186 19.422 13.264 31.862 13.264z" fill="#ff9f00"/><g><circle cx="224.997" cy="257.132" fill="#f8bb5e" r="15"/></g><g><circle cx="224.997" cy="317.132" fill="#ff9f00" r="15"/></g><path d="m75.001 60.001h-15v-15c0-8.291-6.709-15-15-15s-15 6.709-15 15v15h-15c-8.291 0-15 6.709-15 15s6.709 15 15 15h15v15c0 8.291 6.709 15 15 15s15-6.709 15-15v-15h15c8.291 0 15-6.709 15-15s-6.709-15-15-15z" fill="#dfe7f4"/><path d="m437.001 180.001h-15v-15c0-8.291-6.709-15-15-15s-15 6.709-15 15v15h-15c-8.291 0-15 6.709-15 15s6.709 15 15 15h15v15c0 8.291 6.709 15 15 15s15-6.709 15-15v-15h15c8.291 0 15-6.709 15-15s-6.709-15-15-15z" fill="#c7cfe1"/></g></svg>