<svg id="Capa_1" enable-background="new 0 0 512 512" height="512" viewBox="0 0 512 512" width="512" xmlns="http://www.w3.org/2000/svg"><g><path d="m89.931 70.434c-2.285-5.699-7.793-9.434-13.931-9.434h-61c-8.291 0-15 6.709-15 15s6.709 15 15 15h50.849l55.151 120 21.929 39.692 19.003-21.476z" fill="#465a61"/><path d="m334.095 193.891c-19.149-7.147-39.531-15.74-63.095-23.383-9.029-2.93-18.556-5.74-29.092-8.243-25.054-6.031-49.417 10.714-54.287 35.068l-5.933 29.648 89.312 26.238 85.067 24.695 6.606-33.032c4.351-21.724-7.675-43.169-28.578-50.991z" fill="#465a61"/><path d="m362.674 244.882c4.351-21.724-7.676-43.169-28.579-50.991-19.149-7.147-39.531-15.74-63.095-23.383v82.711l85.067 24.695z" fill="#3b4a51"/><path d="m444.119 309.071c-11.25-22.617-32.754-37.881-57.539-40.825-40.62-4.819-67.548-15.19-95.014-26.177-6.639-2.657-13.511-5.303-20.566-7.905-32.992-12.17-72.228-22.834-135-23.164h-15l-29.692 162.056c-.879 4.409.264 8.979 3.105 12.451 2.856 3.472 7.104 5.493 11.602 5.493h164.985 156.581c5.045 0 10.027-2.509 12.605-6.844 14.282-24.018 15.703-51.427 3.933-75.085z" fill="#ff7d43"/><path d="m440.186 384.156c14.282-24.018 15.703-51.427 3.933-75.084-11.25-22.617-32.754-37.881-57.539-40.825-40.62-4.819-67.548-15.19-95.014-26.177-6.639-2.657-13.511-5.303-20.566-7.905v156.835h156.581c5.045 0 10.027-2.509 12.605-6.844z" fill="#ff4b00"/><path d="m437 451c-41.353 0-75-33.647-75-75s33.647-75 75-75 75 33.647 75 75-33.647 75-75 75z" fill="#465a61"/><path d="m437 331c-24.814 0-45 20.186-45 45s20.186 45 45 45 45-20.186 45-45-20.186-45-45-45z" fill="#dfe7f4"/><circle cx="437" cy="376" fill="#465a61" r="15"/><path d="m121 451c-49.629 0-90-40.371-90-90s40.371-90 90-90 90 40.371 90 90-40.371 90-90 90z" fill="#596c76"/><path d="m121 301c-33.091 0-60 26.909-60 60s26.909 60 60 60 60-26.909 60-60-26.909-60-60-60z" fill="#f0f7ff"/><circle cx="121" cy="361" fill="#596c76" r="15"/><path d="m317 301h-46-15c-8.291 0-15 6.709-15 15s6.709 15 15 15h15 46c8.291 0 15-6.709 15-15s-6.709-15-15-15z" fill="#596c76"/><path d="m332 316c0-8.291-6.709-15-15-15h-46v30h46c8.291 0 15-6.709 15-15z" fill="#465a61"/></g></svg>