<svg id="Capa_1" enable-background="new 0 0 512 512" height="512" viewBox="0 0 512 512" width="512" xmlns="http://www.w3.org/2000/svg"><g><path d="m499.52 7.279c-5.231-1.328-11.131-2.584-17.52-3.686l-30 75.024-196-.029-196-.029-30-74.902c-6.797 1.154-13.046 2.49-18.618 3.9-6.694 1.671-11.382 7.676-11.382 14.561v294.512c0 8.578 9.247 16.901 19.863 14.238 41.602-10.562 127.372-17.095 227.143 57.759 2.666 2.007 5.83 3.003 8.994 3.003s6.328-.996 8.994-3.003c82.819-62.075 163.859-73.813 228.373-57.437 9.523 2.364 18.633-4.872 18.633-14.561v-294.511c0-6.87-5.83-13.154-12.48-14.839z" fill="#a34f3e"/><path d="m493.367 331.19c9.523 2.364 18.633-4.872 18.633-14.561v-294.511c0-6.87-5.83-13.154-12.48-14.839-5.231-1.328-11.131-2.584-17.52-3.686l-30 75.024-196-.029v313.042c3.164 0 6.328-.996 8.994-3.003 82.819-62.075 163.86-73.814 228.373-57.437z" fill="#873f2e"/><path d="m256 63.544c-93.272-66.321-175.996-68.375-226-59.887v294.413c13.726-2.373 27.905-3.574 42.349-3.574 61.987 0 124.375 21.37 183.651 63.55.005.004.009.005.015.009 58.638-41.616 122.465-63.545 183.3-63.545 14.414 0 28.726 1.216 42.686 3.618v-294.535c-49.2-8.49-132.236-6.742-226.001 59.951z" fill="#f0f7ff"/><path d="m439.314 294.511c14.414 0 28.726 1.216 42.686 3.618v-294.536c-49.199-8.491-132.235-6.742-226 59.951v294.503c.005.004.009.005.015.009 58.637-41.617 122.464-63.545 183.299-63.545z" fill="#dfe7f4"/><g><path d="m189.408 143.075c-37.646-18.413-76.864-28.022-114.613-28.55-8.291-.117-14.912-6.928-14.795-15.205.103-8.291 5.757-14.897 15.205-14.795 42.217.586 85.741 11.221 127.387 31.597 7.441 3.647 10.518 12.627 6.885 20.068-3.673 7.49-12.696 10.495-20.069 6.885z" fill="#dfe7f4"/></g><g><path d="m189.408 203.075c-37.646-18.413-76.864-28.022-114.613-28.55-8.291-.117-14.912-6.929-14.795-15.205.103-8.291 5.757-15.425 15.205-14.795 42.217.586 85.741 11.221 127.387 31.597 7.441 3.647 10.518 12.627 6.885 20.068-3.673 7.49-12.696 10.495-20.069 6.885z" fill="#dfe7f4"/></g><g><path d="m189.408 263.075c-37.646-18.413-76.864-28.022-114.613-28.55-8.291-.117-14.912-6.929-14.795-15.205.117-8.218 6.812-14.795 15-14.795h.205c42.217.586 85.741 11.221 127.387 31.597 7.441 3.647 10.518 12.627 6.885 20.068-3.673 7.49-12.696 10.495-20.069 6.885z" fill="#dfe7f4"/></g><g><g><path d="m317.015 144.599c-5.552 0-10.884-3.091-13.491-8.408-3.633-7.441-.557-16.421 6.885-20.068 41.646-20.376 84.17-31.011 126.387-31.597 7.852.029 15.088 6.504 15.205 14.795.117 8.276-6.504 15.088-14.795 15.205-37.749.527-75.967 10.137-113.613 28.55-2.125 1.039-4.366 1.523-6.578 1.523z" fill="#c7cfe1"/></g></g><path d="m407 148c-14.46.039-56.868 8.682-96.592 28.122-7.441 3.647-10.518 12.627-6.885 20.068 3.673 7.489 12.695 10.494 20.068 6.885 27.462-13.438 55.51-21.162 83.408-25.114v-29.961z" fill="#c7cfe1"/><g><g><path d="m451.194 251.122-29.897-93.806c-1.978-6.211-8.137-9.316-14.297-9.316s-12.319 3.105-14.297 9.316l-29.897 93.806c-.513 1.494-.791 3.208-.806 4.878l20.624 30h24.376 23.438l21.562-30c-.044-1.553-.322-3.472-.806-4.878z" fill="#ffe1ba"/></g><g><path d="m452 256c-.044-1.553-.322-3.472-.806-4.878l-29.897-93.806c-1.978-6.211-8.137-9.316-14.297-9.316v138h23.438z" fill="#ffbfab"/></g><g><path d="m407 256h-45v241c0 8.291 6.709 15 15 15h30 30c8.291 0 15-6.709 15-15 0 0 0-240.985 0-241z" fill="#ffe470"/></g><g><path d="m452 497s0-240.985 0-241h-45v256h30c8.291 0 15-6.709 15-15z" fill="#f8bb5e"/></g></g></g></svg>