<svg id="Capa_1" enable-background="new 0 0 512 512" height="512" viewBox="0 0 512 512" width="512" xmlns="http://www.w3.org/2000/svg"><g><path d="m181 15h90v60h-90z" fill="#dfe7f4"/><path d="m226 15h45v60h-45z" fill="#c7cfe1"/><path d="m226 60c-124.2 0-226 101.8-226 226s101.8 226 226 226 226-101.8 226-226-101.8-226-226-226z" fill="#f8bb5e"/><path d="m301 15c0 8.399-6.599 15-15 15h-120c-8.401 0-15-6.601-15-15 0-8.401 6.599-15 15-15h120c8.401 0 15 6.599 15 15z" fill="#f0f7ff"/><path d="m286 30h-60v-30h60c8.401 0 15 6.599 15 15 0 8.399-6.599 15-15 15z" fill="#dfe7f4"/><path d="m452 286c0 124.2-101.8 226-226 226v-452c124.2 0 226 101.8 226 226z" fill="#ff9f00"/><path d="m226 121c-90.901 0-165 74.099-165 165 0 90.899 74.099 165 165 165s165-74.101 165-165c0-90.901-74.099-165-165-165z" fill="#f0f7ff"/><path d="m391 286c0 90.899-74.099 165-165 165v-330c90.901 0 165 74.099 165 165z" fill="#dfe7f4"/><path d="m217.211 226 19.395-19.395c5.859-5.859 5.859-15.352 0-21.211s-15.352-5.859-21.211 0l-19.395 19.395-19.395-19.395c-5.859-5.859-15.352-5.859-21.211 0s-5.859 15.352 0 21.211l19.395 19.395-19.395 19.395c-5.859 5.859-5.859 15.352 0 21.211s15.352 5.859 21.211 0l19.395-19.395 19.395 19.395c5.859 5.859 15.352 5.859 21.211 0s5.859-15.352 0-21.211z" fill="#ff7d43"/><path d="m497 241c-8.291 0-15 6.709-15 15v135c0 49.629-41.371 90-91 90s-90-40.371-90-90v-15c0-3.984-1.582-7.793-4.395-10.605l-19.394-19.395 19.395-19.395c5.859-5.859 5.859-15.352 0-21.211s-15.352-5.859-21.211 0l-19.395 19.395-19.395-19.395c-5.859-5.859-15.352-5.859-21.211 0s-5.859 15.352 0 21.211l19.395 19.395-19.395 19.395c-5.859 5.859-5.859 15.352 0 21.211s15.352 5.859 21.211 0l19.395-19.395 15 15v8.789c0 66.167 53.833 120 120 120s121-53.833 121-120v-135c0-8.291-6.709-15-15-15z" fill="#ff4b00"/></g></svg>