<svg id="Capa_1" enable-background="new 0 0 512 512" height="512" viewBox="0 0 512 512" width="512" xmlns="http://www.w3.org/2000/svg"><g><path d="m301 407c-12.599 0-24.901.3-36.899.599l-30 44.401 30 44.399c11.998.301 24.3.601 36.899.601 78.3 0 211-5.7 211-45s-132.7-45-211-45z" fill="#596c76"/><path d="m301 497c78.3 0 211-5.7 211-45h-277.899l30 44.399c11.998.301 24.3.601 36.899.601z" fill="#465a61"/><path d="m264.101 407.599c-34.074.947-72.468 3.569-105.601 8.701v35.7 35.7c33.3 5.158 71.768 7.758 105.601 8.699 4.498-14.099 6.899-29.099 6.899-44.399s-2.401-30.3-6.899-44.401z" fill="#f0f7ff"/><path d="m264.101 496.399c4.498-14.099 6.899-29.099 6.899-44.399h-112.5v35.7c33.3 5.158 71.768 7.758 105.601 8.699z" fill="#dfe7f4"/><path d="m497 0h-241-241c-8.291 0-15 6.709-15 15v332c0 8.291 6.709 15 15 15h241 241c8.291 0 15-6.709 15-15v-332c0-8.291-6.709-15-15-15z" fill="#a34f3e"/><path d="m512 347v-332c0-8.291-6.709-15-15-15h-241v362h241c8.291 0 15-6.709 15-15z" fill="#873f2e"/><path d="m256 30h-226v163.552l45.634 80.059h.293l180.073 13.561 180.381 13.583h.293l45.326-80.312v-190.443z" fill="#ffe470"/><path d="m436.674 300.755 45.326-80.312v-190.443h-226v257.172l180.381 13.583z" fill="#f8bb5e"/><g><path d="m76 197.688c-8.291 0-15-6.709-15-15v-64.38c0-8.291 6.709-15 15-15s15 6.709 15 15v64.38c0 8.291-6.709 15-15 15z" fill="#465a61"/></g><g><path d="m136 183.611c-8.291 0-15-6.709-15-15v-60c0-8.291 6.709-15 15-15s15 6.709 15 15v60c0 8.291-6.709 15-15 15z" fill="#465a61"/></g><g><g><path d="m346 152c-24.814 0-45-20.186-45-45s20.186-45 45-45 45 20.186 45 45-20.186 45-45 45z" fill="#fff7cc"/></g></g><path d="m420.658 261.182-24.905 36.49 5.682 34.328h80.565v-111.557c-19.713 19.327-40.904 32.516-61.342 40.739z" fill="#59c36a"/><path d="m256 133.704c-8.291 0-15 6.709-15 15v78.296c0 8.291 6.709 15 15 15s15-6.709 15-15v-78.296c0-8.291-6.709-15-15-15z" fill="#465a61"/><path d="m271 227v-78.296c0-8.291-6.709-15-15-15v108.296c8.291 0 15-6.709 15-15z" fill="#3b4a51"/><path d="m357.823 269.014c-35.057-5.841-66.163-27.565-91.218-52.619-3.517-3.517-7.062-6.707-10.605-9.921-74.879-67.912-155.946-68.188-226-12.922v138.448h226 42.228l87.541-29.108z" fill="#91eb90"/><path d="m385.769 302.892-27.946-33.878c-35.057-5.841-66.163-27.565-91.218-52.619-3.517-3.517-7.062-6.707-10.605-9.921v125.526h42.228z" fill="#59c36a"/><path d="m357.823 269.014c-2.617 27.792-35.017 49.485-59.595 62.986h103.207c8.619-17.831 18.241-43.812 19.222-70.818-17.489 7.037-40.877 11.496-62.834 7.832z" fill="#ffe6b3"/><path d="m121 392c-26.47 0-41.045 12.612-53.892 23.745-13.169 11.397-25.55 21.255-52.108 21.255-6.46 0-12.188 4.131-14.224 10.254-.527 1.576-.053 3.146-.047 4.746.013 4.612 1.437 9.126 5.277 11.997 2.607 1.963 65.556 48.003 114.994 48.003 33.091 0 60-26.909 60-60s-26.909-60-60-60z" fill="#ff7d43"/><path d="m6.006 463.997c2.607 1.963 65.556 48.003 114.994 48.003 33.091 0 60-26.909 60-60h-180.271c.013 4.612 1.437 9.126 5.277 11.997z" fill="#ff4b00"/></g></svg>