<svg id="Capa_1" enable-background="new 0 0 512 512" height="512" viewBox="0 0 512 512" width="512" xmlns="http://www.w3.org/2000/svg"><g><path d="m196.776 229.761c-.146-.41-14.531-42.29-49.102-76.875-5.859-5.859-5.859-15.352 0-21.211s15.352-5.859 21.211 0c39.771 39.771 55.693 86.602 56.338 88.579 2.622 7.852-1.611 16.333-9.463 18.955-7.838 2.613-16.338-1.584-18.984-9.448z" fill="#91eb90"/><path d="m296.239 239.209c-7.852-2.622-12.085-11.104-9.463-18.955.645-1.978 16.567-48.809 56.338-88.579 5.859-5.859 15.352-5.859 21.211 0s5.859 15.352 0 21.211c-34.57 34.585-48.955 76.465-49.102 76.875-2.642 7.855-11.135 12.064-18.984 9.448z" fill="#59c36a"/><path d="m256 120c-8.291 0-15 6.709-15 15v90c0 8.291 6.709 15 15 15s15-6.709 15-15v-90c0-8.291-6.709-15-15-15z" fill="#91eb90"/><path d="m271 225v-90c0-8.291-6.709-15-15-15v120c8.291 0 15-6.709 15-15z" fill="#59c36a"/><path d="m343.114 152.886c-29.224-29.238-29.224-76.831 0-106.069l42.422-42.422c5.859-5.859 15.352-5.859 21.211 0 17.329 17.329 24.39 41.104 21.182 63.677 22.69-3.223 46.362 3.867 63.677 21.182 5.859 5.859 5.859 15.352 0 21.211l-42.422 42.422c-29.238 29.236-76.83 29.239-106.07-.001z" fill="#ff4b00"/><path d="m256 0c-33.75 0-45 70.942-45 90 0 33.647 19.761 60 45 60s45-26.353 45-60c0-19.058-11.25-90-45-90z" fill="#ff7d43"/><path d="m301 90c0-19.058-11.25-90-45-90v150c25.239 0 45-26.353 45-60z" fill="#ff4b00"/><path d="m349.911 314.839c-9.302-11.221-18.911-22.822-18.911-29.839 0-19.351 18.501-42.231 25.62-49.409 4.277-4.307 5.552-10.752 3.223-16.348s-7.793-9.243-13.843-9.243h-90-90c-6.05 0-11.514 3.647-13.843 9.243s-1.055 12.041 3.223 16.348c7.119 7.178 25.62 30.058 25.62 49.409 0 7.017-9.609 18.618-18.911 29.839-17.344 20.932-41.089 50.614-41.089 91.161 0 67.119 42.583 105.414 120 106h15 15 .117c77.3-.586 119.883-38.881 119.883-106 0-40.547-23.745-70.229-41.089-91.161z" fill="#f0f7ff"/><path d="m271.117 512c77.3-.586 119.883-38.881 119.883-106 0-40.547-23.745-70.229-41.089-91.161-9.302-11.221-18.911-22.822-18.911-29.839 0-19.351 18.501-42.231 25.62-49.409 4.277-4.307 5.552-10.752 3.223-16.348s-7.793-9.243-13.843-9.243h-90v302h15z" fill="#dfe7f4"/><path d="m62.816 152.886-42.422-42.422c-5.859-5.859-5.859-15.352 0-21.211 17.3-17.329 40.957-24.434 63.677-21.182-3.208-22.573 3.853-46.348 21.182-63.677 5.859-5.859 15.352-5.859 21.211 0l42.422 42.422c29.224 29.238 29.224 76.831 0 106.069-29.169 29.169-76.77 29.3-106.07.001z" fill="#ff7d43"/></g></svg>