<svg id="Capa_1" enable-background="new 0 0 512 512" height="512" viewBox="0 0 512 512" width="512" xmlns="http://www.w3.org/2000/svg"><g><path d="m90.385 25.78c-19.497 15.922-29.385 39.291-29.385 67.489 0 33.091 26.909 60 60 60 16.025 0 31.084-6.24 43.608-18.911l73.243-129.335c-3.985-.806-98.189-19.453-147.466 20.757z" fill="#c86e59"/><path d="m421.615 25.796c-49.277-40.224-143.481-21.592-147.466-20.757l74.429 130.668c11.338 11.338 26.396 17.578 42.422 17.578 35.757 0 60-26.909 60-60 0-28.198-9.888-51.566-29.385-67.489z" fill="#a34f3e"/><path d="m256 0c-83.086 0-150 99.467-150 181 0 70.93 50.411 114.359 135 119.068l15-29.068 15 29.068c84.589-4.709 135-48.138 135-119.068 0-81.533-66.914-181-150-181z" fill="#ffe470"/><path d="m406 181c0-81.533-66.914-181-150-181v271l15 29.068c84.589-4.709 135-48.138 135-119.068z" fill="#f8bb5e"/><path d="m497 166c-24.853 0-45 20.147-45 45v82.192l-63.3 100.269-32.739-49.116c-8.892-13.301-28.33-17.183-41.602-8.306-13.755 9.155-17.49 27.817-8.32 41.602l54.961 82.441v36.918c0 8.291 6.709 15 15 15h91c8.291 0 15-6.709 15-15v-23.896c14.439-61.087 22.089-88.971 26.083-110.377 2.399-12.858 3.478-23.378 3.917-37.352v-144.375c0-8.286-6.716-15-15-15z" fill="#ffbfab"/><g><path d="m206.605 155.395c-5.859-5.859-15.352-5.859-21.211 0s-15.352 5.859-21.211 0-5.859-15.352 0-21.211c17.549-17.549 46.084-17.549 63.633 0 5.859 5.859 5.859 15.352 0 21.211s-15.351 5.859-21.211 0z" fill="#465a61"/></g><g><path d="m326.605 155.395c-5.859-5.859-15.352-5.859-21.211 0s-15.352 5.859-21.211 0-5.859-15.352 0-21.211c17.549-17.549 46.084-17.549 63.633 0 5.859 5.859 5.859 15.352 0 21.211s-15.351 5.859-21.211 0z" fill="#3b4a51"/></g><path d="m15 166c24.853 0 45 20.147 45 45v82.192l63.3 100.269 32.739-49.116c8.892-13.301 28.33-17.183 41.602-8.306 13.755 9.155 17.49 27.817 8.32 41.602l-54.961 82.441v36.918c0 8.291-6.709 15-15 15h-91c-8.291 0-15-6.709-15-15v-23.896c-14.439-61.086-22.089-88.971-26.083-110.377-2.399-12.857-3.478-23.378-3.917-37.352v-144.375c0-8.286 6.716-15 15-15z" fill="#ffe1ba"/><path d="m256 168.578c-27.759 0-45 10.503-45 27.422 0 19.53 12.578 36.024 30 42.237v61.831c5.03.28 9.728.932 15 .932s9.97-.652 15-.932v-61.831c17.422-6.213 30-22.707 30-42.237 0-16.919-17.241-27.422-45-27.422z" fill="#465a61"/><path d="m271 238.237c17.422-6.213 30-22.707 30-42.237 0-16.919-17.241-27.422-45-27.422v132.422c5.272 0 9.97-.652 15-.932z" fill="#3b4a51"/></g></svg>