<svg id="Capa_1" enable-background="new 0 0 512 512" height="512" viewBox="0 0 512 512" width="512" xmlns="http://www.w3.org/2000/svg"><g><path d="m377 30h-181-181c-8.291 0-15 6.709-15 15v452c0 8.291 6.709 15 15 15h181 181c8.291 0 15-6.709 15-15v-452c0-8.291-6.709-15-15-15z" fill="#a34f3e"/><path d="m392 497v-452c0-8.291-6.709-15-15-15h-181v482h181c8.291 0 15-6.709 15-15z" fill="#873f2e"/><path d="m256 60-26.719-30h-33.281-36.562l-23.438 30h-106v422h166 166v-422z" fill="#f0f7ff"/><path d="m362 60h-106l-26.719-30h-33.281v452h166z" fill="#dfe7f4"/><path d="m157.211 196 19.395-19.395c5.859-5.859 5.859-15.352 0-21.211s-15.352-5.859-21.211 0l-19.395 19.395-19.395-19.395c-5.859-5.859-15.352-5.859-21.211 0s-5.859 15.352 0 21.211l19.395 19.395-19.395 19.395c-5.859 5.859-5.859 15.352 0 21.211s15.351 5.86 21.211 0l19.395-19.395 19.395 19.395c5.859 5.859 15.351 5.86 21.211 0 5.859-5.859 5.859-15.352 0-21.211z" fill="#ff7d43"/><path d="m277.211 376 19.395-19.395c5.859-5.859 5.859-15.352 0-21.211s-15.352-5.859-21.211 0l-19.395 19.395-19.395-19.395c-5.859-5.859-15.352-5.859-21.211 0s-5.859 15.352 0 21.211l19.395 19.395-19.395 19.395c-5.859 5.859-5.859 15.352 0 21.211s15.351 5.86 21.211 0l19.395-19.395 19.395 19.395c5.859 5.859 15.351 5.86 21.211 0 5.859-5.859 5.859-15.352 0-21.211z" fill="#ff4b00"/><g><path d="m511.194 161.122-29.897-90.806c-1.978-6.211-8.137-9.316-14.297-9.316s-12.319 3.105-14.297 9.316l-29.897 90.806c-.513 1.494-.791 3.208-.806 4.878l20.624 30h24.376 23.438l21.562-30c-.044-1.553-.322-3.472-.806-4.878z" fill="#ffe1ba"/><path d="m512 166c-.044-1.553-.322-3.472-.806-4.878l-29.897-90.806c-1.978-6.211-8.137-9.316-14.297-9.316v135h23.438z" fill="#ffbfab"/><path d="m467 166h-45v301c0 8.291 6.709 15 15 15h30 30c8.291 0 15-6.709 15-15 0 0 0-300.985 0-301z" fill="#ffe470"/><path d="m512 467s0-300.985 0-301h-45v316h30c8.291 0 15-6.709 15-15z" fill="#f8bb5e"/></g><path d="m256 0h-60-60c-8.291 0-15 6.709-15 15v30c0 8.291 6.709 15 15 15h60 60c8.291 0 15-6.709 15-15v-30c0-8.291-6.709-15-15-15z" fill="#596c76"/><path d="m271 45v-30c0-8.291-6.709-15-15-15h-60v60h60c8.291 0 15-6.709 15-15z" fill="#465a61"/><path d="m326.605 155.395-30-30c-5.859-5.859-15.352-5.859-21.211 0l-30 30c-5.859 5.859-5.859 15.352 0 21.211s15.352 5.859 21.211 0l4.395-4.395v83.789c0 8.276-6.724 15-15 15h-60-60c-24.814 0-45 20.186-45 45v60c0 8.291 6.709 15 15 15s15-6.709 15-15v-60c0-8.276 6.724-15 15-15h60 60c24.814 0 45-20.186 45-45v-83.789l4.395 4.395c5.859 5.859 15.352 5.859 21.211 0s5.859-15.352-.001-21.211z" fill="#596c76"/><path d="m301 256v-83.789l4.395 4.395c5.859 5.859 15.352 5.859 21.211 0s5.859-15.352 0-21.211l-30-30c-5.859-5.859-15.352-5.859-21.211 0l-30 30c-5.859 5.859-5.859 15.352 0 21.211s15.352 5.859 21.211 0l4.395-4.395v83.789c0 8.276-6.724 15-15 15h-60v30h60c24.813 0 44.999-20.186 44.999-45z" fill="#465a61"/><path d="m106 451c-24.814 0-45-20.186-45-45s20.186-45 45-45 45 20.186 45 45-20.186 45-45 45z" fill="#91eb90"/></g></svg>