<svg id="Capa_1" enable-background="new 0 0 512 512" height="512" viewBox="0 0 512 512" width="512" xmlns="http://www.w3.org/2000/svg"><g><g><path d="m346 0h-90-90c-24.814 0-45 20.186-45 45v422c0 24.814 20.186 45 45 45h90 90c24.814 0 45-20.186 45-45v-422c0-24.814-20.186-45-45-45z" fill="#465a61"/><path d="m391 467v-422c0-24.814-20.186-45-45-45h-90v512h90c24.814 0 45-20.186 45-45z" fill="#3b4a51"/><path d="m361 45v422c0 8.401-6.599 15-15 15h-180c-8.401 0-15-6.599-15-15v-422c0-8.401 6.599-15 15-15h180c8.401 0 15 6.599 15 15z" fill="#f0f7ff"/><path d="m361 45v422c0 8.401-6.599 15-15 15h-90v-452h90c8.401 0 15 6.599 15 15z" fill="#dfe7f4"/><circle cx="256" cy="75" fill="#76e2f8" r="15"/><path d="m286 422h-30-30c-8.291 0-15 6.709-15 15s6.709 15 15 15h30 30c8.291 0 15-6.709 15-15s-6.709-15-15-15z" fill="#76e2f8"/><g fill="#73bcff"><path d="m301 437c0-8.291-6.709-15-15-15h-30v30h30c8.291 0 15-6.709 15-15z"/><path d="m271 75c0-8.284-6.716-15-15-15v30c8.284 0 15-6.716 15-15z"/></g></g><path d="m166 121h-91c-41.4 0-75 33.6-75 75s33.6 75 75 75h136v15c0 8.399 6.599 15 15 15s15-6.601 15-15v-90c0-41.4-33.6-75-75-75z" fill="#ffe470"/><path d="m241 196v90c0 8.399-6.599 15-15 15s-15-6.601-15-15v-15h-90v-150h45c41.4 0 75 33.6 75 75z" fill="#f8bb5e"/><path d="m181 196c0 8.399-6.599 15-15 15h-91c-8.401 0-15-6.601-15-15 0-8.401 6.599-15 15-15h91c8.401 0 15 6.599 15 15z" fill="#596c76"/><path d="m181 196c0 8.399-6.599 15-15 15h-45v-30h45c8.401 0 15 6.599 15 15z" fill="#465a61"/><path d="m437 181h-91c-41.4 0-75 33.6-75 75v90c0 8.399 6.599 15 15 15s15-6.601 15-15v-15h136c41.4 0 75-33.6 75-75s-33.6-75-75-75z" fill="#ff7d43"/><path d="m512 256c0 41.4-33.6 75-75 75h-46v-150h46c41.4 0 75 33.6 75 75z" fill="#ff4b00"/></g></svg>